<svg xmlns="http://www.w3.org/2000/svg" width="12" height="12" viewBox="0 0 12 12" fill="none">
  <path d="M6.00008 0.166626C2.78358 0.166626 0.166748 2.78346 0.166748 5.99996C0.166748 9.21646 2.78358 11.8333 6.00008 11.8333C9.21658 11.8333 11.8334 9.21646 11.8334 5.99996C11.8334 2.78346 9.21658 0.166626 6.00008 0.166626ZM8.49704 4.99692L5.58037 7.91359C5.49492 7.99904 5.38292 8.04163 5.27092 8.04163C5.15892 8.04163 5.04691 7.99904 4.96146 7.91359L3.50312 6.45525C3.33221 6.28433 3.33221 6.00754 3.50312 5.83663C3.67404 5.66571 3.95083 5.66571 4.12175 5.83663L5.27062 6.9855L7.87783 4.37829C8.04875 4.20738 8.32554 4.20738 8.49646 4.37829C8.66737 4.54921 8.66767 4.826 8.49704 4.99692Z" fill="#FF8D52"/>
</svg>