<svg width="345" height="184" viewBox="0 0 345 184" fill="none" xmlns="http://www.w3.org/2000/svg">
<g clip-path="url(#clip0_318_2939)">
<rect width="345" height="183.153" rx="15" fill="#FECEA8"/>
<path d="M76.278 195.98L140.118 226.042L166.223 170.604L72.9875 126.701L76.278 195.98Z" fill="#FFE5D0"/>
<path d="M366.057 137.447L333.283 128.932L331.752 130.516L301.305 161.469C301.284 161.549 301.203 161.528 301.182 161.609C300.835 161.95 300.488 162.291 300.12 162.712C292.282 170.327 280.9 174.004 269.512 171.735C268.866 171.567 268.28 171.501 267.634 171.333C266.988 171.165 266.423 171.019 265.799 170.77L254.417 167.813L247.034 196.227L264.874 200.862C285.377 206.189 306.114 199.341 319.559 184.738L319.479 184.717L320.316 183.815L366.057 137.447Z" fill="#FFE5D0"/>
<path d="M301.589 120.697L268.868 112.196L261.485 140.61L309.272 153.026L301.589 120.697Z" fill="#FFE5D0"/>
<path d="M301.589 120.697L268.868 112.196L261.485 140.61L309.272 153.026L301.589 120.697Z" fill="#FFE5D0"/>
<path d="M257.773 96.4741L279.653 95.0808L280.274 93.7967L292.738 68.6003C292.734 68.5464 292.788 68.5429 292.785 68.489C292.929 68.2093 293.074 67.9296 293.215 67.5959C296.495 61.3269 302.751 56.7622 310.215 55.854C310.646 55.8266 311.02 55.7487 311.451 55.7212C311.882 55.6938 312.259 55.6697 312.694 55.6962L320.292 55.2123L319.084 36.2432L307.174 37.0016C293.486 37.8733 282.118 46.2806 276.803 57.9818L276.857 57.9783L276.524 58.7029L257.773 96.4741Z" fill="#FFE5D0"/>
<path d="M300.812 93.7334L322.656 92.3423L321.448 73.3732L289.546 75.4048L300.812 93.7334Z" fill="#FFE5D0"/>
<path d="M300.812 93.7334L322.656 92.3423L321.448 73.3732L289.546 75.4048L300.812 93.7334Z" fill="#FFE5D0"/>
<path d="M131.391 69.1301L94.5044 77.7115L92.8372 75.8966L59.6826 40.4172C59.6615 40.3264 59.5706 40.3475 59.5495 40.2567C59.1712 39.8658 58.793 39.475 58.3936 38.9932C49.8483 30.2549 37.2274 25.8168 24.4297 28.0279C23.7029 28.197 23.0458 28.2541 22.3189 28.4232C21.5921 28.5923 20.9561 28.7403 20.2504 29.0002L7.44011 31.9805L0 0L20.0786 -4.6712C43.1554 -10.0399 66.1446 -1.78876 80.7589 14.9232L80.6681 14.9443L81.5788 15.9774L131.391 69.1301Z" fill="#FFE5D0"/>
<path d="M58.8309 86.0109L22.0034 94.5786L14.5633 62.5981L68.3482 50.0853L58.8309 86.0109Z" fill="#FFE5D0"/>
<path d="M58.8309 86.0109L22.0034 94.5786L14.5633 62.5981L68.3482 50.0853L58.8309 86.0109Z" fill="#FFE5D0"/>
<g clip-path="url(#clip1_318_2939)">
<path d="M156.504 101.955L125.901 48.6458C124.139 45.5541 120.244 44.5235 117.277 46.3036L50.3225 85.653C48.8387 86.4962 48.8387 88.7447 50.4152 89.4942C60.616 95.1156 91.1258 111.792 104.943 119.756C121.728 129.406 127.107 127.438 141.759 119.1L153.814 112.261C157.338 110.2 158.637 105.609 156.504 101.955Z" fill="#FF8D52"/>
<path d="M141.759 119.1L153.814 112.261C157.431 110.199 158.637 105.609 156.597 101.955L154.278 97.9262C145.376 103.454 133.227 109.544 123.676 109.075C106.705 108.138 84.0779 93.0544 78.4211 85.8403C75.7318 82.3738 75.9173 75.9093 76.9374 70.1006L50.3225 85.653C48.8387 86.4962 48.8387 88.7447 50.4152 89.4942C60.616 95.1155 91.1258 111.792 104.943 119.756C121.636 129.406 127.014 127.438 141.759 119.1Z" fill="#F66E00"/>
<path d="M88.5303 110.574C87.6029 113.479 86.0264 116.383 84.5427 119.006C82.9662 121.723 80.7406 123.878 78.9786 126.501C78.9786 126.501 78.9786 126.501 78.9786 126.595C78.8859 126.408 78.7004 126.127 78.4222 125.939C76.0111 123.878 71.0961 121.723 69.7979 126.033C68.5923 129.874 67.8504 133.996 66.9231 137.838C66.4594 139.618 65.8103 141.492 66.4594 143.365C66.7376 144.209 67.294 144.771 67.665 145.614C67.9432 146.27 68.2214 147.019 68.4996 147.675C69.3342 149.174 70.8179 150.298 72.5799 150.392C72.8581 150.392 73.1363 150.392 73.3218 150.392C74.0637 150.86 75.0837 151.048 75.9183 150.579C76.8457 149.924 77.5876 149.08 77.8658 148.143C79.8132 146.644 80.0914 142.522 80.1842 140.461C80.2769 138.681 79.8132 136.807 80.0914 135.027C80.3696 133.341 81.4824 131.654 82.3171 130.249C83.9863 127.251 86.5829 124.815 88.4375 121.817C90.1995 118.819 92.0542 115.446 93.0743 112.073C93.9089 108.981 89.4576 107.67 88.5303 110.574Z" fill="white"/>
<path d="M122.284 123.129C122.284 120.131 117.555 120.037 117.648 123.129C117.648 125.658 118.111 128.469 117.648 130.905C117.184 133.528 115.422 136.245 114.124 138.494C113.66 139.431 113.104 141.023 112.269 141.679C111.991 141.866 111.342 141.866 110.971 141.96C110.229 142.148 109.487 142.241 108.652 142.429C106.056 142.897 103.274 143.084 101.512 145.333C97.9879 149.643 99.7499 155.92 101.048 160.698C101.605 162.946 102.068 165.663 104.479 166.694C107.076 167.818 109.487 165.851 110.878 163.696C112.362 161.26 112.825 158.356 113.196 155.639C113.753 152.453 114.031 149.174 114.216 145.989C114.958 145.614 115.608 145.146 116.164 144.302C117.462 142.522 118.39 140.461 119.41 138.587C120.615 136.245 122.006 133.809 122.284 131.092C122.563 128.469 122.377 125.752 122.284 123.129Z" fill="white"/>
<path d="M58.8552 96.6146C56.6296 93.5229 53.1984 90.6185 49.2108 90.6185C47.5416 90.6185 45.8724 91.2744 44.5741 92.3049C43.2758 93.3355 42.163 94.6472 40.7719 95.4904C39.01 96.6146 36.6916 96.4273 34.7442 96.9894C32.704 97.6452 30.8493 98.7695 29.0874 99.9874C27.4181 101.205 25.6562 102.517 24.7288 104.391C23.7087 106.546 23.8015 108.888 24.0797 111.136C24.1724 112.073 24.6361 112.917 25.378 113.291C26.1198 114.884 26.4908 116.57 27.5109 117.976C28.8091 119.662 30.2929 120.318 32.3331 120.599C32.5185 120.599 32.7967 120.599 32.9822 120.693C32.9822 120.786 33.0749 120.786 33.0749 120.88C33.1677 121.63 33.7241 122.566 34.0023 123.222C34.9296 124.909 36.4134 126.22 38.2681 126.501C40.2155 126.876 42.5339 126.689 44.3886 126.22C45.2232 126.033 45.9651 125.565 46.707 125.283C47.727 124.909 48.9326 125.002 50.0454 125.096C51.9001 125.283 53.6621 125.846 55.1458 124.347C56.4441 123.035 57.186 121.067 57.7424 119.287C58.948 115.259 58.8552 111.136 60.2462 107.201C61.73 103.641 61.1736 99.8937 58.8552 96.6146Z" fill="white"/>
<path d="M177.185 43.2119C176.814 40.9633 175.794 38.7148 174.125 37.0284C173.197 36.0915 172.177 35.4357 170.972 34.9672C170.415 34.7799 169.859 34.6862 169.303 34.5925C169.117 34.5925 168.839 34.5925 168.561 34.4988H168.468C168.282 33.7493 168.097 32.9998 167.819 32.2503C167.355 31.2197 166.706 30.0954 165.964 29.3459C164.202 27.4721 161.327 28.409 159.194 28.8775C158.823 28.9712 158.174 29.2522 157.711 29.1585C157.803 29.0648 157.247 28.5964 157.154 28.5027C156.505 27.8469 155.578 27.2847 154.65 26.91C152.703 26.1605 150.385 26.3479 148.53 27.3784C146.675 28.409 145.377 30.1891 144.635 32.1566C144.264 33.0935 144.079 34.2177 144.079 35.2483C144.079 36.4663 144.45 37.6842 144.357 38.9022C144.171 41.1507 142.317 42.4624 140.833 43.8677C138.978 45.5541 138.236 47.8026 137.865 50.2386C137.773 50.8007 137.865 51.2691 138.051 51.7376C138.051 51.8313 138.051 51.925 138.051 52.0186C138.144 54.5483 138.978 56.7031 139.906 58.9516C140.555 60.357 141.111 61.7623 141.389 63.1676C141.297 64.0108 141.389 64.854 141.575 65.6972C141.668 66.2594 141.946 66.6341 142.317 66.9152C142.78 67.9458 143.522 68.6953 144.542 69.1637C146.768 70.288 149.457 70.7565 151.961 70.8501C154.372 70.9438 157.062 70.6628 159.38 69.8196C160.493 69.4448 161.327 68.789 161.791 67.6647C162.162 66.7278 162.347 65.7909 162.904 64.854C165.315 61.1065 170.323 60.7317 173.012 57.3589C175.794 53.6114 177.927 47.99 177.185 43.2119Z" fill="white"/>
<path d="M148.346 72.5365C148.532 75.1598 148.717 77.6894 147.233 80.0316C146.491 81.1559 145.657 82.1865 144.822 83.2171C144.359 83.7792 143.895 84.435 143.338 84.9972C143.06 85.3719 142.689 85.9341 142.226 86.0277C140.835 86.4025 141.391 88.651 142.875 88.2763C144.359 87.9015 145.193 86.4025 146.121 85.3719C147.141 84.154 148.161 82.8423 149.088 81.5307C150.85 78.8137 150.85 75.722 150.665 72.6302C150.479 71.0375 148.161 71.0375 148.346 72.5365Z" fill="black"/>
<path d="M57.2771 94.5534C60.801 92.3048 64.7886 90.8058 68.8689 90.3374C69.518 90.2437 69.9817 89.8689 69.9817 89.2131C69.9817 88.651 69.4253 87.9951 68.8689 88.0888C64.3249 88.5573 59.9664 90.0563 56.0715 92.5859C54.8659 93.3354 56.0715 95.3966 57.2771 94.5534Z" fill="black"/>
<path d="M97.8974 46.8658C99.9375 45.5541 102.534 44.0551 104.852 44.0551C105.223 44.0551 105.223 44.0551 105.594 44.2425C105.873 44.3362 105.409 44.1488 105.687 44.2425C105.78 44.2425 105.78 44.3362 105.873 44.3362C105.965 44.3362 106.058 44.4299 106.058 44.5236C106.243 44.7109 105.965 44.4299 106.151 44.5236C106.614 44.992 106.893 45.3668 107.171 46.1163C107.078 45.9289 107.264 46.3973 107.264 46.3973C107.356 46.5847 107.356 46.7721 107.449 46.9595C107.542 47.4279 107.727 47.8027 107.82 48.2711C108.005 49.208 108.191 50.0512 108.376 50.9881C108.747 52.8619 109.211 54.8293 110.046 56.6094C110.88 58.3895 112.271 59.7949 114.033 60.5444C116.352 61.4813 119.134 60.9191 121.267 59.6075C124.698 57.4526 126.274 52.8619 124.883 49.0206C124.234 47.1468 122.75 45.6478 120.617 45.6478C117.835 45.6478 115.702 48.1774 114.219 50.2386C113.291 51.4565 115.331 52.5808 116.259 51.4565C117.001 50.426 117.835 49.4891 118.855 48.7396C119.134 48.5522 119.597 48.2711 119.783 48.2711C119.968 48.1774 120.154 48.1774 120.339 48.0837C120.617 47.99 120.339 48.0837 120.71 48.0837C121.081 48.0837 121.637 48.2711 121.823 48.5522C122.287 48.9269 122.565 49.4891 122.75 50.0512C123.214 51.5502 123.214 52.9556 122.658 54.5483C122.101 56.141 120.803 57.5463 119.134 58.2958C118.299 58.6706 117.093 59.0453 116.166 58.9517C115.331 58.858 114.497 58.4832 113.848 58.0148C112.735 57.1716 111.993 55.6725 111.529 54.2672C110.509 51.0818 110.602 47.3342 108.933 44.4299C106.243 39.6517 100.216 42.9308 96.7845 44.992C95.4862 45.6478 96.5991 47.6153 97.8974 46.8658Z" fill="black"/>
<path d="M98.637 46.2099C98.0806 44.8046 96.4114 44.3361 95.0204 44.0551C93.8148 43.8677 92.702 43.6803 91.4965 43.6803C88.7144 43.6803 85.9324 44.7109 83.7067 46.3973C81.4811 48.0837 79.6264 50.4259 78.4209 52.9555C77.4008 54.923 76.5662 57.2652 74.526 58.2958C77.4935 58.2958 80.461 58.2958 83.4285 58.2958C85.2832 58.2958 87.0452 58.2958 88.8999 58.0147C89.8272 57.8273 90.7546 57.64 91.4965 57.0778C92.1456 56.6094 92.6093 55.8599 93.073 55.204C94.9277 52.4871 96.5969 49.5827 98.0806 46.6783" fill="black"/>
<path d="M114.958 70.7564C114.958 72.0681 114.772 73.286 114.401 74.504C114.309 75.0661 114.123 75.6282 113.938 76.0967C113.752 76.4714 113.474 76.7525 113.103 76.9399C112.639 77.1273 112.268 77.5957 112.454 78.1578C112.547 78.6263 113.196 79.001 113.659 78.8137C114.401 78.5326 115.05 78.1578 115.514 77.502C115.978 76.8462 116.163 76.0967 116.349 75.4409C116.72 73.9418 117.091 72.3491 117.091 70.7564C117.091 70.1943 116.627 69.7258 116.071 69.7258C115.421 69.8195 114.865 70.288 114.958 70.7564Z" fill="black"/>
<path d="M125.903 72.0681C125.81 73.4735 125.903 74.7851 125.903 76.1904C125.903 77.4084 125.717 78.6263 125.254 79.7506C124.975 80.3128 125.068 81.0623 125.625 81.3433C126.088 81.6244 126.923 81.5307 127.201 80.9686C128.592 78.1579 128.128 75.0662 128.221 72.0681C128.221 71.4123 127.665 70.9438 127.108 70.9438C126.459 70.9438 125.903 71.4123 125.903 72.0681Z" fill="black"/>
<path d="M127.756 88.932C123.305 92.3985 116.721 91.1805 112.177 88.6509C109.951 87.433 107.911 85.7466 106.334 83.6854C105.778 82.9359 105.222 82.3738 104.387 81.9053C103.089 81.3432 101.698 81.5306 100.399 81.718C100.585 82.4675 100.77 83.217 101.049 83.9665C104.294 83.1233 106.891 81.4369 107.355 77.8767C107.54 76.3777 105.222 76.3777 105.036 77.8767C104.758 80.3126 102.532 81.1558 100.492 81.718C99.0084 82.0927 99.6576 84.2476 101.141 83.9665C102.254 83.7791 103.367 83.6854 104.202 84.5286C104.943 85.2781 105.5 86.1213 106.242 86.8709C108.282 88.8383 110.508 90.431 113.197 91.5553C118.112 93.6165 124.603 94.366 129.147 90.8995C130.075 90.0563 128.869 87.9951 127.756 88.932Z" fill="black"/>
<path d="M176.442 43.5866C176.349 43.1182 176.256 42.6497 176.163 42.1813C175.607 43.4929 174.865 44.8983 173.938 46.3036C167.075 56.3283 151.682 61.9497 144.726 56.8904C140.739 53.9861 140.461 48.2711 140.182 44.0551C138.328 45.7415 137.586 47.99 137.215 50.4259C137.122 50.988 137.215 51.4565 137.4 51.9249C137.4 52.0186 137.4 52.1123 137.4 52.206C137.493 54.7356 138.328 56.8904 139.255 59.139C139.904 60.5443 140.461 61.9497 140.739 63.355C140.646 64.1982 140.739 65.0414 140.924 65.8846C141.017 66.4467 141.295 66.8215 141.666 67.1025C142.13 68.1331 142.872 68.8826 143.892 69.3511C146.117 70.4754 148.807 70.9438 151.311 71.0375C153.722 71.1312 156.411 70.8501 158.729 70.0069C159.842 69.6322 160.677 68.9763 161.14 67.8521C161.511 66.9152 161.697 65.9783 162.253 65.0414C164.664 61.2938 169.672 60.9191 172.361 57.5463C175.051 53.9861 177.091 48.3647 176.442 43.5866Z" fill="#C1C1C1"/>
<path d="M146.206 50.3323C149.545 50.9881 153.347 49.6765 156.129 47.709C158.54 46.0226 161.136 42.9309 159.096 40.0265C156.5 36.1853 150.936 36.6537 147.041 37.778C142.868 38.9959 138.88 41.8066 136.84 45.7415C134.243 50.6134 135.263 56.2347 138.324 60.6381C139.158 61.856 141.198 60.7318 140.364 59.4201C138.045 56.141 136.84 52.2061 138.231 48.3648C139.437 44.992 142.219 42.4624 145.279 40.9634C147.041 40.1202 148.895 39.6518 150.843 39.4644C152.698 39.277 154.83 39.277 156.407 40.495C158.447 42.0877 157.149 44.0551 155.48 45.4605C153.254 47.2406 149.73 48.7396 146.855 48.1775C145.372 47.8027 144.815 50.0512 146.206 50.3323Z" fill="black"/>
<path d="M150.935 50.8944C151.677 50.8944 151.862 50.8943 152.511 51.0817C152.604 51.0817 152.789 51.1754 152.882 51.1754C152.697 51.0817 152.882 51.1754 152.975 51.1754C153.16 51.2691 153.346 51.3628 153.531 51.5502C153.346 51.3628 153.624 51.6439 153.624 51.6439C153.717 51.7376 153.809 51.8312 153.902 51.9249C154.088 52.1123 153.809 51.7376 153.902 52.0186C153.995 52.1123 153.995 52.206 154.088 52.2997C154.18 52.3934 154.18 52.4871 154.273 52.5808C154.273 52.6744 154.366 52.8618 154.273 52.6744C154.366 52.8618 154.459 53.1429 154.459 53.3303C154.551 53.6113 154.551 53.7987 154.644 54.0798C154.644 54.0798 154.737 54.4545 154.644 54.1735C154.644 54.2672 154.644 54.4545 154.644 54.5482C154.644 55.0167 154.644 55.5788 154.644 56.1409C154.551 57.3589 154.459 57.921 154.273 59.0453C154.18 59.7011 154.459 60.3569 155.108 60.4506C155.664 60.638 156.406 60.2633 156.499 59.6074C157.241 56.2346 157.704 51.2691 154.273 49.2079C153.253 48.5521 151.955 48.3647 150.842 48.3647C149.451 48.5521 149.451 50.8944 150.935 50.8944Z" fill="black"/>
<path d="M145.19 37.9653C145.005 37.2158 144.819 36.56 144.634 35.8105C144.634 35.7168 144.634 35.6231 144.634 35.6231C144.634 35.8105 144.634 35.6231 144.634 35.5294C144.634 35.342 144.634 35.2483 144.634 35.061C144.634 34.7799 144.634 34.4051 144.634 34.1241C144.634 33.843 144.634 33.5619 144.726 33.2809C144.726 33.1872 144.726 33.0935 144.726 33.0935C144.726 32.9061 144.819 32.8124 144.819 32.625C144.912 32.0629 145.097 31.5945 145.283 31.0323C145.19 31.3134 145.283 30.9386 145.376 30.9386C145.468 30.8449 145.468 30.7513 145.561 30.6576C145.654 30.4702 145.839 30.1891 145.932 30.0017C146.025 29.9081 146.025 29.8144 146.117 29.7207C146.303 29.4396 146.025 29.8144 146.21 29.627C146.396 29.4396 146.488 29.2522 146.674 29.0649C146.859 28.8775 146.952 28.7838 147.138 28.5964C147.23 28.5027 147.323 28.409 147.416 28.3153C147.508 28.3153 147.601 28.2217 147.323 28.3153C147.416 28.3153 147.416 28.2217 147.508 28.2217C147.879 27.9406 148.25 27.7532 148.621 27.5658C148.714 27.4721 148.807 27.4721 148.9 27.4721C149.178 27.3785 148.714 27.5658 148.992 27.4721C149.178 27.3785 149.456 27.2848 149.641 27.2848C149.827 27.1911 150.012 27.1911 150.291 27.0974C150.383 27.0974 150.476 27.0037 150.661 27.0037C150.754 27.0037 151.125 26.91 150.754 27.0037C151.125 27.0037 151.589 26.91 151.96 26.91C152.145 26.91 152.331 26.91 152.516 26.91C152.702 26.91 152.238 26.8163 152.423 26.91H152.516C152.609 26.91 152.702 26.91 152.794 27.0037C152.98 27.0037 153.165 27.0974 153.351 27.1911C153.444 27.1911 153.536 27.2848 153.629 27.2848C153.722 27.2848 153.814 27.3785 153.536 27.2848C153.629 27.2848 153.629 27.3785 153.722 27.3785C153.907 27.4721 154.093 27.5658 154.185 27.6595C154.278 27.6595 154.278 27.7532 154.371 27.7532C154.649 27.9406 154.278 27.6595 154.464 27.8469C154.556 27.9406 154.742 28.128 154.835 28.2217C154.927 28.3153 154.927 28.3153 155.02 28.409C155.205 28.5964 154.927 28.2217 155.02 28.5027C155.113 28.6901 155.205 28.7838 155.298 28.9712C155.391 29.0649 155.391 29.1585 155.484 29.2522C155.391 28.9712 155.484 29.2522 155.484 29.3459C155.576 29.5333 155.576 29.8144 155.669 30.0017C155.669 30.0954 155.762 30.4702 155.762 30.2828C155.762 30.0954 155.762 30.5639 155.762 30.5639C155.762 30.8449 155.762 31.126 155.762 31.4071C155.762 31.5945 155.762 31.6881 155.762 31.8755C155.762 31.9692 155.762 32.1566 155.762 31.8755C155.762 31.9692 155.762 32.0629 155.762 32.1566C155.669 32.8124 155.484 33.5619 155.205 34.2177C154.927 34.9673 154.649 35.6231 154.185 36.4663C153.444 37.7779 155.484 38.9959 156.226 37.6842C157.524 35.1546 158.637 32.2503 158.08 29.3459C157.617 27.2848 156.133 25.7857 154.278 25.0362C150.291 23.5372 145.561 25.8794 143.614 29.4396C142.037 32.2503 142.223 35.6231 143.15 38.7148C143.428 40.0265 145.654 39.4643 145.19 37.9653Z" fill="black"/>
<path d="M159.097 29.908C159.375 29.8143 159.561 29.627 159.839 29.5333C159.653 29.627 160.024 29.4396 160.024 29.4396C160.117 29.3459 160.303 29.3459 160.395 29.3459C160.674 29.2522 160.952 29.1585 161.23 29.1585C161.323 29.1585 161.508 29.0648 161.601 29.0648C161.323 29.0648 161.694 29.0648 161.786 29.0648C162.065 29.0648 162.343 29.0648 162.528 29.0648C162.621 29.0648 162.806 29.0648 162.899 29.0648C162.992 29.0648 162.992 29.0648 163.085 29.0648C162.899 29.0648 162.899 29.0648 163.085 29.0648C163.363 29.0648 163.548 29.1585 163.827 29.2522C163.919 29.2522 164.012 29.3459 164.197 29.3459C164.29 29.3459 164.29 29.3459 164.383 29.4396C164.197 29.3459 164.197 29.3459 164.383 29.4396C164.568 29.5333 164.754 29.627 165.032 29.8143C165.125 29.8143 165.403 30.0954 165.125 29.908C165.218 30.0017 165.31 30.0954 165.403 30.0954C165.496 30.1891 165.588 30.2828 165.681 30.3765C165.681 30.4702 165.959 30.7512 165.774 30.4702C165.867 30.6575 166.052 30.8449 166.145 31.126C166.145 31.2197 166.238 31.2197 166.238 31.3134C166.145 31.126 166.145 31.2197 166.238 31.3134C166.238 31.4071 166.33 31.5944 166.33 31.6881C166.33 31.7818 166.423 31.9692 166.423 32.0629C166.423 32.1566 166.423 32.1566 166.423 32.2503C166.423 32.0629 166.423 32.0629 166.423 32.2503C166.423 32.5313 166.423 32.8124 166.423 33.0935C166.423 33.4682 166.423 33.4682 166.33 33.843C166.238 34.4988 166.516 35.0609 167.165 35.2483C167.721 35.4357 168.463 35.0609 168.556 34.4051C168.927 32.2503 168.649 29.908 166.979 28.409C165.496 27.0974 163.456 26.6289 161.601 26.8163C160.303 27.0037 159.097 27.3784 157.984 27.9406C156.593 28.5964 157.799 30.6575 159.097 29.908Z" fill="black"/>
<path d="M169.67 41.5255C168.465 43.2119 164.848 47.1468 163.735 43.3993C162.9 40.4949 165.033 36.56 167.908 35.8104C169.67 35.342 171.618 35.6231 173.009 36.4663C174.214 37.2158 175.049 38.6211 175.42 40.2138C176.44 44.2425 175.234 48.9269 173.287 52.6745C170.876 57.2652 167.074 61.2002 162.251 63.0739C154.833 65.8846 146.95 63.355 140.459 59.4201C139.16 58.6706 138.048 60.638 139.253 61.4812C145.93 65.6035 154.183 68.2268 161.973 65.7909C167.815 63.9171 172.545 59.4201 175.327 53.9861C177.645 49.5827 179.129 43.8677 177.553 38.9959C176.903 37.0284 175.605 35.2483 173.75 34.3114C171.618 33.2808 168.372 32.9061 166.239 34.124C162.9 35.9978 160.489 40.1201 161.602 44.0551C161.973 45.4604 162.9 46.7721 164.384 47.2405C166.146 47.8026 167.815 46.8657 169.114 45.8352C170.134 44.992 170.968 43.8677 171.803 42.8371C172.545 41.5255 170.505 40.3075 169.67 41.5255Z" fill="black"/>
<path d="M138.881 61.9497C137.861 66.5405 141.941 69.4448 145.836 70.5691C150.195 71.8807 155.48 71.9744 159.654 70.007C161.601 69.1638 163.27 67.571 163.641 65.3225C163.827 63.8235 161.601 63.1677 161.415 64.6667C160.952 67.9458 156.593 68.789 153.811 68.9764C150.195 69.2575 145.743 68.789 142.776 66.4468C141.477 65.4162 140.828 64.1046 141.107 62.4182C141.385 61.1065 139.159 60.5444 138.881 61.9497Z" fill="black"/>
<path d="M74.6201 123.878C72.5799 123.222 70.5397 123.503 69.7979 126.127C68.5923 129.968 67.8504 134.09 66.9231 137.931C66.4594 139.711 65.8103 141.585 66.4594 143.459C66.7376 144.302 67.294 144.864 67.665 145.708C67.9432 146.363 68.2214 147.113 68.4996 147.769C69.1487 148.987 70.2615 149.924 71.5598 150.298C68.9632 142.241 74.8983 132.029 74.6201 123.878Z" fill="#C1C1C1"/>
<path d="M105.315 143.084C102.812 143.178 100.493 143.928 100.122 146.457C99.5658 150.111 99.5658 153.859 99.2876 157.512C99.1949 159.199 98.7312 160.979 99.9368 162.384C100.493 163.04 101.235 163.415 101.791 163.977C102.348 164.445 102.719 165.101 103.275 165.57C104.295 166.413 105.779 166.975 107.356 166.881C102.626 160.604 107.356 150.111 105.315 143.084Z" fill="#C1C1C1"/>
<path d="M57.556 119.662C54.0321 120.599 49.3026 121.723 47.1697 121.349C43.6458 120.786 43.5531 119.849 43.5531 119.849C43.5531 119.849 39.2873 122.848 36.4125 121.349C33.445 119.756 35.5779 114.416 35.5779 114.416C35.5779 114.416 31.7757 114.79 30.5702 112.635C29.3646 110.481 30.1065 108.794 30.1065 108.794C30.1065 108.794 27.4172 110.949 25.8407 107.857C25.1916 106.639 25.2843 104.484 25.748 102.236C24.8206 102.985 24.0787 103.829 23.5223 104.953C22.5023 107.108 22.595 109.45 22.8732 111.699C22.9659 112.635 23.4296 113.479 24.2642 113.853C25.0061 115.446 25.377 117.133 26.4899 118.538C27.7881 120.224 29.3646 120.88 31.4048 121.161C31.5903 121.161 31.8685 121.161 32.0539 121.255C32.0539 121.349 32.1467 121.349 32.1467 121.442C32.2394 122.192 32.7958 123.129 33.1668 123.784C34.0941 125.471 35.5779 126.782 37.5253 127.064C39.4727 127.438 41.8838 127.251 43.7385 126.782C44.5731 126.595 45.315 126.127 46.1496 125.846C47.1697 125.471 48.468 125.565 49.4881 125.658C51.3428 125.846 53.1975 126.408 54.6812 124.909C55.9795 123.597 56.8141 121.63 57.3705 119.849C57.4633 119.849 57.4633 119.756 57.556 119.662Z" fill="#C1C1C1"/>
<path d="M42.2523 121.63C42.9015 121.349 43.6433 121.161 44.2925 121.161C44.478 121.161 44.5707 121.161 44.7562 121.161C45.0344 121.161 44.7562 121.161 44.9416 121.161C45.0344 121.161 45.2198 121.255 45.3126 121.255C45.3126 121.255 45.498 121.349 45.4053 121.255C45.2198 121.161 45.498 121.349 45.498 121.349C45.498 121.349 45.7762 121.536 45.6835 121.442C45.5908 121.349 45.7762 121.536 45.869 121.63L45.9617 121.723C45.9617 121.723 45.869 121.536 45.9617 121.63C46.0545 121.723 46.0545 121.817 46.1472 121.911C46.3327 122.192 46.1472 121.817 46.1472 122.004C46.1472 122.098 46.2399 122.192 46.2399 122.379C46.2399 122.473 46.3327 122.754 46.2399 122.567C46.2399 122.473 46.2399 122.754 46.2399 122.848C46.2399 122.941 46.2399 123.035 46.2399 123.222C46.2399 123.316 46.2399 123.316 46.2399 123.41C46.2399 123.41 46.2399 123.222 46.2399 123.316C46.2399 123.597 46.1472 123.878 46.0545 124.159C46.0545 124.253 45.9617 124.534 45.9617 124.347C45.869 124.44 45.869 124.534 45.7762 124.721C45.6835 125.002 45.498 125.19 45.3126 125.377C45.4053 125.19 45.1271 125.565 45.1271 125.565C45.0344 125.658 44.9416 125.752 44.8489 125.846C44.5707 126.127 44.5707 126.127 44.2925 126.22C43.7361 126.595 43.3651 126.689 42.716 126.783C42.6233 126.783 42.1596 126.783 41.9741 126.783C41.5104 126.783 41.0468 126.876 40.5831 126.97C39.8412 127.157 39.1921 127.157 38.4502 127.157C37.3374 127.064 36.2246 126.689 35.2972 125.939C33.5353 124.534 32.7934 122.285 33.0716 120.037C33.1643 119.006 33.7207 117.601 34.4626 116.758C35.4827 115.54 36.8737 114.79 38.4502 114.322C39.934 113.947 39.2848 111.699 37.8011 112.073C34.4626 113.01 31.6806 115.446 30.9387 118.913C30.2895 121.911 31.1242 125.283 33.3498 127.345C34.4626 128.375 35.9464 129.125 37.4301 129.406C38.3575 129.593 39.2848 129.593 40.2122 129.499C40.6758 129.406 41.2322 129.218 41.7887 129.218C42.1596 129.218 42.5305 129.218 42.8087 129.218C45.869 128.937 48.3728 126.408 48.5583 123.316C48.651 121.817 48.0946 120.318 46.8891 119.475C45.3126 118.444 43.2724 118.725 41.6032 119.381C40.3049 119.85 40.8613 122.098 42.2523 121.63Z" fill="black"/>
<path d="M30.2007 119.849C29.6443 119.849 29.0878 119.756 28.5314 119.475C28.7169 119.568 28.4387 119.381 28.346 119.381C28.2532 119.287 28.1605 119.287 28.0678 119.194C27.975 119.194 27.7896 119.006 27.8823 119.006C27.975 119.1 27.6968 118.819 27.6968 118.819C27.6041 118.725 27.5114 118.632 27.4186 118.538C27.4186 118.444 27.3259 118.444 27.3259 118.35C27.2331 118.163 27.0477 117.976 26.9549 117.695C26.8622 117.507 26.9549 117.788 26.8622 117.601C26.8622 117.507 26.7695 117.414 26.7695 117.226C26.7695 117.132 26.6767 116.945 26.6767 116.851C26.6767 116.758 26.584 116.383 26.6767 116.664C26.6767 116.383 26.6767 116.196 26.6767 115.915C26.6767 115.821 26.6767 115.633 26.6767 115.54C26.6767 115.633 26.6767 115.352 26.6767 115.352C26.6767 115.071 26.8622 114.322 27.0477 113.947C27.0477 113.853 27.1404 113.853 27.1404 113.76C27.2331 113.666 27.2331 113.572 27.3259 113.479C27.4186 113.198 27.6041 112.916 27.7896 112.729C27.8823 112.635 27.975 112.542 27.975 112.354C28.0678 112.167 27.975 112.354 28.0678 112.167C28.2532 111.98 28.4387 111.699 28.6242 111.511C29.5515 110.668 30.4789 110.106 31.7772 109.918C32.4263 109.825 32.7045 109.075 32.6118 108.513C32.4263 107.857 31.7772 107.576 31.2207 107.67C28.346 108.138 26.0276 110.293 25.0075 112.916C23.9874 115.352 23.9874 118.35 25.8421 120.318C26.9549 121.536 28.6242 122.098 30.2007 122.192C30.8498 122.192 31.3135 121.63 31.3135 121.067C31.4062 120.318 30.8498 119.849 30.2007 119.849Z" fill="black"/>
<path d="M24.8208 113.104C21.8533 109.918 24.2644 105.421 26.7682 102.798C30.3849 98.9568 35.578 96.2398 40.8639 95.9588C43.7387 95.7714 46.5208 96.3335 49.0246 97.7388C51.8066 99.2379 53.8468 101.674 55.6088 104.203C56.8143 105.89 57.1852 108.138 57.3707 110.199C57.6489 112.823 57.5562 115.446 57.1853 117.976C56.8143 120.224 56.1652 122.941 54.5887 124.721C54.0323 125.377 53.2904 125.752 52.5485 125.752C51.5284 125.752 50.5083 125.19 49.6737 124.534C48.4682 123.597 46.8917 125.283 48.0045 126.22C49.9519 127.719 52.363 128.844 54.7741 127.532C56.8143 126.408 57.9271 123.972 58.669 121.817C59.5964 118.913 59.9673 115.821 59.8746 112.823C59.8746 110.106 59.5036 107.295 58.4835 104.766C58.0199 103.548 57.278 102.611 56.5361 101.58C55.4233 99.9874 54.125 98.582 52.5485 97.3641C49.8592 95.2092 46.6135 93.9913 43.275 93.6165C37.0618 93.0544 30.6631 95.7714 26.1191 99.9874C22.2242 103.641 18.793 110.012 23.1516 114.697C24.1717 115.821 25.8409 114.228 24.8208 113.104Z" fill="black"/>
<path d="M44.2031 121.067C48.2835 121.442 49.9527 116.758 50.6018 113.479C50.6946 112.916 50.4164 112.167 49.7672 112.073C49.2108 111.98 48.4689 112.261 48.3762 112.916C48.2835 113.666 48.098 114.415 47.8198 115.071C47.727 115.259 47.727 115.446 47.6343 115.727C47.6343 115.821 47.5416 115.914 47.5416 115.914C47.5416 116.008 47.4488 116.289 47.5416 116.008C47.4488 116.383 47.1706 116.758 46.9852 117.039C46.8924 117.226 46.7997 117.414 46.707 117.507C46.707 117.507 46.707 117.601 46.6142 117.601C46.5215 117.695 46.6142 117.601 46.707 117.507L46.5215 117.695C46.4288 117.788 46.2433 117.976 46.1506 118.069L46.0578 118.163C45.9651 118.257 45.9651 118.257 46.1506 118.163C46.0578 118.163 45.9651 118.257 45.9651 118.35C45.8724 118.444 45.5014 118.538 45.5014 118.631C45.6869 118.538 45.6869 118.538 45.5941 118.631C45.5941 118.631 45.5941 118.631 45.5014 118.631C45.4087 118.631 45.3159 118.725 45.2232 118.725C45.2232 118.725 44.945 118.725 44.945 118.819C44.7595 118.819 44.4813 118.819 44.2959 118.819C43.6467 118.725 43.0903 119.381 43.183 119.943C42.9976 120.599 43.554 121.067 44.2031 121.067Z" fill="black"/>
<path d="M43.4611 94.1787C44.4812 92.7733 45.9649 91.9301 47.5414 91.9301C49.2106 91.9301 50.9726 92.6796 52.4564 93.6165C55.7948 95.7714 58.7623 99.3316 59.5969 103.266C59.9679 105.14 59.7824 107.108 58.5769 108.607C57.6495 109.731 59.226 111.417 60.2461 110.293C63.4918 106.452 62.008 101.112 59.4115 97.3641C56.8149 93.5228 52.5491 89.7753 47.7269 89.6816C45.1303 89.5879 42.9047 90.8995 41.4209 93.0544C40.5863 94.1787 42.6265 95.3966 43.4611 94.1787Z" fill="black"/>
<path d="M86.677 108.982C85.1005 115.165 81.6693 120.786 76.9399 125.002C77.4963 125.002 78.0527 125.002 78.6091 125.002C77.2181 123.222 75.2706 121.161 72.8595 121.161C70.8194 121.161 69.3356 122.66 68.4083 124.253C67.11 126.408 66.5536 129.031 66.0899 131.467C65.6262 134.371 65.4407 137.276 65.6262 140.18C65.719 142.71 65.9972 145.427 66.9245 147.769C67.2954 148.706 67.6664 149.736 68.4083 150.579C69.6138 151.985 72.0249 152.641 73.6941 152.547C77.7745 152.36 80.6493 148.706 81.5766 144.958C81.8548 144.021 81.9475 142.991 81.9475 142.054C81.9475 140.929 81.7621 139.805 81.6693 138.681C81.5766 136.807 81.9475 135.027 82.5967 133.247C84.0804 129.406 86.9552 126.314 89.3663 123.035C91.8702 119.568 94.0031 115.915 94.2813 111.511C94.374 110.012 92.0556 110.012 91.9629 111.511C91.4065 118.444 85.7497 123.222 82.3185 128.75C80.5565 131.561 79.351 134.746 79.351 138.119C79.351 139.993 79.8146 141.866 79.4437 143.74C79.0728 145.52 78.3309 147.3 77.0326 148.612C74.9924 150.673 70.9121 150.861 69.5211 148.144C68.5937 146.363 68.3155 144.209 68.0373 142.335C67.5736 137.463 67.7591 132.216 69.4283 127.532C69.7993 126.595 70.1702 125.658 70.8194 124.815C71.1903 124.253 71.8394 123.784 72.3031 123.597C72.5813 123.503 72.8595 123.503 73.045 123.503C73.5087 123.597 73.7869 123.691 74.1578 123.878C75.2706 124.534 76.198 125.564 76.9399 126.595C77.3108 127.157 78.1454 126.97 78.6091 126.595C83.6168 122.098 87.2334 116.102 88.9954 109.544C89.2736 108.138 87.048 107.576 86.677 108.982Z" fill="black"/>
<path d="M115.794 124.253C115.701 128.281 115.423 132.779 113.568 136.526C112.641 138.4 111.25 139.805 109.488 140.367C106.242 141.492 102.348 141.023 100.215 144.302C98.6382 146.832 98.8237 150.111 98.6382 152.922C98.4527 156.669 98.4527 160.698 99.9365 164.164C100.771 166.132 102.255 167.912 104.388 168.38C106.521 168.849 108.561 167.912 110.137 166.507C115.423 161.916 116.351 153.671 115.052 147.207C114.96 147.581 114.867 147.956 114.774 148.331C122.842 141.492 124.975 130.717 123.955 120.505C123.769 119.006 121.451 119.006 121.636 120.505C122.657 130.155 120.802 140.18 113.105 146.644C112.734 146.926 112.734 147.394 112.827 147.769C113.847 153.203 113.29 159.761 109.395 163.977C108.746 164.726 108.004 165.289 107.17 165.757C106.521 166.038 105.872 166.225 105.13 166.132C104.666 166.038 103.924 165.757 103.46 165.289C102.719 164.633 102.255 163.79 101.884 162.853C100.586 159.48 100.678 155.639 100.957 152.078C101.142 149.83 101.049 146.832 102.348 145.239C103.275 144.115 104.295 143.834 105.872 143.553C107.448 143.272 109.117 143.084 110.694 142.428C117.278 139.618 117.834 130.436 118.02 124.346C118.112 122.754 115.794 122.754 115.794 124.253Z" fill="black"/>
</g>
<rect x="215.656" y="123.578" width="107" height="39" rx="7" fill="#FF8D52"/>
<path d="M234.235 145.281C234.235 145.823 234.443 146.336 234.86 146.82C235.281 147.299 235.854 147.703 236.578 148.031C237.302 148.359 238.104 148.578 238.985 148.688L238.438 149.844C237.328 149.688 236.334 149.37 235.453 148.891C234.578 148.411 233.927 147.818 233.5 147.109C233.063 147.818 232.404 148.411 231.524 148.891C230.649 149.37 229.656 149.688 228.547 149.844L228.016 148.688C228.886 148.578 229.68 148.359 230.399 148.031C231.123 147.703 231.696 147.299 232.117 146.82C232.539 146.336 232.75 145.823 232.75 145.281V144.859H234.235V145.281ZM226.891 136.859H228.297V138.984H231V136.859H232.375V143.422H226.891V136.859ZM231 142.25V140.141H228.297V142.25H231ZM233.813 136.172H235.188V139.469H236.828V135.922H238.235V145.422H236.828V140.672H235.188V144.188H233.813V136.172ZM245.281 140.031C245.281 140.802 245.438 141.568 245.75 142.328C246.068 143.089 246.505 143.768 247.063 144.367C247.625 144.966 248.261 145.417 248.969 145.719L248.156 146.875C247.339 146.516 246.615 145.971 245.985 145.242C245.354 144.513 244.875 143.677 244.547 142.734C244.219 143.745 243.74 144.648 243.11 145.445C242.479 146.242 241.761 146.839 240.953 147.234L240.094 146.062C240.787 145.74 241.412 145.258 241.969 144.617C242.531 143.971 242.972 143.245 243.289 142.438C243.612 141.63 243.776 140.828 243.781 140.031V138.547H240.578V137.312H248.469V138.547H245.281V140.031ZM250.235 135.906H251.719V149.906H250.235V135.906ZM268.875 140.078H270.875V141.297H268.875V145.344H267.391V135.922H268.875V140.078ZM257.766 143.781C259.328 143.781 260.547 143.771 261.422 143.75V142.805C260.615 142.716 259.979 142.492 259.516 142.133C259.052 141.768 258.823 141.307 258.828 140.75C258.823 140.328 258.959 139.961 259.235 139.648C259.511 139.336 259.899 139.096 260.399 138.93C260.904 138.763 261.49 138.682 262.156 138.688C262.823 138.682 263.406 138.763 263.906 138.93C264.406 139.096 264.795 139.336 265.071 139.648C265.347 139.961 265.485 140.328 265.485 140.75C265.479 141.302 265.248 141.76 264.789 142.125C264.331 142.484 263.703 142.711 262.906 142.805V143.695C264.318 143.622 265.547 143.51 266.594 143.359L266.719 144.422C265.391 144.651 264.018 144.799 262.602 144.867C261.185 144.935 259.625 144.969 257.922 144.969L257.766 143.781ZM258.125 137.109H261.422V135.797H262.906V137.109H266.203V138.219H258.125V137.109ZM259.516 146H268.875V149.906H267.391V147.156H259.516V146ZM260.235 140.75C260.235 141.078 260.404 141.341 260.742 141.539C261.081 141.732 261.542 141.828 262.125 141.828C262.724 141.828 263.198 141.732 263.547 141.539C263.896 141.346 264.068 141.083 264.063 140.75C264.068 140.417 263.899 140.156 263.555 139.969C263.216 139.781 262.75 139.693 262.156 139.703C261.558 139.693 261.086 139.781 260.742 139.969C260.404 140.156 260.235 140.417 260.235 140.75ZM283.297 146.094H281.813V135.922H283.297V146.094ZM271.969 140.328C271.969 139.667 272.133 139.073 272.461 138.547C272.789 138.021 273.237 137.609 273.805 137.312C274.373 137.01 275.005 136.859 275.703 136.859C276.401 136.859 277.031 137.01 277.594 137.312C278.162 137.609 278.607 138.021 278.93 138.547C279.258 139.073 279.422 139.667 279.422 140.328C279.422 141 279.258 141.602 278.93 142.133C278.607 142.659 278.162 143.07 277.594 143.367C277.031 143.664 276.401 143.812 275.703 143.812C275.005 143.812 274.373 143.664 273.805 143.367C273.237 143.07 272.789 142.659 272.461 142.133C272.133 141.602 271.969 141 271.969 140.328ZM273.422 140.328C273.422 140.76 273.518 141.143 273.711 141.477C273.909 141.805 274.183 142.06 274.531 142.242C274.88 142.424 275.271 142.516 275.703 142.516C276.13 142.516 276.516 142.424 276.86 142.242C277.203 142.06 277.474 141.805 277.672 141.477C277.87 141.143 277.969 140.76 277.969 140.328C277.969 139.906 277.87 139.531 277.672 139.203C277.474 138.87 277.203 138.612 276.86 138.43C276.516 138.247 276.13 138.156 275.703 138.156C275.271 138.156 274.88 138.247 274.531 138.43C274.183 138.612 273.909 138.87 273.711 139.203C273.518 139.531 273.422 139.906 273.422 140.328ZM274.141 145.062H275.641V148.406H283.719V149.609H274.141V145.062ZM296.422 141.578H298.672V142.812H296.422V149.906H294.953V135.906H296.422V141.578ZM285.438 138.094H288.891V136.094H290.375V138.094H293.735V139.312H285.438V138.094ZM286.156 143.594C286.156 142.969 286.305 142.409 286.602 141.914C286.904 141.419 287.318 141.034 287.844 140.758C288.375 140.482 288.974 140.344 289.641 140.344C290.302 140.344 290.896 140.482 291.422 140.758C291.953 141.034 292.37 141.419 292.672 141.914C292.974 142.409 293.125 142.969 293.125 143.594C293.125 144.224 292.974 144.786 292.672 145.281C292.37 145.776 291.953 146.164 291.422 146.445C290.896 146.721 290.302 146.859 289.641 146.859C288.974 146.859 288.375 146.721 287.844 146.445C287.318 146.164 286.904 145.776 286.602 145.281C286.305 144.786 286.156 144.224 286.156 143.594ZM287.578 143.594C287.578 143.995 287.664 144.349 287.836 144.656C288.013 144.964 288.258 145.201 288.571 145.367C288.888 145.534 289.245 145.615 289.641 145.609C290.031 145.615 290.383 145.534 290.696 145.367C291.008 145.201 291.253 144.964 291.43 144.656C291.612 144.349 291.703 143.995 291.703 143.594C291.703 143.203 291.612 142.854 291.43 142.547C291.253 142.24 291.008 142 290.696 141.828C290.383 141.651 290.031 141.562 289.641 141.562C289.245 141.562 288.888 141.651 288.571 141.828C288.258 142 288.013 142.24 287.836 142.547C287.664 142.854 287.578 143.203 287.578 143.594ZM310.985 149.906H309.485V135.906H310.985V149.906ZM299.485 146.156C301.318 145.281 302.711 144.216 303.664 142.961C304.617 141.706 305.167 140.25 305.313 138.594H300.156V137.406H306.813C306.813 139.573 306.295 141.497 305.258 143.18C304.227 144.862 302.563 146.255 300.266 147.359L299.485 146.156Z" fill="black"/>
</g>
<defs>
<clipPath id="clip0_318_2939">
<rect width="345" height="183.153" rx="15" fill="white"/>
</clipPath>
<clipPath id="clip1_318_2939">
<rect width="157" height="144" fill="white" transform="translate(21.1113 24.4741)"/>
</clipPath>
</defs>
</svg>
