<svg width="158" height="145" viewBox="0 0 158 145" fill="none" xmlns="http://www.w3.org/2000/svg">
<g clip-path="url(#clip0_528_4515)">
<path d="M135.504 77.9549L104.901 24.6458C103.139 21.5541 99.2445 20.5235 96.277 22.3036L29.3225 61.653C27.8387 62.4962 27.8387 64.7447 29.4152 65.4942C39.616 71.1156 70.1258 87.7922 83.9433 95.7558C100.728 105.406 106.107 103.438 120.759 95.1L132.814 88.2607C136.338 86.1995 137.637 81.6087 135.504 77.9549Z" fill="#FF8D52"/>
<path d="M120.759 95.0999L132.814 88.2606C136.431 86.1995 137.637 81.6087 135.597 77.9548L133.278 73.9262C124.376 79.4539 112.227 85.5437 102.676 85.0752C85.7052 84.1383 63.0779 69.0544 57.4211 61.8403C54.7318 58.3738 54.9173 51.9093 55.9374 46.1006L29.3225 61.653C27.8387 62.4962 27.8387 64.7447 29.4152 65.4942C39.616 71.1155 70.1258 87.7922 83.9433 95.7558C100.636 105.406 106.014 103.438 120.759 95.0999Z" fill="#F66E00"/>
<path d="M67.5303 86.5742C66.6029 89.4786 65.0264 92.3829 63.5427 95.0062C61.9662 97.7232 59.7406 99.878 57.9786 102.501C57.9786 102.501 57.9786 102.501 57.9786 102.595C57.8859 102.408 57.7004 102.127 57.4222 101.939C55.0111 99.878 50.0961 97.7232 48.7979 102.033C47.5923 105.874 46.8504 109.996 45.9231 113.838C45.4594 115.618 44.8103 117.492 45.4594 119.365C45.7376 120.209 46.294 120.771 46.665 121.614C46.9432 122.27 47.2214 123.019 47.4996 123.675C48.3342 125.174 49.8179 126.298 51.5799 126.392C51.8581 126.392 52.1363 126.392 52.3218 126.392C53.0637 126.86 54.0837 127.048 54.9183 126.579C55.8457 125.924 56.5876 125.08 56.8658 124.143C58.8132 122.644 59.0914 118.522 59.1842 116.461C59.2769 114.681 58.8132 112.807 59.0914 111.027C59.3696 109.341 60.4824 107.654 61.3171 106.249C62.9863 103.251 65.5829 100.815 67.4375 97.8169C69.1995 94.8188 71.0542 91.446 72.0743 88.0732C72.9089 84.9815 68.4576 83.6698 67.5303 86.5742Z" fill="white"/>
<path d="M101.284 99.1287C101.284 96.1306 96.5549 96.0369 96.6477 99.1287C96.6477 101.658 97.1114 104.469 96.6477 106.905C96.184 109.528 94.422 112.245 93.1238 114.494C92.6601 115.431 92.1037 117.023 91.2691 117.679C90.9909 117.866 90.3417 117.866 89.9708 117.96C89.2289 118.148 88.487 118.241 87.6524 118.429C85.0558 118.897 82.2738 119.084 80.5118 121.333C76.9879 125.643 78.7499 131.92 80.0482 136.698C80.6046 138.946 81.0682 141.663 83.4793 142.694C86.0759 143.818 88.487 141.851 89.878 139.696C91.3618 137.26 91.8255 134.356 92.1964 131.639C92.7528 128.453 93.031 125.174 93.2165 121.989C93.9584 121.614 94.6075 121.146 95.1639 120.302C96.4622 118.522 97.3896 116.461 98.4096 114.587C99.6152 112.245 101.006 109.809 101.284 107.092C101.563 104.469 101.377 101.752 101.284 99.1287Z" fill="white"/>
<path d="M37.8552 72.6146C35.6296 69.5229 32.1984 66.6185 28.2108 66.6185C26.5416 66.6185 24.8724 67.2744 23.5741 68.3049C22.2758 69.3355 21.163 70.6472 19.7719 71.4904C18.01 72.6146 15.6916 72.4273 13.7442 72.9894C11.704 73.6452 9.84932 74.7695 8.08735 75.9874C6.41813 77.2054 4.65617 78.517 3.72882 80.3908C2.70874 82.5457 2.80147 84.8879 3.07968 87.1364C3.17241 88.0733 3.63608 88.9165 4.37796 89.2913C5.11984 90.884 5.49078 92.5704 6.51086 93.9757C7.80915 95.6621 9.29291 96.3179 11.3331 96.599C11.5185 96.599 11.7967 96.599 11.9822 96.6927C11.9822 96.7864 12.0749 96.7864 12.0749 96.8801C12.1677 97.6296 12.7241 98.5665 13.0023 99.2223C13.9296 100.909 15.4134 102.22 17.2681 102.501C19.2155 102.876 21.5339 102.689 23.3886 102.22C24.2232 102.033 24.9651 101.565 25.707 101.283C26.727 100.909 27.9326 101.002 29.0454 101.096C30.9001 101.283 32.6621 101.846 34.1458 100.347C35.4441 99.0349 36.186 97.0675 36.7424 95.2874C37.948 91.2587 37.8552 87.1364 39.2462 83.2015C40.73 79.6413 40.1736 75.8937 37.8552 72.6146Z" fill="white"/>
<path d="M156.185 19.2119C155.814 16.9633 154.794 14.7148 153.125 13.0284C152.197 12.0915 151.177 11.4357 149.972 10.9672C149.415 10.7799 148.859 10.6862 148.303 10.5925C148.117 10.5925 147.839 10.5925 147.561 10.4988H147.468C147.282 9.74929 147.097 8.99978 146.819 8.25027C146.355 7.21969 145.706 6.09542 144.964 5.34591C143.202 3.47213 140.327 4.40902 138.194 4.87746C137.823 4.97115 137.174 5.25222 136.711 5.15853C136.803 5.06484 136.247 4.5964 136.154 4.50271C135.505 3.84688 134.578 3.28475 133.65 2.90999C131.703 2.16048 129.385 2.34786 127.53 3.37844C125.675 4.40902 124.377 6.18911 123.635 8.15658C123.264 9.09347 123.079 10.2177 123.079 11.2483C123.079 12.4663 123.45 13.6842 123.357 14.9022C123.171 17.1507 121.317 18.4624 119.833 19.8677C117.978 21.5541 117.236 23.8026 116.865 26.2386C116.773 26.8007 116.865 27.2691 117.051 27.7376C117.051 27.8313 117.051 27.925 117.051 28.0186C117.144 30.5483 117.978 32.7031 118.906 34.9516C119.555 36.357 120.111 37.7623 120.389 39.1676C120.297 40.0108 120.389 40.854 120.575 41.6972C120.668 42.2594 120.946 42.6341 121.317 42.9152C121.78 43.9458 122.522 44.6953 123.542 45.1637C125.768 46.288 128.457 46.7565 130.961 46.8501C133.372 46.9438 136.062 46.6628 138.38 45.8196C139.493 45.4448 140.327 44.789 140.791 43.6647C141.162 42.7278 141.347 41.7909 141.904 40.854C144.315 37.1065 149.323 36.7317 152.012 33.3589C154.794 29.6114 156.927 23.99 156.185 19.2119Z" fill="white"/>
<path d="M127.346 48.5365C127.532 51.1598 127.717 53.6894 126.233 56.0316C125.491 57.1559 124.657 58.1865 123.822 59.2171C123.359 59.7792 122.895 60.435 122.338 60.9972C122.06 61.3719 121.689 61.9341 121.226 62.0277C119.835 62.4025 120.391 64.651 121.875 64.2763C123.359 63.9015 124.193 62.4025 125.121 61.3719C126.141 60.154 127.161 58.8423 128.088 57.5307C129.85 54.8137 129.85 51.722 129.665 48.6302C129.479 47.0375 127.161 47.0375 127.346 48.5365Z" fill="black"/>
<path d="M36.2771 70.5534C39.801 68.3048 43.7886 66.8058 47.8689 66.3374C48.518 66.2437 48.9817 65.8689 48.9817 65.2131C48.9817 64.651 48.4253 63.9951 47.8689 64.0888C43.3249 64.5573 38.9664 66.0563 35.0715 68.5859C33.8659 69.3354 35.0715 71.3966 36.2771 70.5534Z" fill="black"/>
<path d="M76.8974 22.8658C78.9375 21.5541 81.5341 20.0551 83.8525 20.0551C84.2234 20.0551 84.2234 20.0551 84.5943 20.2425C84.8725 20.3362 84.4089 20.1488 84.6871 20.2425C84.7798 20.2425 84.7798 20.3362 84.8725 20.3362C84.9653 20.3362 85.058 20.4299 85.058 20.5236C85.2435 20.7109 84.9653 20.4299 85.1507 20.5236C85.6144 20.992 85.8926 21.3668 86.1708 22.1163C86.0781 21.9289 86.2636 22.3973 86.2636 22.3973C86.3563 22.5847 86.3563 22.7721 86.449 22.9595C86.5418 23.4279 86.7272 23.8027 86.82 24.2711C87.0054 25.208 87.1909 26.0512 87.3764 26.9881C87.7473 28.8619 88.211 30.8293 89.0456 32.6094C89.8802 34.3895 91.2712 35.7949 93.0332 36.5444C95.3516 37.4813 98.1336 36.9191 100.267 35.6075C103.698 33.4526 105.274 28.8619 103.883 25.0206C103.234 23.1468 101.75 21.6478 99.6174 21.6478C96.8353 21.6478 94.7024 24.1774 93.2187 26.2386C92.2913 27.4565 94.3315 28.5808 95.2588 27.4565C96.0007 26.426 96.8353 25.4891 97.8554 24.7396C98.1336 24.5522 98.5973 24.2711 98.7828 24.2711C98.9682 24.1774 99.1537 24.1774 99.3392 24.0837C99.6174 23.99 99.3392 24.0837 99.7101 24.0837C100.081 24.0837 100.637 24.2711 100.823 24.5522C101.287 24.9269 101.565 25.4891 101.75 26.0512C102.214 27.5502 102.214 28.9556 101.658 30.5483C101.101 32.141 99.8028 33.5463 98.1336 34.2958C97.299 34.6706 96.0935 35.0453 95.1661 34.9517C94.3315 34.858 93.4969 34.4832 92.8477 34.0148C91.7349 33.1716 90.993 31.6725 90.5294 30.2672C89.5093 27.0818 89.602 23.3342 87.9328 20.4299C85.2435 15.6517 79.2157 18.9308 75.7845 20.992C74.4862 21.6478 75.5991 23.6153 76.8974 22.8658Z" fill="black"/>
<path d="M77.637 22.2099C77.0806 20.8046 75.4114 20.3361 74.0204 20.0551C72.8148 19.8677 71.702 19.6803 70.4965 19.6803C67.7144 19.6803 64.9324 20.7109 62.7067 22.3973C60.4811 24.0837 58.6264 26.4259 57.4209 28.9555C56.4008 30.923 55.5662 33.2652 53.526 34.2958C56.4935 34.2958 59.461 34.2958 62.4285 34.2958C64.2832 34.2958 66.0452 34.2958 67.8999 34.0147C68.8272 33.8273 69.7546 33.64 70.4965 33.0778C71.1456 32.6094 71.6093 31.8599 72.073 31.204C73.9277 28.4871 75.5969 25.5827 77.0806 22.6783" fill="black"/>
<path d="M93.9577 46.7564C93.9577 48.0681 93.7722 49.286 93.4013 50.504C93.3086 51.0661 93.1231 51.6282 92.9376 52.0967C92.7522 52.4714 92.4739 52.7525 92.103 52.9399C91.6393 53.1273 91.2684 53.5957 91.4539 54.1578C91.5466 54.6263 92.1957 55.001 92.6594 54.8137C93.4013 54.5326 94.0504 54.1578 94.5141 53.502C94.9778 52.8462 95.1633 52.0967 95.3487 51.4409C95.7197 49.9418 96.0906 48.3491 96.0906 46.7564C96.0906 46.1943 95.6269 45.7258 95.0705 45.7258C94.4214 45.8195 93.865 46.288 93.9577 46.7564Z" fill="black"/>
<path d="M104.903 48.0681C104.81 49.4735 104.903 50.7851 104.903 52.1904C104.903 53.4084 104.717 54.6263 104.254 55.7506C103.975 56.3128 104.068 57.0623 104.625 57.3433C105.088 57.6244 105.923 57.5307 106.201 56.9686C107.592 54.1579 107.128 51.0662 107.221 48.0681C107.221 47.4123 106.665 46.9438 106.108 46.9438C105.459 46.9438 104.903 47.4123 104.903 48.0681Z" fill="black"/>
<path d="M106.756 64.932C102.305 68.3985 95.7208 67.1805 91.1768 64.6509C88.9511 63.433 86.911 61.7466 85.3345 59.6854C84.7781 58.9359 84.2217 58.3738 83.3871 57.9053C82.0888 57.3432 80.6977 57.5306 79.3995 57.718C79.5849 58.4675 79.7704 59.217 80.0486 59.9665C83.2943 59.1233 85.8909 57.4369 86.3546 53.8767C86.54 52.3777 84.2217 52.3777 84.0362 53.8767C83.758 56.3126 81.5324 57.1558 79.4922 57.718C78.0084 58.0927 78.6576 60.2476 80.1413 59.9665C81.2542 59.7791 82.367 59.6854 83.2016 60.5286C83.9435 61.2781 84.4999 62.1213 85.2418 62.8709C87.2819 64.8383 89.5076 66.431 92.1969 67.5553C97.1118 69.6165 103.603 70.366 108.147 66.8995C109.075 66.0563 107.869 63.9951 106.756 64.932Z" fill="black"/>
<path d="M155.442 19.5866C155.349 19.1182 155.256 18.6497 155.163 18.1813C154.607 19.4929 153.865 20.8983 152.938 22.3036C146.075 32.3283 130.682 37.9497 123.726 32.8904C119.739 29.9861 119.461 24.2711 119.182 20.0551C117.328 21.7415 116.586 23.99 116.215 26.4259C116.122 26.988 116.215 27.4565 116.4 27.9249C116.4 28.0186 116.4 28.1123 116.4 28.206C116.493 30.7356 117.328 32.8904 118.255 35.139C118.904 36.5443 119.461 37.9497 119.739 39.355C119.646 40.1982 119.739 41.0414 119.924 41.8846C120.017 42.4467 120.295 42.8215 120.666 43.1025C121.13 44.1331 121.872 44.8826 122.892 45.3511C125.117 46.4754 127.807 46.9438 130.311 47.0375C132.722 47.1312 135.411 46.8501 137.729 46.0069C138.842 45.6322 139.677 44.9763 140.14 43.8521C140.511 42.9152 140.697 41.9783 141.253 41.0414C143.664 37.2938 148.672 36.9191 151.361 33.5463C154.051 29.9861 156.091 24.3647 155.442 19.5866Z" fill="#C1C1C1"/>
<path d="M125.206 26.3323C128.545 26.9881 132.347 25.6765 135.129 23.709C137.54 22.0226 140.136 18.9309 138.096 16.0265C135.5 12.1853 129.936 12.6537 126.041 13.778C121.868 14.9959 117.88 17.8066 115.84 21.7415C113.243 26.6134 114.263 32.2347 117.324 36.6381C118.158 37.856 120.198 36.7318 119.364 35.4201C117.045 32.141 115.84 28.2061 117.231 24.3648C118.437 20.992 121.219 18.4624 124.279 16.9634C126.041 16.1202 127.895 15.6518 129.843 15.4644C131.698 15.277 133.83 15.277 135.407 16.495C137.447 18.0877 136.149 20.0551 134.48 21.4605C132.254 23.2406 128.73 24.7396 125.855 24.1775C124.372 23.8027 123.815 26.0512 125.206 26.3323Z" fill="black"/>
<path d="M129.935 26.8944C130.677 26.8944 130.862 26.8943 131.511 27.0817C131.604 27.0817 131.789 27.1754 131.882 27.1754C131.697 27.0817 131.882 27.1754 131.975 27.1754C132.16 27.2691 132.346 27.3628 132.531 27.5502C132.346 27.3628 132.624 27.6439 132.624 27.6439C132.717 27.7376 132.809 27.8312 132.902 27.9249C133.088 28.1123 132.809 27.7376 132.902 28.0186C132.995 28.1123 132.995 28.206 133.088 28.2997C133.18 28.3934 133.18 28.4871 133.273 28.5808C133.273 28.6744 133.366 28.8618 133.273 28.6744C133.366 28.8618 133.459 29.1429 133.459 29.3303C133.551 29.6113 133.551 29.7987 133.644 30.0798C133.644 30.0798 133.737 30.4545 133.644 30.1735C133.644 30.2672 133.644 30.4545 133.644 30.5482C133.644 31.0167 133.644 31.5788 133.644 32.1409C133.551 33.3589 133.459 33.921 133.273 35.0453C133.18 35.7011 133.459 36.3569 134.108 36.4506C134.664 36.638 135.406 36.2633 135.499 35.6074C136.241 32.2346 136.704 27.2691 133.273 25.2079C132.253 24.5521 130.955 24.3647 129.842 24.3647C128.451 24.5521 128.451 26.8944 129.935 26.8944Z" fill="black"/>
<path d="M124.19 13.9653C124.005 13.2158 123.819 12.56 123.634 11.8105C123.634 11.7168 123.634 11.6231 123.634 11.6231C123.634 11.8105 123.634 11.6231 123.634 11.5294C123.634 11.342 123.634 11.2483 123.634 11.061C123.634 10.7799 123.634 10.4051 123.634 10.1241C123.634 9.84299 123.634 9.56193 123.726 9.28086C123.726 9.18717 123.726 9.09348 123.726 9.09348C123.726 8.9061 123.819 8.81242 123.819 8.62504C123.912 8.0629 124.097 7.59446 124.283 7.03232C124.19 7.31339 124.283 6.93863 124.376 6.93863C124.468 6.84495 124.468 6.75126 124.561 6.65757C124.654 6.47019 124.839 6.18912 124.932 6.00174C125.025 5.90806 125.025 5.81437 125.117 5.72068C125.303 5.43961 125.025 5.81437 125.21 5.62699C125.396 5.43961 125.488 5.25223 125.674 5.06485C125.859 4.87748 125.952 4.78379 126.138 4.59641C126.23 4.50272 126.323 4.40903 126.416 4.31534C126.508 4.31534 126.601 4.22165 126.323 4.31534C126.416 4.31534 126.416 4.22165 126.508 4.22165C126.879 3.94059 127.25 3.75321 127.621 3.56583C127.714 3.47214 127.807 3.47214 127.9 3.47214C128.178 3.37845 127.714 3.56583 127.992 3.47214C128.178 3.37845 128.456 3.28476 128.641 3.28476C128.827 3.19107 129.012 3.19107 129.291 3.09739C129.383 3.09739 129.476 3.0037 129.661 3.0037C129.754 3.0037 130.125 2.91001 129.754 3.0037C130.125 3.0037 130.589 2.91001 130.96 2.91001C131.145 2.91001 131.331 2.91001 131.516 2.91001C131.702 2.91001 131.238 2.81632 131.423 2.91001H131.516C131.609 2.91001 131.702 2.91001 131.794 3.0037C131.98 3.0037 132.165 3.09739 132.351 3.19107C132.444 3.19107 132.536 3.28476 132.629 3.28476C132.722 3.28476 132.814 3.37845 132.536 3.28476C132.629 3.28476 132.629 3.37845 132.722 3.37845C132.907 3.47214 133.093 3.56583 133.185 3.65952C133.278 3.65952 133.278 3.75321 133.371 3.75321C133.649 3.94059 133.278 3.65952 133.464 3.8469C133.556 3.94059 133.742 4.12796 133.835 4.22165C133.927 4.31534 133.927 4.31534 134.02 4.40903C134.205 4.59641 133.927 4.22165 134.02 4.50272C134.113 4.6901 134.205 4.78379 134.298 4.97117C134.391 5.06486 134.391 5.15854 134.484 5.25223C134.391 4.97117 134.484 5.25223 134.484 5.34592C134.576 5.5333 134.576 5.81437 134.669 6.00174C134.669 6.09543 134.762 6.47019 134.762 6.28281C134.762 6.09543 134.762 6.56388 134.762 6.56388C134.762 6.84495 134.762 7.12601 134.762 7.40708C134.762 7.59446 134.762 7.68815 134.762 7.87552C134.762 7.96921 134.762 8.15659 134.762 7.87552C134.762 7.96921 134.762 8.0629 134.762 8.15659C134.669 8.81242 134.484 9.56193 134.205 10.2177C133.927 10.9673 133.649 11.6231 133.185 12.4663C132.444 13.7779 134.484 14.9959 135.226 13.6842C136.524 11.1546 137.637 8.25028 137.08 5.34592C136.617 3.28476 135.133 1.78574 133.278 1.03623C129.291 -0.462797 124.561 1.87943 122.614 5.43961C121.037 8.25028 121.223 11.6231 122.15 14.7148C122.428 16.0265 124.654 15.4643 124.19 13.9653Z" fill="black"/>
<path d="M138.097 5.90803C138.375 5.81434 138.561 5.62697 138.839 5.53328C138.653 5.62697 139.024 5.43959 139.024 5.43959C139.117 5.3459 139.303 5.3459 139.395 5.3459C139.674 5.25221 139.952 5.15852 140.23 5.15852C140.323 5.15852 140.508 5.06483 140.601 5.06483C140.323 5.06483 140.694 5.06483 140.786 5.06483C141.065 5.06483 141.343 5.06483 141.528 5.06483C141.621 5.06483 141.806 5.06483 141.899 5.06483C141.992 5.06483 141.992 5.06483 142.085 5.06483C141.899 5.06483 141.899 5.06483 142.085 5.06483C142.363 5.06483 142.548 5.15852 142.827 5.25221C142.919 5.25221 143.012 5.3459 143.197 5.3459C143.29 5.3459 143.29 5.3459 143.383 5.43959C143.197 5.3459 143.197 5.3459 143.383 5.43959C143.568 5.53328 143.754 5.62696 144.032 5.81434C144.125 5.81434 144.403 6.09541 144.125 5.90803C144.218 6.00172 144.31 6.09541 144.403 6.09541C144.496 6.1891 144.588 6.28279 144.681 6.37648C144.681 6.47017 144.959 6.75123 144.774 6.47017C144.867 6.65754 145.052 6.84492 145.145 7.12599C145.145 7.21968 145.238 7.21968 145.238 7.31337C145.145 7.12599 145.145 7.21968 145.238 7.31337C145.238 7.40706 145.33 7.59443 145.33 7.68812C145.33 7.78181 145.423 7.96919 145.423 8.06288C145.423 8.15657 145.423 8.15657 145.423 8.25026C145.423 8.06288 145.423 8.06288 145.423 8.25026C145.423 8.53132 145.423 8.81239 145.423 9.09346C145.423 9.46821 145.423 9.46821 145.33 9.84297C145.238 10.4988 145.516 11.0609 146.165 11.2483C146.721 11.4357 147.463 11.0609 147.556 10.4051C147.927 8.25026 147.649 5.90803 145.979 4.40901C144.496 3.09736 142.456 2.62892 140.601 2.81629C139.303 3.00367 138.097 3.37843 136.984 3.94056C135.593 4.59639 136.799 6.65754 138.097 5.90803Z" fill="black"/>
<path d="M148.67 17.5255C147.465 19.2119 143.848 23.1468 142.735 19.3993C141.9 16.4949 144.033 12.56 146.908 11.8104C148.67 11.342 150.618 11.6231 152.009 12.4663C153.214 13.2158 154.049 14.6211 154.42 16.2138C155.44 20.2425 154.234 24.9269 152.287 28.6745C149.876 33.2652 146.074 37.2002 141.251 39.0739C133.833 41.8846 125.95 39.355 119.459 35.4201C118.16 34.6706 117.048 36.638 118.253 37.4812C124.93 41.6035 133.183 44.2268 140.973 41.7909C146.815 39.9171 151.545 35.4201 154.327 29.9861C156.645 25.5827 158.129 19.8677 156.553 14.9959C155.903 13.0284 154.605 11.2483 152.75 10.3114C150.618 9.28084 147.372 8.90608 145.239 10.124C141.9 11.9978 139.489 16.1201 140.602 20.0551C140.973 21.4604 141.9 22.7721 143.384 23.2405C145.146 23.8026 146.815 22.8657 148.114 21.8352C149.134 20.992 149.968 19.8677 150.803 18.8371C151.545 17.5255 149.505 16.3075 148.67 17.5255Z" fill="black"/>
<path d="M117.881 37.9497C116.861 42.5405 120.941 45.4448 124.836 46.5691C129.195 47.8807 134.48 47.9744 138.654 46.007C140.601 45.1638 142.27 43.571 142.641 41.3225C142.827 39.8235 140.601 39.1677 140.415 40.6667C139.952 43.9458 135.593 44.789 132.811 44.9764C129.195 45.2575 124.743 44.789 121.776 42.4468C120.477 41.4162 119.828 40.1046 120.107 38.4182C120.385 37.1065 118.159 36.5444 117.881 37.9497Z" fill="black"/>
<path d="M53.6201 99.8781C51.5799 99.2222 49.5397 99.5033 48.7979 102.127C47.5923 105.968 46.8504 110.09 45.9231 113.931C45.4594 115.711 44.8103 117.585 45.4594 119.459C45.7376 120.302 46.294 120.864 46.665 121.708C46.9432 122.363 47.2214 123.113 47.4996 123.769C48.1487 124.987 49.2615 125.924 50.5598 126.298C47.9632 118.241 53.8983 108.029 53.6201 99.8781Z" fill="#C1C1C1"/>
<path d="M84.3154 119.084C81.8115 119.178 79.4932 119.928 79.1222 122.457C78.5658 126.111 78.5658 129.859 78.2876 133.512C78.1949 135.199 77.7312 136.979 78.9368 138.384C79.4932 139.04 80.235 139.415 80.7915 139.977C81.3479 140.445 81.7188 141.101 82.2752 141.57C83.2953 142.413 84.779 142.975 86.3555 142.881C81.6261 136.604 86.3555 126.111 84.3154 119.084Z" fill="#C1C1C1"/>
<path d="M36.556 95.6621C33.0321 96.599 28.3026 97.7233 26.1697 97.3485C22.6458 96.7864 22.5531 95.8495 22.5531 95.8495C22.5531 95.8495 18.2873 98.8475 15.4125 97.3485C12.445 95.7558 14.5779 90.4155 14.5779 90.4155C14.5779 90.4155 10.7757 90.7903 9.57018 88.6354C8.36463 86.4806 9.10651 84.7942 9.10651 84.7942C9.10651 84.7942 6.4172 86.949 4.84071 83.8573C4.19156 82.6393 4.2843 80.4845 4.74797 78.236C3.82062 78.9855 3.07875 79.8287 2.52234 80.9529C1.50225 83.1078 1.59499 85.45 1.87319 87.6986C1.96593 88.6354 2.4296 89.4786 3.26422 89.8534C4.00609 91.4461 4.37703 93.1325 5.48985 94.5379C6.78814 96.2243 8.36463 96.8801 10.4048 97.1611C10.5903 97.1611 10.8685 97.1611 11.0539 97.2548C11.0539 97.3485 11.1467 97.3485 11.1467 97.4422C11.2394 98.1917 11.7958 99.1286 12.1668 99.7844C13.0941 101.471 14.5779 102.782 16.5253 103.064C18.4727 103.438 20.8838 103.251 22.7385 102.782C23.5731 102.595 24.315 102.127 25.1496 101.846C26.1697 101.471 27.468 101.565 28.4881 101.658C30.3428 101.846 32.1975 102.408 33.6812 100.909C34.9795 99.5971 35.8141 97.6296 36.3705 95.8495C36.4633 95.8495 36.4633 95.7558 36.556 95.6621Z" fill="#C1C1C1"/>
<path d="M21.2523 97.6296C21.9015 97.3485 22.6433 97.1612 23.2925 97.1612C23.478 97.1612 23.5707 97.1612 23.7562 97.1612C24.0344 97.1612 23.7562 97.1612 23.9416 97.1612C24.0344 97.1612 24.2198 97.2549 24.3126 97.2549C24.3126 97.2549 24.498 97.3485 24.4053 97.2549C24.2198 97.1612 24.498 97.3485 24.498 97.3485C24.498 97.3485 24.7762 97.5359 24.6835 97.4422C24.5908 97.3485 24.7762 97.5359 24.869 97.6296L24.9617 97.7233C24.9617 97.7233 24.869 97.5359 24.9617 97.6296C25.0545 97.7233 25.0545 97.817 25.1472 97.9107C25.3327 98.1917 25.1472 97.817 25.1472 98.0044C25.1472 98.0981 25.2399 98.1917 25.2399 98.3791C25.2399 98.4728 25.3327 98.7539 25.2399 98.5665C25.2399 98.4728 25.2399 98.7539 25.2399 98.8476C25.2399 98.9413 25.2399 99.035 25.2399 99.2223C25.2399 99.316 25.2399 99.316 25.2399 99.4097C25.2399 99.4097 25.2399 99.2223 25.2399 99.316C25.2399 99.5971 25.1472 99.8782 25.0545 100.159C25.0545 100.253 24.9617 100.534 24.9617 100.347C24.869 100.44 24.869 100.534 24.7762 100.721C24.6835 101.002 24.498 101.19 24.3126 101.377C24.4053 101.19 24.1271 101.565 24.1271 101.565C24.0344 101.658 23.9416 101.752 23.8489 101.846C23.5707 102.127 23.5707 102.127 23.2925 102.22C22.7361 102.595 22.3651 102.689 21.716 102.783C21.6233 102.783 21.1596 102.783 20.9741 102.783C20.5104 102.783 20.0468 102.876 19.5831 102.97C18.8412 103.157 18.1921 103.157 17.4502 103.157C16.3374 103.064 15.2246 102.689 14.2972 101.939C12.5353 100.534 11.7934 98.2854 12.0716 96.0369C12.1643 95.0063 12.7207 93.601 13.4626 92.7578C14.4827 91.5398 15.8737 90.7903 17.4502 90.3219C18.934 89.9471 18.2848 87.6986 16.8011 88.0733C13.4626 89.0102 10.6806 91.4461 9.93868 94.9126C9.28954 97.9107 10.1242 101.283 12.3498 103.345C13.4626 104.375 14.9464 105.125 16.4301 105.406C17.3575 105.593 18.2848 105.593 19.2122 105.499C19.6758 105.406 20.2322 105.218 20.7887 105.218C21.1596 105.218 21.5305 105.218 21.8087 105.218C24.869 104.937 27.3728 102.408 27.5583 99.316C27.651 97.817 27.0946 96.318 25.8891 95.4748C24.3126 94.4442 22.2724 94.7253 20.6032 95.3811C19.3049 95.8495 19.8613 98.0981 21.2523 97.6296Z" fill="black"/>
<path d="M9.20066 95.8495C8.64425 95.8495 8.08784 95.7558 7.53143 95.4747C7.7169 95.5684 7.4387 95.381 7.34596 95.381C7.25323 95.2873 7.16049 95.2873 7.06776 95.1937C6.97503 95.1937 6.78956 95.0063 6.88229 95.0063C6.97503 95.1 6.69682 94.8189 6.69682 94.8189C6.60409 94.7252 6.51135 94.6315 6.41862 94.5378C6.41862 94.4441 6.32588 94.4441 6.32588 94.3505C6.23315 94.1631 6.04768 93.9757 5.95494 93.6946C5.86221 93.5073 5.95494 93.7883 5.86221 93.6009C5.86221 93.5073 5.76947 93.4136 5.76947 93.2262C5.76947 93.1325 5.67674 92.9451 5.67674 92.8514C5.67674 92.7577 5.584 92.383 5.67674 92.6641C5.67674 92.383 5.67674 92.1956 5.67674 91.9145C5.67674 91.8209 5.67674 91.6335 5.67674 91.5398C5.67674 91.6335 5.67674 91.3524 5.67674 91.3524C5.67674 91.0713 5.86221 90.3218 6.04768 89.9471C6.04768 89.8534 6.14041 89.8534 6.14041 89.7597C6.23315 89.666 6.23315 89.5723 6.32588 89.4786C6.41862 89.1976 6.60409 88.9165 6.78956 88.7291C6.88229 88.6354 6.97503 88.5417 6.97503 88.3544C7.06776 88.167 6.97503 88.3544 7.06776 88.167C7.25323 87.9796 7.4387 87.6985 7.62417 87.5112C8.55152 86.668 9.47886 86.1058 10.7772 85.9184C11.4263 85.8248 11.7045 85.0752 11.6118 84.5131C11.4263 83.8573 10.7772 83.5762 10.2207 83.6699C7.34596 84.1384 5.02759 86.2932 4.00751 88.9165C2.98743 91.3524 2.98743 94.3505 4.84212 96.3179C5.95494 97.5359 7.62417 98.098 9.20066 98.1917C9.8498 98.1917 10.3135 97.6296 10.3135 97.0674C10.4062 96.3179 9.8498 95.8495 9.20066 95.8495Z" fill="black"/>
<path d="M3.82081 89.1038C0.853293 85.9184 3.2644 81.4213 5.76824 78.798C9.3849 74.9568 14.578 72.2398 19.8639 71.9588C22.7387 71.7714 25.5208 72.3335 28.0246 73.7388C30.8066 75.2379 32.8468 77.6738 34.6088 80.2034C35.8143 81.8898 36.1852 84.1383 36.3707 86.1995C36.6489 88.8228 36.5562 91.4461 36.1853 93.9757C35.8143 96.2242 35.1652 98.9412 33.5887 100.721C33.0323 101.377 32.2904 101.752 31.5485 101.752C30.5284 101.752 29.5083 101.19 28.6737 100.534C27.4682 99.597 25.8917 101.283 27.0045 102.22C28.9519 103.719 31.363 104.844 33.7741 103.532C35.8143 102.408 36.9271 99.9718 37.669 97.8169C38.5964 94.9126 38.9673 91.8208 38.8746 88.8228C38.8746 86.1058 38.5036 83.2951 37.4835 80.7655C37.0199 79.5476 36.278 78.6107 35.5361 77.5801C34.4233 75.9874 33.125 74.582 31.5485 73.3641C28.8592 71.2092 25.6135 69.9913 22.275 69.6165C16.0618 69.0544 9.6631 71.7714 5.11909 75.9874C1.22423 79.6412 -2.20695 86.0121 2.15158 90.6966C3.17166 91.8208 4.84089 90.2281 3.82081 89.1038Z" fill="black"/>
<path d="M23.2031 97.0674C27.2835 97.4421 28.9527 92.7577 29.6018 89.4786C29.6946 88.9164 29.4164 88.1669 28.7672 88.0732C28.2108 87.9795 27.4689 88.2606 27.3762 88.9164C27.2835 89.6659 27.098 90.4155 26.8198 91.0713C26.727 91.2587 26.727 91.446 26.6343 91.7271C26.6343 91.8208 26.5416 91.9145 26.5416 91.9145C26.5416 92.0082 26.4488 92.2892 26.5416 92.0082C26.4488 92.3829 26.1706 92.7577 25.9852 93.0388C25.8924 93.2261 25.7997 93.4135 25.707 93.5072C25.707 93.5072 25.707 93.6009 25.6142 93.6009C25.5215 93.6946 25.6142 93.6009 25.707 93.5072L25.5215 93.6946C25.4288 93.7883 25.2433 93.9756 25.1506 94.0693L25.0578 94.163C24.9651 94.2567 24.9651 94.2567 25.1506 94.163C25.0578 94.163 24.9651 94.2567 24.9651 94.3504C24.8724 94.4441 24.5014 94.5378 24.5014 94.6315C24.6869 94.5378 24.6869 94.5378 24.5941 94.6315C24.5941 94.6315 24.5941 94.6315 24.5014 94.6315C24.4087 94.6315 24.3159 94.7251 24.2232 94.7251C24.2232 94.7251 23.945 94.7251 23.945 94.8188C23.7595 94.8188 23.4813 94.8188 23.2959 94.8188C22.6467 94.7251 22.0903 95.381 22.183 95.9431C21.9976 96.5989 22.554 97.0674 23.2031 97.0674Z" fill="black"/>
<path d="M22.4611 70.1787C23.4812 68.7733 24.9649 67.9301 26.5414 67.9301C28.2106 67.9301 29.9726 68.6796 31.4564 69.6165C34.7948 71.7714 37.7623 75.3316 38.5969 79.2665C38.9679 81.1403 38.7824 83.1077 37.5769 84.6068C36.6495 85.731 38.226 87.4174 39.2461 86.2932C42.4918 82.4519 41.008 77.1116 38.4115 73.3641C35.8149 69.5228 31.5491 65.7753 26.7269 65.6816C24.1303 65.5879 21.9047 66.8995 20.4209 69.0544C19.5863 70.1787 21.6265 71.3966 22.4611 70.1787Z" fill="black"/>
<path d="M65.677 84.9815C64.1005 91.165 60.6693 96.7863 55.9399 101.002C56.4963 101.002 57.0527 101.002 57.6091 101.002C56.2181 99.2222 54.2706 97.1611 51.8595 97.1611C49.8194 97.1611 48.3356 98.6601 47.4083 100.253C46.11 102.408 45.5536 105.031 45.0899 107.467C44.6262 110.371 44.4407 113.276 44.6262 116.18C44.719 118.71 44.9972 121.427 45.9245 123.769C46.2954 124.706 46.6664 125.736 47.4083 126.579C48.6138 127.985 51.0249 128.641 52.6941 128.547C56.7745 128.36 59.6493 124.706 60.5766 120.958C60.8548 120.021 60.9475 118.991 60.9475 118.054C60.9475 116.929 60.7621 115.805 60.6693 114.681C60.5766 112.807 60.9475 111.027 61.5967 109.247C63.0804 105.406 65.9552 102.314 68.3663 99.0349C70.8702 95.5684 73.0031 91.9145 73.2813 87.5111C73.374 86.0121 71.0556 86.0121 70.9629 87.5111C70.4065 94.4441 64.7497 99.2222 61.3185 104.75C59.5565 107.561 58.351 110.746 58.351 114.119C58.351 115.993 58.8146 117.866 58.4437 119.74C58.0728 121.52 57.3309 123.3 56.0326 124.612C53.9924 126.673 49.9121 126.861 48.5211 124.144C47.5937 122.363 47.3155 120.209 47.0373 118.335C46.5736 113.463 46.7591 108.216 48.4283 103.532C48.7993 102.595 49.1702 101.658 49.8194 100.815C50.1903 100.253 50.8394 99.7844 51.3031 99.597C51.5813 99.5033 51.8595 99.5033 52.045 99.5033C52.5087 99.597 52.7869 99.6907 53.1578 99.8781C54.2706 100.534 55.198 101.564 55.9399 102.595C56.3108 103.157 57.1454 102.97 57.6091 102.595C62.6168 98.098 66.2334 92.1019 67.9954 85.5437C68.2736 84.1383 66.048 83.5762 65.677 84.9815Z" fill="black"/>
<path d="M94.7941 100.253C94.7014 104.281 94.4232 108.779 92.5685 112.526C91.6411 114.4 90.2501 115.805 88.4882 116.367C85.2424 117.492 81.3476 117.023 79.2147 120.302C77.6382 122.832 77.8237 126.111 77.6382 128.922C77.4527 132.669 77.4527 136.698 78.9365 140.164C79.7711 142.132 81.2549 143.912 83.3878 144.38C85.5207 144.849 87.5608 143.912 89.1373 142.507C94.4232 137.916 95.3505 129.671 94.0523 123.207C93.9595 123.581 93.8668 123.956 93.774 124.331C101.842 117.492 103.975 106.717 102.955 96.5052C102.769 95.0062 100.451 95.0062 100.636 96.5052C101.657 106.155 99.8018 116.18 92.1048 122.644C91.7339 122.926 91.7339 123.394 91.8266 123.769C92.8467 129.203 92.2903 135.761 88.3954 139.977C87.7463 140.726 87.0044 141.289 86.1698 141.757C85.5207 142.038 84.8715 142.225 84.1296 142.132C83.666 142.038 82.9241 141.757 82.4604 141.289C81.7185 140.633 81.2548 139.79 80.8839 138.853C79.5856 135.48 79.6784 131.639 79.9566 128.078C80.142 125.83 80.0493 122.832 81.3476 121.239C82.2749 120.115 83.295 119.834 84.8715 119.553C86.448 119.272 88.1172 119.084 89.6937 118.428C96.2779 115.618 96.8343 106.436 97.0198 100.346C97.1125 98.7538 94.7941 98.7538 94.7941 100.253Z" fill="black"/>
</g>
<defs>
<clipPath id="clip0_528_4515">
<rect width="157" height="144" fill="white" transform="translate(0.111328 0.474121)"/>
</clipPath>
</defs>
</svg>
