<svg width="137" height="153" viewBox="0 0 137 153" fill="none" xmlns="http://www.w3.org/2000/svg">
<g clip-path="url(#clip0_573_7325)">
<g filter="url(#filter0_f_573_7325)">
<path d="M16.1351 135.14C16.1351 140.236 41.4465 144.367 72.6696 144.367C103.893 144.367 129.204 140.236 129.204 135.14C129.204 130.044 103.893 125.913 72.6696 125.913C41.4465 125.913 16.1351 130.044 16.1351 135.14Z" fill="#D9D9D9"/>
</g>
<path d="M71.4543 134.509C72.5579 133.689 72.473 132.114 71.0299 131.483C71.4543 130.853 71.6241 130.16 71.6241 129.403C71.6241 128.899 71.3694 128.458 70.945 128.142C71.4543 127.827 71.7939 127.386 71.7939 126.756C71.8788 125.243 71.7939 123.793 71.709 122.28C71.709 121.839 71.4543 121.461 71.1148 121.146C71.2845 120.452 71.5392 119.759 71.709 119.066C71.8788 118.498 71.709 117.994 71.3694 117.616C71.3694 117.553 71.3694 117.553 71.4543 117.49C72.1335 114.968 72.0486 112.699 71.709 110.178C71.6241 109.673 71.3694 109.295 71.0299 109.043C71.1148 108.602 71.1148 108.161 71.1996 107.719C71.5392 104.442 71.4543 101.164 71.1996 97.886C71.1996 97.6339 71.1148 97.3817 70.945 97.1926C71.1148 96.9405 71.1996 96.6883 71.1996 96.4362C71.3694 90.7001 71.2845 84.9009 70.945 79.1648C70.7752 76.7695 65.6817 76.7065 65.8514 79.1648C66.191 84.9009 66.2759 90.7001 66.1061 96.4362C66.1061 96.6883 66.191 96.9405 66.2759 97.1296C66.191 97.3817 66.1061 97.6339 66.1061 97.949C66.4457 101.605 66.4457 105.324 66.0212 108.98C65.5968 112.258 65.0874 115.41 66.191 118.687C66.2759 118.939 66.4457 119.192 66.6155 119.318C65.6816 122.532 65.0025 125.621 65.9363 128.962C66.0212 129.403 66.1061 129.844 66.191 130.223C66.0212 130.349 65.8514 130.412 65.5968 130.475C65.1723 130.223 64.7478 130.033 64.0687 130.033C62.0313 129.907 60.0788 129.907 58.2111 130.412C57.2773 130.538 56.3435 130.79 55.4946 131.168C54.391 131.357 53.2874 131.546 52.1838 131.925C51.2499 132.24 50.8255 132.744 50.8255 133.311C49.1276 134.446 50.4859 136.589 52.4384 136.589C52.778 137.093 53.542 137.472 54.5608 137.409C55.5795 137.345 56.5133 137.345 57.532 137.282C58.0413 137.661 58.8903 137.85 59.8241 137.661C62.2011 137.156 64.8327 137.282 67.2946 137.219C67.7191 137.661 68.3133 137.976 69.2471 137.976C71.5392 137.976 72.2184 136.085 71.2845 134.95C71.4543 134.761 71.4543 134.635 71.4543 134.509Z" fill="white"/>
<path d="M97.0085 132.492C96.5841 131.987 96.0747 131.735 95.5654 131.483C94.4618 130.475 92.9337 130.096 91.4056 129.529C90.0474 128.962 88.6042 128.773 87.3308 129.403C85.3783 129.466 83.256 129.529 81.4732 129.214C81.2186 129.151 80.879 129.151 80.6243 129.151C80.6243 127.575 80.6243 125.999 80.7092 124.36C81.0488 120.767 81.2186 117.363 80.879 113.771C80.7941 113.266 80.5394 112.825 80.1998 112.51C80.3696 112.258 80.4545 112.006 80.4545 111.69C80.879 106.269 81.3034 100.912 81.3034 95.4906C81.2186 90.4478 80.2847 85.4681 80.9639 80.4254C81.3883 77.5888 75.4459 77.6519 75.0214 80.4254C74.2574 85.4681 75.2761 90.4478 75.361 95.4906C75.4459 100.912 74.9365 106.332 74.5121 111.69C74.4272 112.258 74.6818 112.699 75.0214 113.014C74.9365 113.266 74.8516 113.518 74.9365 113.771C75.2761 117.363 75.1063 120.767 74.7667 124.36C74.4272 128.079 74.9365 131.861 74.5121 135.58C74.2574 137.534 77.0588 138.165 78.9265 137.345C79.5207 137.724 80.2847 137.976 81.2186 137.976C84.1898 138.039 87.4157 137.534 90.2171 136.967C92.679 136.463 95.5654 136.085 97.0085 134.383C97.433 133.878 97.5179 133.059 97.0085 132.492Z" fill="white"/>
<path d="M50.1478 134.446C50.1478 135.391 51.2514 136.4 52.6097 136.4C52.9493 136.904 53.7133 137.282 54.732 137.219C55.7507 137.156 56.6845 137.156 57.7032 137.093C58.2126 137.471 59.0615 137.661 59.9953 137.471C62.3723 136.967 65.004 137.093 67.4659 137.03C67.8903 137.471 68.4846 137.787 69.4184 137.787C71.7105 137.787 72.3896 135.896 71.4558 134.761C71.4558 134.635 71.4558 134.572 71.4558 134.446C71.8803 134.194 72.0501 133.815 72.1349 133.437V132.681C72.0501 132.177 71.6256 131.672 71.0313 131.42C71.4558 130.79 71.6256 130.096 71.6256 129.34C71.6256 128.836 71.3709 128.394 70.9465 128.079C71.4558 127.764 71.7954 127.323 71.7954 126.693C71.8803 125.18 71.7954 123.73 71.7105 122.217C71.7105 121.776 71.4558 121.398 71.1162 121.082C71.286 120.389 71.5407 119.696 71.7105 119.002C71.8803 118.435 71.7105 117.931 71.3709 117.553C71.3709 117.49 71.3709 117.49 71.4558 117.426C72.1349 114.905 72.0501 112.636 71.7105 110.115C71.6256 109.61 71.3709 109.232 71.0313 108.98C71.1162 108.539 71.1162 108.097 71.2011 107.656C71.5407 104.378 71.4558 101.101 71.2011 97.8228C71.2011 97.5707 71.1162 97.3185 70.9465 97.1294C71.1162 96.8773 71.2011 96.6252 71.2011 96.373C71.3709 90.6369 71.286 84.8378 70.9465 79.1016C70.8616 78.0931 70.0126 77.5258 68.9939 77.3367V133.437C69.0788 133.374 62.7119 137.03 50.1478 134.446Z" fill="#C1C1C1"/>
<path d="M70.6888 78.9755C70.6888 80.9296 70.6888 82.8836 70.6888 84.8377C70.6888 89.5022 70.6888 94.1668 70.6888 98.8313C70.6888 104.441 70.6888 110.051 70.6888 115.661C70.6888 120.515 70.6888 125.432 70.6888 130.285C70.6888 131.924 70.6888 133.5 70.6888 135.139C70.6888 135.832 70.5191 136.715 70.6888 137.408C70.6888 137.471 70.6888 137.471 70.6888 137.534C71.0284 137.282 71.368 137.03 71.7075 136.778C66.4442 137.219 60.9262 137.597 55.6629 136.904C54.3046 136.715 52.9463 136.463 51.8427 136.022C51.3334 135.832 51.2485 135.769 50.9089 135.454C50.7391 135.328 50.5694 135.139 50.4845 134.95C50.3996 134.761 50.3996 134.635 50.3996 134.446C50.3996 134.32 50.5694 133.941 50.6542 133.878C51.0787 133.248 51.5032 132.933 52.2672 132.429C53.7953 131.483 55.9176 130.727 58.0399 130.412C60.5018 130.033 63.2183 130.159 65.3406 131.168C66.0198 131.483 66.9536 131.042 66.9536 130.475C66.9536 124.549 66.8687 118.624 66.8687 112.699C66.7838 103.307 66.7838 93.9777 66.6989 84.5856C66.6989 82.4424 66.6989 80.2992 66.6989 78.1561C66.6989 77.1475 64.5766 77.1475 64.5766 78.1561C64.5766 84.0813 64.6615 90.0065 64.6615 95.9318C64.7464 105.324 64.7464 114.653 64.8313 124.045C64.8313 126.188 64.8313 128.331 64.8313 130.475C65.3406 130.222 65.9349 130.033 66.4442 129.781C61.86 127.701 55.4931 128.584 51.4183 130.916C49.8053 131.798 48.1924 133.122 48.2773 134.698C48.447 136.589 51.0787 137.597 53.201 138.039C55.4931 138.543 57.955 138.669 60.2471 138.732C64.0672 138.795 67.8025 138.606 71.5378 138.291C72.132 138.228 72.5565 137.976 72.5565 137.534C72.5565 135.58 72.5565 133.626 72.5565 131.672C72.5565 127.008 72.5565 122.343 72.5565 117.679C72.5565 112.069 72.5565 106.458 72.5565 100.848C72.5565 95.9948 72.5565 91.0781 72.5565 86.2245C72.5565 83.8922 72.8111 81.4339 72.5565 79.1016C72.5565 79.0386 72.5565 79.0386 72.5565 78.9755C72.8111 77.967 70.6888 77.967 70.6888 78.9755Z" fill="black"/>
<path d="M77.3966 132.807V78.3452C76.293 78.5974 75.2743 79.2277 75.1045 80.3623C74.3405 85.4051 75.3592 90.3848 75.4441 95.4275C75.529 100.848 75.0197 106.269 74.5952 111.627C74.5103 112.195 74.765 112.636 75.1045 112.951C75.0196 113.203 74.9348 113.455 75.0197 113.707C75.3592 117.3 75.1894 120.704 74.8499 124.297C74.5103 128.016 75.0197 131.798 74.5952 135.517C74.3405 137.471 77.142 138.102 79.0096 137.282C79.6038 137.661 80.3679 137.913 81.3017 137.913C84.2729 137.976 87.4988 137.471 90.3003 136.904C92.7622 136.4 95.6485 136.022 97.0917 134.32C97.1766 134.194 97.2614 134.068 97.3463 133.941C85.2067 136.337 77.3966 132.807 77.3966 132.807Z" fill="#C1C1C1"/>
<path d="M79.3501 78.9755C79.3501 84.7116 79.3501 90.4478 79.3501 96.1209C79.3501 105.261 79.3501 114.338 79.3501 123.478C79.3501 125.558 79.3501 127.638 79.3501 129.718C79.3501 130.348 80.2839 130.664 80.963 130.412C85.2076 128.71 90.8105 129.214 94.6307 131.231C95.2249 131.546 95.989 132.113 96.3285 132.492C96.6681 132.87 96.5832 132.807 96.753 133.185C96.8379 133.437 96.8379 133.563 96.8379 133.752C96.8379 133.941 96.753 134.068 96.4983 134.32C96.3285 134.509 96.1588 134.698 95.7343 134.95C94.9703 135.391 93.612 135.832 92.5084 136.085C86.9055 137.282 80.7083 137.093 74.9357 136.841C75.2752 137.093 75.6148 137.345 75.9544 137.597C75.9544 135.643 75.9544 133.689 75.9544 131.735C75.9544 127.071 75.9544 122.406 75.9544 117.742C75.9544 112.132 75.9544 106.522 75.9544 100.911C75.9544 96.0578 75.9544 91.1411 75.9544 86.2875C75.9544 83.9552 76.209 81.4969 75.9544 79.1646C75.9544 79.1016 75.9544 79.1016 75.9544 79.0386C75.9544 78.03 73.8321 78.03 73.8321 79.0386C73.8321 80.9926 73.8321 82.9467 73.8321 84.9007C73.8321 89.5653 73.8321 94.2298 73.8321 98.8944C73.8321 104.504 73.8321 110.114 73.8321 115.725C73.8321 120.578 73.8321 125.495 73.8321 130.348C73.8321 132.681 73.5774 135.139 73.8321 137.471C73.8321 137.534 73.8321 137.534 73.8321 137.597C73.8321 138.039 74.3414 138.354 74.8508 138.354C80.6235 138.606 86.6508 138.795 92.3386 137.724C94.7156 137.282 97.9415 136.4 98.7055 134.446C99.3847 132.933 98.1113 131.483 96.6681 130.475C94.7156 129.214 92.1688 128.394 89.622 128.079C86.3112 127.638 82.8307 127.89 79.7745 129.088C80.2839 129.34 80.8781 129.529 81.3875 129.781C81.3875 124.045 81.3875 118.309 81.3875 112.636C81.3875 103.496 81.3875 94.4189 81.3875 85.279C81.3875 83.1988 81.3875 81.1187 81.3875 79.0386C81.4724 77.967 79.3501 77.967 79.3501 78.9755Z" fill="black"/>
<path d="M117.208 61.0828L78.9217 21.2144C76.7145 18.9241 73.149 18.8393 70.8569 21.0448L20.346 69.5654C19.2424 70.6681 19.7517 72.5343 21.1949 72.9585C31.382 75.6729 61.6886 83.6466 75.6109 87.6334C92.4196 92.3837 96.7491 89.5844 107.87 79.1508L117.038 70.5833C119.67 68.0385 119.84 63.7124 117.208 61.0828Z" fill="#FF8D52"/>
<path d="M107.785 79.1508L116.953 70.5833C119.67 68.0385 119.84 63.7124 117.208 61.0828L114.322 58.029C107.7 64.7303 98.2772 72.704 89.7879 74.2308C74.6771 77.1149 51.5015 68.8868 44.9648 63.7972C41.8237 61.3372 40.6353 55.6539 40.2957 50.3947L20.346 69.5654C19.2424 70.6681 19.7517 72.5343 21.1949 72.9584C31.382 75.6729 61.6886 83.6466 75.6109 87.6334C92.3347 92.3837 96.6642 89.4996 107.785 79.1508Z" fill="#F66E00"/>
<path d="M106.771 20.5879C106.771 20.503 106.856 20.4182 106.856 20.3334C108.469 19.2306 108.299 16.2617 106.177 15.7528C106.007 15.6679 105.752 15.4983 105.498 15.4135C104.224 15.0741 102.696 15.8376 102.357 17.1948C102.102 18.2127 101.762 19.2306 101.508 20.3334C101.253 21.1816 101.338 22.0299 101.762 22.7933C102.017 23.2175 102.272 23.5568 102.696 23.8113C103.29 24.6595 104.309 25.2533 105.413 24.914C106.601 24.5747 107.705 23.0478 107.196 21.7754C107.111 21.3513 107.026 20.9272 106.771 20.5879Z" fill="#C1C1C1"/>
<path d="M25.1038 22.03C25.2736 20.5879 25.6981 19.6548 25.5283 18.2128C25.1038 14.7349 24.3398 12.8687 21.1139 11.8508C20.4347 11.6812 19.9254 11.6812 19.416 11.9356C17.8031 10.2391 14.3225 11.5963 15.0865 14.3108C15.9355 17.1949 15.5959 19.57 15.5959 22.3693C15.5959 24.8292 17.3786 26.9499 16.8693 29.4098C16.5297 31.0215 15.4261 31.8698 14.747 33.3967C14.0678 34.7539 13.6434 35.687 12.2851 36.6201C11.9455 36.7897 11.6908 36.9594 11.3513 37.129C11.0966 37.2139 11.0117 37.2987 10.8419 37.3835C9.14406 37.2139 7.44621 39.4193 8.29514 41.2855C10.2477 45.6117 13.5585 47.393 16.9542 46.0358C17.4635 46.1206 17.888 45.0179 18.3973 44.6786C20.7743 43.1517 22.2175 41.2855 22.9815 38.4863C23.4909 36.7897 23.9153 35.0084 24.3398 33.227C24.4247 32.8029 24.5945 30.9367 24.7643 29.834L24.8491 29.7491C25.6132 29.325 26.2074 28.3919 26.1225 27.5437C25.9527 25.6775 24.7643 24.3203 25.1038 22.03Z" fill="white"/>
<path d="M28.499 14.3954C28.4141 14.3106 28.3292 14.3106 28.2443 14.3106C28.1594 14.0561 28.0745 13.8017 27.9896 13.5472C27.8198 12.8686 27.65 12.2748 27.4803 11.5962C27.0558 10.4086 26.4616 9.1362 25.5277 8.28794C24.4241 7.27003 23.0659 6.84589 21.6227 6.93072C20.0946 7.01555 18.5666 7.1852 17.0385 7.43968C16.1896 7.60933 15.5953 8.71207 15.85 9.56034C16.1896 10.4934 17.0385 10.9176 17.9723 10.7479C18.227 10.7479 18.3968 10.6631 18.5666 10.6631C18.7364 10.8327 18.991 11.0024 19.2457 11.0024C20.0097 11.172 20.6889 11.2569 21.4529 11.3417C21.8774 11.4265 22.3867 11.4265 22.8112 11.4265C22.8112 11.681 22.8961 11.9355 23.0659 12.1051C23.4054 12.5293 23.6601 12.9534 23.9148 13.4623C24.0846 13.8016 24.4241 14.0561 24.7637 14.141C24.8486 14.4803 24.9335 14.8196 25.0184 15.1589C25.2731 15.9223 25.5277 16.6857 26.0371 17.1947C26.9709 18.043 28.499 17.8733 29.1781 16.6857C29.6026 15.9223 29.3479 14.8196 28.499 14.3954Z" fill="white"/>
<path d="M16.4446 26.3561C15.0015 23.2175 12.2849 20.2486 8.80432 19.4851C7.87051 19.3155 6.93669 19.6548 6.42734 20.4182C5.66331 20.6727 5.23884 21.2665 5.06906 21.9451C4.89928 22.1996 4.81438 22.5389 4.81438 22.8782V24.0658C4.81438 24.4051 4.81438 24.8292 4.81438 25.1685C4.81438 25.2533 4.81438 25.423 4.72949 25.6775C3.88057 26.0168 3.03164 26.3561 2.4374 26.9498C1.84315 27.5436 1.50358 28.4767 1.3338 29.325C0.909334 31.276 1.50358 33.1422 3.37121 34.0753C4.05035 34.4146 4.81438 34.669 5.49352 34.9235C5.57841 34.9235 6.00288 35.0932 6.08777 35.0932C6.42734 35.2628 6.68201 35.4325 7.02158 35.5173C7.10648 35.5173 7.10648 35.6021 7.10648 35.6021C7.10648 35.6021 7.10648 35.6021 7.19137 35.687C7.27626 35.7718 7.36115 35.8566 7.53094 36.0263C7.53094 36.1111 7.61583 36.1111 7.61583 36.1111C7.61583 36.1111 7.70072 36.1959 7.70072 36.2807C7.78562 36.4504 7.87051 36.5352 7.9554 36.7049C8.63454 37.7228 9.48346 38.3166 10.7568 37.9773C11.5209 37.7228 12.5396 36.9593 13.1338 36.4504C13.8979 35.7718 14.0676 34.9235 14.1525 33.9904C14.2374 33.3118 14.1525 32.5484 14.2374 31.8698H14.3223C14.4921 31.7849 14.7468 31.6153 14.9166 31.5305C16.6993 30.1732 17.3785 28.3919 16.4446 26.3561Z" fill="white"/>
<path d="M36.9046 32.5484C36.7348 30.8519 36.2255 29.1554 35.801 27.5437C35.2068 25.6775 34.5276 23.8113 33.7636 22.03C33.424 21.2665 32.9996 20.5879 32.4053 19.9941C32.0657 19.7396 31.7262 19.4852 31.3017 19.3155C31.2168 19.3155 31.1319 19.2307 31.047 19.2307C30.7924 17.7886 28.5852 16.6011 27.3967 17.9583C27.3118 18.1279 27.142 18.2128 27.0571 18.3824C25.2744 20.6727 24.001 23.7265 25.6988 26.4409C25.9535 26.7802 26.2082 27.0347 26.4628 27.2044C26.8024 27.6285 27.0571 28.1374 27.3118 28.5616C27.3118 28.6464 27.3967 28.7312 27.3967 28.7312C27.3967 28.8161 27.4816 28.9009 27.4816 28.9857C27.3118 29.0705 27.142 29.0705 27.0571 29.1554C25.0197 30.1733 24.3405 32.2939 24.4254 34.4994C24.5103 36.1111 24.5952 37.638 24.5952 39.2497C24.2556 39.4193 24.001 39.6738 23.8312 40.0131C23.0672 41.3703 22.2182 42.5579 21.1995 43.6607C20.6902 44.2544 20.0959 44.7634 19.5017 45.2724C19.247 45.442 18.9923 45.7813 18.6528 45.951C18.6528 45.951 18.6528 45.951 18.5679 45.951C17.0398 45.2724 15.5966 47.1385 15.9362 48.5806C16.2758 49.853 17.2945 50.5316 18.483 50.5316C19.0772 51.6343 20.1808 52.1433 21.7089 52.1433C23.4067 52.1433 25.1046 51.7192 26.7175 51.295C29.8585 50.4468 32.7449 49.0047 34.6974 46.2903C35.5463 45.1027 36.0557 43.6607 36.1406 42.2186C36.2255 41.3703 36.0557 40.6069 35.9708 39.7586C35.8859 38.9952 36.0557 38.3166 36.3104 37.5532C36.6499 35.9415 37.0744 34.3298 36.9046 32.5484Z" fill="white"/>
<path d="M136.144 25.2533C136.144 24.3203 135.804 23.6416 135.125 23.0479C134.87 22.7934 134.531 22.7086 134.191 22.5389C134.361 21.6058 134.021 20.8424 133.427 20.2486C133.512 20.0789 133.597 19.9093 133.682 19.6548C134.276 17.7038 133.767 15.7528 133.937 13.717C134.022 12.7839 133.427 12.0204 132.663 11.5115C132.409 9.64531 130.032 8.20326 128.334 9.89979C127.57 10.6632 126.891 11.5115 126.551 12.5294C126.381 13.0384 126.296 13.5473 126.296 14.0563C126.296 14.2259 126.296 14.3956 126.296 14.5652C125.447 14.7349 123.919 14.1411 123.07 14.0563C121.712 13.9715 120.354 14.0563 118.996 14.3108C118.826 14.3108 118.741 14.3956 118.571 14.3956C118.062 13.6321 117.552 12.8687 117.298 12.0204C116.958 11.0874 117.383 10.1543 117.128 9.22118C116.703 7.27017 114.666 5.99778 112.714 6.50674C110.252 7.18535 110.337 9.89979 110.167 11.9356C110.082 12.8687 109.827 13.8866 109.997 14.8197V14.9045C109.148 15.4135 108.639 16.3466 108.978 17.619C109.148 18.2128 108.129 19.7396 108.299 20.3334C106.601 24.0658 108.724 27.1195 109.063 31.0215C109.318 34.8387 112.034 37.0442 114.326 39.6738C114.411 40.1828 114.581 40.6917 114.921 41.2007C117.977 45.0179 124.683 44.8482 128.334 42.1338C130.286 40.6917 132.409 38.8256 133.257 36.4504C134.191 33.8208 133.257 31.5305 133.088 29.1554C134.701 28.3071 136.229 27.4588 136.144 25.2533Z" fill="white"/>
<path d="M72.1354 27.5436C73.239 26.356 73.8332 24.9139 74.3426 23.4719C74.9368 21.8602 75.2764 20.1637 75.4462 18.4671C75.7857 15.4982 75.3613 12.5293 74.003 9.81486C73.5785 8.9666 72.2203 9.73003 72.6447 10.5783C73.8332 12.8686 74.0879 15.583 73.8332 18.1278C73.6634 19.5699 73.4088 21.0119 72.8994 22.3692C72.4749 23.8112 71.9656 25.2532 70.9469 26.356C70.3526 27.2043 71.4562 28.307 72.1354 27.5436Z" fill="black"/>
<path d="M83.9363 0.738403C79.6917 4.04663 68.6557 5.2342 75.1075 13.0382C81.814 17.6188 85.0399 4.47076 83.9363 0.738403Z" fill="black"/>
<path d="M64.41 7.94879C68.2302 8.71223 75.6158 5.82813 74.0878 12.8687C71.2863 18.0431 64.9194 10.6632 64.41 7.94879Z" fill="black"/>
<path d="M23.8327 13.208C23.2384 14.7348 23.4931 16.6859 24.5118 18.0431C24.6816 18.2976 24.8514 18.4672 25.1061 18.552C25.3607 18.6369 25.7003 18.552 25.8701 18.4672C26.2946 18.2127 26.5492 17.5341 26.2097 17.11C26.1248 16.9403 26.0399 16.8555 25.955 16.6859C25.955 16.601 25.8701 16.5162 25.8701 16.4314C25.8701 16.4314 25.8701 16.3465 25.7852 16.3465C25.7003 16.2617 25.7852 16.2617 25.7852 16.4314C25.7852 16.3465 25.7003 16.2617 25.7003 16.1769C25.7003 16.0921 25.6154 16.0072 25.6154 15.9224C25.6154 15.8376 25.6154 15.7528 25.5305 15.6679C25.5305 15.5831 25.5305 15.4983 25.4456 15.4135C25.4456 15.5831 25.4456 15.5831 25.4456 15.4983V15.4135C25.4456 15.3286 25.4456 15.2438 25.4456 15.159C25.4456 14.9893 25.4456 14.8197 25.4456 14.65V14.5652C25.4456 14.7348 25.4456 14.7348 25.4456 14.65C25.4456 14.5652 25.4456 14.4804 25.5305 14.3955C25.5305 14.2259 25.6154 14.0562 25.7003 13.8866C25.8701 13.3776 25.5305 12.7838 25.0212 12.6142C24.5118 12.3597 24.0874 12.6142 23.8327 13.208Z" fill="black"/>
<path d="M30.7926 16.177C30.3681 13.1232 29.2645 9.89982 26.8876 7.69434C25.1048 6.08264 22.8127 5.23438 20.5206 5.23438C18.7379 5.23438 16.7854 5.65851 15.3422 6.76125C14.748 7.27021 14.1537 7.86399 13.899 8.62743C13.6444 9.47569 13.9839 10.2391 14.5782 10.9177C15.2573 11.5963 16.1911 12.0205 17.1249 12.275C18.653 12.6991 20.1811 12.7839 21.7091 12.8687C22.2185 12.8687 22.6429 12.8687 23.1523 12.8687C23.6617 12.8687 24.171 12.3598 24.171 11.8508C24.171 11.3419 23.7465 10.8329 23.1523 10.8329C22.2185 10.8329 21.3696 10.8329 20.4357 10.7481C20.0962 10.7481 19.6717 10.6633 19.3321 10.6633H19.2472C19.0775 10.6633 19.3321 10.6633 19.3321 10.6633C19.2472 10.6633 19.1624 10.6633 19.0775 10.6633C18.9077 10.6633 18.7379 10.5784 18.5681 10.5784C18.0588 10.4936 17.5494 10.324 17.04 10.1543C16.9552 10.1543 16.8703 10.0695 16.7005 10.0695C17.04 10.1543 16.7854 10.0695 16.6156 9.98465C16.4458 9.89982 16.276 9.81499 16.1911 9.73017C15.9364 9.56052 16.3609 9.89982 16.1911 9.73017C16.1062 9.64534 16.1062 9.64534 16.0213 9.56051C15.9364 9.47569 15.9364 9.47569 15.9364 9.39086C16.0213 9.56051 16.1911 9.56051 15.9364 9.39086C15.9364 9.30604 15.8516 9.30604 15.8516 9.22121C16.0213 9.47569 15.9364 9.47569 15.8516 9.30604C15.7667 9.13638 15.8516 9.13638 15.8516 9.39086C15.8516 9.30604 15.8516 9.30604 15.8516 9.22121V9.13638C15.8516 9.05156 15.7667 9.39086 15.8516 9.30604C15.8516 9.22121 15.8516 9.22121 15.8516 9.13638C15.9364 8.96673 15.9364 9.05156 15.8516 9.22121C15.8516 9.13638 15.9364 9.13638 15.9364 9.05156C15.9364 8.96673 16.0213 8.96673 16.0213 8.88191C15.8516 9.05156 16.1911 8.71225 16.0213 8.88191C16.1062 8.79708 16.1911 8.71225 16.276 8.5426C16.3609 8.45777 16.3609 8.45777 16.4458 8.37295C16.6156 8.28812 16.276 8.5426 16.3609 8.45777L16.4458 8.37295C16.6156 8.37295 16.7854 8.28812 16.8703 8.20329C17.04 8.11847 17.2098 8.03364 17.3796 7.94882C17.4645 7.94882 17.4645 7.94882 17.5494 7.86399C17.7192 7.77916 17.3796 7.94882 17.4645 7.86399C17.5494 7.86399 17.6343 7.77916 17.7192 7.77916C18.0588 7.69434 18.4832 7.60951 18.9077 7.52468C18.9926 7.52468 19.0775 7.52468 19.1624 7.43986C19.2472 7.43986 19.2472 7.43986 19.3321 7.43986H19.417C19.5868 7.43986 19.1624 7.43986 19.3321 7.43986C19.5868 7.43986 19.7566 7.35503 20.0113 7.35503C20.4357 7.35503 20.9451 7.35503 21.3696 7.35503C21.4544 7.35503 21.8789 7.43986 21.4544 7.35503C21.5393 7.35503 21.7091 7.35503 21.794 7.43986C22.0487 7.52468 22.3034 7.52468 22.558 7.60951C22.8127 7.69434 23.0674 7.77916 23.2372 7.86399C23.3221 7.86399 23.3221 7.86399 23.407 7.94882C23.4919 8.03364 23.5768 8.03364 23.407 7.94882C23.4919 8.03364 23.6617 8.03364 23.7465 8.11847C24.2559 8.37295 24.6804 8.62743 25.1048 8.96673C24.935 8.79708 25.1897 9.05156 25.1048 8.96673C25.1897 8.96673 25.1897 9.05156 25.2746 9.05156C25.3595 9.13638 25.5293 9.22121 25.6142 9.30604C25.8689 9.47569 26.0386 9.73017 26.2084 9.89982C26.2933 9.98465 26.3782 10.1543 26.4631 10.2391C26.3782 10.0695 26.6329 10.4088 26.4631 10.2391C26.548 10.324 26.548 10.4088 26.6329 10.4936C26.8027 10.7481 26.9725 11.0026 27.1422 11.3419C27.312 11.5963 27.4818 11.9357 27.6516 12.275C27.6516 12.3598 27.7365 12.4446 27.7365 12.5294C27.8214 12.6143 27.8214 12.7839 27.7365 12.6143C27.8214 12.7839 27.9063 12.9536 27.9912 13.208C28.2458 13.9715 28.5005 14.7349 28.6703 15.5832C28.7552 16.0073 28.8401 16.5163 28.925 16.9404C29.0099 17.4494 29.689 17.7887 30.1984 17.619C30.7077 17.2797 30.8775 16.7707 30.7926 16.177Z" fill="black"/>
<path d="M27.9044 52.3128C27.2253 55.0273 29.1778 57.8266 31.0455 59.6079C32.9131 61.3044 35.2052 62.492 37.752 62.9161C38.2613 63.001 38.8556 62.7465 39.0253 62.2375C39.1951 61.7286 38.8556 61.05 38.3462 60.9651C36.3088 60.6258 34.3563 59.7776 32.8282 58.4203C32.0642 57.7417 31.385 56.9783 30.8757 56.0452C30.2814 55.1121 29.7721 54.0094 30.0267 52.9066C30.1965 51.5494 28.244 51.0405 27.9044 52.3128Z" fill="black"/>
<path d="M14.0689 18.3823C14.1538 18.9761 14.1538 19.6547 14.0689 20.2485C14.0689 20.4181 14.0689 20.5029 14.0689 20.6726C14.0689 20.6726 14.0689 21.0119 14.0689 20.8422C14.0689 20.6726 14.0689 20.9271 14.0689 21.0119C13.984 21.3512 13.984 21.6057 13.8991 21.945C13.8143 22.4539 14.0689 23.0477 14.5783 23.2174C15.0876 23.3022 15.6819 23.0477 15.8517 22.5388C16.1912 21.1816 16.2761 19.8243 16.1912 18.3823C16.1912 18.1278 16.1063 17.8733 15.8517 17.6188C15.6819 17.4492 15.3423 17.2795 15.0876 17.2795C14.6632 17.3644 14.0689 17.7885 14.0689 18.3823Z" fill="black"/>
<path d="M15.5131 22.6237C16.1922 22.963 16.9562 23.1326 17.7203 23.2175C18.4843 23.3023 19.3332 23.3871 20.0972 23.4719C21.6253 23.5568 23.2383 23.5568 24.7663 23.3871C25.2757 23.3023 25.785 22.963 25.785 22.3692C25.785 21.8602 25.2757 21.2664 24.7663 21.3513C23.3232 21.5209 21.88 21.5209 20.4368 21.4361C19.7577 21.4361 18.9936 21.3513 18.3145 21.2664C17.7203 21.1816 17.126 21.0968 16.5318 20.8423C15.3433 20.1637 14.3246 21.9451 15.5131 22.6237Z" fill="black"/>
<path d="M15.9348 26.1016C18.906 27.6284 22.2168 27.2043 25.3579 26.6953C25.8672 26.6105 26.2068 25.9319 26.037 25.4229C25.8672 24.8292 25.3579 24.6595 24.7636 24.7443C22.2168 25.1685 19.3305 25.6774 16.9535 24.405C16.4442 24.1505 15.8499 24.3202 15.5952 24.7443C15.2557 25.1685 15.4255 25.8471 15.9348 26.1016Z" fill="black"/>
<path d="M14.4933 11.6811C14.4084 13.2928 14.4084 14.9045 14.4084 16.4314C14.4084 17.1948 14.4084 17.9583 14.4084 18.7217C14.4933 19.6548 15.2574 19.9093 16.0214 20.0789C17.5495 20.4182 19.0775 20.503 20.6056 20.503C22.0488 20.503 23.6617 20.503 25.02 19.9941C25.5293 19.8244 25.8689 19.3155 25.6991 18.7217C25.5293 18.2127 24.9351 17.7886 24.4257 18.0431C23.1524 18.552 21.5394 18.4672 20.1811 18.4672C19.4171 18.4672 18.6531 18.4672 17.889 18.3824C17.5495 18.3824 17.2948 18.2976 16.9552 18.2127C16.7854 18.2127 16.6156 18.1279 16.4459 18.1279C16.361 18.1279 16.1912 18.0431 16.1063 18.0431C15.8516 17.9583 15.8516 17.9583 16.1063 18.1279C16.1912 18.2976 16.2761 18.4672 16.361 18.552C16.4459 18.7217 16.361 18.3824 16.361 18.2976C16.361 18.1279 16.361 17.9583 16.361 17.8734C16.361 17.5341 16.361 17.2797 16.361 16.9403C16.361 16.3466 16.361 15.7528 16.361 15.159C16.361 13.9714 16.361 12.7839 16.4459 11.5963C16.6156 10.4087 14.5782 10.4087 14.4933 11.6811Z" fill="black"/>
<path d="M21.2845 13.6321C21.1996 13.7169 21.1147 13.7169 21.1147 13.8017L21.0298 13.8866C20.9449 13.9714 20.86 14.0562 20.7751 14.2259C20.6902 14.4804 20.6053 14.65 20.6053 14.9045C20.6053 15.159 20.6902 15.3286 20.7751 15.5831C20.7751 15.5831 20.7751 15.5831 20.7751 15.6679C20.86 15.7527 20.86 15.8376 20.9449 15.9224C21.0298 16.0072 21.1147 16.0921 21.1996 16.1769C21.2845 16.2617 21.3694 16.2617 21.5392 16.3465C21.7938 16.4314 21.9636 16.4314 22.1334 16.3465C22.3881 16.3465 22.5579 16.1769 22.7277 16.0072C22.8125 15.9224 22.8974 15.8376 22.9823 15.7527C22.9823 15.6679 23.0672 15.6679 23.0672 15.5831C23.0672 15.4983 23.1521 15.4983 23.1521 15.4134C23.1521 15.2438 23.237 15.159 23.237 14.9893C23.237 14.9045 23.237 14.7348 23.1521 14.65V14.5652C23.0672 14.3955 22.9823 14.2259 22.8974 14.0562C22.8125 13.9714 22.7277 13.8017 22.6428 13.8017C22.5579 13.7169 22.3881 13.6321 22.3032 13.6321C22.1334 13.5473 22.0485 13.5473 21.8787 13.6321C21.7089 13.6321 21.6241 13.7169 21.5392 13.7169C21.4543 13.5473 21.3694 13.6321 21.2845 13.6321C21.1996 13.8017 21.1147 13.9714 21.1147 14.141C21.1147 14.2259 21.1147 14.3107 21.1147 14.3955C21.1147 14.5652 21.1996 14.7348 21.2845 14.9045C21.2845 14.9893 21.3694 14.9893 21.3694 15.0741C21.3694 14.9893 21.3694 14.9045 21.3694 14.8197C21.3694 14.9045 21.3694 14.9045 21.3694 14.9893C21.3694 14.9045 21.3694 14.8197 21.3694 14.7348V14.8197C21.3694 14.7348 21.4543 14.65 21.4543 14.5652C21.4543 14.5652 21.4543 14.65 21.3694 14.65C21.4543 14.5652 21.4543 14.4804 21.5392 14.4804C21.5392 14.4804 21.5392 14.5652 21.4543 14.5652C21.5392 14.4804 21.6241 14.4804 21.6241 14.3955C21.6241 14.3955 21.5392 14.3955 21.5392 14.4804C21.6241 14.4804 21.7089 14.3955 21.7938 14.3955C21.7938 14.3955 21.7938 14.3955 21.7089 14.3955C21.7938 14.3955 21.8787 14.3955 21.9636 14.3955H21.8787C21.9636 14.3955 22.0485 14.3955 22.1334 14.3955C22.1334 14.3955 22.1334 14.3955 22.0485 14.3955C22.1334 14.3955 22.2183 14.4804 22.3032 14.4804H22.2183C22.3032 14.5652 22.3881 14.5652 22.3881 14.65C22.3881 14.65 22.3881 14.65 22.3032 14.5652C22.3881 14.65 22.3881 14.7348 22.473 14.7348C22.473 14.7348 22.473 14.65 22.3881 14.65C22.3881 14.7348 22.473 14.8197 22.473 14.9045V14.8197C22.473 14.9045 22.473 14.9893 22.473 15.0741V14.9893C22.473 15.0741 22.473 15.159 22.473 15.2438V15.159C22.473 15.2438 22.3881 15.3286 22.3881 15.4134C22.3881 15.3286 22.473 15.3286 22.473 15.2438C22.3881 15.3286 22.3881 15.4134 22.3032 15.4134C22.3881 15.3286 22.473 15.2438 22.5579 15.159C22.6428 15.0741 22.7277 14.9893 22.7277 14.8197C22.8125 14.7348 22.8125 14.5652 22.8125 14.3955C22.8125 14.2259 22.8125 14.141 22.7277 13.9714C22.7277 13.8866 22.6428 13.7169 22.5579 13.6321C22.473 13.5473 22.3881 13.5473 22.3881 13.4624C22.2183 13.3776 22.0485 13.2928 21.8787 13.2928C21.7938 13.2928 21.7089 13.2928 21.6241 13.2928C21.5392 13.4624 21.3694 13.5473 21.2845 13.6321Z" fill="black"/>
<path d="M119.929 45.4419C119.844 49.5135 120.353 54.3486 117.807 57.7417C115.684 60.7106 111.609 61.0499 108.299 60.3713C107.025 60.1168 106.431 62.0678 107.789 62.3223C111.779 63.0857 116.448 62.6616 119.165 59.3534C122.391 55.4514 121.966 50.0225 121.966 45.357C121.966 44.0846 119.929 44.0846 119.929 45.4419Z" fill="black"/>
<path d="M2.69277 27.6283C2.69277 27.6283 3.79637 33.7358 13.2194 35.2627V37.2137L9.14459 37.3833L1.3345 31.3607L0.910034 28.3917L2.69277 27.6283Z" fill="#C1C1C1"/>
<path d="M5.57921 20.5878C5.57921 20.5878 6.93749 27.7132 16.3605 29.24V31.1911L12.2008 31.3607L4.47561 25.338L4.05115 22.2843L5.57921 20.5878Z" fill="#C1C1C1"/>
<path d="M3.54347 25.338C1.59095 26.0167 -0.276685 27.4587 -0.191792 29.6642C-0.1069 31.6152 1.16649 33.3117 2.52476 34.4993C4.13772 35.9413 6.00535 37.1289 7.95787 37.8923C9.65572 38.4861 11.6931 38.9102 13.3061 38.062C15.5982 36.8744 15.3435 33.8207 14.7493 31.7C14.4097 30.3428 12.3723 30.9366 12.7118 32.2938C12.7967 32.5483 12.8816 32.8876 12.8816 33.1421C12.8816 33.3117 12.9665 33.3965 12.9665 33.5662C12.9665 33.651 12.9665 33.9055 12.9665 33.5662C12.9665 33.651 12.9665 33.7358 12.9665 33.8207C12.9665 34.0752 12.9665 34.2448 12.9665 34.4993C12.9665 34.5841 12.9665 34.6689 12.9665 34.8386V34.9234C12.9665 35.0931 13.0514 34.6689 12.9665 34.9234C12.9665 35.0931 12.8816 35.2627 12.8816 35.4324C12.7967 35.602 12.7967 35.6869 12.8816 35.4324C12.7967 35.5172 12.7967 35.602 12.7967 35.6869C12.7967 35.7717 12.7118 35.7717 12.7118 35.8565C12.627 36.0262 12.8816 35.7717 12.7967 35.7717L12.7118 35.8565C12.627 35.9413 12.627 35.9413 12.5421 36.0262C12.3723 36.1958 12.7118 35.9413 12.5421 36.0262C12.4572 36.111 12.2874 36.1958 12.2025 36.2806C12.0327 36.3655 12.4572 36.1958 12.2025 36.2806C12.1176 36.2806 12.0327 36.3655 11.9478 36.3655C11.8629 36.3655 11.778 36.3655 11.6931 36.4503C11.4385 36.5351 11.778 36.4503 11.6931 36.4503C11.5234 36.4503 11.3536 36.4503 11.0989 36.4503C10.9291 36.4503 10.7593 36.4503 10.5895 36.4503C10.3349 36.4503 10.4198 36.4503 10.5046 36.4503C10.4198 36.4503 10.3349 36.4503 10.1651 36.3655C9.74061 36.2806 9.31615 36.1958 8.89169 36.0262C8.7219 35.9413 8.46723 35.8565 8.29744 35.7717C8.21255 35.7717 8.12766 35.6869 7.95787 35.6869C8.21255 35.7717 7.95787 35.6868 7.87298 35.602C7.44852 35.4324 7.02406 35.1779 6.5996 34.9234C6.17513 34.6689 5.75067 34.4145 5.4111 34.16C5.24132 33.9903 5.07153 33.9055 4.81686 33.7358C4.81686 33.8207 5.15643 33.9903 4.98664 33.8207C4.90175 33.7358 4.73196 33.651 4.64707 33.5662C4.3075 33.2269 3.96793 32.9724 3.62836 32.6331C3.45858 32.4634 3.37369 32.3786 3.2039 32.209C3.11901 32.1241 3.03412 32.0393 3.03412 31.9545C2.86433 31.7 3.11901 32.0393 2.94922 31.8697C2.69455 31.5304 2.52476 31.1911 2.27009 30.8518C2.27009 30.7669 2.18519 30.6821 2.18519 30.5973C2.1003 30.5124 2.27009 30.8518 2.18519 30.5973C2.1003 30.4276 2.1003 30.258 2.01541 30.0883C2.01541 30.0035 2.01541 29.9187 1.93052 29.8338C1.84562 29.6642 1.93052 30.0883 1.93052 29.9187C1.93052 29.8338 1.93052 29.8338 1.93052 29.749C1.93052 29.6642 1.93052 29.5794 1.93052 29.4945C1.93052 29.3249 1.93052 29.3249 1.93052 29.4945C1.93052 29.3249 2.01541 29.1552 2.1003 28.9856C2.1003 28.8159 2.01541 29.0704 2.01541 29.0704C2.01541 28.9856 2.1003 28.9856 2.1003 28.9007C2.18519 28.8159 2.18519 28.7311 2.27009 28.6463L2.35498 28.5614C2.43987 28.3918 2.18519 28.7311 2.35498 28.6463C2.35498 28.4766 2.35498 28.3918 2.43987 28.3918C2.52476 28.307 2.60966 28.2221 2.69455 28.1373C2.86433 27.9677 2.52476 28.2221 2.77944 28.0525C3.03412 27.8828 3.2039 27.798 3.45858 27.6284C3.62836 27.5435 3.71326 27.5435 3.88304 27.4587C3.62836 27.5435 4.05282 27.3739 4.13772 27.3739C4.64707 27.2042 5.07153 26.6953 4.90175 26.1015C4.73196 25.5925 4.13772 25.1684 3.54347 25.338Z" fill="black"/>
<path d="M5.66512 25.0837C5.49534 24.3203 5.32555 23.6416 5.24066 22.963C5.24066 22.7086 5.24066 22.3692 5.24066 22.1148C5.24066 21.9451 5.24066 22.1996 5.24066 21.9451C5.24066 21.7755 5.32555 21.6906 5.32555 21.521C5.32555 21.4362 5.49534 21.1817 5.32555 21.4362C5.32555 21.3513 5.41044 21.2665 5.49534 21.1817C5.49534 21.0969 5.75001 20.8424 5.58023 21.012C5.49534 21.0969 5.66512 20.9272 5.75001 20.8424C5.9198 20.6727 5.66512 20.9272 5.83491 20.7575C5.9198 20.6727 6.00469 20.6727 6.08958 20.5879C6.08958 20.5879 6.17447 20.5879 6.17447 20.5031C5.9198 20.5879 6.34426 20.4182 6.17447 20.5031C6.25937 20.5031 6.34426 20.4182 6.51404 20.4182C6.59894 20.4182 6.68383 20.3334 6.85361 20.3334C6.59894 20.3334 6.85361 20.3334 6.93851 20.3334C7.19318 20.3334 7.44786 20.3334 7.61764 20.3334C7.70254 20.3334 7.70254 20.3334 7.78743 20.3334C7.53275 20.3334 7.70254 20.3334 7.78743 20.3334C7.87232 20.3334 8.04211 20.3334 8.127 20.4182C8.38168 20.5031 8.63635 20.5879 8.89103 20.6727C9.48528 20.8424 9.73995 20.9272 10.3342 21.2665C10.8436 21.521 11.4378 21.8603 11.9472 22.1996C13.7299 23.472 15.5126 25.423 16.1069 27.5436C16.2767 28.1374 16.3616 28.3919 16.2767 28.9857C16.1918 29.4098 15.8522 30.0036 15.5126 30.3429C15.258 30.5974 14.8335 30.767 14.4939 30.767C13.8148 30.767 13.4752 30.6822 12.7961 30.4277C11.3529 29.9188 9.82485 28.9009 8.63635 27.883C7.95721 27.374 7.36297 26.7802 6.76872 26.1864C6.25937 25.5926 6.00469 25.3382 5.58023 24.7444C4.8162 23.5568 3.03346 24.6596 3.7126 25.8471C4.56152 27.1195 5.66512 28.3071 6.85361 29.325C8.29678 30.5126 9.82485 31.6153 11.6076 32.3787C13.0508 32.9725 14.7486 33.3118 16.1918 32.5484C17.6349 31.785 18.4839 30.0036 18.399 28.3919C18.1443 25.5078 16.1918 22.963 13.9846 21.1817C12.032 19.57 9.31549 17.9583 6.59894 18.2976C5.24066 18.4672 4.13706 19.1458 3.54281 20.3334C2.77878 21.9451 3.11835 23.8961 3.6277 25.5926C3.96727 26.9499 6.00469 26.3561 5.66512 25.0837Z" fill="black"/>
<path d="M108.978 32.6332C108.978 32.6332 114.92 38.9952 119.505 32.8029L120.184 32.2091L121.797 37.0442L120.438 39.6738C120.438 39.6738 116.279 42.4731 113.647 39.9283C111.1 37.3835 109.402 34.9235 109.402 34.9235L108.978 32.6332Z" fill="#C1C1C1"/>
<path d="M118.572 30.2581C118.826 29.9188 120.269 28.2223 120.269 28.2223L131.136 29.9188L133.003 30.2581L133.598 32.6333C133.598 32.6333 126.042 34.4994 121.118 32.294C116.28 30.0036 118.572 30.2581 118.572 30.2581Z" fill="#C1C1C1"/>
<path d="M122.986 29.834C122.986 29.834 123.156 29.9188 123.41 30.0884C124.259 30.6822 126.127 32.3787 126.042 35.0932C125.872 38.5711 120.779 40.0131 120.779 40.0131L121.203 33.5663L118.741 30.2581L120.354 28.816L122.561 29.325L122.986 29.834Z" fill="#C1C1C1"/>
<path d="M117.552 17.3645L118.741 15.668C118.741 15.668 122.051 15.4135 123.325 16.5162C124.598 17.619 128.418 22.1148 128.418 23.7265C128.418 25.3382 127.06 25.423 127.06 25.423L122.391 19.4851L119.505 18.7217L116.788 18.2976L117.552 17.3645Z" fill="#C1C1C1"/>
<path d="M106.94 25.5078C105.751 32.2091 108.722 40.2676 115.938 41.8793C117.212 42.1337 117.806 40.1827 116.448 39.9283C110.335 38.571 107.874 31.7001 108.892 26.1016C109.232 24.7444 107.194 24.2354 106.94 25.5078Z" fill="black"/>
<path d="M112.12 27.0347C113.563 24.6595 116.025 22.7934 118.742 22.963C119.081 22.963 118.996 22.963 119.336 23.0478C119.591 23.1327 119.845 23.2175 120.1 23.3023C119.93 23.2175 120.27 23.3871 120.1 23.3023C120.1 23.3023 120.185 23.3023 120.185 23.3871C120.27 23.472 120.355 23.472 120.524 23.5568C120.609 23.5568 120.609 23.6416 120.694 23.6416C120.779 23.7264 120.864 23.8113 120.949 23.8961C121.119 24.0657 120.949 23.8961 121.034 23.9809C121.119 24.0658 121.119 24.1506 121.204 24.2354C121.289 24.4051 121.204 24.0657 121.289 24.3202C121.289 24.4051 121.373 24.4899 121.373 24.6595C121.373 24.4051 121.373 24.7444 121.373 24.8292C121.373 24.914 121.373 24.914 121.373 24.9988C121.373 25.0837 121.289 25.2533 121.289 25.3381C121.204 25.5926 121.204 25.5078 121.204 25.5926C120.44 27.2891 118.572 28.3919 117.044 29.2402C116.195 29.6643 116.535 30.8519 117.299 31.1063C120.44 32.2939 122.222 36.7897 119.421 39.2497C118.402 40.0979 119.845 41.54 120.864 40.6917C124.939 37.2138 122.307 30.767 117.808 29.1553C117.893 29.7491 117.978 30.4277 118.063 31.0215C120.524 29.6643 125.024 26.4409 122.986 23.0478C121.373 20.4182 117.553 20.5879 115.176 21.6906C113.139 22.5389 111.526 24.1506 110.507 26.1016C109.658 27.1195 111.441 28.1374 112.12 27.0347Z" fill="black"/>
<path d="M123.834 42.8123C126.466 43.0668 129.182 42.3881 131.22 40.7764C133.087 39.2496 134.276 37.0441 134.615 34.669C134.87 33.0573 134.785 31.5304 134.446 30.0035C134.191 28.7311 132.238 29.2401 132.493 30.5125C133.002 33.0573 132.748 35.9413 131.05 38.1468C129.352 40.3523 126.551 41.1157 123.834 40.8613C122.561 40.6916 122.561 42.7274 123.834 42.8123Z" fill="black"/>
<path d="M111.354 39.7586C112.033 42.8972 115.344 44.5937 118.23 45.2724C121.541 46.0358 125.276 45.951 128.332 44.3393C129.86 43.5758 131.049 42.3034 131.643 40.6917C132.068 39.4193 130.115 38.9104 129.691 40.1828C128.672 43.3214 124.003 43.7455 121.286 43.6607C118.485 43.491 114.07 42.4731 113.391 39.2497C113.052 37.8925 111.099 38.4863 111.354 39.7586Z" fill="black"/>
<path d="M117.383 19.57C118.486 19.1458 119.335 19.061 120.354 19.4851C120.439 19.57 120.439 19.57 120.354 19.4851C120.439 19.4851 120.439 19.57 120.524 19.57C120.609 19.6548 120.778 19.6548 120.863 19.7396C120.948 19.8244 121.033 19.8244 121.118 19.9093C121.203 19.9093 121.203 19.9941 121.288 19.9941C121.203 19.9093 121.203 19.9093 121.288 19.9941C121.712 20.3334 122.052 20.6727 122.391 21.0968C122.986 21.7754 123.58 22.7085 124.174 23.5568C124.768 24.4051 125.363 25.3381 126.127 26.1016C126.466 26.4409 126.975 26.4409 127.4 26.2712C129.183 25.423 130.796 23.8961 131.135 21.9451C131.475 20.1637 130.881 18.3824 129.862 16.8555C127.909 13.9714 124.004 11.4266 120.354 12.5294C117.977 13.208 116.619 15.4135 116.024 17.619C115.685 18.8913 117.637 19.4003 117.977 18.1279C118.062 17.8734 118.147 17.619 118.232 17.3645C118.232 17.2796 118.316 17.11 118.316 17.0252C118.232 17.1948 118.401 16.8555 118.316 17.0252C118.316 16.9403 118.401 16.8555 118.401 16.8555C118.486 16.6859 118.571 16.4314 118.741 16.2617C118.826 16.1769 118.826 16.0921 118.911 16.0073C118.911 15.9224 119.165 15.6679 118.996 15.8376C119.08 15.6679 119.25 15.5831 119.335 15.4135C119.42 15.3286 119.505 15.2438 119.59 15.2438C119.675 15.159 119.929 14.9893 119.675 15.159C119.845 15.0742 119.929 14.9893 120.099 14.9045C120.184 14.9045 120.269 14.8197 120.269 14.8197C120.354 14.8197 120.693 14.65 120.354 14.7349C120.693 14.65 121.033 14.5652 121.373 14.4804C121.373 14.4804 121.203 14.4804 121.457 14.4804C121.542 14.4804 121.627 14.4804 121.712 14.4804C121.882 14.4804 122.137 14.4804 122.306 14.4804C122.391 14.4804 122.476 14.4804 122.561 14.4804C122.816 14.4804 122.476 14.4804 122.646 14.4804C122.816 14.4804 123.07 14.5652 123.24 14.5652C123.58 14.65 123.919 14.7349 124.344 14.9045C124.089 14.8197 124.344 14.9045 124.429 14.9893C124.514 14.9893 124.598 15.0742 124.683 15.159C124.853 15.2438 125.023 15.3286 125.193 15.4135C125.532 15.5831 125.872 15.8376 126.211 16.0921C126.042 15.9224 126.211 16.0921 126.296 16.1769C126.381 16.2617 126.466 16.2617 126.466 16.3466C126.636 16.5162 126.806 16.601 126.975 16.7707C127.23 17.0252 127.57 17.3645 127.824 17.7038C127.909 17.8734 127.739 17.5341 127.909 17.7886C127.994 17.8734 127.994 17.9583 128.079 18.0431C128.164 18.2127 128.334 18.3824 128.419 18.552C128.504 18.7217 128.588 18.8913 128.673 19.061C128.758 19.1458 128.758 19.2307 128.758 19.3155C128.843 19.57 128.758 19.2307 128.843 19.4003C128.928 19.7396 129.098 20.0789 129.183 20.4182C129.183 20.503 129.183 20.5879 129.183 20.6727C129.098 20.3334 129.183 20.6727 129.183 20.7575C129.183 20.9272 129.183 21.0968 129.183 21.3513C129.183 21.4361 129.183 21.521 129.183 21.6058C129.183 21.7754 129.268 21.4361 129.183 21.6906C129.183 21.8603 129.098 22.1147 129.013 22.2844C129.013 22.3692 128.928 22.6237 128.928 22.4541C129.013 22.2844 128.843 22.6237 128.843 22.6237C128.758 22.7934 128.588 22.963 128.504 23.1327C128.419 23.3023 128.504 23.2175 128.504 23.1327C128.504 23.2175 128.419 23.2175 128.419 23.3023C128.334 23.3871 128.249 23.472 128.164 23.5568C127.994 23.7264 127.824 23.8961 127.655 24.0658C127.824 23.8961 127.57 24.1506 127.485 24.1506C127.4 24.2354 127.23 24.3202 127.145 24.4051C126.891 24.5747 126.636 24.7444 126.381 24.8292C126.806 24.914 127.23 24.914 127.655 24.9988C126.891 24.2354 126.381 23.472 125.787 22.5389C125.108 21.521 124.429 20.5879 123.665 19.6548C122.901 18.8065 121.882 18.1279 120.778 17.7038C119.505 17.2796 118.147 17.4493 116.873 17.8734C116.364 18.0431 116.024 18.552 116.194 19.1458C116.279 19.4003 116.873 19.7396 117.383 19.57Z" fill="black"/>
<path d="M110.251 16.4314C110.167 15.9224 110.082 15.4135 110.082 14.9045C110.082 14.3955 109.997 13.8866 110.082 13.3776C110.082 12.8687 110.167 12.4445 110.167 11.9356C110.167 11.8508 110.167 11.8508 110.167 11.7659C110.167 11.6811 110.167 11.5963 110.251 11.4266C110.251 11.1721 110.336 11.0025 110.421 10.8328C110.506 10.4935 110.591 10.0694 110.761 9.7301C110.761 9.64528 110.846 9.47562 110.761 9.64527C110.761 9.56045 110.846 9.47562 110.846 9.3908C110.931 9.22114 111.015 9.05149 111.1 8.88184C111.185 8.71219 111.27 8.62736 111.355 8.45771C111.355 8.37288 111.44 8.37288 111.525 8.28805C111.695 8.1184 111.44 8.45771 111.525 8.20323C111.695 7.94875 111.949 7.7791 112.119 7.60944C112.119 7.60944 112.374 7.43979 112.204 7.52462C112.034 7.60944 112.289 7.52462 112.289 7.43979C112.374 7.35497 112.544 7.27014 112.628 7.27014C112.713 7.27014 112.713 7.18531 112.798 7.18531C112.544 7.27014 112.968 7.10049 112.798 7.18531C112.883 7.18531 113.053 7.10049 113.138 7.10049C113.223 7.10049 113.223 7.10049 113.308 7.10049C113.477 7.01566 113.138 7.10049 113.223 7.10049C113.308 7.10049 113.477 7.10049 113.562 7.10049C113.647 7.10049 113.647 7.10049 113.732 7.10049C113.902 7.10049 113.647 7.10049 113.647 7.10049C113.732 7.10049 113.987 7.18531 114.072 7.18531C114.156 7.18531 114.156 7.18531 114.241 7.27014C114.156 7.18531 114.496 7.35497 114.241 7.27014C114.326 7.35497 114.496 7.35497 114.581 7.43979C114.666 7.52462 114.751 7.60944 114.921 7.69427C114.666 7.52462 114.836 7.60944 114.921 7.69427C115.005 7.7791 115.09 7.7791 115.09 7.86392C115.175 7.94875 115.26 8.03358 115.345 8.1184C115.43 8.20323 115.43 8.20323 115.515 8.28805C115.345 8.03358 115.515 8.28805 115.515 8.37288C115.685 8.62736 115.854 8.96666 116.024 9.30597C116.109 9.3908 116.109 9.47562 116.194 9.64527C116.109 9.47562 116.194 9.7301 116.279 9.81493C116.364 10.0694 116.449 10.2391 116.533 10.4935C116.703 11.0025 116.788 11.5115 116.873 11.9356C116.873 12.1052 116.958 12.1901 116.958 12.3597C116.958 12.5294 116.958 12.4445 116.958 12.4445C116.958 12.5294 116.958 12.6142 116.958 12.699C116.958 13.0383 117.043 13.3776 117.043 13.6321C117.043 14.3107 117.043 14.9893 117.043 15.6679C117.043 17.0252 119.08 17.0252 119.08 15.6679C119.165 13.4625 118.995 11.0873 118.146 8.96666C117.552 7.60944 116.703 6.1674 115.26 5.57361C113.987 4.97983 112.544 5.14948 111.44 5.91292C110.082 6.76118 109.233 8.20323 108.808 9.7301C108.044 12.1052 108.129 14.7349 108.469 17.1948C108.554 17.7038 109.233 18.0431 109.742 17.8734C110.082 17.5341 110.336 16.9403 110.251 16.4314Z" fill="black"/>
<path d="M127.825 13.6321C127.994 13.1231 128.079 12.6142 128.334 12.1052C128.419 11.9356 128.504 11.6811 128.589 11.5114C128.674 11.3418 128.589 11.5963 128.674 11.4266C128.758 11.3418 128.758 11.1721 128.843 11.0873C129.013 10.748 129.183 10.4935 129.353 10.239C129.353 10.239 129.523 10.0694 129.438 10.1542C129.353 10.239 129.438 10.0694 129.523 10.0694C129.607 9.98456 129.692 9.89974 129.777 9.81491C129.862 9.73009 129.607 9.89974 129.692 9.89974C129.777 9.89974 129.777 9.81491 129.862 9.81491C129.862 9.81491 129.947 9.81491 129.947 9.73009C129.947 9.73009 129.692 9.81491 129.862 9.73009C129.692 9.73009 130.117 9.64526 129.862 9.73009H129.947C130.032 9.73009 129.692 9.64526 129.862 9.73009L130.117 9.81491C130.032 9.89974 129.862 9.64526 130.032 9.81491C130.032 9.81491 130.117 9.89974 130.202 9.89974L130.287 9.98456C130.371 9.98456 130.117 9.81491 130.202 9.89974C130.287 9.98456 130.371 10.0694 130.456 10.1542C130.541 10.239 130.626 10.3239 130.711 10.4087C130.456 10.1542 130.711 10.4935 130.796 10.5783C130.966 10.8328 131.135 11.0873 131.22 11.3418C131.305 11.5114 131.39 11.5963 131.39 11.7659C131.39 11.8507 131.475 11.9356 131.475 11.9356C131.56 12.19 131.475 11.8507 131.475 12.0204C131.56 12.3597 131.73 12.6142 131.815 12.9535C132.069 13.6321 132.239 14.3107 132.324 15.0741C132.409 15.4134 132.494 15.8376 132.494 16.1769C132.494 16.3465 132.494 16.0072 132.494 16.2617C132.494 16.3465 132.494 16.4314 132.494 16.5162C132.494 16.6858 132.494 16.9403 132.579 17.11C132.664 17.8734 132.664 18.7217 132.579 19.4851C132.579 19.5699 132.579 19.6548 132.579 19.7396C132.579 19.8244 132.494 20.0789 132.579 19.8244C132.579 19.9941 132.494 20.1637 132.494 20.3334C132.409 20.6727 132.324 21.012 132.239 21.3513C132.069 21.8602 132.409 22.454 132.918 22.6237C133.512 22.7933 134.022 22.454 134.192 21.9451C134.701 20.5879 134.786 18.9761 134.701 17.5341C134.616 15.9224 134.276 14.2259 133.767 12.6142C133.343 11.257 132.748 9.89974 131.815 8.88182C130.966 7.94873 129.692 7.5246 128.589 8.20321C127.91 8.62734 127.4 9.30595 127.061 9.98456C126.466 11.0025 126.127 12.19 125.787 13.3776C125.533 14.3107 127.485 14.9045 127.825 13.6321Z" fill="black"/>
<path d="M103.122 16.4314C107.621 17.6189 112.205 18.6369 116.79 19.57C118.063 19.8244 118.657 17.8734 117.299 17.6189C112.715 16.6859 108.131 15.6679 103.631 14.4804C102.443 14.1411 101.849 16.0921 103.122 16.4314Z" fill="black"/>
<path d="M130.877 22.963C132.32 23.0478 134.782 22.8782 135.207 24.5747C135.546 26.0167 134.612 28.2222 133.084 28.5615C131.302 29.0705 129.349 28.816 127.566 28.6464C125.529 28.4767 123.407 28.2222 121.369 27.9678C120.86 27.8829 120.266 28.1374 120.096 28.6464C119.926 29.1553 120.266 29.8339 120.775 29.9188C123.407 30.2581 126.038 30.5974 128.67 30.767C130.792 30.9367 133.763 31.1912 135.461 29.4946C136.989 27.9678 137.838 25.2533 136.82 23.2175C135.716 21.012 132.915 20.9272 130.792 20.8423C129.604 20.8423 129.604 22.8782 130.877 22.963Z" fill="black"/>
<path d="M101.676 25.1685C104.732 25.6775 107.873 26.1016 111.014 26.4409C111.523 26.5257 112.033 25.9319 112.033 25.423C112.033 24.8292 111.523 24.4899 111.014 24.4051C108.043 24.0658 105.156 23.7264 102.27 23.2175C101.761 23.1327 101.166 23.3871 100.997 23.8961C100.827 24.4051 101.166 25.0837 101.676 25.1685Z" fill="black"/>
<path d="M102.778 14.65C101.334 15.3286 100.825 17.2796 100.57 18.7217C100.316 20.4182 100.316 22.1995 100.74 23.8961C101.08 25.1685 103.032 24.6595 102.693 23.3871C102.353 22.1147 102.268 20.7575 102.438 19.4003C102.523 18.7217 102.693 18.043 102.947 17.4493C103.117 17.0251 103.287 16.6858 103.711 16.4313C104.221 16.1769 104.306 15.4983 104.051 15.0741C103.881 14.5652 103.287 14.3955 102.778 14.65Z" fill="black"/>
<path d="M108.384 16.8555C107.535 17.7886 107.196 18.9762 106.941 20.2486C106.687 21.6058 106.517 22.963 106.517 24.3202C106.517 24.8292 107.026 25.3381 107.535 25.3381C108.13 25.3381 108.554 24.914 108.554 24.3202C108.554 23.1327 108.639 22.0299 108.894 20.8423C108.979 20.3334 109.148 19.8244 109.318 19.3155C109.403 18.9762 109.658 18.552 109.912 18.2976C110.252 17.8734 110.337 17.2796 109.912 16.8555C109.488 16.4314 108.724 16.4314 108.384 16.8555Z" fill="black"/>
<path d="M31.1313 18.6368C31.1313 18.6368 30.7069 18.2975 30.1975 18.3823C30.1126 18.3823 30.0277 18.3823 29.9429 18.4671C29.5184 18.6368 29.0939 19.2306 28.8393 20.6726C28.3299 23.9808 29.9429 27.798 30.2824 28.0525C30.5371 28.307 30.7918 30.3428 29.858 31.0214C28.9241 31.7 26.9716 34.2448 27.8205 35.9413C28.5846 37.6379 29.7731 38.062 30.7918 38.6558C31.8105 39.2496 32.4896 40.9461 31.7256 41.7095C30.9616 42.473 29.3486 42.473 29.3486 42.473L25.4436 39.0799L23.5759 33.9903L25.4436 30.0883L26.7169 28.4766L25.4436 22.454L26.8867 17.7885L28.7544 17.0251C28.7544 17.0251 29.858 17.9582 29.858 18.1278" fill="#C1C1C1"/>
<path d="M31.8124 45.6964C38.6887 41.3702 38.2642 32.2938 36.1419 25.5077C35.1232 22.1995 33.7649 18.2975 30.4541 16.601C27.8225 15.2437 25.7002 16.9403 24.8512 19.485C23.9174 22.6236 24.4268 26.5256 26.1246 29.3249C26.2095 28.9008 26.3793 28.3918 26.4642 27.9677C20.0124 31.4455 22.1347 41.1157 28.7563 42.9819C30.0297 43.3212 30.539 41.3702 29.2656 41.0309C24.4268 39.5889 22.7289 32.3786 27.6527 29.749C28.162 29.4945 28.3318 28.8159 27.9922 28.3918C26.634 26.356 26.2944 23.6415 26.634 21.1816C26.8886 19.6547 27.6527 17.4492 29.5203 18.4671C32.2369 19.8243 33.3405 23.2174 34.1894 25.9318C35.1232 28.9856 35.7175 32.209 35.4628 35.4324C35.2081 38.8254 33.7649 42.1337 30.7937 43.9998C29.6901 44.6785 30.7088 46.375 31.8124 45.6964Z" fill="black"/>
<path d="M22.1338 43.6605C22.1338 43.6605 21.7942 46.2901 25.105 47.1384C25.105 47.1384 23.9165 50.6163 28.5856 50.6163L28.7554 51.3797L20.6057 52.6521L16.9553 50.3618L15.597 48.0715V46.0357L22.1338 43.6605Z" fill="#C1C1C1"/>
<path d="M6.93938 37.9773C6.26024 40.5221 8.04298 42.982 9.57104 44.8482C11.0991 46.7992 13.2214 48.1564 15.7682 47.7323C20.7768 46.9689 24.4272 42.5579 24.6819 37.638C24.7668 36.2808 22.7294 36.3656 22.6445 37.638C22.4747 41.3703 19.843 44.6786 16.1078 45.6116C14.0703 46.1206 12.4574 45.1875 11.184 43.5758C10.0804 42.3034 8.46744 40.2676 8.97679 38.4862C9.23147 37.2138 7.27895 36.6201 6.93938 37.9773Z" fill="black"/>
<path d="M14.239 48.9198C16.1915 50.3619 18.7383 50.6164 21.0304 50.1922C22.3038 50.0226 23.5771 49.5985 24.8505 49.1743C26.039 48.7502 27.3124 48.3261 28.5009 47.7323C29.6894 47.1385 28.6707 45.3571 27.4822 45.9509C26.5484 46.4599 25.5297 46.7992 24.4261 47.1385C23.3225 47.5626 22.134 47.9019 20.9455 48.1564C18.993 48.5805 16.8707 48.4109 15.2577 47.1385C14.8332 46.7992 14.1541 47.0537 13.8994 47.4778C13.5599 48.0716 13.8145 48.5805 14.239 48.9198Z" fill="black"/>
<path d="M15.7684 50.7012C17.3814 52.5674 19.1641 53.9246 21.7109 53.6701C24.2577 53.4156 26.8044 53.0763 29.2663 52.228C31.6433 51.4646 33.8505 50.1074 35.3786 48.1564C36.2275 47.1385 36.8217 46.0357 37.0764 44.6785C37.2462 43.3213 37.2462 41.9641 37.1613 40.6068C37.0764 39.3345 35.039 39.2496 35.1239 40.6068C35.2088 41.7096 35.2088 42.8123 35.1239 43.9151C35.039 45.1026 34.5296 46.0357 33.7656 46.9688C32.3224 48.6653 30.4548 49.6833 28.4174 50.3619C26.4649 50.9557 24.4275 51.295 22.39 51.5494C21.3713 51.6343 20.3526 51.8039 19.4188 51.295C18.5699 50.786 17.8907 50.0226 17.2116 49.2591C16.2778 48.2412 14.8346 49.6833 15.7684 50.7012Z" fill="black"/>
<path d="M84.5279 41.5398C84.4431 41.7095 84.4431 41.8792 84.3582 42.0488C84.3582 42.1336 84.2733 42.2185 84.2733 42.3033C84.3582 42.0488 84.2733 42.3881 84.1884 42.3881C84.0186 42.7274 83.8488 43.0667 83.679 43.3212C83.5941 43.4909 83.5092 43.5757 83.4243 43.7453C83.3395 43.8302 83.1697 43.9998 83.3395 43.8302C83.2546 43.915 83.2546 43.9998 83.1697 44.0846C82.915 44.3391 82.6603 44.5936 82.4056 44.8481C82.3207 44.9329 82.151 45.1026 82.0661 45.1874C81.9812 45.2722 81.8963 45.2722 81.8963 45.357C81.8963 45.357 81.8114 45.357 81.8114 45.4419C81.6416 45.6115 81.9812 45.357 81.8114 45.4419C81.5567 45.6115 81.302 45.866 80.9625 46.0356C80.7078 46.2053 80.4531 46.3749 80.1135 46.4598C80.0287 46.4598 79.9438 46.5446 79.8589 46.5446C79.6891 46.6294 80.1135 46.4598 79.8589 46.5446C79.6891 46.6294 79.6042 46.6294 79.4344 46.7143C79.1797 46.7991 78.9251 46.8839 78.5855 46.9687C78.5006 46.9687 78.3308 47.0536 78.2459 47.0536C77.9912 47.1384 78.4157 47.0536 78.2459 47.0536C78.161 47.0536 78.0761 47.0536 78.0761 47.0536C77.8214 47.0536 77.5668 47.0536 77.3121 47.0536C77.2272 47.0536 77.2272 47.0536 77.1423 47.0536C77.4819 47.0536 77.3121 47.0536 77.2272 47.0536C77.1423 47.0536 76.9725 46.9687 76.8876 46.9687C76.8027 46.9687 76.8027 46.9687 76.7178 46.8839C76.5481 46.7991 76.9725 46.9687 76.8027 46.8839C76.7178 46.7991 76.633 46.7991 76.5481 46.7143C76.3783 46.6294 76.5481 46.6294 76.633 46.7991L76.5481 46.7143L76.4632 46.6294C76.2934 46.4598 76.5481 46.7991 76.5481 46.7143C76.5481 46.6294 76.4632 46.5446 76.4632 46.4598C76.3783 46.2901 76.5481 46.7142 76.4632 46.5446C76.4632 46.4598 76.4632 46.4598 76.3783 46.3749C76.3783 46.2901 76.3783 46.2901 76.3783 46.2053C76.3783 46.2053 76.3783 46.5446 76.3783 46.2901C76.3783 46.2053 76.3783 46.0356 76.3783 45.9508C76.3783 45.7812 76.4632 45.866 76.3783 46.0356C76.3783 45.9508 76.3783 45.866 76.3783 45.7812C76.3783 45.6115 76.4632 45.4419 76.4632 45.357C76.4632 45.2722 76.5481 45.1874 76.5481 45.1025V45.0177C76.4632 45.1874 76.633 44.8481 76.5481 45.0177C76.633 44.8481 76.7178 44.6784 76.8027 44.5088C77.0574 44.0846 77.3121 43.6605 77.5668 43.2364C77.6517 43.1515 77.7366 43.0667 77.8215 42.8971C77.8215 42.8122 77.9063 42.8122 77.9063 42.7274C77.9912 42.6426 77.8214 42.8122 77.9912 42.6426C78.161 42.3881 78.4157 42.1336 78.5855 41.8792C78.9251 41.455 79.0099 40.7764 78.5855 40.3523C78.161 39.9281 77.4819 39.9281 77.0574 40.3523C75.8689 41.7095 74.5106 43.406 74.1711 45.2722C73.9164 46.5446 74.256 47.9018 75.5294 48.5804C76.633 49.1742 77.9912 49.0894 79.1797 48.8349C80.6229 48.4956 81.9812 47.7322 83.1697 46.7143C84.6128 45.5267 85.7164 43.8302 86.3107 42.0488C86.4805 41.5398 86.1409 40.8612 85.5467 40.7764C85.292 40.6068 84.6977 40.9461 84.5279 41.5398Z" fill="black"/>
<path d="M70.691 40.6917C70.6061 40.8614 70.6061 41.031 70.5212 41.2007C70.5212 41.2855 70.4363 41.3703 70.4363 41.4551C70.5212 41.2007 70.4364 41.54 70.3515 41.54C70.1817 41.8793 70.0119 42.2186 69.8421 42.4731C69.7572 42.6427 69.6723 42.7275 69.5874 42.8972C69.5025 42.982 69.3328 43.1517 69.5025 42.982C69.4176 43.0668 69.4176 43.1517 69.3328 43.2365C69.0781 43.491 68.8234 43.7454 68.5687 43.9999C68.4838 44.0848 68.314 44.2544 68.2291 44.3392C68.1443 44.4241 68.0594 44.4241 68.0594 44.5089C68.0594 44.5089 67.9745 44.5089 67.9745 44.5937C67.8047 44.7634 68.1443 44.5089 67.9745 44.5937C67.7198 44.7634 67.4651 45.0178 67.1256 45.1875C66.8709 45.3571 66.6162 45.5268 66.2766 45.6116C66.1917 45.6116 66.1068 45.6965 66.0219 45.6965C65.8522 45.7813 66.2766 45.6116 66.0219 45.6965C65.8522 45.7813 65.7673 45.7813 65.5975 45.8661C65.3428 45.9509 65.0881 46.0358 64.7486 46.1206C64.6637 46.1206 64.4939 46.2054 64.409 46.2054C64.1543 46.2902 64.5788 46.2054 64.409 46.2054C64.3241 46.2054 64.2392 46.2054 64.2392 46.2054C63.9845 46.2054 63.7299 46.2054 63.4752 46.2054C63.3903 46.2054 63.3903 46.2054 63.3054 46.2054C63.645 46.2054 63.4752 46.2054 63.3903 46.2054C63.3054 46.2054 63.1356 46.1206 63.0507 46.1206C62.9658 46.1206 62.9658 46.1206 62.8809 46.0358C62.7112 45.9509 63.1356 46.1206 62.9658 46.0358C62.8809 45.9509 62.796 45.9509 62.7111 45.8661C62.5414 45.7813 62.7111 45.7813 62.796 45.9509L62.7111 45.8661L62.6263 45.7813C62.4565 45.6116 62.7111 45.9509 62.7111 45.8661C62.7111 45.7813 62.6263 45.6965 62.6263 45.6116C62.5414 45.442 62.7111 45.8661 62.6263 45.6965C62.6263 45.6116 62.6263 45.6116 62.5414 45.5268C62.5414 45.442 62.5414 45.442 62.5414 45.3571C62.5414 45.3571 62.5414 45.6965 62.5414 45.442C62.5414 45.3571 62.5414 45.1875 62.5414 45.1027C62.5414 44.933 62.6263 45.0178 62.5414 45.1875C62.5414 45.1027 62.5414 45.0178 62.5414 44.933C62.5414 44.7634 62.6263 44.5937 62.6263 44.5089C62.6263 44.4241 62.7111 44.3392 62.7111 44.2544V44.1696C62.6263 44.3392 62.796 43.9999 62.7111 44.1696C62.796 43.9999 62.8809 43.8303 62.9658 43.6606C63.2205 43.2365 63.4752 42.8124 63.7299 42.3882C63.8148 42.3034 63.8996 42.2186 63.9845 42.0489C63.9845 41.9641 64.0694 41.9641 64.0694 41.8793C64.1543 41.7944 63.9845 41.9641 64.1543 41.7944C64.3241 41.54 64.5788 41.2855 64.7486 41.031C65.0881 40.6069 65.173 39.9283 64.7486 39.5041C64.3241 39.08 63.645 39.08 63.2205 39.5041C62.032 40.8614 60.6737 42.5579 60.3342 44.4241C60.0795 45.6965 60.4191 47.0537 61.6924 47.7323C62.796 48.3261 64.1543 48.2412 65.3428 47.9868C66.786 47.6475 68.1443 46.884 69.3328 45.8661C70.7759 44.6785 71.8795 42.982 72.4738 41.2007C72.6436 40.6917 72.304 40.0131 71.7097 39.9283C71.4551 39.7586 70.8608 40.0979 70.691 40.6917Z" fill="black"/>
<path d="M59.573 63.2554C68.9961 66.0547 83.0033 64.1885 86.9084 53.8397C87.4177 52.5673 85.3803 51.9735 84.871 53.2459C81.3055 62.4072 68.2321 63.5948 60.0824 61.2196C58.809 60.7955 58.2148 62.8313 59.573 63.2554Z" fill="black"/>
<path d="M83.9323 53.5852C84.1021 53.5852 84.187 53.5004 84.3568 53.5004C84.3568 53.5004 84.6115 53.5004 84.4417 53.5004C84.2719 53.5004 84.5266 53.5004 84.5266 53.5004C84.7813 53.5004 85.0359 53.5004 85.2906 53.5004C85.0359 53.4156 85.4604 53.5004 85.2906 53.5004C85.3755 53.5004 85.4604 53.5004 85.4604 53.5004C85.6302 53.5004 85.7151 53.5852 85.8849 53.5852C85.9697 53.5852 86.1395 53.6701 86.2244 53.6701C86.0546 53.5852 86.4791 53.7549 86.2244 53.6701C86.3093 53.6701 86.3093 53.7549 86.3942 53.7549C86.4791 53.8397 86.6489 53.8397 86.7338 53.9245C86.8187 53.9245 86.9885 54.0942 87.0733 54.179C86.9885 54.0942 86.9036 54.0942 86.9885 54.0942L87.0733 54.179C87.1582 54.179 87.1582 54.2639 87.2431 54.2639C87.328 54.3487 87.4129 54.4335 87.4978 54.5183C87.5827 54.6032 87.5827 54.6032 87.6676 54.688C87.4978 54.5183 87.8374 54.8576 87.6676 54.688C87.7525 54.7728 87.8374 54.8576 87.8374 54.9425L88.0072 55.2818C88.0072 55.3666 88.0921 55.4514 88.0921 55.4514C88.2618 55.9604 88.8561 56.3845 89.3654 56.2149C89.8748 56.0452 90.2993 55.4514 90.1295 54.9425C89.3654 52.228 86.2244 50.5315 83.5079 51.3798C82.9985 51.5494 82.574 52.1432 82.7438 52.6522C82.7438 53.4156 83.3381 53.7549 83.9323 53.5852Z" fill="black"/>
</g>
<defs>
<filter id="filter0_f_573_7325" x="13.1351" y="122.913" width="119.069" height="24.4537" filterUnits="userSpaceOnUse" color-interpolation-filters="sRGB">
<feFlood flood-opacity="0" result="BackgroundImageFix"/>
<feBlend mode="normal" in="SourceGraphic" in2="BackgroundImageFix" result="shape"/>
<feGaussianBlur stdDeviation="1.5" result="effect1_foregroundBlur_573_7325"/>
</filter>
<clipPath id="clip0_573_7325">
<rect width="137" height="152" fill="white" transform="translate(0 0.474121)"/>
</clipPath>
</defs>
</svg>
