<svg width="50" height="46" viewBox="0 0 50 46" fill="none" xmlns="http://www.w3.org/2000/svg">
<g clip-path="url(#clip0_528_7785)">
<path d="M42.0497 25.3227L42.0515 25.3258C42.571 26.2284 42.2534 27.3594 41.4037 27.8654L37.6923 30.0009L37.6917 30.0012C35.4162 31.3146 33.9737 32.0518 32.4847 32.1457C31.0152 32.2384 29.4174 31.7044 26.8498 30.2073C23.3546 28.1642 16.4014 24.2906 12.2803 21.9948C11.3748 21.4903 10.606 21.062 10.0406 20.746L10.0274 20.7386L10.0138 20.7321C9.9635 20.7078 9.92985 20.6602 9.92874 20.5857C9.92756 20.5075 9.96444 20.446 10.0178 20.4153L10.0178 20.4153L10.0241 20.4116L30.6542 8.11489L30.6542 8.1149L30.6581 8.11255C31.3221 7.70858 32.2103 7.93386 32.6196 8.66227L32.6204 8.66363L42.0497 25.3227Z" fill="#FF8D52" stroke="white"/>
<path d="M21.5401 27.7701C21.2544 28.6777 20.7686 29.5853 20.3115 30.4051C19.8257 31.2541 19.14 31.9275 18.5971 32.7473C18.5971 32.7473 18.5971 32.7473 18.5971 32.7766C18.5685 32.718 18.5113 32.6302 18.4256 32.5716C17.6827 31.9275 16.1683 31.2541 15.7683 32.6009C15.3968 33.8013 15.1682 35.0895 14.8825 36.2899C14.7396 36.8462 14.5396 37.4317 14.7396 38.0173C14.8253 38.2808 14.9968 38.4565 15.1111 38.72C15.1968 38.9249 15.2825 39.1591 15.3682 39.3641C15.6254 39.8325 16.0826 40.1839 16.6255 40.2131C16.7112 40.2131 16.7969 40.2131 16.8541 40.2131C17.0827 40.3595 17.397 40.4181 17.6541 40.2717C17.9399 40.0667 18.1685 39.8032 18.2542 39.5105C18.8542 39.042 18.9399 37.7538 18.9685 37.1097C18.9971 36.5534 18.8542 35.9678 18.9399 35.4116C19.0257 34.8846 19.3685 34.3576 19.6257 33.9184C20.14 32.9815 20.9401 32.2203 21.5116 31.2834C22.0545 30.3465 22.6259 29.2925 22.9402 28.2385C23.1974 27.2723 21.8259 26.8624 21.5401 27.7701Z" fill="white"/>
<path d="M31.943 31.6932C31.943 30.7563 30.4858 30.727 30.5143 31.6932C30.5143 32.4837 30.6572 33.362 30.5143 34.1232C30.3715 34.943 29.8286 35.7921 29.4285 36.4947C29.2857 36.7875 29.1142 37.2852 28.8571 37.4902C28.7713 37.5487 28.5713 37.5487 28.457 37.578C28.2284 37.6366 27.9999 37.6659 27.7427 37.7244C26.9426 37.8708 26.0854 37.9294 25.5425 38.632C24.4567 39.9788 24.9996 41.9404 25.3997 43.4336C25.5711 44.1363 25.714 44.9853 26.4569 45.3074C27.2569 45.6587 27.9999 45.0439 28.4285 44.3705C28.8856 43.6093 29.0285 42.7016 29.1428 41.8526C29.3142 40.8571 29.4 39.8324 29.4571 38.837C29.6857 38.7199 29.8857 38.5735 30.0571 38.31C30.4572 37.7537 30.7429 37.1096 31.0572 36.524C31.4287 35.7921 31.8573 35.0309 31.943 34.1818C32.0287 33.362 31.9716 32.513 31.943 31.6932Z" fill="white"/>
<path d="M12.3981 23.4076C11.7123 22.4414 10.6551 21.5338 9.42645 21.5338C8.91213 21.5338 8.3978 21.7388 7.99778 22.0608C7.59775 22.3829 7.25486 22.7928 6.82626 23.0563C6.28336 23.4076 5.56902 23.349 4.96898 23.5247C4.34036 23.7297 3.76889 24.081 3.22599 24.4616C2.71167 24.8422 2.16877 25.2521 1.88304 25.8377C1.56873 26.511 1.5973 27.243 1.68302 27.9457C1.7116 28.2384 1.85446 28.5019 2.08305 28.619C2.31164 29.1168 2.42594 29.6438 2.74024 30.0829C3.14027 30.6099 3.59745 30.8149 4.22607 30.9027C4.28322 30.9027 4.36894 30.9027 4.42608 30.932C4.42608 30.9613 4.45466 30.9613 4.45466 30.9905C4.48323 31.2248 4.65467 31.5175 4.74039 31.7225C5.02613 32.2495 5.4833 32.6594 6.05477 32.7472C6.65482 32.8643 7.36916 32.8058 7.94063 32.6594C8.19779 32.6008 8.42638 32.4544 8.65497 32.3666C8.96928 32.2495 9.34073 32.2788 9.68361 32.3081C10.2551 32.3666 10.798 32.5423 11.2552 32.0738C11.6552 31.6639 11.8838 31.0491 12.0552 30.4928C12.4267 29.2339 12.3981 27.9457 12.8267 26.716C13.2839 25.6034 13.1124 24.4323 12.3981 23.4076Z" fill="white"/>
<path d="M48.8559 6.71923C48.7416 6.01656 48.4273 5.31389 47.913 4.78689C47.6272 4.49411 47.3129 4.28917 46.9415 4.14278C46.77 4.08422 46.5986 4.05495 46.4271 4.02567C46.37 4.02567 46.2843 4.02567 46.1985 3.99639H46.17C46.1128 3.76217 46.0557 3.52795 45.97 3.29372C45.8271 2.97167 45.6271 2.62033 45.3985 2.38611C44.8556 1.80055 43.9698 2.09333 43.3126 2.23972C43.1983 2.269 42.9983 2.35683 42.8554 2.32756C42.884 2.29828 42.7126 2.15189 42.684 2.12261C42.484 1.91767 42.1982 1.742 41.9125 1.62489C41.3125 1.39067 40.5981 1.44922 40.0267 1.77128C39.4552 2.09333 39.0552 2.64961 38.8266 3.26445C38.7123 3.55722 38.6551 3.90856 38.6551 4.23061C38.6551 4.61123 38.7694 4.99184 38.7408 5.37245C38.6837 6.07512 38.1122 6.48501 37.6551 6.92417C37.0836 7.45117 36.855 8.15384 36.7407 8.91506C36.7121 9.09073 36.7407 9.23712 36.7978 9.38351C36.7978 9.41279 36.7978 9.44206 36.7978 9.47134C36.8264 10.2618 37.0836 10.9352 37.3693 11.6379C37.5693 12.0771 37.7408 12.5162 37.8265 12.9554C37.7979 13.2189 37.8265 13.4824 37.8836 13.7459C37.9122 13.9216 37.9979 14.0387 38.1122 14.1265C38.2551 14.4486 38.4837 14.6828 38.798 14.8292C39.4838 15.1805 40.3124 15.3269 41.0839 15.3562C41.8268 15.3855 42.6554 15.2976 43.3698 15.0341C43.7126 14.917 43.9698 14.7121 44.1127 14.3607C44.227 14.068 44.2841 13.7752 44.4556 13.4824C45.1985 12.3113 46.7414 12.1942 47.5701 11.1402C48.4273 9.96906 49.0845 8.2124 48.8559 6.71923Z" fill="white"/>
<path d="M39.9711 15.8832C40.0283 16.7029 40.0854 17.4934 39.6283 18.2254C39.3997 18.5767 39.1425 18.8988 38.8853 19.2208C38.7425 19.3965 38.5996 19.6014 38.4282 19.7771C38.3424 19.8942 38.2282 20.0699 38.0853 20.0992C37.6567 20.2163 37.8281 20.9189 38.2853 20.8018C38.7425 20.6847 38.9996 20.2163 39.2854 19.8942C39.5997 19.5136 39.914 19.1037 40.1997 18.6938C40.7426 17.8448 40.7426 16.8786 40.6855 15.9124C40.6283 15.4147 39.914 15.4147 39.9711 15.8832Z" fill="black"/>
<path d="M11.9091 22.7635C12.9949 22.0608 14.2236 21.5923 15.4808 21.446C15.6808 21.4167 15.8237 21.2996 15.8237 21.0946C15.8237 20.919 15.6522 20.714 15.4808 20.7433C14.0807 20.8897 12.7377 21.3581 11.5377 22.1486C11.1662 22.3828 11.5377 23.027 11.9091 22.7635Z" fill="black"/>
<path d="M24.4304 7.86132C25.059 7.45143 25.8591 6.98299 26.5734 6.98299C26.6877 6.98299 26.6877 6.98299 26.802 7.04154C26.8877 7.07082 26.7448 7.01227 26.8306 7.04154C26.8591 7.04154 26.8591 7.07082 26.8877 7.07082C26.9163 7.07082 26.9448 7.1001 26.9448 7.12938C27.002 7.18793 26.9163 7.1001 26.9734 7.12938C27.1163 7.27577 27.202 7.39288 27.2877 7.6271C27.2592 7.56854 27.3163 7.71493 27.3163 7.71493C27.3449 7.77349 27.3449 7.83205 27.3735 7.8906C27.402 8.03699 27.4592 8.1541 27.4877 8.30049C27.5449 8.59327 27.602 8.85677 27.6592 9.14955C27.7735 9.7351 27.9163 10.3499 28.1735 10.9062C28.4307 11.4625 28.8593 11.9017 29.4022 12.1359C30.1165 12.4287 30.9737 12.253 31.6309 11.8431C32.6881 11.1697 33.1739 9.7351 32.7453 8.53471C32.5453 7.94916 32.0881 7.48071 31.4309 7.48071C30.5737 7.48071 29.9165 8.27121 29.4593 8.91532C29.1736 9.29594 29.8022 9.64727 30.0879 9.29594C30.3165 8.97388 30.5737 8.6811 30.888 8.44688C30.9737 8.38832 31.1166 8.30049 31.1737 8.30049C31.2309 8.27121 31.288 8.27121 31.3452 8.24193C31.4309 8.21266 31.3452 8.24193 31.4595 8.24193C31.5738 8.24193 31.7452 8.30049 31.8024 8.38832C31.9452 8.50544 32.0309 8.6811 32.0881 8.85677C32.231 9.32521 32.231 9.76438 32.0595 10.2621C31.8881 10.7598 31.488 11.199 30.9737 11.4332C30.7166 11.5503 30.3451 11.6674 30.0594 11.6382C29.8022 11.6089 29.545 11.4918 29.345 11.3454C29.0021 11.0819 28.7736 10.6134 28.6307 10.1743C28.3164 9.17882 28.345 8.00771 27.8306 7.1001C27.002 5.60693 25.1447 6.63165 24.0875 7.27577C23.6875 7.48071 24.0303 8.09555 24.4304 7.86132Z" fill="black"/>
<path d="M24.6557 7.65622C24.4842 7.21706 23.9699 7.07067 23.5413 6.98283C23.1699 6.92428 22.827 6.86572 22.4555 6.86572C21.5983 6.86572 20.7411 7.18778 20.0553 7.71478C19.3696 8.24178 18.7981 8.97373 18.4267 9.76423C18.1123 10.3791 17.8552 11.111 17.2266 11.4331C18.1409 11.4331 19.0553 11.4331 19.9696 11.4331C20.5411 11.4331 21.084 11.4331 21.6555 11.3452C21.9412 11.2867 22.2269 11.2281 22.4555 11.0524C22.6555 10.9061 22.7984 10.6718 22.9413 10.4669C23.5127 9.61784 24.0271 8.71023 24.4842 7.80261" fill="black"/>
<path d="M29.6828 15.3268C29.6828 15.7367 29.6256 16.1173 29.5113 16.4979C29.4827 16.6736 29.4256 16.8493 29.3684 16.9957C29.3113 17.1128 29.2256 17.2006 29.1113 17.2592C28.9684 17.3177 28.8541 17.4641 28.9113 17.6398C28.9398 17.7862 29.1399 17.9033 29.2827 17.8447C29.5113 17.7569 29.7113 17.6398 29.8542 17.4348C29.9971 17.2299 30.0542 16.9957 30.1114 16.7907C30.2257 16.3223 30.3399 15.8245 30.3399 15.3268C30.3399 15.1512 30.1971 15.0048 30.0256 15.0048C29.8256 15.034 29.6542 15.1804 29.6828 15.3268Z" fill="black"/>
<path d="M33.0571 15.7367C33.0286 16.1759 33.0571 16.5858 33.0571 17.0249C33.0571 17.4055 33 17.7862 32.8571 18.1375C32.7714 18.3132 32.8 18.5474 32.9714 18.6352C33.1143 18.723 33.3714 18.6938 33.4572 18.5181C33.8858 17.6398 33.7429 16.6736 33.7715 15.7367C33.7715 15.5318 33.6 15.3854 33.4286 15.3854C33.2286 15.3854 33.0571 15.5318 33.0571 15.7367Z" fill="black"/>
<path d="M33.6272 21.0068C32.2557 22.0901 30.2269 21.7095 28.8268 20.919C28.1411 20.5384 27.5125 20.0114 27.0267 19.3672C26.8553 19.133 26.6838 18.9574 26.4267 18.811C26.0266 18.6353 25.598 18.6939 25.198 18.7524C25.2551 18.9866 25.3123 19.2209 25.398 19.4551C26.3981 19.1916 27.1981 18.6646 27.341 17.552C27.3982 17.0836 26.6838 17.0836 26.6267 17.552C26.5409 18.3132 25.8552 18.5767 25.2266 18.7524C24.7694 18.8695 24.9694 19.5429 25.4266 19.4551C25.7695 19.3965 26.1123 19.3672 26.3695 19.6307C26.5981 19.865 26.7695 20.1285 26.9981 20.3627C27.6267 20.9775 28.3125 21.4752 29.1411 21.8266C30.6555 22.4707 32.6557 22.7049 34.0558 21.6216C34.3415 21.3581 33.9701 20.714 33.6272 21.0068Z" fill="black"/>
<path d="M48.6271 6.83638C48.5985 6.68999 48.57 6.54361 48.5414 6.39722C48.37 6.80711 48.1414 7.24627 47.8556 7.68544C45.7412 10.8182 40.998 12.5748 38.855 10.9938C37.6263 10.0862 37.5406 8.30027 37.4549 6.98277C36.8834 7.50977 36.6548 8.21244 36.5405 8.97366C36.5119 9.14933 36.5405 9.29572 36.5977 9.44211C36.5977 9.47139 36.5977 9.50067 36.5977 9.52994C36.6262 10.3204 36.8834 10.9938 37.1691 11.6965C37.3691 12.1357 37.5406 12.5748 37.6263 13.014C37.5977 13.2775 37.6263 13.541 37.6834 13.8045C37.712 13.9802 37.7977 14.0973 37.912 14.1851C38.0549 14.5072 38.2835 14.7414 38.5978 14.8878C39.2836 15.2391 40.1122 15.3855 40.8837 15.4148C41.6266 15.4441 42.4552 15.3562 43.1696 15.0927C43.5124 14.9756 43.7696 14.7707 43.9125 14.4193C44.0268 14.1266 44.0839 13.8338 44.2554 13.541C44.9983 12.3699 46.5412 12.2528 47.3699 11.1988C48.1985 10.0862 48.8271 8.32955 48.6271 6.83638Z" fill="#C1C1C1"/>
<path d="M39.315 8.94428C40.3436 9.14922 41.5152 8.73933 42.3724 8.1245C43.1153 7.5975 43.9153 6.63133 43.2867 5.72372C42.4867 4.52333 40.7722 4.66971 39.5722 5.02105C38.2864 5.40166 37.0577 6.27999 36.4291 7.50966C35.629 9.03211 35.9433 10.7888 36.8862 12.1648C37.1434 12.5454 37.772 12.1941 37.5149 11.7842C36.8005 10.7595 36.4291 9.52983 36.8577 8.32944C37.2291 7.27544 38.0863 6.48494 39.0293 6.01649C39.5722 5.75299 40.1436 5.6066 40.7437 5.54805C41.3151 5.48949 41.9723 5.48949 42.4581 5.87011C43.0867 6.36783 42.6867 6.98266 42.1724 7.42183C41.4866 7.97811 40.4008 8.44655 39.515 8.27089C39.0578 8.15377 38.8864 8.85644 39.315 8.94428Z" fill="black"/>
<path d="M40.7674 9.11985C40.996 9.11985 41.0532 9.11985 41.2532 9.1784C41.2818 9.1784 41.3389 9.20768 41.3675 9.20768C41.3103 9.1784 41.3675 9.20768 41.3961 9.20768C41.4532 9.23696 41.5104 9.26624 41.5675 9.32479C41.5104 9.26624 41.5961 9.35407 41.5961 9.35407C41.6246 9.38335 41.6532 9.41262 41.6818 9.4419C41.7389 9.50046 41.6532 9.38335 41.6818 9.47118C41.7104 9.50046 41.7104 9.52974 41.7389 9.55901C41.7675 9.58829 41.7675 9.61757 41.7961 9.64685C41.7961 9.67613 41.8247 9.73468 41.7961 9.67613C41.8247 9.73468 41.8532 9.82251 41.8532 9.88107C41.8818 9.9689 41.8818 10.0275 41.9104 10.1153C41.9104 10.1153 41.939 10.2324 41.9104 10.1446C41.9104 10.1738 41.9104 10.2324 41.9104 10.2617C41.9104 10.4081 41.9104 10.5837 41.9104 10.7594C41.8818 11.14 41.8532 11.3157 41.7961 11.667C41.7675 11.872 41.8532 12.0769 42.0532 12.1062C42.2247 12.1647 42.4533 12.0476 42.4819 11.8427C42.7104 10.7887 42.8533 9.23696 41.7961 8.59285C41.4818 8.3879 41.0817 8.32935 40.7389 8.32935C40.3103 8.3879 40.3103 9.11985 40.7674 9.11985Z" fill="black"/>
<path d="M38.9978 5.07963C38.9406 4.8454 38.8835 4.64046 38.8263 4.40624C38.8263 4.37696 38.8263 4.34768 38.8263 4.34768C38.8263 4.40624 38.8263 4.34768 38.8263 4.3184C38.8263 4.25985 38.8263 4.23057 38.8263 4.17201C38.8263 4.08418 38.8263 3.96707 38.8263 3.87923C38.8263 3.7914 38.8263 3.70357 38.8549 3.61573C38.8549 3.58646 38.8549 3.55718 38.8549 3.55718C38.8549 3.49862 38.8835 3.46935 38.8835 3.41079C38.9121 3.23512 38.9692 3.08873 39.0264 2.91307C38.9978 3.0009 39.0264 2.88379 39.0549 2.88379C39.0835 2.85451 39.0835 2.82523 39.1121 2.79596C39.1406 2.7374 39.1978 2.64957 39.2264 2.59101C39.2549 2.56173 39.2549 2.53246 39.2835 2.50318C39.3407 2.41534 39.2549 2.53246 39.3121 2.4739C39.3692 2.41534 39.3978 2.35679 39.455 2.29823C39.5121 2.23968 39.5407 2.2104 39.5978 2.15184C39.6264 2.12257 39.655 2.09329 39.6835 2.06401C39.7121 2.06401 39.7407 2.03473 39.655 2.06401C39.6835 2.06401 39.6835 2.03473 39.7121 2.03473C39.8264 1.9469 39.9407 1.88834 40.055 1.82979C40.0836 1.80051 40.1121 1.80051 40.1407 1.80051C40.2264 1.77123 40.0836 1.82979 40.1693 1.80051C40.2264 1.77123 40.3122 1.74195 40.3693 1.74195C40.4265 1.71268 40.4836 1.71268 40.5693 1.6834C40.5979 1.6834 40.6265 1.65412 40.6836 1.65412C40.7122 1.65412 40.8265 1.62484 40.7122 1.65412C40.8265 1.65412 40.9694 1.62484 41.0836 1.62484C41.1408 1.62484 41.1979 1.62484 41.2551 1.62484C41.3122 1.62484 41.1694 1.59557 41.2265 1.62484H41.2551C41.2837 1.62484 41.3122 1.62484 41.3408 1.65412C41.398 1.65412 41.4551 1.6834 41.5123 1.71268C41.5408 1.71268 41.5694 1.74195 41.598 1.74195C41.6265 1.74195 41.6551 1.77123 41.5694 1.74195C41.598 1.74195 41.598 1.77123 41.6265 1.77123C41.6837 1.80051 41.7408 1.82979 41.7694 1.85907C41.798 1.85907 41.798 1.88834 41.8266 1.88834C41.9123 1.9469 41.798 1.85907 41.8551 1.91762C41.8837 1.9469 41.9409 2.00545 41.9694 2.03473C41.998 2.06401 41.998 2.06401 42.0266 2.09329C42.0837 2.15184 41.998 2.03473 42.0266 2.12257C42.0551 2.18112 42.0837 2.2104 42.1123 2.26895C42.1409 2.29823 42.1409 2.32751 42.1694 2.35679C42.1409 2.26895 42.1694 2.35679 42.1694 2.38607C42.198 2.44462 42.198 2.53246 42.2266 2.59101C42.2266 2.62029 42.2552 2.7374 42.2552 2.67884C42.2552 2.62029 42.2552 2.76668 42.2552 2.76668C42.2552 2.85451 42.2552 2.94234 42.2552 3.03018C42.2552 3.08873 42.2552 3.11801 42.2552 3.17657C42.2552 3.20585 42.2552 3.2644 42.2552 3.17657C42.2552 3.20585 42.2552 3.23512 42.2552 3.2644C42.2266 3.46935 42.1694 3.70357 42.0837 3.90851C41.998 4.14274 41.9123 4.34768 41.7694 4.61118C41.5408 5.02107 42.1694 5.40168 42.398 4.99179C42.7981 4.20129 43.1409 3.29368 42.9695 2.38607C42.8266 1.74195 42.3695 1.27351 41.798 1.03929C40.5693 0.570841 39.1121 1.30279 38.512 2.41534C38.0263 3.29368 38.0834 4.34768 38.3692 5.31385C38.4549 5.72374 39.1406 5.54807 38.9978 5.07963Z" fill="black"/>
<path d="M43.2846 2.56192C43.3703 2.53265 43.4275 2.47409 43.5132 2.44481C43.456 2.47409 43.5703 2.41553 43.5703 2.41553C43.5989 2.38626 43.6561 2.38626 43.6846 2.38626C43.7704 2.35698 43.8561 2.3277 43.9418 2.3277C43.9704 2.3277 44.0275 2.29842 44.0561 2.29842C43.9704 2.29842 44.0847 2.29842 44.1132 2.29842C44.199 2.29842 44.2847 2.29842 44.3418 2.29842C44.3704 2.29842 44.4275 2.29842 44.4561 2.29842C44.4847 2.29842 44.4847 2.29842 44.5133 2.29842C44.4561 2.29842 44.4561 2.29842 44.5133 2.29842C44.599 2.29842 44.6561 2.3277 44.7418 2.35698C44.7704 2.35698 44.799 2.38626 44.8561 2.38626C44.8847 2.38626 44.8847 2.38626 44.9133 2.41553C44.8561 2.38626 44.8561 2.38626 44.9133 2.41553C44.9704 2.44481 45.0276 2.47409 45.1133 2.53265C45.1419 2.53265 45.2276 2.62048 45.1419 2.56192C45.1705 2.5912 45.199 2.62048 45.2276 2.62048C45.2562 2.64976 45.2847 2.67904 45.3133 2.70831C45.3133 2.73759 45.399 2.82542 45.3419 2.73759C45.3705 2.79615 45.4276 2.8547 45.4562 2.94254C45.4562 2.97181 45.4848 2.97181 45.4848 3.00109C45.4562 2.94254 45.4562 2.97181 45.4848 3.00109C45.4848 3.03037 45.5133 3.08892 45.5133 3.1182C45.5133 3.14748 45.5419 3.20604 45.5419 3.23531C45.5419 3.26459 45.5419 3.26459 45.5419 3.29387C45.5419 3.23531 45.5419 3.23531 45.5419 3.29387C45.5419 3.3817 45.5419 3.46954 45.5419 3.55737C45.5419 3.67448 45.5419 3.67448 45.5133 3.79159C45.4848 3.99654 45.5705 4.1722 45.7705 4.23076C45.9419 4.28932 46.1705 4.1722 46.1991 3.96726C46.3134 3.29387 46.2277 2.56192 45.7134 2.09348C45.2562 1.68359 44.6276 1.5372 44.0561 1.59576C43.6561 1.65431 43.2846 1.77142 42.9417 1.94709C42.5131 2.15203 42.8846 2.79615 43.2846 2.56192Z" fill="black"/>
<path d="M46.543 6.19221C46.1716 6.71921 45.0572 7.94888 44.7143 6.77777C44.4572 5.87015 45.1144 4.64049 46.0001 4.40626C46.543 4.25987 47.1431 4.34771 47.5717 4.61121C47.9431 4.84543 48.2003 5.2846 48.3146 5.78232C48.6289 7.04127 48.2574 8.50516 47.6574 9.67627C46.9145 11.1109 45.743 12.3406 44.2571 12.9261C41.9713 13.8044 39.5425 13.0139 37.5424 11.7843C37.1423 11.55 36.7995 12.1649 37.1709 12.4284C39.2282 13.7166 41.7712 14.5364 44.1714 13.7752C45.9716 13.1896 47.4288 11.7843 48.286 10.0862C49.0004 8.7101 49.4575 6.92415 48.9718 5.40171C48.7718 4.78687 48.3717 4.2306 47.8003 3.93782C47.1431 3.61576 46.143 3.49865 45.4858 3.87926C44.4572 4.46482 43.7142 5.75304 44.0571 6.98271C44.1714 7.42188 44.4572 7.83177 44.9143 7.97816C45.4572 8.15382 45.9716 7.86104 46.3716 7.53899C46.6859 7.27549 46.9431 6.92415 47.2002 6.6021C47.4288 6.19221 46.8002 5.8116 46.543 6.19221Z" fill="black"/>
<path d="M37.0567 12.5747C36.7424 14.0093 37.9997 14.9169 39.1997 15.2683C40.5427 15.6782 42.1714 15.7074 43.4572 15.0926C44.0572 14.8291 44.5716 14.3314 44.6859 13.6287C44.743 13.1603 44.0572 12.9553 44.0001 13.4238C43.8572 14.4485 42.5143 14.712 41.6571 14.7705C40.5427 14.8584 39.1712 14.712 38.2568 13.98C37.8568 13.658 37.6568 13.2481 37.7425 12.7211C37.8282 12.3112 37.1424 12.1355 37.0567 12.5747Z" fill="black"/>
<path d="M39.315 8.94428C40.3436 9.14922 41.5152 8.73933 42.3724 8.1245C43.1153 7.5975 43.9153 6.63133 43.2867 5.72372C42.4867 4.52333 40.7722 4.66971 39.5722 5.02105C38.2864 5.40166 37.0577 6.27999 36.4291 7.50966C35.629 9.03211 35.9433 10.7888 36.8862 12.1648C37.1434 12.5454 37.772 12.1941 37.5149 11.7842C36.8005 10.7595 36.4291 9.52983 36.8577 8.32944C37.2291 7.27544 38.0863 6.48494 39.0293 6.01649C39.5722 5.75299 40.1436 5.6066 40.7437 5.54805C41.3151 5.48949 41.9723 5.48949 42.4581 5.87011C43.0867 6.36783 42.6867 6.98266 42.1724 7.42183C41.4866 7.97811 40.4008 8.44655 39.515 8.27089C39.0578 8.15377 38.8864 8.85644 39.315 8.94428Z" fill="black"/>
<path d="M40.7674 9.11985C40.996 9.11985 41.0532 9.11985 41.2532 9.1784C41.2818 9.1784 41.3389 9.20768 41.3675 9.20768C41.3103 9.1784 41.3675 9.20768 41.3961 9.20768C41.4532 9.23696 41.5104 9.26624 41.5675 9.32479C41.5104 9.26624 41.5961 9.35407 41.5961 9.35407C41.6246 9.38335 41.6532 9.41262 41.6818 9.4419C41.7389 9.50046 41.6532 9.38335 41.6818 9.47118C41.7104 9.50046 41.7104 9.52974 41.7389 9.55901C41.7675 9.58829 41.7675 9.61757 41.7961 9.64685C41.7961 9.67613 41.8247 9.73468 41.7961 9.67613C41.8247 9.73468 41.8532 9.82251 41.8532 9.88107C41.8818 9.9689 41.8818 10.0275 41.9104 10.1153C41.9104 10.1153 41.939 10.2324 41.9104 10.1446C41.9104 10.1738 41.9104 10.2324 41.9104 10.2617C41.9104 10.4081 41.9104 10.5837 41.9104 10.7594C41.8818 11.14 41.8532 11.3157 41.7961 11.667C41.7675 11.872 41.8532 12.0769 42.0532 12.1062C42.2247 12.1647 42.4533 12.0476 42.4819 11.8427C42.7104 10.7887 42.8533 9.23696 41.7961 8.59285C41.4818 8.3879 41.0817 8.32935 40.7389 8.32935C40.3103 8.3879 40.3103 9.11985 40.7674 9.11985Z" fill="black"/>
<path d="M38.9978 5.07963C38.9406 4.8454 38.8835 4.64046 38.8263 4.40624C38.8263 4.37696 38.8263 4.34768 38.8263 4.34768C38.8263 4.40624 38.8263 4.34768 38.8263 4.3184C38.8263 4.25985 38.8263 4.23057 38.8263 4.17201C38.8263 4.08418 38.8263 3.96707 38.8263 3.87923C38.8263 3.7914 38.8263 3.70357 38.8549 3.61573C38.8549 3.58646 38.8549 3.55718 38.8549 3.55718C38.8549 3.49862 38.8835 3.46935 38.8835 3.41079C38.9121 3.23512 38.9692 3.08873 39.0264 2.91307C38.9978 3.0009 39.0264 2.88379 39.0549 2.88379C39.0835 2.85451 39.0835 2.82523 39.1121 2.79596C39.1406 2.7374 39.1978 2.64957 39.2264 2.59101C39.2549 2.56173 39.2549 2.53246 39.2835 2.50318C39.3407 2.41534 39.2549 2.53246 39.3121 2.4739C39.3692 2.41534 39.3978 2.35679 39.455 2.29823C39.5121 2.23968 39.5407 2.2104 39.5978 2.15184C39.6264 2.12257 39.655 2.09329 39.6835 2.06401C39.7121 2.06401 39.7407 2.03473 39.655 2.06401C39.6835 2.06401 39.6835 2.03473 39.7121 2.03473C39.8264 1.9469 39.9407 1.88834 40.055 1.82979C40.0836 1.80051 40.1121 1.80051 40.1407 1.80051C40.2264 1.77123 40.0836 1.82979 40.1693 1.80051C40.2264 1.77123 40.3122 1.74195 40.3693 1.74195C40.4265 1.71268 40.4836 1.71268 40.5693 1.6834C40.5979 1.6834 40.6265 1.65412 40.6836 1.65412C40.7122 1.65412 40.8265 1.62484 40.7122 1.65412C40.8265 1.65412 40.9694 1.62484 41.0836 1.62484C41.1408 1.62484 41.1979 1.62484 41.2551 1.62484C41.3122 1.62484 41.1694 1.59557 41.2265 1.62484H41.2551C41.2837 1.62484 41.3122 1.62484 41.3408 1.65412C41.398 1.65412 41.4551 1.6834 41.5123 1.71268C41.5408 1.71268 41.5694 1.74195 41.598 1.74195C41.6265 1.74195 41.6551 1.77123 41.5694 1.74195C41.598 1.74195 41.598 1.77123 41.6265 1.77123C41.6837 1.80051 41.7408 1.82979 41.7694 1.85907C41.798 1.85907 41.798 1.88834 41.8266 1.88834C41.9123 1.9469 41.798 1.85907 41.8551 1.91762C41.8837 1.9469 41.9409 2.00545 41.9694 2.03473C41.998 2.06401 41.998 2.06401 42.0266 2.09329C42.0837 2.15184 41.998 2.03473 42.0266 2.12257C42.0551 2.18112 42.0837 2.2104 42.1123 2.26895C42.1409 2.29823 42.1409 2.32751 42.1694 2.35679C42.1409 2.26895 42.1694 2.35679 42.1694 2.38607C42.198 2.44462 42.198 2.53246 42.2266 2.59101C42.2266 2.62029 42.2552 2.7374 42.2552 2.67884C42.2552 2.62029 42.2552 2.76668 42.2552 2.76668C42.2552 2.85451 42.2552 2.94234 42.2552 3.03018C42.2552 3.08873 42.2552 3.11801 42.2552 3.17657C42.2552 3.20585 42.2552 3.2644 42.2552 3.17657C42.2552 3.20585 42.2552 3.23512 42.2552 3.2644C42.2266 3.46935 42.1694 3.70357 42.0837 3.90851C41.998 4.14274 41.9123 4.34768 41.7694 4.61118C41.5408 5.02107 42.1694 5.40168 42.398 4.99179C42.7981 4.20129 43.1409 3.29368 42.9695 2.38607C42.8266 1.74195 42.3695 1.27351 41.798 1.03929C40.5693 0.570841 39.1121 1.30279 38.512 2.41534C38.0263 3.29368 38.0834 4.34768 38.3692 5.31385C38.4549 5.72374 39.1406 5.54807 38.9978 5.07963Z" fill="black"/>
<path d="M43.2846 2.56192C43.3703 2.53265 43.4275 2.47409 43.5132 2.44481C43.456 2.47409 43.5703 2.41553 43.5703 2.41553C43.5989 2.38626 43.6561 2.38626 43.6846 2.38626C43.7704 2.35698 43.8561 2.3277 43.9418 2.3277C43.9704 2.3277 44.0275 2.29842 44.0561 2.29842C43.9704 2.29842 44.0847 2.29842 44.1132 2.29842C44.199 2.29842 44.2847 2.29842 44.3418 2.29842C44.3704 2.29842 44.4275 2.29842 44.4561 2.29842C44.4847 2.29842 44.4847 2.29842 44.5133 2.29842C44.4561 2.29842 44.4561 2.29842 44.5133 2.29842C44.599 2.29842 44.6561 2.3277 44.7418 2.35698C44.7704 2.35698 44.799 2.38626 44.8561 2.38626C44.8847 2.38626 44.8847 2.38626 44.9133 2.41553C44.8561 2.38626 44.8561 2.38626 44.9133 2.41553C44.9704 2.44481 45.0276 2.47409 45.1133 2.53265C45.1419 2.53265 45.2276 2.62048 45.1419 2.56192C45.1705 2.5912 45.199 2.62048 45.2276 2.62048C45.2562 2.64976 45.2847 2.67904 45.3133 2.70831C45.3133 2.73759 45.399 2.82542 45.3419 2.73759C45.3705 2.79615 45.4276 2.8547 45.4562 2.94254C45.4562 2.97181 45.4848 2.97181 45.4848 3.00109C45.4562 2.94254 45.4562 2.97181 45.4848 3.00109C45.4848 3.03037 45.5133 3.08892 45.5133 3.1182C45.5133 3.14748 45.5419 3.20604 45.5419 3.23531C45.5419 3.26459 45.5419 3.26459 45.5419 3.29387C45.5419 3.23531 45.5419 3.23531 45.5419 3.29387C45.5419 3.3817 45.5419 3.46954 45.5419 3.55737C45.5419 3.67448 45.5419 3.67448 45.5133 3.79159C45.4848 3.99654 45.5705 4.1722 45.7705 4.23076C45.9419 4.28932 46.1705 4.1722 46.1991 3.96726C46.3134 3.29387 46.2277 2.56192 45.7134 2.09348C45.2562 1.68359 44.6276 1.5372 44.0561 1.59576C43.6561 1.65431 43.2846 1.77142 42.9417 1.94709C42.5131 2.15203 42.8846 2.79615 43.2846 2.56192Z" fill="black"/>
<path d="M46.543 6.19221C46.1716 6.71921 45.0572 7.94888 44.7143 6.77777C44.4572 5.87015 45.1144 4.64049 46.0001 4.40626C46.543 4.25987 47.1431 4.34771 47.5717 4.61121C47.9431 4.84543 48.2003 5.2846 48.3146 5.78232C48.6289 7.04127 48.2574 8.50516 47.6574 9.67627C46.9145 11.1109 45.743 12.3406 44.2571 12.9261C41.9713 13.8044 39.5425 13.0139 37.5424 11.7843C37.1423 11.55 36.7995 12.1649 37.1709 12.4284C39.2282 13.7166 41.7712 14.5364 44.1714 13.7752C45.9716 13.1896 47.4288 11.7843 48.286 10.0862C49.0004 8.7101 49.4575 6.92415 48.9718 5.40171C48.7718 4.78687 48.3717 4.2306 47.8003 3.93782C47.1431 3.61576 46.143 3.49865 45.4858 3.87926C44.4572 4.46482 43.7142 5.75304 44.0571 6.98271C44.1714 7.42188 44.4572 7.83177 44.9143 7.97816C45.4572 8.15382 45.9716 7.86104 46.3716 7.53899C46.6859 7.27549 46.9431 6.92415 47.2002 6.6021C47.4288 6.19221 46.8002 5.8116 46.543 6.19221Z" fill="black"/>
<path d="M37.0567 12.5747C36.7424 14.0093 37.9997 14.9169 39.1997 15.2683C40.5427 15.6782 42.1714 15.7074 43.4572 15.0926C44.0572 14.8291 44.5716 14.3314 44.6859 13.6287C44.743 13.1603 44.0572 12.9553 44.0001 13.4238C43.8572 14.4485 42.5143 14.712 41.6571 14.7705C40.5427 14.8584 39.1712 14.712 38.2568 13.98C37.8568 13.658 37.6568 13.2481 37.7425 12.7211C37.8282 12.3112 37.1424 12.1355 37.0567 12.5747Z" fill="black"/>
<path d="M17.2541 31.9273C16.6255 31.7224 15.9969 31.8102 15.7683 32.63C15.3968 33.8304 15.1682 35.1186 14.8825 36.319C14.7396 36.8753 14.5396 37.4609 14.7396 38.0464C14.8253 38.3099 14.9968 38.4856 15.1111 38.7491C15.1968 38.954 15.2825 39.1882 15.3682 39.3932C15.5683 39.7738 15.9111 40.0666 16.3112 40.1837C15.5111 37.6658 17.3398 34.4745 17.2541 31.9273Z" fill="#C1C1C1"/>
<path d="M26.7137 37.9294C25.9423 37.9587 25.2279 38.1929 25.1136 38.9834C24.9422 40.1253 24.9422 41.2964 24.8565 42.4382C24.8279 42.9652 24.685 43.5215 25.0565 43.9607C25.2279 44.1656 25.4565 44.2827 25.6279 44.4584C25.7994 44.6048 25.9137 44.8097 26.0851 44.9561C26.3994 45.2196 26.8566 45.3953 27.3424 45.366C25.8851 43.4044 27.3424 40.1253 26.7137 37.9294Z" fill="#C1C1C1"/>
<path d="M11.9977 30.61C10.9119 30.9028 9.45466 31.2541 8.79747 31.137C7.71167 30.9613 7.6831 30.6685 7.6831 30.6685C7.6831 30.6685 6.36871 31.6054 5.48293 31.137C4.56858 30.6393 5.22577 28.9704 5.22577 28.9704C5.22577 28.9704 4.05426 29.0875 3.6828 28.4141C3.31135 27.7408 3.53993 27.2138 3.53993 27.2138C3.53993 27.2138 2.7113 27.8871 2.22555 26.921C2.02554 26.5404 2.05411 25.867 2.19698 25.1643C1.91124 25.3985 1.68265 25.662 1.51121 26.0134C1.1969 26.6868 1.22548 27.4187 1.3112 28.1214C1.33977 28.4141 1.48264 28.6776 1.7398 28.7948C1.96839 29.2925 2.08268 29.8195 2.42557 30.2586C2.8256 30.7856 3.31135 30.9906 3.93996 31.0784C3.99711 31.0784 4.08283 31.0784 4.13998 31.1077C4.13998 31.137 4.16855 31.137 4.16855 31.1663C4.19712 31.4005 4.36857 31.6933 4.48286 31.8982C4.7686 32.4252 5.22577 32.8351 5.82582 32.9229C6.42586 33.04 7.16877 32.9815 7.74024 32.8351C7.99741 32.7765 8.22599 32.6301 8.48316 32.5423C8.79746 32.4252 9.19749 32.4545 9.5118 32.4838C10.0833 32.5423 10.6547 32.718 11.1119 32.2495C11.512 31.8396 11.7691 31.2248 11.9406 30.6685C11.9691 30.6685 11.9691 30.6393 11.9977 30.61Z" fill="#C1C1C1"/>
<path d="M7.28042 31.2248C7.48043 31.137 7.70902 31.0784 7.90904 31.0784C7.96618 31.0784 7.99476 31.0784 8.0519 31.0784C8.13763 31.0784 8.0519 31.0784 8.10905 31.0784C8.13763 31.0784 8.19477 31.1077 8.22335 31.1077C8.22335 31.1077 8.28049 31.137 8.25192 31.1077C8.19477 31.0784 8.28049 31.137 8.28049 31.137C8.28049 31.137 8.36621 31.1955 8.33764 31.1662C8.30907 31.137 8.36621 31.1955 8.39479 31.2248L8.42336 31.2541C8.42336 31.2541 8.39479 31.1955 8.42336 31.2248C8.45193 31.2541 8.45193 31.2833 8.48051 31.3126C8.53765 31.4005 8.48051 31.2833 8.48051 31.3419C8.48051 31.3712 8.50908 31.4005 8.50908 31.459C8.50908 31.4883 8.53765 31.5761 8.50908 31.5176C8.50908 31.4883 8.50908 31.5761 8.50908 31.6054C8.50908 31.6347 8.50908 31.664 8.50908 31.7225C8.50908 31.7518 8.50908 31.7518 8.50908 31.7811C8.50908 31.7811 8.50908 31.7225 8.50908 31.7518C8.50908 31.8396 8.48051 31.9275 8.45193 32.0153C8.45193 32.0446 8.42336 32.1324 8.42336 32.0738C8.39479 32.1031 8.39479 32.1324 8.36621 32.191C8.33764 32.2788 8.28049 32.3373 8.22335 32.3959C8.25192 32.3373 8.1662 32.4545 8.1662 32.4545C8.13763 32.4837 8.10905 32.513 8.08048 32.5423C7.99476 32.6301 7.99476 32.6301 7.90904 32.6594C7.7376 32.7765 7.6233 32.8058 7.42329 32.8351C7.39471 32.8351 7.25185 32.8351 7.1947 32.8351C7.05183 32.8351 6.90896 32.8644 6.7661 32.8936C6.53751 32.9522 6.33749 32.9522 6.1089 32.9522C5.76602 32.9229 5.42314 32.8058 5.1374 32.5716C4.59451 32.1324 4.36592 31.4297 4.45164 30.7271C4.48021 30.405 4.65165 29.9658 4.88024 29.7023C5.19455 29.3217 5.62315 29.0875 6.1089 28.9411C6.56608 28.824 6.36607 28.1213 5.90889 28.2385C4.88024 28.5312 4.02304 29.2925 3.79445 30.3757C3.59443 31.3126 3.85159 32.3666 4.53736 33.0107C4.88024 33.3328 5.33742 33.567 5.7946 33.6549C6.08033 33.7134 6.36607 33.7134 6.6518 33.6841C6.79467 33.6549 6.96611 33.5963 7.13755 33.5963C7.25185 33.5963 7.36614 33.5963 7.45186 33.5963C8.39479 33.5085 9.16627 32.718 9.22342 31.7518C9.25199 31.2833 9.08055 30.8149 8.7091 30.5514C8.22335 30.2293 7.59473 30.3172 7.0804 30.5221C6.68037 30.6685 6.85182 31.3712 7.28042 31.2248Z" fill="black"/>
<path d="M3.56666 30.6687C3.39522 30.6687 3.22378 30.6394 3.05234 30.5516C3.10949 30.5808 3.02377 30.5223 2.99519 30.5223C2.96662 30.493 2.93805 30.493 2.90947 30.4637C2.8809 30.4637 2.82375 30.4052 2.85233 30.4052C2.8809 30.4344 2.79518 30.3466 2.79518 30.3466C2.76661 30.3173 2.73803 30.288 2.70946 30.2588C2.70946 30.2295 2.68089 30.2295 2.68089 30.2002C2.65231 30.1417 2.59516 30.0831 2.56659 29.9953C2.53802 29.9367 2.56659 30.0245 2.53802 29.966C2.53802 29.9367 2.50944 29.9074 2.50944 29.8489C2.50944 29.8196 2.48087 29.761 2.48087 29.7318C2.48087 29.7025 2.4523 29.5854 2.48087 29.6732C2.48087 29.5854 2.48087 29.5268 2.48087 29.439C2.48087 29.4097 2.48087 29.3512 2.48087 29.3219C2.48087 29.3512 2.48087 29.2633 2.48087 29.2633C2.48087 29.1755 2.53802 28.9413 2.59516 28.8242C2.59516 28.7949 2.62374 28.7949 2.62374 28.7656C2.65231 28.7363 2.65231 28.707 2.68089 28.6778C2.70946 28.5899 2.76661 28.5021 2.82375 28.4435C2.85233 28.4143 2.8809 28.385 2.8809 28.3264C2.90947 28.2679 2.8809 28.3264 2.90947 28.2679C2.96662 28.2093 3.02377 28.1215 3.08091 28.0629C3.36665 27.7994 3.65239 27.6238 4.05241 27.5652C4.25243 27.5359 4.33815 27.3017 4.30958 27.126C4.25243 26.9211 4.05241 26.8333 3.88097 26.8625C2.99519 27.0089 2.28086 27.6823 1.96655 28.5021C1.65224 29.2633 1.65224 30.2002 2.22371 30.8151C2.56659 31.1957 3.08091 31.3713 3.56666 31.4006C3.76668 31.4006 3.90955 31.2249 3.90955 31.0493C3.93812 30.815 3.76668 30.6687 3.56666 30.6687Z" fill="black"/>
<path d="M1.90647 28.5605C0.992115 27.565 1.73503 26.1597 2.50651 25.3399C3.62088 24.1395 5.221 23.2905 6.84969 23.2026C7.73547 23.1441 8.59268 23.3198 9.36416 23.7589C10.2214 24.2274 10.85 24.9886 11.3929 25.7791C11.7643 26.3061 11.8786 27.0088 11.9358 27.6529C12.0215 28.4727 11.9929 29.2924 11.8786 30.0829C11.7643 30.7856 11.5643 31.6347 11.0786 32.1909C10.9071 32.3959 10.6785 32.513 10.45 32.513C10.1356 32.513 9.82134 32.3373 9.56418 32.1324C9.19272 31.8396 8.70697 32.3666 9.04985 32.6594C9.6499 33.1278 10.3928 33.4792 11.1357 33.0693C11.7643 32.7179 12.1072 31.9567 12.3358 31.2833C12.6215 30.3757 12.7358 29.4095 12.7073 28.4727C12.7073 27.6236 12.593 26.7453 12.2787 25.9548C12.1358 25.5741 11.9072 25.2814 11.6786 24.9593C11.3357 24.4616 10.9357 24.0224 10.45 23.6418C9.62132 22.9684 8.62125 22.5878 7.5926 22.4707C5.67817 22.295 3.7066 23.1441 2.3065 24.4616C1.10641 25.6034 0.0491883 27.5943 1.39214 29.0582C1.70645 29.4095 2.22078 28.9118 1.90647 28.5605Z" fill="black"/>
<path d="M7.88111 31.0493C9.13835 31.1664 9.65267 29.7025 9.85269 28.6778C9.88126 28.5021 9.79554 28.2679 9.59553 28.2386C9.42409 28.2094 9.1955 28.2972 9.16692 28.5021C9.13835 28.7364 9.0812 28.9706 8.99548 29.1755C8.96691 29.2341 8.96691 29.2926 8.93834 29.3805C8.93834 29.4098 8.90976 29.439 8.90976 29.439C8.90976 29.4683 8.88119 29.5561 8.90976 29.4683C8.88119 29.5854 8.79547 29.7025 8.73832 29.7904C8.70975 29.8489 8.68117 29.9075 8.6526 29.9368C8.6526 29.9368 8.6526 29.966 8.62403 29.966C8.59545 29.9953 8.62403 29.966 8.6526 29.9368L8.59545 29.9953C8.56688 30.0246 8.50973 30.0831 8.48116 30.1124L8.45259 30.1417C8.42401 30.171 8.42401 30.171 8.48116 30.1417C8.45259 30.1417 8.42401 30.171 8.42401 30.2003C8.39544 30.2295 8.28114 30.2588 8.28114 30.2881C8.33829 30.2588 8.33829 30.2588 8.30972 30.2881C8.30972 30.2881 8.30972 30.2881 8.28114 30.2881C8.25257 30.2881 8.224 30.3174 8.19542 30.3174C8.19542 30.3174 8.1097 30.3174 8.1097 30.3466C8.05256 30.3466 7.96684 30.3466 7.90969 30.3466C7.70967 30.3174 7.53823 30.5223 7.56681 30.698C7.50966 30.9029 7.6811 31.0493 7.88111 31.0493Z" fill="black"/>
<path d="M7.65406 22.6464C7.96837 22.2073 8.42554 21.9438 8.9113 21.9438C9.42562 21.9438 9.96852 22.178 10.4257 22.4708C11.4543 23.1442 12.3687 24.2567 12.6259 25.4864C12.7401 26.0719 12.683 26.6868 12.3115 27.1552C12.0258 27.5065 12.5116 28.0335 12.8259 27.6822C13.8259 26.4818 13.3688 24.813 12.5687 23.6419C11.7686 22.4415 10.4543 21.2704 8.96844 21.2411C8.16838 21.2118 7.48262 21.6217 7.02544 22.2951C6.76828 22.6464 7.3969 23.027 7.65406 22.6464Z" fill="black"/>
<path d="M20.971 27.2722C20.4852 29.2045 19.428 30.9612 17.9708 32.2787C18.1422 32.2787 18.3136 32.2787 18.4851 32.2787C18.0565 31.7224 17.4564 31.0783 16.7135 31.0783C16.0849 31.0783 15.6277 31.5468 15.342 32.0445C14.942 32.7179 14.7705 33.5377 14.6277 34.2989C14.4848 35.2065 14.4276 36.1141 14.4848 37.0217C14.5134 37.8122 14.5991 38.6613 14.8848 39.3932C14.9991 39.686 15.1134 40.0081 15.342 40.2716C15.7135 40.7107 16.4564 40.9157 16.9707 40.8864C18.2279 40.8278 19.1137 39.686 19.3994 38.5149C19.4852 38.2221 19.5137 37.9001 19.5137 37.6073C19.5137 37.2559 19.4566 36.9046 19.428 36.5533C19.3994 35.9677 19.5137 35.4114 19.7137 34.8552C20.1709 33.6548 21.0567 32.6886 21.7996 31.6639C22.5711 30.5806 23.2283 29.4388 23.314 28.0627C23.3426 27.5943 22.6283 27.5943 22.5997 28.0627C22.4282 30.2293 20.6852 31.7224 19.628 33.4498C19.0851 34.3282 18.7137 35.3236 18.7137 36.3776C18.7137 36.9632 18.8565 37.5487 18.7422 38.1343C18.628 38.6906 18.3994 39.2468 17.9993 39.6567C17.3707 40.3008 16.1135 40.3594 15.6849 39.5103C15.3991 38.9541 15.3134 38.2807 15.2277 37.6951C15.0848 36.1727 15.142 34.5331 15.6563 33.0692C15.7706 32.7764 15.8849 32.4837 16.0849 32.2202C16.1992 32.0445 16.3992 31.8981 16.5421 31.8395C16.6278 31.8103 16.7135 31.8103 16.7707 31.8103C16.9135 31.8395 16.9993 31.8688 17.1136 31.9274C17.4564 32.1323 17.7422 32.4544 17.9708 32.7764C18.0851 32.9521 18.3422 32.8935 18.4851 32.7764C20.0281 31.3711 21.1424 29.4973 21.6853 27.4479C21.771 27.0087 21.0853 26.833 20.971 27.2722Z" fill="black"/>
<path d="M29.9439 32.0444C29.9153 33.3034 29.8296 34.7087 29.2581 35.8798C28.9724 36.4654 28.5438 36.9045 28.0009 37.0802C27.0008 37.4315 25.8007 37.2851 25.1435 38.3099C24.6578 39.1004 24.7149 40.1251 24.6578 41.0034C24.6006 42.1745 24.6006 43.4335 25.0578 44.5168C25.315 45.1316 25.7722 45.6879 26.4294 45.8343C27.0865 45.9807 27.7152 45.6879 28.2009 45.2487C29.8296 43.8141 30.1153 41.2377 29.7153 39.2175C29.6867 39.3346 29.6582 39.4517 29.6296 39.5688C32.1155 37.4315 32.7727 34.0646 32.4584 30.8733C32.4012 30.4049 31.6869 30.4049 31.744 30.8733C32.0583 33.8889 31.4869 37.0216 29.1153 39.0418C29.001 39.1296 29.001 39.276 29.0295 39.3932C29.3439 41.0913 29.1724 43.1407 27.9723 44.4582C27.7723 44.6924 27.5437 44.8681 27.2866 45.0145C27.0865 45.1023 26.8865 45.1609 26.6579 45.1316C26.5151 45.1023 26.2865 45.0145 26.1436 44.8681C25.915 44.6632 25.7722 44.3997 25.6579 44.1069C25.2578 43.0529 25.2864 41.8525 25.3721 40.7399C25.4293 40.0373 25.4007 39.1004 25.8007 38.6026C26.0865 38.2513 26.4008 38.1635 26.8865 38.0756C27.3723 37.9878 27.8866 37.9293 28.3724 37.7243C30.4011 36.846 30.5725 33.9768 30.6297 32.0737C30.6582 31.576 29.9439 31.576 29.9439 32.0444Z" fill="black"/>
</g>
<defs>
<clipPath id="clip0_528_7785">
<rect width="48.375" height="45" fill="white" transform="translate(0.769531 0.863647)"/>
</clipPath>
</defs>
</svg>
