<svg width="231" height="80" viewBox="0 0 231 80" fill="none" xmlns="http://www.w3.org/2000/svg">
<path d="M108.02 73.2826C105.074 73.2826 102.545 72.8133 100.433 71.8748C98.3477 70.9363 96.7705 69.6718 95.7016 68.0815C94.6327 66.4652 94.0983 64.6924 94.0983 62.7632C94.0983 60.834 94.6327 59.0742 95.7016 57.4839C96.7705 55.8676 98.3477 54.5901 100.433 53.6516C102.545 52.713 105.074 52.2438 108.02 52.2438C110.653 52.2438 112.986 52.6348 115.02 53.4169C117.053 54.173 118.67 55.2419 119.869 56.6236C121.068 58.0053 121.759 59.5956 121.941 61.3945H113.338C113.13 60.6906 112.569 60.104 111.657 59.6347C110.77 59.1394 109.558 58.8917 108.02 58.8917C106.351 58.8917 105.048 59.2698 104.109 60.0258C103.171 60.7818 102.701 61.6943 102.701 62.7632C102.701 63.8321 103.171 64.7445 104.109 65.5006C105.048 66.2566 106.351 66.6346 108.02 66.6346C109.558 66.6346 110.77 66.4 111.657 65.9307C112.569 65.4354 113.13 64.8358 113.338 64.1319H121.941C121.759 65.9307 121.068 67.521 119.869 68.9028C118.67 70.2845 117.053 71.3664 115.02 72.1485C112.986 72.9046 110.653 73.2826 108.02 73.2826ZM136.791 73.2826C132.906 73.2826 130.012 72.6048 128.109 71.2491C126.206 69.8934 125.254 68.1598 125.254 66.0481C125.254 64.3535 125.789 62.9587 126.858 61.8638C127.953 60.7688 129.334 60.2213 131.003 60.2213V59.4392H123.104V53.3778H126.819C127.731 53.3778 128.383 53.1823 128.774 52.7913C129.165 52.3741 129.36 51.7224 129.36 50.836V48.0986H136.399V52.9868H146.958V59.4392H134.64C133.858 59.9085 133.467 60.9513 133.467 62.5677C133.467 63.7669 133.727 64.6533 134.249 65.2268C134.796 65.7743 135.643 66.0481 136.791 66.0481C137.859 66.0481 138.681 65.8395 139.254 65.4224C139.828 65.0052 140.115 64.4969 140.115 63.8972V63.3498H148.718V64.0537C148.718 66.8953 147.714 69.1504 145.707 70.8189C143.725 72.4614 140.753 73.2826 136.791 73.2826ZM163.789 65.6961H169.263V72.7351H149.124V65.6961H155.577V61.4727C155.577 60.7949 155.433 60.3256 155.146 60.0649C154.886 59.8042 154.416 59.6738 153.739 59.6738C153.087 59.6738 152.461 59.8042 151.861 60.0649V53.0259C153.087 52.5045 154.703 52.2438 156.711 52.2438C158.535 52.2438 159.956 52.4393 160.973 52.8304C161.99 53.2214 162.707 53.8471 163.124 54.7074C163.567 55.5417 163.789 56.7018 163.789 58.1878V65.6961ZM158.627 50.6405C157.193 50.6405 156.046 50.2624 155.185 49.5064C154.351 48.7243 153.934 47.7336 153.934 46.5344C153.934 45.3351 154.351 44.3575 155.185 43.6014C156.046 42.8193 157.193 42.4283 158.627 42.4283C160.061 42.4283 161.195 42.8193 162.029 43.6014C162.889 44.3575 163.319 45.3351 163.319 46.5344C163.319 47.7336 162.889 48.7243 162.029 49.5064C161.195 50.2624 160.061 50.6405 158.627 50.6405ZM183.606 73.2826C180.53 73.2826 177.91 72.8133 175.746 71.8748C173.608 70.9363 171.992 69.6718 170.897 68.0815C169.802 66.4912 169.254 64.7185 169.254 62.7632C169.254 60.8079 169.802 59.0351 170.897 57.4448C171.992 55.8545 173.608 54.5901 175.746 53.6516C177.91 52.713 180.53 52.2438 183.606 52.2438C186.682 52.2438 189.289 52.713 191.427 53.6516C193.591 54.5901 195.22 55.8545 196.315 57.4448C197.41 59.0351 197.958 60.8079 197.958 62.7632C197.958 64.7185 197.41 66.4912 196.315 68.0815C195.22 69.6718 193.591 70.9363 191.427 71.8748C189.289 72.8133 186.682 73.2826 183.606 73.2826ZM183.606 66.6346C185.483 66.6346 186.904 66.2697 187.869 65.5397C188.859 64.8097 189.355 63.8842 189.355 62.7632C189.355 61.6682 188.859 60.7558 187.869 60.0258C186.878 59.2698 185.457 58.8917 183.606 58.8917C181.755 58.8917 180.334 59.2698 179.344 60.0258C178.353 60.7558 177.858 61.6682 177.858 62.7632C177.858 63.8842 178.34 64.8097 179.304 65.5397C180.295 66.2697 181.729 66.6346 183.606 66.6346ZM201.28 72.7351V52.7913H209.883L208.71 58.4616H209.492C210.091 56.3238 211.121 54.7596 212.581 53.7689C214.067 52.7522 215.957 52.2438 218.251 52.2438C221.458 52.2438 223.974 53.1823 225.799 55.0594C227.65 56.9104 228.575 59.4783 228.575 62.7632V72.7351H219.972V64.7967C219.972 63.1021 219.516 61.7986 218.603 60.8861C217.717 59.9476 216.492 59.4783 214.927 59.4783C213.363 59.4783 212.125 59.9476 211.212 60.8861C210.326 61.7986 209.883 63.1021 209.883 64.7967V72.7351H201.28Z" fill="black"/>
<path d="M34.9386 33.6294H23.2069L20.3913 26.5513C20.1306 25.8995 19.7004 25.4172 19.1008 25.1044C18.5012 24.7915 17.7191 24.6351 16.7545 24.6351H13.0394V33.6294H3.26304V6.25548H21.8773C25.7879 6.25548 28.7077 7.05063 30.637 8.64092C32.5922 10.2312 33.5699 12.3951 33.5699 15.1325C33.5699 16.6445 33.231 18.0263 32.5531 19.2776C31.8753 20.503 30.9628 21.4936 29.8157 22.2497C28.6947 23.0057 27.4564 23.4098 26.1007 23.4619V24.2441C27.691 24.2701 29.0076 24.609 30.0504 25.2608C31.0932 25.9126 31.9926 27.0988 32.7487 28.8194L34.9386 33.6294ZM20.5086 19.1603C21.5775 19.1603 22.3857 18.9127 22.9332 18.4173C23.5067 17.922 23.7935 17.2572 23.7935 16.4229C23.7935 15.5887 23.5067 14.9239 22.9332 14.4286C22.3857 13.9332 21.5775 13.6855 20.5086 13.6855H12.4529V19.1603H20.5086ZM64.6496 23.7748C64.6496 24.3744 64.5975 25.0522 64.4932 25.8083H44.8622C45.7486 27.3464 47.6648 28.1155 50.6107 28.1155C52.1489 28.1155 53.296 28.0112 54.052 27.8027C54.8341 27.5941 55.512 27.3204 56.0855 26.9814H64.2977C63.9066 28.0764 63.1767 29.1714 62.1078 30.2663C61.065 31.3613 59.5659 32.2868 57.6106 33.0428C55.6554 33.7989 53.2699 34.1769 50.4543 34.1769C47.5084 34.1769 44.9795 33.7076 42.8678 32.7691C40.7822 31.8305 39.1919 30.5661 38.097 28.9758C37.0281 27.3855 36.4936 25.6127 36.4936 23.6575C36.4936 21.7022 37.0281 19.9294 38.097 18.3391C39.1919 16.7488 40.7952 15.4844 42.9069 14.5459C45.0447 13.6073 47.5996 13.1381 50.5716 13.1381C53.5697 13.1381 56.1246 13.6073 58.2363 14.5459C60.348 15.4844 61.9383 16.7619 63.0072 18.3782C64.1022 19.9946 64.6496 21.7934 64.6496 23.7748ZM50.5716 19.1994C47.6518 19.1994 45.7486 19.9685 44.8622 21.5067H56.2811C55.3947 19.9685 53.4915 19.1994 50.5716 19.1994Z" fill="black"/>
<path d="M106.792 34.1764C104.68 34.1764 102.816 33.7462 101.2 32.8859C99.6095 31.9995 98.3711 30.7612 97.4848 29.1709C96.6244 27.5806 96.1943 25.7426 96.1943 23.657C96.1943 21.5714 96.6244 19.7334 97.4848 18.1431C98.3711 16.5528 99.6095 15.3275 101.2 14.4672C102.816 13.5808 104.68 13.1376 106.792 13.1376C109.321 13.1376 111.354 13.6068 112.892 14.5454C114.431 15.4578 115.512 16.8656 116.138 18.7688H116.92C116.138 16.3182 115.747 13.9067 115.747 11.5343V6.255H124.35V33.6289H115.747L116.92 28.5452H116.138C115.512 30.4483 114.431 31.8692 112.892 32.8077C111.354 33.7202 109.321 34.1764 106.792 34.1764ZM110.194 27.5284C111.915 27.5284 113.231 27.1634 114.144 26.4335C115.082 25.7035 115.552 24.778 115.552 23.657C115.552 22.536 115.082 21.6105 114.144 20.8805C113.231 20.1505 111.915 19.7855 110.194 19.7855C108.447 19.7855 107.105 20.1505 106.166 20.8805C105.254 21.6105 104.798 22.536 104.798 23.657C104.798 24.778 105.254 25.7035 106.166 26.4335C107.105 27.1634 108.447 27.5284 110.194 27.5284ZM144.858 13.6851H154.83L146.071 32.7295C144.559 35.9883 142.747 38.3216 140.635 39.7294C138.523 41.1372 135.942 41.8411 132.892 41.8411C131.901 41.8411 131.041 41.7759 130.311 41.6456C129.581 41.5152 128.838 41.2806 128.082 40.9417V33.9026C129.255 34.3719 130.481 34.6065 131.758 34.6065C132.749 34.6065 133.583 34.5153 134.261 34.3328C134.965 34.1764 135.538 33.8896 135.981 33.4725L126.518 13.6851H136.49L139.188 22.0928C139.918 24.413 140.283 26.238 140.283 27.5675V27.7631H141.065V27.5675C141.065 26.238 141.43 24.413 142.16 22.0928L144.858 13.6851Z" fill="black"/>
<path d="M94.7658 34.0318H85.999L85.7183 33.5351L80.1041 23.7967C80.1041 23.7751 80.0825 23.7751 80.0825 23.7535C80.0178 23.6455 79.953 23.5376 79.8882 23.408C78.4199 20.9896 75.8071 19.3269 72.8057 19.1542C72.633 19.1542 72.4818 19.1326 72.3091 19.1326C72.1363 19.1326 71.9852 19.1326 71.8124 19.1542H68.7678V11.5535H73.5399C79.0245 11.5535 83.7749 14.6197 86.1934 19.1542H86.1718L86.3229 19.4349L94.7658 34.0318Z" fill="#FF8D52"/>
<path d="M77.5205 34.032H68.7678V26.4313H81.5508L77.5205 34.032Z" fill="#FF8D52"/>
<path d="M94.7658 73.1373H85.999L85.7183 72.6406L80.1041 62.9022C80.1041 62.8806 80.0825 62.8806 80.0825 62.859C80.0178 62.751 79.953 62.6431 79.8882 62.5135C78.4199 60.0951 75.8071 58.4324 72.8057 58.2597C72.633 58.2597 72.4818 58.2381 72.3091 58.2381C72.1363 58.2381 71.9852 58.2381 71.8124 58.2597H68.7678V50.6589H73.5399C79.0245 50.6589 83.7749 53.7251 86.1934 58.2597H86.1718L86.3229 58.5404L94.7658 73.1373Z" fill="#FF8D52"/>
<path d="M77.5205 73.1376H68.7678V65.5369H81.5508L77.5205 73.1376Z" fill="#FF8D52"/>
</svg>
