<svg width="199" height="184" viewBox="0 0 199 184" fill="none" xmlns="http://www.w3.org/2000/svg">
<g clip-path="url(#clip0_552_3765)">
<path d="M171.612 98.689L132.823 30.9421C130.59 27.013 125.653 25.7033 121.891 27.9655L37.0256 77.972C35.1449 79.0436 35.1449 81.9011 37.1431 82.8536C50.0728 89.9974 88.7444 111.191 106.258 121.311C127.534 133.575 134.351 131.074 152.923 120.478L168.203 111.786C172.67 109.167 174.316 103.332 171.612 98.689Z" fill="#FF8D52"/>
<path d="M152.923 120.478L168.203 111.786C172.788 109.167 174.316 103.332 171.73 98.689L168.791 93.5693C157.507 100.594 142.109 108.333 130.002 107.738C108.492 106.547 79.8112 87.378 72.6411 78.2102C69.2323 73.8048 69.4674 65.5895 70.7604 58.2076L37.0256 77.9721C35.1449 79.0436 35.1449 81.9011 37.1431 82.8536C50.0728 89.9974 88.7444 111.191 106.258 121.311C127.416 133.575 134.233 131.074 152.923 120.478Z" fill="#F66E00"/>
<path d="M85.4546 109.643C84.2792 113.334 82.281 117.025 80.4003 120.359C78.402 123.811 75.581 126.55 73.3477 129.884C73.3477 129.884 73.3477 129.884 73.3477 130.003C73.2302 129.764 72.9951 129.407 72.6424 129.169C69.5863 126.55 63.3566 123.811 61.711 129.288C60.1829 134.17 59.2426 139.409 58.0671 144.29C57.4794 146.552 56.6566 148.934 57.4794 151.315C57.832 152.386 58.5373 153.101 59.0075 154.172C59.3601 155.006 59.7127 155.958 60.0654 156.792C61.1232 158.697 63.0039 160.126 65.2372 160.245C65.5899 160.245 65.9425 160.245 66.1776 160.245C67.1179 160.84 68.4109 161.078 69.4688 160.483C70.6442 159.649 71.5846 158.578 71.9372 157.387C74.4056 155.482 74.7582 150.243 74.8758 147.624C74.9933 145.362 74.4056 142.981 74.7582 140.718C75.1108 138.575 76.5214 136.432 77.5792 134.646C79.695 130.836 82.9862 127.74 85.3371 123.93C87.5704 120.12 89.9212 115.834 91.2142 111.548C92.2721 107.619 86.63 105.952 85.4546 109.643Z" fill="white"/>
<path d="M128.238 125.597C128.238 121.787 122.244 121.668 122.361 125.597C122.361 128.812 122.949 132.384 122.361 135.48C121.774 138.813 119.54 142.266 117.895 145.124C117.307 146.314 116.602 148.338 115.544 149.172C115.191 149.41 114.368 149.41 113.898 149.529C112.958 149.767 112.018 149.886 110.96 150.124C107.669 150.72 104.142 150.958 101.909 153.815C97.4423 159.292 99.6756 167.269 101.321 173.342C102.026 176.199 102.614 179.652 105.67 180.962C108.961 182.39 112.018 179.89 113.781 177.152C115.661 174.056 116.249 170.365 116.719 166.912C117.425 162.864 117.777 158.697 118.012 154.649C118.953 154.172 119.775 153.577 120.481 152.506C122.126 150.243 123.302 147.624 124.595 145.243C126.123 142.266 127.886 139.17 128.238 135.718C128.591 132.384 128.356 128.931 128.238 125.597Z" fill="white"/>
<path d="M47.841 91.9025C45.02 87.9734 40.6709 84.2824 35.6166 84.2824C33.5008 84.2824 31.385 85.1159 29.7394 86.4255C28.0938 87.7352 26.6833 89.4021 24.9202 90.4737C22.6869 91.9025 19.7483 91.6643 17.2799 92.3787C14.694 93.2121 12.3431 94.6409 10.1098 96.1887C7.99402 97.7365 5.7607 99.4034 4.58527 101.785C3.2923 104.523 3.40984 107.5 3.76247 110.357C3.88002 111.548 4.46773 112.619 5.40807 113.096C6.34842 115.12 6.81859 117.263 8.11156 119.049C9.75716 121.192 11.6378 122.025 14.2238 122.383C14.4589 122.383 14.8115 122.383 15.0466 122.502C15.0466 122.621 15.1641 122.621 15.1641 122.74C15.2817 123.692 15.9869 124.883 16.3396 125.716C17.515 127.86 19.3957 129.526 21.7465 129.884C24.2149 130.36 27.1535 130.122 29.5044 129.526C30.5622 129.288 31.5026 128.693 32.4429 128.336C33.7359 127.86 35.264 127.979 36.6745 128.098C39.0253 128.336 41.2586 129.05 43.1393 127.145C44.7849 125.478 45.7253 122.978 46.4305 120.716C47.9586 115.596 47.841 110.357 49.6042 105.357C51.4849 100.832 50.7796 96.0697 47.841 91.9025Z" fill="white"/>
<path d="M197.826 24.0365C197.356 21.1789 196.063 18.3214 193.947 16.1783C192.771 14.9877 191.479 14.1542 189.95 13.5589C189.245 13.3208 188.54 13.2017 187.835 13.0827C187.6 13.0827 187.247 13.0827 186.894 12.9636H186.777C186.542 12.0111 186.307 11.0586 185.954 10.1061C185.366 8.79638 184.543 7.36762 183.603 6.41511C181.37 4.03385 177.726 5.22448 175.023 5.8198C174.552 5.93886 173.73 6.29605 173.142 6.17699C173.259 6.05793 172.554 5.46261 172.437 5.34355C171.614 4.51011 170.438 3.79573 169.263 3.31947C166.795 2.36697 163.856 2.60509 161.505 3.91479C159.154 5.22448 157.509 7.48668 156.568 9.98701C156.098 11.1776 155.863 12.6064 155.863 13.9161C155.863 15.4639 156.333 17.0117 156.216 18.5596C155.981 21.4171 153.63 23.084 151.749 24.8699C149.398 27.013 148.458 29.8706 147.988 32.9662C147.87 33.6806 147.988 34.2759 148.223 34.8712C148.223 34.9903 148.223 35.1093 148.223 35.2284C148.34 38.4431 149.398 41.1815 150.574 44.0391C151.396 45.825 152.102 47.611 152.454 49.3969C152.337 50.4685 152.454 51.54 152.689 52.6116C152.807 53.326 153.16 53.8022 153.63 54.1594C154.217 55.4691 155.158 56.4216 156.451 57.0169C159.272 58.4457 162.681 59.041 165.854 59.1601C168.91 59.2791 172.319 58.922 175.258 57.8504C176.668 57.3741 177.726 56.5407 178.314 55.1119C178.784 53.9213 179.019 52.7307 179.724 51.54C182.78 46.7775 189.128 46.3013 192.536 42.015C196.063 37.2525 198.766 30.1087 197.826 24.0365Z" fill="white"/>
<path d="M161.272 61.3032C161.507 64.637 161.742 67.8517 159.862 70.8282C158.921 72.257 157.863 73.5667 156.806 74.8764C156.218 75.5908 155.63 76.4242 154.925 77.1386C154.572 77.6148 154.102 78.3292 153.514 78.4483C151.751 78.9245 152.456 81.782 154.337 81.3058C156.218 80.8295 157.276 78.9245 158.451 77.6148C159.744 76.067 161.037 74.4001 162.213 72.7332C164.446 69.2804 164.446 65.3513 164.211 61.4223C163.976 59.3982 161.037 59.3982 161.272 61.3032Z" fill="black"/>
<path d="M45.8406 89.283C50.3073 86.4255 55.3616 84.5205 60.5335 83.9252C61.3563 83.8061 61.944 83.3298 61.944 82.4964C61.944 81.782 61.2387 80.9486 60.5335 81.0677C54.7739 81.663 49.2494 83.568 44.3126 86.7827C42.7845 87.7352 44.3126 90.3546 45.8406 89.283Z" fill="black"/>
<path d="M97.3275 28.6799C99.9134 27.013 103.205 25.108 106.143 25.108C106.613 25.108 106.613 25.108 107.084 25.3461C107.436 25.4652 106.848 25.227 107.201 25.3461C107.319 25.3461 107.319 25.4652 107.436 25.4652C107.554 25.4652 107.671 25.5842 107.671 25.7033C107.906 25.9414 107.554 25.5842 107.789 25.7033C108.377 26.2986 108.729 26.7748 109.082 27.7273C108.964 27.4892 109.199 28.0845 109.199 28.0845C109.317 28.3227 109.317 28.5608 109.434 28.7989C109.552 29.3942 109.787 29.8705 109.905 30.4658C110.14 31.6564 110.375 32.728 110.61 33.9186C111.08 36.2999 111.668 38.8002 112.726 41.0624C113.783 43.3246 115.547 45.1106 117.78 46.0631C120.719 47.2537 124.245 46.5393 126.948 44.8724C131.297 42.134 133.296 36.2999 131.532 31.4183C130.71 29.037 128.829 27.132 126.125 27.132C122.599 27.132 119.896 30.3467 118.015 32.9661C116.84 34.5139 119.426 35.9427 120.601 34.5139C121.541 33.2042 122.599 32.0136 123.892 31.0611C124.245 30.823 124.833 30.4658 125.068 30.4658C125.303 30.3467 125.538 30.3467 125.773 30.2277C126.125 30.1086 125.773 30.2277 126.243 30.2277C126.713 30.2277 127.418 30.4658 127.654 30.823C128.241 31.2992 128.594 32.0136 128.829 32.728C129.417 34.633 129.417 36.419 128.711 38.443C128.006 40.4671 126.361 42.253 124.245 43.2055C123.187 43.6818 121.659 44.1581 120.483 44.039C119.426 43.9199 118.368 43.4437 117.545 42.8484C116.134 41.7768 115.194 39.8718 114.606 38.0858C113.313 34.0377 113.431 29.2752 111.315 25.5842C107.906 19.512 100.266 23.6792 95.917 26.2986C94.2714 27.132 95.6819 29.6324 97.3275 28.6799Z" fill="black"/>
<path d="M98.2651 27.8464C97.5598 26.0605 95.4441 25.4652 93.6809 25.108C92.1529 24.8698 90.7423 24.6317 89.2143 24.6317C85.688 24.6317 82.1617 25.9414 79.3407 28.0845C76.5197 30.2277 74.1688 33.2043 72.6407 36.419C71.3478 38.9193 70.2899 41.8959 67.7039 43.2056C71.4653 43.2056 75.2267 43.2056 78.9881 43.2056C81.3389 43.2056 83.5722 43.2056 85.9231 42.8484C87.0985 42.6102 88.2739 42.3721 89.2143 41.6577C90.0371 41.0624 90.6248 40.1099 91.2125 39.2765C93.5634 35.8236 95.6791 32.1327 97.5598 28.4417" fill="black"/>
<path d="M118.952 59.041C118.952 60.7078 118.717 62.2557 118.247 63.8035C118.129 64.5179 117.894 65.2322 117.659 65.8276C117.424 66.3038 117.071 66.661 116.601 66.8991C116.013 67.1372 115.543 67.7326 115.778 68.4469C115.896 69.0423 116.718 69.5185 117.306 69.2804C118.247 68.9232 119.069 68.4469 119.657 67.6135C120.245 66.7801 120.48 65.8276 120.715 64.9941C121.185 63.0891 121.655 61.065 121.655 59.041C121.655 58.3266 121.068 57.7313 120.362 57.7313C119.54 57.8503 118.834 58.4456 118.952 59.041Z" fill="black"/>
<path d="M132.825 60.7078C132.707 62.4938 132.825 64.1606 132.825 65.9466C132.825 67.4944 132.59 69.0422 132.002 70.471C131.649 71.1854 131.767 72.1379 132.472 72.4951C133.06 72.8523 134.118 72.7332 134.471 72.0188C136.234 68.4469 135.646 64.5178 135.763 60.7078C135.763 59.8744 135.058 59.2791 134.353 59.2791C133.53 59.2791 132.825 59.8744 132.825 60.7078Z" fill="black"/>
<path d="M135.174 82.1392C129.532 86.5446 121.186 84.9967 115.427 81.782C112.606 80.2342 110.02 78.0911 108.022 75.4717C107.316 74.5192 106.611 73.8048 105.553 73.2095C103.908 72.4951 102.145 72.7332 100.499 72.9714C100.734 73.9239 100.969 74.8764 101.322 75.8289C105.436 74.7573 108.727 72.6142 109.315 68.0898C109.55 66.1848 106.611 66.1848 106.376 68.0898C106.023 71.1854 103.202 72.257 100.617 72.9714C98.7358 73.4476 99.5586 76.1861 101.439 75.8289C102.85 75.5907 104.26 75.4717 105.318 76.5432C106.259 77.4958 106.964 78.5673 107.904 79.5198C110.49 82.0201 113.311 84.0442 116.72 85.473C122.95 88.0924 131.178 89.0449 136.937 84.6395C138.113 83.568 136.585 80.9486 135.174 82.1392Z" fill="black"/>
<path d="M196.884 24.5127C196.766 23.9174 196.649 23.3221 196.531 22.7267C195.826 24.3936 194.886 26.1796 193.71 27.9655C185.012 40.7053 165.5 47.8491 156.684 41.4197C151.63 37.7287 151.277 30.4658 150.924 25.108C148.574 27.2511 147.633 30.1087 147.163 33.2043C147.046 33.9187 147.163 34.514 147.398 35.1093C147.398 35.2284 147.398 35.3474 147.398 35.4665C147.516 38.6812 148.574 41.4197 149.749 44.2772C150.572 46.0631 151.277 47.8491 151.63 49.635C151.512 50.7066 151.63 51.7781 151.865 52.8497C151.982 53.5641 152.335 54.0403 152.805 54.3975C153.393 55.7072 154.333 56.6597 155.626 57.255C158.447 58.6838 161.856 59.2791 165.03 59.3982C168.086 59.5172 171.494 59.1601 174.433 58.0885C175.844 57.6122 176.901 56.7788 177.489 55.35C177.959 54.1594 178.194 52.9688 178.9 51.7781C181.956 47.0156 188.303 46.5394 191.712 42.2531C195.121 37.7287 197.707 30.5849 196.884 24.5127Z" fill="#C1C1C1"/>
<path d="M158.56 33.0853C162.791 33.9187 167.61 32.2519 171.137 29.7515C174.193 27.6084 177.484 23.6793 174.898 19.9884C171.607 15.1068 164.554 15.7021 159.618 17.1308C154.328 18.6787 149.274 22.2506 146.688 27.2512C143.397 33.4425 144.69 40.5863 148.569 46.1822C149.626 47.7301 152.212 46.3013 151.154 44.6344C148.216 40.4672 146.688 35.4666 148.451 30.585C149.979 26.2987 153.505 23.084 157.384 21.179C159.618 20.1074 161.968 19.5121 164.437 19.274C166.788 19.0359 169.491 19.0359 171.489 20.5837C174.075 22.6077 172.43 25.1081 170.314 26.894C167.493 29.1562 163.026 31.0612 159.382 30.3468C157.502 29.8706 156.796 32.7281 158.56 33.0853Z" fill="black"/>
<path d="M164.553 33.7997C165.494 33.7997 165.729 33.7997 166.551 34.0378C166.669 34.0378 166.904 34.1569 167.022 34.1569C166.786 34.0378 167.022 34.1569 167.139 34.1569C167.374 34.2759 167.609 34.395 167.844 34.6331C167.609 34.395 167.962 34.7522 167.962 34.7522C168.079 34.8712 168.197 34.9903 168.315 35.1094C168.55 35.3475 168.197 34.8712 168.315 35.2284C168.432 35.3475 168.432 35.4665 168.55 35.5856C168.667 35.7047 168.667 35.8237 168.785 35.9428C168.785 36.0619 168.902 36.3 168.785 36.0619C168.902 36.3 169.02 36.6572 169.02 36.8953C169.137 37.2525 169.137 37.4906 169.255 37.8478C169.255 37.8478 169.372 38.3241 169.255 37.9669C169.255 38.0859 169.255 38.3241 169.255 38.4431C169.255 39.0384 169.255 39.7528 169.255 40.4672C169.137 42.015 169.02 42.7294 168.785 44.1582C168.667 44.9916 169.02 45.825 169.843 45.9441C170.548 46.1822 171.488 45.706 171.606 44.8725C172.546 40.5863 173.134 34.2759 168.785 31.6565C167.492 30.8231 165.846 30.585 164.436 30.585C162.672 30.8231 162.672 33.7997 164.553 33.7997Z" fill="black"/>
<path d="M157.272 17.3689C157.037 16.4164 156.802 15.583 156.567 14.6305C156.567 14.5114 156.567 14.3924 156.567 14.3924C156.567 14.6305 156.567 14.3924 156.567 14.2733C156.567 14.0352 156.567 13.9161 156.567 13.678C156.567 13.3208 156.567 12.8445 156.567 12.4873C156.567 12.1302 156.567 11.773 156.684 11.4158C156.684 11.2967 156.684 11.1777 156.684 11.1777C156.684 10.9395 156.802 10.8205 156.802 10.5823C156.919 9.86796 157.154 9.27264 157.389 8.55826C157.272 8.91545 157.389 8.4392 157.507 8.4392C157.624 8.32014 157.624 8.20107 157.742 8.08201C157.86 7.84388 158.095 7.48669 158.212 7.24857C158.33 7.12951 158.33 7.01044 158.447 6.89138C158.682 6.53419 158.33 7.01044 158.565 6.77232C158.8 6.53419 158.917 6.29606 159.153 6.05794C159.388 5.81981 159.505 5.70075 159.74 5.46262C159.858 5.34356 159.975 5.2245 160.093 5.10543C160.21 5.10543 160.328 4.98637 159.975 5.10543C160.093 5.10543 160.093 4.98637 160.21 4.98637C160.681 4.62918 161.151 4.39105 161.621 4.15293C161.738 4.03386 161.856 4.03386 161.974 4.03386C162.326 3.9148 161.738 4.15293 162.091 4.03386C162.326 3.9148 162.679 3.79574 162.914 3.79574C163.149 3.67668 163.384 3.67668 163.737 3.55761C163.854 3.55761 163.972 3.43855 164.207 3.43855C164.324 3.43855 164.795 3.31949 164.324 3.43855C164.795 3.43855 165.382 3.31949 165.852 3.31949C166.088 3.31949 166.323 3.31949 166.558 3.31949C166.793 3.31949 166.205 3.20042 166.44 3.31949H166.558C166.675 3.31949 166.793 3.31949 166.91 3.43855C167.145 3.43855 167.381 3.55761 167.616 3.67668C167.733 3.67668 167.851 3.79574 167.968 3.79574C168.086 3.79574 168.203 3.9148 167.851 3.79574C167.968 3.79574 167.968 3.9148 168.086 3.9148C168.321 4.03386 168.556 4.15293 168.674 4.27199C168.791 4.27199 168.791 4.39105 168.909 4.39105C169.261 4.62918 168.791 4.27199 169.026 4.51012C169.144 4.62918 169.379 4.86731 169.496 4.98637C169.614 5.10543 169.614 5.10543 169.731 5.2245C169.966 5.46262 169.614 4.98637 169.731 5.34356C169.849 5.58169 169.966 5.70075 170.084 5.93887C170.202 6.05794 170.202 6.177 170.319 6.29606C170.202 5.93887 170.319 6.29606 170.319 6.41513C170.437 6.65325 170.437 7.01044 170.554 7.24857C170.554 7.36763 170.672 7.84388 170.672 7.60576C170.672 7.36763 170.672 7.96295 170.672 7.96295C170.672 8.32014 170.672 8.67733 170.672 9.03452C170.672 9.27264 170.672 9.3917 170.672 9.62983C170.672 9.74889 170.672 9.98702 170.672 9.62983C170.672 9.74889 170.672 9.86796 170.672 9.98702C170.554 10.8205 170.319 11.773 169.966 12.6064C169.614 13.5589 169.261 14.3924 168.674 15.4639C167.733 17.1308 170.319 18.6786 171.259 17.0117C172.905 13.797 174.316 10.1061 173.61 6.41513C173.023 3.79574 171.142 1.89073 168.791 0.938224C163.737 -0.966786 157.742 2.00979 155.274 6.53419C153.275 10.1061 153.51 14.3924 154.686 18.3214C155.039 19.9883 157.86 19.2739 157.272 17.3689Z" fill="black"/>
<path d="M174.899 7.12946C175.252 7.0104 175.487 6.77227 175.839 6.65321C175.604 6.77227 176.075 6.53415 176.075 6.53415C176.192 6.41508 176.427 6.41508 176.545 6.41508C176.897 6.29602 177.25 6.17696 177.603 6.17696C177.72 6.17696 177.955 6.05789 178.073 6.05789C177.72 6.05789 178.19 6.05789 178.308 6.05789C178.66 6.05789 179.013 6.05789 179.248 6.05789C179.366 6.05789 179.601 6.05789 179.718 6.05789C179.836 6.05789 179.836 6.05789 179.953 6.05789C179.718 6.05789 179.718 6.05789 179.953 6.05789C180.306 6.05789 180.541 6.17696 180.894 6.29602C181.011 6.29602 181.129 6.41508 181.364 6.41508C181.481 6.41508 181.481 6.41508 181.599 6.53415C181.364 6.41508 181.364 6.41508 181.599 6.53415C181.834 6.65321 182.069 6.77227 182.422 7.0104C182.539 7.0104 182.892 7.36759 182.539 7.12946C182.657 7.24852 182.774 7.36759 182.892 7.36759C183.01 7.48665 183.127 7.60571 183.245 7.72478C183.245 7.84384 183.597 8.20103 183.362 7.84384C183.48 8.08197 183.715 8.32009 183.832 8.67728C183.832 8.79634 183.95 8.79634 183.95 8.91541C183.832 8.67728 183.832 8.79634 183.95 8.91541C183.95 9.03447 184.067 9.2726 184.067 9.39166C184.067 9.51072 184.185 9.74885 184.185 9.86791C184.185 9.98698 184.185 9.98698 184.185 10.106C184.185 9.86791 184.185 9.86791 184.185 10.106C184.185 10.4632 184.185 10.8204 184.185 11.1776C184.185 11.6539 184.185 11.6539 184.067 12.1301C183.95 12.9636 184.303 13.6779 185.125 13.9161C185.831 14.1542 186.771 13.6779 186.888 12.8445C187.359 10.106 187.006 7.12946 184.89 5.22445C183.01 3.55757 180.424 2.96225 178.073 3.20038C176.427 3.4385 174.899 3.91476 173.489 4.62914C171.725 5.46258 173.253 8.08197 174.899 7.12946Z" fill="black"/>
<path d="M188.301 21.8933C186.773 24.0364 182.188 29.0371 180.778 24.2745C179.72 20.5836 182.423 15.5829 186.067 14.6304C188.301 14.0351 190.769 14.3923 192.532 15.4639C194.06 16.4164 195.118 18.2023 195.588 20.2264C196.881 25.3461 195.353 31.2992 192.885 36.0618C189.829 41.8959 185.009 46.8965 178.897 49.2778C169.494 52.8497 159.503 49.635 151.275 44.6343C149.629 43.6818 148.219 46.1821 149.747 47.2537C158.21 52.4925 168.671 55.8262 178.545 52.7306C185.95 50.3493 191.944 44.6343 195.471 37.7287C198.409 32.1327 200.29 24.8698 198.292 18.6786C197.469 16.1782 195.823 13.916 193.472 12.7254C190.769 11.4157 186.655 10.9395 183.952 12.4873C179.72 14.8685 176.664 20.1073 178.074 25.108C178.545 26.8939 179.72 28.5608 181.601 29.1561C183.834 29.8705 185.95 28.6799 187.595 27.3702C188.888 26.2986 189.946 24.8698 191.004 23.5601C191.944 21.8933 189.358 20.3454 188.301 21.8933Z" fill="black"/>
<path d="M149.275 47.8491C147.982 53.6832 153.154 57.3741 158.091 58.8029C163.615 60.4698 170.315 60.5888 175.604 58.0885C178.073 57.0169 180.189 54.9928 180.659 52.1353C180.894 50.2303 178.073 49.3969 177.838 51.3019C177.25 55.4691 171.726 56.5407 168.199 56.7788C163.615 57.136 157.973 56.5407 154.212 53.5641C152.566 52.2544 151.743 50.5875 152.096 48.4444C152.448 46.7775 149.627 46.0631 149.275 47.8491Z" fill="black"/>
<path d="M67.8232 126.55C65.2372 125.716 62.6513 126.073 61.711 129.407C60.1829 134.289 59.2426 139.528 58.0671 144.409C57.4794 146.671 56.6566 149.053 57.4794 151.434C57.832 152.505 58.5373 153.22 59.0075 154.291C59.3601 155.125 59.7127 156.077 60.0654 156.911C60.8882 158.459 62.2987 159.649 63.9443 160.125C60.6531 149.886 68.1758 136.908 67.8232 126.55Z" fill="#C1C1C1"/>
<path d="M106.73 150.958C103.556 151.077 100.618 152.029 100.148 155.244C99.4423 159.887 99.4423 164.65 99.0897 169.293C98.9721 171.437 98.3844 173.699 99.9125 175.485C100.618 176.318 101.558 176.794 102.263 177.509C102.969 178.104 103.439 178.938 104.144 179.533C105.437 180.604 107.318 181.319 109.316 181.2C103.321 173.223 109.316 159.887 106.73 150.958Z" fill="#C1C1C1"/>
<path d="M46.1942 121.192C41.7275 122.383 35.7329 123.811 33.0294 123.335C28.5627 122.621 28.4452 121.43 28.4452 121.43C28.4452 121.43 23.0382 125.24 19.3944 123.335C15.633 121.311 18.3365 114.524 18.3365 114.524C18.3365 114.524 13.5173 115.001 11.9892 112.262C10.4611 109.524 11.4015 107.381 11.4015 107.381C11.4015 107.381 7.99274 110.119 5.99452 106.19C5.17172 104.642 5.28926 101.904 5.87697 99.0462C4.70155 99.9987 3.7612 101.07 3.05595 102.499C1.76297 105.237 1.88052 108.214 2.23315 111.072C2.35069 112.262 2.9384 113.334 3.99629 113.81C4.93663 115.834 5.4068 117.977 6.81732 119.763C8.46292 121.906 10.4611 122.74 13.0471 123.097C13.2822 123.097 13.6348 123.097 13.8699 123.216C13.8699 123.335 13.9874 123.335 13.9874 123.454C14.105 124.407 14.8102 125.597 15.2804 126.431C16.4558 128.574 18.3365 130.241 20.8049 130.598C23.2733 131.074 26.3294 130.836 28.6803 130.241C29.7382 130.003 30.6785 129.407 31.7364 129.05C33.0294 128.574 34.675 128.693 35.9679 128.812C38.3188 129.05 40.6697 129.764 42.5503 127.859C44.1959 126.193 45.2538 123.692 45.9591 121.43C46.0766 121.43 46.0766 121.311 46.1942 121.192Z" fill="#C1C1C1"/>
<path d="M26.7965 123.692C27.6193 123.335 28.5597 123.097 29.3825 123.097C29.6176 123.097 29.7351 123.097 29.9702 123.097C30.3228 123.097 29.9702 123.097 30.2053 123.097C30.3228 123.097 30.5579 123.216 30.6755 123.216C30.6755 123.216 30.9105 123.335 30.793 123.216C30.5579 123.097 30.9105 123.335 30.9105 123.335C30.9105 123.335 31.2632 123.573 31.1456 123.454C31.0281 123.335 31.2632 123.573 31.3807 123.692L31.4983 123.811C31.4983 123.811 31.3807 123.573 31.4983 123.692C31.6158 123.811 31.6158 123.93 31.7333 124.049C31.9684 124.407 31.7333 123.93 31.7333 124.168C31.7333 124.288 31.8509 124.407 31.8509 124.645C31.8509 124.764 31.9684 125.121 31.8509 124.883C31.8509 124.764 31.8509 125.121 31.8509 125.24C31.8509 125.359 31.8509 125.478 31.8509 125.716C31.8509 125.835 31.8509 125.835 31.8509 125.954C31.8509 125.954 31.8509 125.716 31.8509 125.835C31.8509 126.193 31.7333 126.55 31.6158 126.907C31.6158 127.026 31.4983 127.383 31.4983 127.145C31.3807 127.264 31.3807 127.383 31.2632 127.621C31.1456 127.978 30.9105 128.217 30.6755 128.455C30.793 128.217 30.4404 128.693 30.4404 128.693C30.3228 128.812 30.2053 128.931 30.0877 129.05C29.7351 129.407 29.7351 129.407 29.3825 129.526C28.6772 130.003 28.2071 130.122 27.3843 130.241C27.2667 130.241 26.679 130.241 26.4439 130.241C25.8562 130.241 25.2685 130.36 24.6808 130.479C23.7404 130.717 22.9176 130.717 21.9773 130.717C20.5668 130.598 19.1563 130.122 17.9808 129.169C15.7475 127.383 14.8072 124.526 15.1598 121.668C15.2773 120.358 15.9826 118.572 16.9229 117.501C18.2159 115.953 19.9791 115.001 21.9773 114.405C23.858 113.929 23.0352 111.072 21.1545 111.548C16.9229 112.738 13.3967 115.834 12.4563 120.239C11.6335 124.049 12.6914 128.336 15.5124 130.955C16.9229 132.265 18.8036 133.217 20.6843 133.574C21.8597 133.813 23.0352 133.813 24.2106 133.694C24.7983 133.574 25.5036 133.336 26.2088 133.336C26.679 133.336 27.1492 133.336 27.5018 133.336C31.3807 132.979 34.5544 129.764 34.7895 125.835C34.907 123.93 34.2017 122.025 32.6737 120.954C30.6755 119.644 28.0895 120.001 25.9737 120.835C24.3281 121.43 25.0334 124.288 26.7965 123.692Z" fill="black"/>
<path d="M11.5208 121.43C10.8156 121.43 10.1103 121.311 9.40508 120.954C9.64016 121.073 9.28754 120.835 9.16999 120.835C9.05245 120.716 8.93491 120.716 8.81736 120.597C8.69982 120.597 8.46474 120.358 8.58228 120.358C8.69982 120.478 8.34719 120.12 8.34719 120.12C8.22965 120.001 8.11211 119.882 7.99456 119.763C7.99456 119.644 7.87702 119.644 7.87702 119.525C7.75948 119.287 7.52439 119.049 7.40685 118.692C7.28931 118.453 7.40685 118.811 7.28931 118.573C7.28931 118.453 7.17176 118.334 7.17176 118.096C7.17176 117.977 7.05422 117.739 7.05422 117.62C7.05422 117.501 6.93668 117.025 7.05422 117.382C7.05422 117.025 7.05422 116.787 7.05422 116.429C7.05422 116.31 7.05422 116.072 7.05422 115.953C7.05422 116.072 7.05422 115.715 7.05422 115.715C7.05422 115.358 7.28931 114.405 7.52439 113.929C7.52439 113.81 7.64194 113.81 7.64194 113.691C7.75948 113.572 7.75948 113.453 7.87702 113.334C7.99456 112.977 8.22965 112.619 8.46474 112.381C8.58228 112.262 8.69982 112.143 8.69982 111.905C8.81736 111.667 8.69982 111.905 8.81736 111.667C9.05245 111.429 9.28754 111.072 9.52262 110.833C10.698 109.762 11.8735 109.047 13.5191 108.809C14.3419 108.69 14.6945 107.738 14.577 107.023C14.3419 106.19 13.5191 105.833 12.8138 105.952C9.16999 106.547 6.23142 109.286 4.93845 112.619C3.64548 115.715 3.64548 119.525 5.99634 122.025C7.40685 123.573 9.52262 124.288 11.5208 124.407C12.3436 124.407 12.9314 123.692 12.9314 122.978C13.0489 122.025 12.3436 121.43 11.5208 121.43Z" fill="black"/>
<path d="M4.70181 112.857C0.940439 108.809 3.99655 103.094 7.17021 99.7605C11.7544 94.8789 18.3368 91.4261 25.0367 91.0689C28.6805 90.8307 32.2068 91.5451 35.3805 93.3311C38.9068 95.2361 41.4927 98.3317 43.726 101.546C45.2541 103.69 45.7243 106.547 45.9593 109.166C46.312 112.5 46.1944 115.834 45.7243 119.049C45.2541 121.906 44.4313 125.359 42.4331 127.621C41.7278 128.455 40.7875 128.931 39.8471 128.931C38.5541 128.931 37.2612 128.217 36.2033 127.383C34.6752 126.192 32.677 128.336 34.0875 129.526C36.5559 131.431 39.612 132.86 42.6681 131.193C45.2541 129.764 46.6646 126.669 47.6049 123.93C48.7804 120.239 49.2505 116.31 49.133 112.5C49.133 109.047 48.6628 105.475 47.3699 102.261C46.7821 100.713 45.8418 99.5223 44.9015 98.2127C43.4909 96.1886 41.8453 94.4026 39.8471 92.8548C36.4384 90.1164 32.3244 88.5685 28.0928 88.0923C20.2175 87.3779 12.107 90.8307 6.34741 96.1886C1.41061 100.832 -2.93847 108.928 2.58604 114.881C3.87901 116.31 5.99478 114.286 4.70181 112.857Z" fill="black"/>
<path d="M29.2692 122.978C34.4411 123.454 36.5569 117.501 37.3797 113.334C37.4972 112.619 37.1446 111.667 36.3218 111.548C35.6165 111.429 34.6762 111.786 34.5586 112.619C34.4411 113.572 34.206 114.524 33.8534 115.358C33.7358 115.596 33.7358 115.834 33.6183 116.191C33.6183 116.31 33.5007 116.429 33.5007 116.429C33.5007 116.548 33.3832 116.906 33.5007 116.548C33.3832 117.025 33.0306 117.501 32.7955 117.858C32.6779 118.096 32.5604 118.334 32.4429 118.453C32.4429 118.453 32.4429 118.572 32.3253 118.572C32.2078 118.692 32.3253 118.572 32.4429 118.453L32.2078 118.692C32.0902 118.811 31.8551 119.049 31.7376 119.168L31.6201 119.287C31.5025 119.406 31.5025 119.406 31.7376 119.287C31.6201 119.287 31.5025 119.406 31.5025 119.525C31.385 119.644 30.9148 119.763 30.9148 119.882C31.1499 119.763 31.1499 119.763 31.0323 119.882C31.0323 119.882 31.0323 119.882 30.9148 119.882C30.7973 119.882 30.6797 120.001 30.5622 120.001C30.5622 120.001 30.2095 120.001 30.2095 120.12C29.9745 120.12 29.6218 120.12 29.3867 120.12C28.5639 120.001 27.8587 120.835 27.9762 121.549C27.7411 122.382 28.4464 122.978 29.2692 122.978Z" fill="black"/>
<path d="M28.3286 88.8067C29.6216 87.0208 31.5023 85.9492 33.5005 85.9492C35.6163 85.9492 37.8496 86.9017 39.7303 88.0923C43.9618 90.8308 47.7232 95.3552 48.7811 100.356C49.2513 102.737 49.0162 105.237 47.4881 107.142C46.3127 108.571 48.3109 110.714 49.6039 109.286C53.7179 104.404 51.8372 97.6174 48.546 92.8549C45.2548 87.9733 39.8478 83.2107 33.7356 83.0917C30.4444 82.9726 27.6234 84.6395 25.7427 87.3779C24.6848 88.8067 27.2707 90.3545 28.3286 88.8067Z" fill="black"/>
<path d="M83.1056 107.619C81.1073 115.477 76.7582 122.621 70.7636 127.978C71.4688 127.978 72.1741 127.978 72.8793 127.978C71.1162 125.716 68.6478 123.097 65.5917 123.097C63.0057 123.097 61.1251 125.002 59.9496 127.026C58.304 129.764 57.5988 133.098 57.0111 136.194C56.4233 139.885 56.1883 143.576 56.4233 147.267C56.5409 150.481 56.8935 153.934 58.0689 156.911C58.5391 158.101 59.0093 159.411 59.9496 160.483C61.4777 162.269 64.5338 163.102 66.6496 162.983C71.8214 162.745 75.4653 158.101 76.6407 153.339C76.9933 152.148 77.1109 150.839 77.1109 149.648C77.1109 148.219 76.8758 146.79 76.7583 145.362C76.6407 142.98 77.1109 140.718 77.9337 138.456C79.8144 133.574 83.4582 129.645 86.5143 125.478C89.688 121.073 92.3914 116.429 92.7441 110.833C92.8616 108.928 89.923 108.928 89.8055 110.833C89.1002 119.644 81.9301 125.716 77.581 132.741C75.3477 136.313 73.8197 140.361 73.8197 144.647C73.8197 147.029 74.4074 149.41 73.9372 151.791C73.4671 154.053 72.5267 156.315 70.8811 157.982C68.2952 160.602 63.1233 160.84 61.3601 157.387C60.1847 155.125 59.8321 152.386 59.4794 150.005C58.8917 143.814 59.1268 137.146 61.2426 131.193C61.7128 130.003 62.1829 128.812 63.0057 127.74C63.4759 127.026 64.2987 126.431 64.8864 126.193C65.2391 126.073 65.5917 126.073 65.8268 126.073C66.4145 126.193 66.7671 126.312 67.2373 126.55C68.6478 127.383 69.8232 128.693 70.7636 130.003C71.2337 130.717 72.2916 130.479 72.8793 130.003C79.2266 124.288 83.8108 116.667 86.0441 108.333C86.3968 106.547 83.5757 105.833 83.1056 107.619Z" fill="black"/>
<path d="M120.012 127.026C119.894 132.146 119.542 137.861 117.191 142.623C116.015 145.005 114.252 146.791 112.019 147.505C107.905 148.934 102.968 148.338 100.265 152.506C98.2665 155.72 98.5016 159.887 98.2665 163.459C98.0314 168.222 98.0314 173.342 99.9121 177.747C100.97 180.247 102.851 182.509 105.554 183.105C108.258 183.7 110.844 182.509 112.842 180.724C119.542 174.889 120.717 164.412 119.072 156.197C118.954 156.673 118.837 157.149 118.719 157.625C128.945 148.934 131.649 135.241 130.356 122.264C130.121 120.359 127.182 120.359 127.417 122.264C128.71 134.527 126.359 147.267 116.603 155.482C116.133 155.839 116.133 156.435 116.251 156.911C117.544 163.817 116.838 172.151 111.901 177.509C111.079 178.461 110.138 179.176 109.08 179.771C108.258 180.128 107.435 180.366 106.495 180.247C105.907 180.128 104.966 179.771 104.379 179.176C103.438 178.342 102.851 177.271 102.381 176.08C100.735 171.794 100.852 166.912 101.205 162.388C101.44 159.53 101.323 155.72 102.968 153.696C104.144 152.267 105.437 151.91 107.435 151.553C109.433 151.196 111.549 150.958 113.547 150.124C121.893 146.552 122.598 134.884 122.833 127.145C122.951 125.121 120.012 125.121 120.012 127.026Z" fill="black"/>
</g>
<defs>
<clipPath id="clip0_552_3765">
<rect width="199" height="183" fill="white" transform="translate(0 0.223877)"/>
</clipPath>
</defs>
</svg>
