<svg width="177" height="195" viewBox="0 0 177 195" fill="none" xmlns="http://www.w3.org/2000/svg">
<g clip-path="url(#clip0_614_7928)">
<g filter="url(#filter0_f_614_7928)">
<path d="M21.489 179.226C21.489 185.764 54.1905 191.063 94.5299 191.063C134.869 191.063 167.571 185.764 167.571 179.226C167.571 172.689 134.869 167.389 94.5299 167.389C54.1905 167.389 21.489 172.689 21.489 179.226Z" fill="#D9D9D9"/>
</g>
<path d="M92.3169 180.953C93.7428 179.901 93.6331 177.88 91.7686 177.071C92.3169 176.262 92.5363 175.373 92.5363 174.402C92.5363 173.755 92.2073 173.189 91.6589 172.785C92.3169 172.381 92.7557 171.815 92.7557 171.006C92.8653 169.065 92.7557 167.205 92.646 165.264C92.646 164.698 92.3169 164.213 91.8782 163.809C92.0976 162.919 92.4266 162.03 92.646 161.14C92.8653 160.412 92.646 159.766 92.2073 159.28C92.2073 159.199 92.2073 159.199 92.3169 159.119C93.1944 155.884 93.0847 152.973 92.646 149.738C92.5363 149.091 92.2073 148.606 91.7686 148.283C91.8782 147.716 91.8782 147.15 91.9879 146.584C92.4266 142.379 92.3169 138.174 91.9879 133.969C91.9879 133.646 91.8782 133.322 91.6589 133.08C91.8782 132.756 91.9879 132.433 91.9879 132.109C92.2073 124.75 92.0976 117.311 91.6589 109.952C91.4395 106.879 84.8588 106.798 85.0782 109.952C85.5169 117.311 85.6266 124.75 85.4072 132.109C85.4072 132.433 85.5169 132.756 85.6266 132.999C85.5169 133.322 85.4072 133.646 85.4072 134.05C85.8459 138.74 85.8459 143.511 85.2975 148.202C84.7491 152.407 84.0911 156.45 85.5169 160.655C85.6266 160.979 85.8459 161.302 86.0653 161.464C84.8588 165.588 83.9814 169.55 85.1878 173.836C85.2975 174.402 85.4072 174.968 85.5169 175.454C85.2975 175.615 85.0782 175.696 84.7491 175.777C84.2007 175.454 83.6523 175.211 82.7749 175.211C80.1426 175.049 77.62 175.049 75.2071 175.696C74.0006 175.858 72.7942 176.181 71.6974 176.667C70.2716 176.909 68.8458 177.152 67.4199 177.637C66.2135 178.041 65.6651 178.688 65.6651 179.416C63.4715 180.872 65.2264 183.621 67.749 183.621C68.1877 184.268 69.1748 184.753 70.4909 184.672C71.8071 184.592 73.0135 184.592 74.3297 184.511C74.9877 184.996 76.0845 185.238 77.291 184.996C80.362 184.349 83.762 184.511 86.9427 184.43C87.4911 184.996 88.2588 185.4 89.4653 185.4C92.4266 185.4 93.304 182.974 92.0976 181.519C92.3169 181.276 92.3169 181.114 92.3169 180.953Z" fill="white"/>
<path d="M125.332 178.365C124.784 177.718 124.126 177.394 123.468 177.071C122.042 175.777 120.068 175.292 118.093 174.564C116.339 173.836 114.474 173.593 112.829 174.402C110.306 174.483 107.564 174.564 105.261 174.159C104.932 174.079 104.493 174.079 104.164 174.079C104.164 172.057 104.164 170.035 104.274 167.933C104.713 163.323 104.932 158.957 104.493 154.347C104.384 153.7 104.055 153.134 103.616 152.73C103.835 152.406 103.945 152.083 103.945 151.679C104.493 144.724 105.042 137.85 105.042 130.896C104.932 124.427 103.725 118.038 104.603 111.569C105.151 107.93 97.4738 108.011 96.9254 111.569C95.9383 118.038 97.2545 124.427 97.3641 130.896C97.4738 137.85 96.8157 144.805 96.2674 151.679C96.1577 152.406 96.4867 152.972 96.9254 153.377C96.8157 153.7 96.7061 154.024 96.8157 154.347C97.2545 158.957 97.0351 163.323 96.5964 167.933C96.1577 172.704 96.8157 177.556 96.2674 182.327C95.9383 184.834 99.5577 185.643 101.971 184.591C102.738 185.076 103.725 185.4 104.932 185.4C108.771 185.481 112.938 184.834 116.558 184.106C119.739 183.459 123.468 182.974 125.332 180.791C125.881 180.144 125.99 179.092 125.332 178.365Z" fill="white"/>
<path d="M64.7896 180.871C64.7896 182.084 66.2154 183.378 67.9702 183.378C68.4089 184.025 69.396 184.51 70.7122 184.43C72.0283 184.349 73.2348 184.349 74.5509 184.268C75.209 184.753 76.3058 184.996 77.5123 184.753C80.5833 184.106 83.9833 184.268 87.164 184.187C87.7123 184.753 88.4801 185.157 89.6866 185.157C92.6479 185.157 93.5253 182.731 92.3188 181.276C92.3188 181.114 92.3188 181.033 92.3188 180.871C92.8672 180.548 93.0866 180.063 93.1963 179.578V178.607C93.0866 177.96 92.5382 177.313 91.7705 176.99C92.3188 176.181 92.5382 175.292 92.5382 174.321C92.5382 173.674 92.2092 173.108 91.6608 172.704C92.3188 172.3 92.7576 171.734 92.7576 170.925C92.8672 168.984 92.7576 167.124 92.6479 165.183C92.6479 164.617 92.3188 164.132 91.8801 163.728C92.0995 162.838 92.4285 161.949 92.6479 161.059C92.8672 160.331 92.6479 159.684 92.2092 159.199C92.2092 159.118 92.2092 159.118 92.3188 159.037C93.1963 155.803 93.0866 152.892 92.6479 149.657C92.5382 149.01 92.2092 148.525 91.7705 148.201C91.8801 147.635 91.8801 147.069 91.9898 146.503C92.4285 142.298 92.3188 138.093 91.9898 133.888C91.9898 133.565 91.8801 133.241 91.6608 132.998C91.8801 132.675 91.9898 132.352 91.9898 132.028C92.2092 124.669 92.0995 117.23 91.6608 109.871C91.5511 108.577 90.4543 107.849 89.1382 107.606V179.578C89.2478 179.497 81.022 184.187 64.7896 180.871Z" fill="#C1C1C1"/>
<path d="M91.3279 109.709C91.3279 112.216 91.3279 114.723 91.3279 117.229C91.3279 123.214 91.3279 129.198 91.3279 135.182C91.3279 142.379 91.3279 149.576 91.3279 156.773C91.3279 163 91.3279 169.307 91.3279 175.534C91.3279 177.637 91.3279 179.658 91.3279 181.761C91.3279 182.65 91.1086 183.783 91.3279 184.672C91.3279 184.753 91.3279 184.753 91.3279 184.834C91.7666 184.51 92.2053 184.187 92.6441 183.863C85.844 184.429 78.7149 184.915 71.9148 184.025C70.16 183.783 68.4051 183.459 66.9793 182.893C66.3212 182.65 66.2115 182.57 65.7728 182.165C65.5535 182.003 65.3341 181.761 65.2244 181.518C65.1148 181.276 65.1148 181.114 65.1148 180.871C65.1148 180.71 65.3341 180.224 65.4438 180.144C65.9922 179.335 66.5406 178.931 67.5277 178.284C69.5019 177.071 72.2439 176.1 74.9858 175.696C78.1665 175.211 81.6762 175.372 84.4182 176.666C85.2956 177.071 86.5021 176.505 86.5021 175.777C86.5021 168.175 86.3924 160.574 86.3924 152.972C86.2827 140.923 86.2827 128.955 86.173 116.906C86.173 114.157 86.173 111.407 86.173 108.658C86.173 107.364 83.4311 107.364 83.4311 108.658C83.4311 116.259 83.5407 123.861 83.5407 131.462C83.6504 143.511 83.6504 155.479 83.7601 167.528C83.7601 170.278 83.7601 173.027 83.7601 175.777C84.4182 175.453 85.1859 175.211 85.844 174.887C79.9214 172.219 71.6955 173.351 66.4309 176.343C64.347 177.475 62.2631 179.173 62.3728 181.195C62.5922 183.621 65.9922 184.915 68.7342 185.481C71.6955 186.128 74.8761 186.289 77.8375 186.37C82.773 186.451 87.5988 186.209 92.4247 185.804C93.1924 185.723 93.7408 185.4 93.7408 184.834C93.7408 182.327 93.7408 179.82 93.7408 177.313C93.7408 171.329 93.7408 165.345 93.7408 159.361C93.7408 152.164 93.7408 144.967 93.7408 137.77C93.7408 131.543 93.7408 125.235 93.7408 119.009C93.7408 116.016 94.0699 112.863 93.7408 109.871C93.7408 109.79 93.7408 109.79 93.7408 109.709C94.0699 108.415 91.3279 108.415 91.3279 109.709Z" fill="black"/>
<path d="M99.9942 178.769V108.9C98.5683 109.224 97.2522 110.032 97.0328 111.488C96.0457 117.957 97.3619 124.346 97.4716 130.815C97.5812 137.769 96.9232 144.724 96.3748 151.598C96.2651 152.325 96.5941 152.891 97.0328 153.296C96.9232 153.619 96.8135 153.943 96.9232 154.266C97.3619 158.876 97.1425 163.242 96.7038 167.852C96.2651 172.623 96.9232 177.475 96.3748 182.246C96.0457 184.753 99.6651 185.561 102.078 184.51C102.846 184.995 103.833 185.319 105.039 185.319C108.878 185.4 113.046 184.753 116.665 184.025C119.846 183.378 123.575 182.893 125.44 180.71C125.549 180.548 125.659 180.386 125.769 180.224C110.085 183.297 99.9942 178.769 99.9942 178.769Z" fill="#C1C1C1"/>
<path d="M102.518 109.709C102.518 117.068 102.518 124.427 102.518 131.705C102.518 143.43 102.518 155.075 102.518 166.801C102.518 169.469 102.518 172.138 102.518 174.807C102.518 175.615 103.724 176.02 104.602 175.696C110.086 173.513 117.325 174.16 122.26 176.747C123.028 177.152 124.015 177.879 124.454 178.365C124.892 178.85 124.783 178.769 125.002 179.254C125.112 179.578 125.112 179.739 125.112 179.982C125.112 180.225 125.002 180.386 124.673 180.71C124.454 180.952 124.234 181.195 123.686 181.518C122.699 182.084 120.944 182.651 119.518 182.974C112.279 184.51 104.273 184.268 96.8147 183.944C97.2535 184.268 97.6922 184.591 98.1309 184.915C98.1309 182.408 98.1309 179.901 98.1309 177.394C98.1309 171.41 98.1309 165.426 98.1309 159.442C98.1309 152.245 98.1309 145.048 98.1309 137.851C98.1309 131.624 98.1309 125.316 98.1309 119.09C98.1309 116.097 98.4599 112.944 98.1309 109.952C98.1309 109.871 98.1309 109.871 98.1309 109.79C98.1309 108.496 95.3889 108.496 95.3889 109.79C95.3889 112.297 95.3889 114.804 95.3889 117.31C95.3889 123.295 95.3889 129.279 95.3889 135.263C95.3889 142.46 95.3889 149.657 95.3889 156.854C95.3889 163.081 95.3889 169.388 95.3889 175.615C95.3889 178.607 95.0599 181.761 95.3889 184.753C95.3889 184.834 95.3889 184.834 95.3889 184.915C95.3889 185.481 96.047 185.885 96.7051 185.885C104.163 186.209 111.95 186.451 119.299 185.077C122.37 184.51 126.538 183.378 127.525 180.871C128.402 178.931 126.757 177.071 124.892 175.777C122.37 174.16 119.079 173.108 115.789 172.704C111.512 172.138 107.015 172.461 103.066 173.998C103.724 174.321 104.492 174.564 105.15 174.887C105.15 167.529 105.15 160.17 105.15 152.892C105.15 141.166 105.15 129.521 105.15 117.796C105.15 115.127 105.15 112.459 105.15 109.79C105.26 108.415 102.518 108.415 102.518 109.709Z" fill="black"/>
<path d="M151.429 86.7543L101.965 35.6074C99.1129 32.6692 94.5064 32.5604 91.5451 35.3898L26.2864 97.6366C24.8606 99.0513 25.5186 101.445 27.3832 101.99C40.5446 105.472 79.6998 115.701 97.6871 120.816C119.403 126.91 124.997 123.319 139.365 109.934L151.21 98.9425C154.61 95.6778 154.83 90.1278 151.429 86.7543Z" fill="#FF8D52"/>
<path d="M139.255 109.934L151.1 98.9424C154.61 95.6777 154.83 90.1277 151.429 86.7542L147.7 82.8366C139.146 91.4336 126.971 101.663 116.003 103.622C96.4806 107.322 66.5384 96.7659 58.0931 90.2365C54.035 87.0807 52.4995 79.7895 52.0608 73.0425L26.2864 97.6365C24.8606 99.0512 25.5186 101.445 27.3832 101.989C40.5446 105.472 79.6998 115.701 97.6871 120.816C119.294 126.91 124.887 123.21 139.255 109.934Z" fill="#F66E00"/>
<path d="M137.945 34.8037C137.945 34.6949 138.055 34.586 138.055 34.4772C140.139 33.0625 139.919 29.2537 137.177 28.6008C136.958 28.4919 136.629 28.2743 136.3 28.1655C134.655 27.7302 132.681 28.7096 132.242 30.4508C131.913 31.7566 131.474 33.0625 131.145 34.4772C130.816 35.5654 130.926 36.6537 131.474 37.6331C131.803 38.1772 132.132 38.6125 132.681 38.939C133.448 40.0272 134.764 40.789 136.19 40.3537C137.726 39.9184 139.152 37.9596 138.493 36.3272C138.384 35.7831 138.274 35.239 137.945 34.8037Z" fill="#C1C1C1"/>
<path d="M32.4334 36.6535C32.6527 34.8035 33.2011 33.6065 32.9817 31.7565C32.4334 27.2947 31.4462 24.9006 27.2785 23.5948C26.401 23.3771 25.743 23.3771 25.0849 23.7036C23.001 21.5271 18.5042 23.2683 19.4913 26.7506C20.5881 30.4506 20.1494 33.4977 20.1494 37.0888C20.1494 40.2447 22.4526 42.9653 21.7945 46.1212C21.3558 48.1888 19.93 49.277 19.0526 51.2358C18.1752 52.977 17.6268 54.1741 15.8719 55.3711C15.4332 55.5888 15.1042 55.8064 14.6654 56.0241C14.3364 56.1329 14.2267 56.2417 14.0074 56.3505C11.8138 56.1329 9.62024 58.9623 10.717 61.3564C13.2396 66.9064 17.5171 69.1917 21.9042 67.4505C22.5623 67.5593 23.1107 66.1446 23.7688 65.7093C26.8398 63.7505 28.7043 61.3564 29.6914 57.7652C30.3495 55.5888 30.8979 53.3035 31.4462 51.0182C31.5559 50.4741 31.7753 48.08 31.9946 46.6653L32.1043 46.5565C33.0914 46.0123 33.8592 44.8153 33.7495 43.727C33.5301 41.3329 31.9946 39.5918 32.4334 36.6535Z" fill="white"/>
<path d="M36.8198 26.8593C36.7101 26.7504 36.6005 26.7504 36.4908 26.7504C36.3811 26.424 36.2714 26.0975 36.1618 25.771C35.9424 24.9005 35.723 24.1387 35.5037 23.2681C34.9553 21.7446 34.1875 20.1122 32.9811 19.024C31.5553 17.7181 29.8004 17.174 27.9359 17.2828C25.9617 17.3917 23.9874 17.6093 22.0132 17.9358C20.9164 18.1534 20.1487 19.5681 20.4777 20.6563C20.9164 21.8534 22.0132 22.3975 23.2197 22.1799C23.5487 22.1799 23.7681 22.071 23.9874 22.071C24.2068 22.2887 24.5358 22.5063 24.8649 22.5063C25.852 22.724 26.7294 22.8328 27.7165 22.9416C28.2649 23.0505 28.923 23.0505 29.4714 23.0505C29.4714 23.3769 29.581 23.7034 29.8004 23.921C30.2391 24.4652 30.5681 25.0093 30.8972 25.6622C31.1165 26.0975 31.5553 26.424 31.994 26.5328C32.1036 26.9681 32.2133 27.4034 32.323 27.8387C32.652 28.8181 32.9811 29.7975 33.6391 30.4504C34.8456 31.5387 36.8198 31.321 37.6972 29.7975C38.2456 28.8181 37.9166 27.4034 36.8198 26.8593Z" fill="white"/>
<path d="M21.246 42.2036C19.3814 38.1771 15.8717 34.3683 11.3749 33.3889C10.1684 33.1713 8.96197 33.6066 8.3039 34.586C7.3168 34.9124 6.7684 35.6742 6.54905 36.5448C6.32969 36.8713 6.22001 37.3065 6.22001 37.7418V39.2654C6.22001 39.7007 6.22001 40.2448 6.22001 40.6801C6.22001 40.7889 6.22001 41.0065 6.11033 41.333C5.01355 41.7683 3.91676 42.2036 3.14902 42.9654C2.38127 43.7271 1.94255 44.9242 1.7232 46.0124C1.1748 48.5153 1.94255 50.9094 4.35548 52.1065C5.23291 52.5418 6.22001 52.8683 7.09744 53.1947C7.20712 53.1947 7.75551 53.4124 7.86519 53.4124C8.3039 53.63 8.63294 53.8477 9.07165 53.9565C9.18133 53.9565 9.18133 54.0653 9.18133 54.0653C9.18133 54.0653 9.18133 54.0653 9.29101 54.1741C9.40069 54.283 9.51037 54.3918 9.72972 54.6094C9.72972 54.7183 9.8394 54.7183 9.8394 54.7183C9.8394 54.7183 9.94908 54.8271 9.94908 54.9359C10.0588 55.1535 10.1684 55.2624 10.2781 55.48C11.1555 56.7859 12.2523 57.5477 13.8975 57.1124C14.8846 56.7859 16.2007 55.8065 16.9685 55.1535C17.9556 54.283 18.175 53.1947 18.2846 51.9977C18.3943 51.1271 18.2846 50.1477 18.3943 49.2771H18.504C18.7234 49.1683 19.0524 48.9506 19.2717 48.8418C21.575 47.1006 22.4524 44.8153 21.246 42.2036Z" fill="white"/>
<path d="M47.6797 50.1478C47.4603 47.9713 46.8023 45.7948 46.2539 43.7272C45.4861 41.3331 44.6087 38.939 43.6216 36.6537C43.1829 35.6743 42.6345 34.8037 41.8667 34.0419C41.428 33.7154 40.9893 33.389 40.4409 33.1713C40.3312 33.1713 40.2216 33.0625 40.1119 33.0625C39.7829 31.2125 36.9312 29.689 35.3957 31.4302C35.286 31.6478 35.0667 31.7566 34.957 31.9743C32.6538 34.9125 31.0086 38.8301 33.2021 42.3125C33.5312 42.7478 33.8602 43.0742 34.1892 43.2919C34.628 43.836 34.957 44.4889 35.286 45.0331C35.286 45.1419 35.3957 45.2507 35.3957 45.2507C35.3957 45.3595 35.5054 45.4684 35.5054 45.5772C35.286 45.686 35.0667 45.686 34.957 45.7948C32.3247 47.1007 31.4473 49.8213 31.557 52.6507C31.6666 54.7183 31.7763 56.6771 31.7763 58.7448C31.3376 58.9624 31.0086 59.2889 30.7892 59.7242C29.8021 61.4654 28.7053 62.9889 27.3892 64.4036C26.7311 65.1653 25.9634 65.8183 25.1956 66.4712C24.8666 66.6889 24.5375 67.1242 24.0988 67.3418C24.0988 67.3418 24.0988 67.3418 23.9892 67.3418C22.0149 66.4712 20.1504 68.8653 20.5891 70.7153C21.0278 72.3477 22.344 73.2183 23.8795 73.2183C24.6472 74.633 26.073 75.2859 28.0473 75.2859C30.2408 75.2859 32.4344 74.7418 34.5183 74.1977C38.5764 73.1094 42.3055 71.2595 44.8281 67.7771C45.9248 66.2536 46.5829 64.4036 46.6926 62.5536C46.8023 61.4654 46.5829 60.486 46.4732 59.3977C46.3636 58.4183 46.5829 57.5477 46.9119 56.5683C47.3507 54.5007 47.8991 52.433 47.6797 50.1478Z" fill="white"/>
<path d="M175.894 40.7887C175.894 39.5917 175.455 38.7211 174.578 37.9593C174.249 37.6329 173.81 37.5241 173.371 37.3064C173.591 36.1094 173.152 35.1299 172.384 34.3682C172.494 34.1505 172.603 33.9329 172.713 33.6064C173.481 31.1035 172.823 28.6005 173.042 25.9888C173.152 24.7917 172.384 23.8123 171.397 23.1594C171.068 20.7653 167.997 18.9153 165.803 21.0918C164.816 22.0712 163.939 23.1594 163.5 24.4653C163.281 25.1182 163.171 25.7711 163.171 26.4241C163.171 26.6417 163.171 26.8594 163.171 27.077C162.074 27.2947 160.1 26.5329 159.003 26.4241C157.248 26.3153 155.494 26.4241 153.739 26.7506C153.519 26.7506 153.41 26.8594 153.19 26.8594C152.532 25.88 151.874 24.9006 151.545 23.8123C151.106 22.6153 151.655 21.4182 151.326 20.2212C150.777 17.7182 148.145 16.0859 145.623 16.7388C142.442 17.6094 142.552 21.0917 142.332 23.7035C142.223 24.9006 141.893 26.2064 142.113 27.4035V27.5123C141.016 28.1653 140.358 29.3623 140.797 30.9947C141.016 31.7564 139.7 33.7152 139.919 34.477C137.726 39.2652 140.468 43.1829 140.906 48.1887C141.235 53.0858 144.745 55.9152 147.706 59.2887C147.816 59.9416 148.035 60.5946 148.474 61.2475C152.423 66.1445 161.087 65.9269 165.803 62.4446C168.326 60.5946 171.068 58.2005 172.165 55.1534C173.371 51.7799 172.165 48.8417 171.945 45.7946C174.029 44.7064 176.003 43.6181 175.894 40.7887Z" fill="white"/>
<path d="M93.1967 43.7269C94.6226 42.2034 95.3903 40.3534 96.0484 38.5034C96.8161 36.4358 97.2548 34.2593 97.4742 32.0828C97.9129 28.274 97.3645 24.4652 95.6097 20.9829C95.0613 19.8946 93.3064 20.874 93.8548 21.9623C95.3903 24.9005 95.7193 28.3828 95.3903 31.6475C95.171 33.4975 94.8419 35.3475 94.1839 37.0887C93.6355 38.9387 92.9774 40.7887 91.6613 42.2034C90.8935 43.2916 92.3193 44.7063 93.1967 43.7269Z" fill="black"/>
<path d="M108.443 9.33887C102.959 13.583 88.7011 15.1065 97.0367 25.1182C105.701 30.9947 109.869 14.1271 108.443 9.33887Z" fill="black"/>
<path d="M83.2158 18.5891C88.1514 19.5685 97.6934 15.8685 95.7192 24.9009C92.0998 31.5391 83.8739 22.0715 83.2158 18.5891Z" fill="black"/>
<path d="M30.7912 25.3361C30.0235 27.2949 30.3525 29.7978 31.6686 31.539C31.888 31.8655 32.1073 32.0831 32.4364 32.1919C32.7654 32.3007 33.2041 32.1919 33.4235 32.0831C33.9719 31.7566 34.3009 30.886 33.8622 30.3419C33.7525 30.1243 33.6428 30.0155 33.5332 29.7978C33.5332 29.689 33.4235 29.5802 33.4235 29.4713C33.4235 29.4713 33.4235 29.3625 33.3138 29.3625C33.2041 29.2537 33.3138 29.2537 33.3138 29.4713C33.3138 29.3625 33.2041 29.2537 33.2041 29.1449C33.2041 29.0361 33.0944 28.9272 33.0944 28.8184C33.0944 28.7096 33.0944 28.6008 32.9848 28.4919C32.9848 28.3831 32.9848 28.2743 32.8751 28.1655C32.8751 28.3831 32.8751 28.3831 32.8751 28.2743V28.1655C32.8751 28.0566 32.8751 27.9478 32.8751 27.839C32.8751 27.6214 32.8751 27.4037 32.8751 27.1861V27.0772C32.8751 27.2949 32.8751 27.2949 32.8751 27.1861C32.8751 27.0772 32.8751 26.9684 32.9848 26.8596C32.9848 26.6419 33.0944 26.4243 33.2041 26.2066C33.4235 25.5537 32.9848 24.7919 32.3267 24.5743C31.6686 24.2478 31.1202 24.5743 30.7912 25.3361Z" fill="black"/>
<path d="M39.7832 29.1449C39.2348 25.2272 37.809 21.092 34.738 18.2626C32.4348 16.1949 29.4734 15.1067 26.5121 15.1067C24.2089 15.1067 21.6863 15.6508 19.8217 17.0655C19.054 17.7184 18.2862 18.4802 17.9572 19.4596C17.6282 20.5478 18.0669 21.5273 18.8346 22.3978C19.7121 23.2684 20.9185 23.8125 22.125 24.139C24.0992 24.6831 26.0734 24.792 28.0476 24.9008C28.7057 24.9008 29.2541 24.9008 29.9122 24.9008C30.5702 24.9008 31.2283 24.2478 31.2283 23.5949C31.2283 22.942 30.6799 22.289 29.9122 22.289C28.7057 22.289 27.6089 22.289 26.4025 22.1802C25.9637 22.1802 25.4153 22.0714 24.9766 22.0714H24.867C24.6476 22.0714 24.9766 22.0714 24.9766 22.0714C24.867 22.0714 24.7573 22.0714 24.6476 22.0714C24.4282 22.0714 24.2089 21.9626 23.9895 21.9626C23.3315 21.8537 22.6734 21.6361 22.0153 21.4184C21.9056 21.4184 21.796 21.3096 21.5766 21.3096C22.0153 21.4184 21.6863 21.3096 21.4669 21.2008C21.2476 21.092 21.0282 20.9831 20.9185 20.8743C20.5895 20.6567 21.1379 21.092 20.9185 20.8743C20.8089 20.7655 20.8089 20.7655 20.6992 20.6567C20.5895 20.5478 20.5895 20.5478 20.5895 20.439C20.6992 20.6567 20.9185 20.6567 20.5895 20.439C20.5895 20.3302 20.4798 20.3302 20.4798 20.2214C20.6992 20.5478 20.5895 20.5478 20.4798 20.3302C20.3701 20.1126 20.4798 20.1126 20.4798 20.439C20.4798 20.3302 20.4798 20.3302 20.4798 20.2214V20.1126C20.4798 20.0037 20.3701 20.439 20.4798 20.3302C20.4798 20.2214 20.4798 20.2214 20.4798 20.1126C20.5895 19.8949 20.5895 20.0037 20.4798 20.2214C20.4798 20.1126 20.5895 20.1126 20.5895 20.0037C20.5895 19.8949 20.6992 19.8949 20.6992 19.7861C20.4798 20.0037 20.9185 19.5684 20.6992 19.7861C20.8089 19.6773 20.9185 19.5684 21.0282 19.3508C21.1379 19.242 21.1379 19.242 21.2476 19.1331C21.4669 19.0243 21.0282 19.3508 21.1379 19.242L21.2476 19.1331C21.4669 19.1331 21.6863 19.0243 21.796 18.9155C22.0153 18.8067 22.2347 18.6979 22.454 18.589C22.5637 18.589 22.5637 18.589 22.6734 18.4802C22.8927 18.3714 22.454 18.589 22.5637 18.4802C22.6734 18.4802 22.7831 18.3714 22.8927 18.3714C23.3315 18.2626 23.8798 18.1537 24.4282 18.0449C24.5379 18.0449 24.6476 18.0449 24.7573 17.9361C24.867 17.9361 24.867 17.9361 24.9766 17.9361H25.0863C25.3057 17.9361 24.7573 17.9361 24.9766 17.9361C25.3057 17.9361 25.525 17.8273 25.8541 17.8273C26.4025 17.8273 27.0605 17.8273 27.6089 17.8273C27.7186 17.8273 28.267 17.9361 27.7186 17.8273C27.8283 17.8273 28.0476 17.8273 28.1573 17.9361C28.4863 18.0449 28.8154 18.0449 29.1444 18.1537C29.4734 18.2626 29.8025 18.3714 30.0218 18.4802C30.1315 18.4802 30.1315 18.4802 30.2412 18.589C30.3509 18.6979 30.4606 18.6979 30.2412 18.589C30.3509 18.6979 30.5702 18.6979 30.6799 18.8067C31.338 19.1331 31.8864 19.4596 32.4348 19.8949C32.2154 19.6773 32.5444 20.0037 32.4348 19.8949C32.5444 19.8949 32.5444 20.0037 32.6541 20.0037C32.7638 20.1126 32.9832 20.2214 33.0928 20.3302C33.4219 20.5478 33.6412 20.8743 33.8606 21.092C33.9703 21.2008 34.0799 21.4184 34.1896 21.5273C34.0799 21.3096 34.409 21.7449 34.1896 21.5273C34.2993 21.6361 34.2993 21.7449 34.409 21.8537C34.6283 22.1802 34.8477 22.5067 35.0671 22.942C35.2864 23.2684 35.5058 23.7037 35.7251 24.139C35.7251 24.2478 35.8348 24.3567 35.8348 24.4655C35.9445 24.5743 35.9445 24.792 35.8348 24.5743C35.9445 24.792 36.0542 25.0096 36.1638 25.3361C36.4929 26.3155 36.8219 27.2949 37.0413 28.3831C37.1509 28.9272 37.2606 29.5802 37.3703 30.1243C37.48 30.7772 38.3574 31.2125 39.0155 30.9949C39.6735 30.5596 39.8929 29.9066 39.7832 29.1449Z" fill="black"/>
<path d="M36.0518 75.5034C35.1743 78.9858 37.6969 82.5769 40.1099 84.8622C42.5228 87.0387 45.4841 88.5622 48.7745 89.1063C49.4325 89.2152 50.2003 88.8887 50.4197 88.2358C50.639 87.5828 50.2003 86.7122 49.5422 86.6034C46.9099 86.1681 44.3873 85.0799 42.4131 83.3387C41.426 82.4681 40.5486 81.4887 39.8905 80.2917C39.1228 79.0946 38.4647 77.6799 38.7937 76.2652C39.0131 74.524 36.4905 73.8711 36.0518 75.5034Z" fill="black"/>
<path d="M18.1767 31.974C18.2863 32.7358 18.2863 33.6064 18.1767 34.3681C18.1767 34.5858 18.1767 34.6946 18.1767 34.9123C18.1767 34.9123 18.1767 35.3475 18.1767 35.1299C18.1767 34.9123 18.1767 35.2387 18.1767 35.3475C18.067 35.7828 18.067 36.1093 17.9573 36.5446C17.8476 37.1975 18.1767 37.9593 18.8347 38.1769C19.4928 38.2858 20.2606 37.9593 20.4799 37.3064C20.9186 35.5652 21.0283 33.824 20.9186 31.974C20.9186 31.6476 20.8089 31.3211 20.4799 30.9946C20.2606 30.777 19.8218 30.5593 19.4928 30.5593C18.9444 30.6681 18.1767 31.2123 18.1767 31.974Z" fill="black"/>
<path d="M20.0424 37.4152C20.9198 37.8505 21.9069 38.0682 22.894 38.177C23.8811 38.2858 24.9779 38.3946 25.965 38.5034C27.9392 38.6123 30.0231 38.6123 31.9973 38.3946C32.6554 38.2858 33.3135 37.8505 33.3135 37.0887C33.3135 36.4358 32.6554 35.674 31.9973 35.7829C30.1328 36.0005 28.2683 36.0005 26.4037 35.8917C25.5263 35.8917 24.5392 35.7829 23.6618 35.674C22.894 35.5652 22.1263 35.4564 21.3585 35.1299C19.823 34.2593 18.5069 36.5446 20.0424 37.4152Z" fill="black"/>
<path d="M20.5874 41.877C24.4261 43.8358 28.7036 43.2917 32.7617 42.6387C33.4197 42.5299 33.8585 41.6593 33.6391 41.0064C33.4197 40.2446 32.7617 40.027 31.9939 40.1358C28.7036 40.6799 24.9745 41.3329 21.9035 39.7005C21.2454 39.374 20.4777 39.5917 20.1487 40.1358C19.7099 40.6799 19.9293 41.5505 20.5874 41.877Z" fill="black"/>
<path d="M18.7249 23.3771C18.6152 25.4448 18.6152 27.5124 18.6152 29.4712C18.6152 30.4506 18.6152 31.43 18.6152 32.4095C18.7249 33.6065 19.712 33.933 20.6991 34.1506C22.6733 34.5859 24.6475 34.6947 26.6218 34.6947C28.4863 34.6947 30.5702 34.6947 32.325 34.0418C32.9831 33.8242 33.4218 33.1712 33.2025 32.4095C32.9831 31.7565 32.2154 31.2124 31.5573 31.5389C29.9121 32.1918 27.8282 32.083 26.0734 32.083C25.0863 32.083 24.0992 32.083 23.112 31.9742C22.6733 31.9742 22.3443 31.8653 21.9056 31.7565C21.6862 31.7565 21.4669 31.6477 21.2475 31.6477C21.1378 31.6477 20.9185 31.5389 20.8088 31.5389C20.4798 31.43 20.4798 31.43 20.8088 31.6477C20.9185 31.8653 21.0282 32.083 21.1378 32.1918C21.2475 32.4095 21.1378 31.9742 21.1378 31.8653C21.1378 31.6477 21.1378 31.43 21.1378 31.3212C21.1378 30.8859 21.1378 30.5595 21.1378 30.1242C21.1378 29.3624 21.1378 28.6006 21.1378 27.8389C21.1378 26.3154 21.1378 24.7918 21.2475 23.2683C21.4669 21.7448 18.8346 21.7448 18.7249 23.3771Z" fill="black"/>
<path d="M27.499 25.8801C27.3893 25.9889 27.2797 25.9889 27.2797 26.0978L27.17 26.2066C27.0603 26.3154 26.9506 26.4242 26.8409 26.6419C26.7313 26.9683 26.6216 27.186 26.6216 27.5125C26.6216 27.8389 26.7313 28.0566 26.8409 28.3831C26.8409 28.3831 26.8409 28.3831 26.8409 28.4919C26.9506 28.6007 26.9506 28.7095 27.0603 28.8183C27.17 28.9272 27.2797 29.036 27.3893 29.1448C27.499 29.2536 27.6087 29.2536 27.828 29.3625C28.1571 29.4713 28.3764 29.4713 28.5958 29.3625C28.9248 29.3625 29.1442 29.1448 29.3635 28.9272C29.4732 28.8183 29.5829 28.7095 29.6926 28.6007C29.6926 28.4919 29.8023 28.4919 29.8023 28.3831C29.8023 28.2742 29.9119 28.2742 29.9119 28.1654C29.9119 27.9478 30.0216 27.8389 30.0216 27.6213C30.0216 27.5125 30.0216 27.2948 29.9119 27.186V27.0772C29.8023 26.8595 29.6926 26.6419 29.5829 26.4242C29.4732 26.3154 29.3635 26.0978 29.2539 26.0978C29.1442 25.9889 28.9248 25.8801 28.8152 25.8801C28.5958 25.7713 28.4861 25.7713 28.2668 25.8801C28.0474 25.8801 27.9377 25.9889 27.828 25.9889C27.7184 25.7713 27.6087 25.8801 27.499 25.8801C27.3893 26.0978 27.2797 26.3154 27.2797 26.5331C27.2797 26.6419 27.2797 26.7507 27.2797 26.8595C27.2797 27.0772 27.3893 27.2948 27.499 27.5125C27.499 27.6213 27.6087 27.6213 27.6087 27.7301C27.6087 27.6213 27.6087 27.5125 27.6087 27.4036C27.6087 27.5125 27.6087 27.5125 27.6087 27.6213C27.6087 27.5125 27.6087 27.4036 27.6087 27.2948V27.4036C27.6087 27.2948 27.7184 27.186 27.7184 27.0772C27.7184 27.0772 27.7184 27.186 27.6087 27.186C27.7184 27.0772 27.7184 26.9683 27.828 26.9683C27.828 26.9683 27.828 27.0772 27.7184 27.0772C27.828 26.9683 27.9377 26.9683 27.9377 26.8595C27.9377 26.8595 27.828 26.8595 27.828 26.9683C27.9377 26.9683 28.0474 26.8595 28.1571 26.8595C28.1571 26.8595 28.1571 26.8595 28.0474 26.8595C28.1571 26.8595 28.2668 26.8595 28.3764 26.8595H28.2668C28.3764 26.8595 28.4861 26.8595 28.5958 26.8595C28.5958 26.8595 28.5958 26.8595 28.4861 26.8595C28.5958 26.8595 28.7055 26.9683 28.8152 26.9683H28.7055C28.8152 27.0772 28.9248 27.0772 28.9248 27.186C28.9248 27.186 28.9248 27.186 28.8152 27.0772C28.9248 27.186 28.9248 27.2948 29.0345 27.2948C29.0345 27.2948 29.0345 27.186 28.9248 27.186C28.9248 27.2948 29.0345 27.4036 29.0345 27.5125V27.4036C29.0345 27.5125 29.0345 27.6213 29.0345 27.7301V27.6213C29.0345 27.7301 29.0345 27.8389 29.0345 27.9478V27.8389C29.0345 27.9478 28.9248 28.0566 28.9248 28.1654C28.9248 28.0566 29.0345 28.0566 29.0345 27.9478C28.9248 28.0566 28.9248 28.1654 28.8152 28.1654C28.9248 28.0566 29.0345 27.9478 29.1442 27.8389C29.2539 27.7301 29.3635 27.6213 29.3635 27.4036C29.4732 27.2948 29.4732 27.0772 29.4732 26.8595C29.4732 26.6419 29.4732 26.5331 29.3635 26.3154C29.3635 26.2066 29.2539 25.9889 29.1442 25.8801C29.0345 25.7713 28.9248 25.7713 28.9248 25.6625C28.7055 25.5536 28.4861 25.4448 28.2668 25.4448C28.1571 25.4448 28.0474 25.4448 27.9377 25.4448C27.828 25.6625 27.6087 25.7713 27.499 25.8801Z" fill="black"/>
<path d="M154.945 66.6887C154.835 71.9122 155.493 78.1151 152.203 82.4681C149.461 86.2769 144.196 86.7122 139.919 85.8416C138.273 85.5151 137.506 88.0181 139.261 88.3445C144.415 89.3239 150.448 88.7798 153.957 84.5357C158.125 79.5298 157.577 72.5652 157.577 66.5799C157.577 64.9475 154.945 64.9475 154.945 66.6887Z" fill="black"/>
<path d="M3.47903 43.8357C3.47903 43.8357 4.90485 51.671 17.0792 53.6298V56.1327L11.8146 56.3504L1.72417 48.6239L1.17578 44.8151L3.47903 43.8357Z" fill="#C1C1C1"/>
<path d="M7.2081 34.8035C7.2081 34.8035 8.96295 43.9446 21.1373 45.9034V48.4064L15.763 48.624L5.78228 40.8976L5.23389 36.9799L7.2081 34.8035Z" fill="#C1C1C1"/>
<path d="M4.57799 40.8976C2.05538 41.7682 -0.357542 43.6182 -0.247863 46.4476C-0.138185 48.9505 1.50699 51.127 3.26185 52.6505C5.34574 54.5005 7.75866 56.024 10.2813 57.0035C12.4748 57.7652 15.1071 58.3093 17.191 57.2211C20.1523 55.6976 19.8233 51.7799 19.0555 49.0594C18.6168 47.3182 15.9845 48.08 16.4233 49.8211C16.5329 50.1476 16.6426 50.5829 16.6426 50.9094C16.6426 51.127 16.7523 51.2358 16.7523 51.4535C16.7523 51.5623 16.7523 51.8888 16.7523 51.4535C16.7523 51.5623 16.7523 51.6711 16.7523 51.7799C16.7523 52.1064 16.7523 52.3241 16.7523 52.6505C16.7523 52.7593 16.7523 52.8682 16.7523 53.0858V53.1946C16.7523 53.4123 16.862 52.8682 16.7523 53.1946C16.7523 53.4123 16.6426 53.6299 16.6426 53.8476C16.5329 54.0652 16.5329 54.1741 16.6426 53.8476C16.5329 53.9564 16.5329 54.0652 16.5329 54.1741C16.5329 54.2829 16.4233 54.2829 16.4233 54.3917C16.3136 54.6093 16.6426 54.2829 16.5329 54.2829L16.4233 54.3917C16.3136 54.5005 16.3136 54.5005 16.2039 54.6093C15.9845 54.827 16.4233 54.5005 16.2039 54.6093C16.0942 54.7182 15.8749 54.827 15.7652 54.9358C15.5458 55.0446 16.0942 54.827 15.7652 54.9358C15.6555 54.9358 15.5458 55.0446 15.4362 55.0446C15.3265 55.0446 15.2168 55.0446 15.1071 55.1535C14.7781 55.2623 15.2168 55.1535 15.1071 55.1535C14.8878 55.1535 14.6684 55.1535 14.3394 55.1535C14.12 55.1535 13.9007 55.1535 13.6813 55.1535C13.3523 55.1535 13.4619 55.1535 13.5716 55.1535C13.4619 55.1535 13.3523 55.1535 13.1329 55.0446C12.5845 54.9358 12.0361 54.827 11.4877 54.6093C11.2684 54.5005 10.9393 54.3917 10.72 54.2829C10.6103 54.2829 10.5006 54.1741 10.2813 54.1741C10.6103 54.2829 10.2813 54.174 10.1716 54.0652C9.6232 53.8476 9.0748 53.5211 8.52641 53.1946C7.97802 52.8682 7.42963 52.5417 6.99091 52.2152C6.77156 51.9976 6.5522 51.8888 6.22316 51.6711C6.22316 51.7799 6.66188 51.9976 6.44252 51.7799C6.33284 51.6711 6.11349 51.5623 6.00381 51.4535C5.56509 51.0182 5.12638 50.6917 4.68767 50.2564C4.46831 50.0388 4.35863 49.9299 4.13927 49.7123C4.0296 49.6035 3.91992 49.4947 3.91992 49.3858C3.70056 49.0594 4.0296 49.4947 3.81024 49.277C3.4812 48.8417 3.26185 48.4064 2.93281 47.9711C2.93281 47.8623 2.82313 47.7535 2.82313 47.6447C2.71345 47.5358 2.93281 47.9711 2.82313 47.6447C2.71345 47.427 2.71345 47.2094 2.60378 46.9917C2.60378 46.8829 2.60378 46.7741 2.4941 46.6652C2.38442 46.4476 2.4941 46.9917 2.4941 46.7741C2.4941 46.6653 2.4941 46.6652 2.4941 46.5564C2.4941 46.4476 2.4941 46.3388 2.4941 46.23C2.4941 46.0123 2.4941 46.0123 2.4941 46.23C2.4941 46.0123 2.60378 45.7947 2.71345 45.577C2.71345 45.3594 2.60378 45.6858 2.60378 45.6858C2.60378 45.577 2.71345 45.577 2.71345 45.4682C2.82313 45.3594 2.82313 45.2505 2.93281 45.1417L3.04249 45.0329C3.15217 44.8153 2.82313 45.2505 3.04249 45.1417C3.04249 44.9241 3.04249 44.8153 3.15217 44.8153C3.26185 44.7064 3.37153 44.5976 3.4812 44.4888C3.70056 44.2711 3.26185 44.5976 3.59088 44.38C3.91992 44.1623 4.13927 44.0535 4.46831 43.8358C4.68767 43.727 4.79735 43.727 5.0167 43.6182C4.68767 43.727 5.23606 43.5094 5.34574 43.5094C6.00381 43.2917 6.5522 42.6388 6.33284 41.877C6.11349 41.2241 5.34574 40.68 4.57799 40.8976Z" fill="black"/>
<path d="M7.31909 40.5713C7.09974 39.5919 6.88038 38.7213 6.7707 37.8507C6.7707 37.5242 6.7707 37.0889 6.7707 36.7625C6.7707 36.5448 6.7707 36.8713 6.7707 36.5448C6.7707 36.3272 6.88038 36.2184 6.88038 36.0007C6.88038 35.8919 7.09974 35.5654 6.88038 35.8919C6.88038 35.7831 6.99006 35.6742 7.09974 35.5654C7.09974 35.4566 7.42877 35.1301 7.20942 35.3478C7.09974 35.4566 7.31909 35.2389 7.42877 35.1301C7.64813 34.9125 7.31909 35.2389 7.53845 35.0213C7.64813 34.9125 7.75781 34.9125 7.86749 34.8037C7.86749 34.8037 7.97716 34.8036 7.97716 34.6948C7.64813 34.8036 8.19652 34.586 7.97716 34.6948C8.08684 34.6948 8.19652 34.586 8.41588 34.586C8.52556 34.586 8.63524 34.4772 8.85459 34.4772C8.52556 34.4772 8.85459 34.4772 8.96427 34.4772C9.29331 34.4772 9.62234 34.4772 9.8417 34.4772C9.95138 34.4772 9.95138 34.4772 10.0611 34.4772C9.73202 34.4772 9.95138 34.4772 10.0611 34.4772C10.1707 34.4772 10.3901 34.4772 10.4998 34.586C10.8288 34.6948 11.1578 34.8037 11.4869 34.9125C12.2546 35.1301 12.5837 35.2389 13.3514 35.6742C14.0095 36.0007 14.7772 36.436 15.4353 36.8713C17.7385 38.5036 20.0418 41.0066 20.8095 43.7272C21.0289 44.4889 21.1386 44.8154 21.0289 45.5771C20.9192 46.1213 20.4805 46.883 20.0418 47.3183C19.7128 47.6448 19.1644 47.8624 18.7257 47.8624C17.8482 47.8624 17.4095 47.7536 16.5321 47.4271C14.6676 46.7742 12.6933 45.4683 11.1578 44.1624C10.2804 43.5095 9.51266 42.7477 8.74491 41.986C8.08684 41.2242 7.75781 40.8977 7.20942 40.136C6.22231 38.6125 3.91906 40.0272 4.79649 41.5507C5.89327 43.183 7.31909 44.7066 8.85459 46.0124C10.7191 47.536 12.6933 48.9507 14.9966 49.9301C16.8611 50.6918 19.0547 51.1271 20.9192 50.1477C22.7838 49.1683 23.8805 46.883 23.7709 44.8154C23.4418 41.1154 20.9192 37.8507 18.0676 35.5654C15.545 33.4978 12.0353 31.4301 8.52556 31.8654C6.7707 32.0831 5.34488 32.9537 4.57713 34.4772C3.59003 36.5448 4.02874 39.0478 4.68681 41.2242C5.12553 42.9654 7.75781 42.2036 7.31909 40.5713Z" fill="black"/>
<path d="M140.796 50.2565C140.796 50.2565 148.474 58.4183 154.397 50.4742L155.274 49.7124L157.358 55.9153L155.603 59.2888C155.603 59.2888 150.229 62.88 146.829 59.6153C143.538 56.3506 141.345 53.1947 141.345 53.1947L140.796 50.2565Z" fill="#C1C1C1"/>
<path d="M153.191 47.2094C153.52 46.7741 155.385 44.5977 155.385 44.5977L169.424 46.7741L171.836 47.2094L172.604 50.2565C172.604 50.2565 162.843 52.6506 156.481 49.8212C150.23 46.8829 153.191 47.2094 153.191 47.2094Z" fill="#C1C1C1"/>
<path d="M158.894 46.6653C158.894 46.6653 159.113 46.7741 159.442 46.9917C160.539 47.7535 162.952 49.93 162.842 53.4123C162.623 57.874 156.042 59.724 156.042 59.724L156.591 51.4535L153.41 47.2094L155.494 45.3594L158.346 46.0123L158.894 46.6653Z" fill="#C1C1C1"/>
<path d="M151.874 30.6682L153.409 28.4918C153.409 28.4918 157.687 28.1653 159.332 29.58C160.977 30.9947 165.913 36.7623 165.913 38.83C165.913 40.8976 164.158 41.0065 164.158 41.0065L158.125 33.3888L154.396 32.4094L150.887 31.8653L151.874 30.6682Z" fill="#C1C1C1"/>
<path d="M138.163 41.1153C136.628 49.7123 140.466 60.0505 149.789 62.1181C151.434 62.4446 152.202 59.9417 150.447 59.6152C142.55 57.874 139.37 49.0593 140.686 41.877C141.125 40.1358 138.492 39.4829 138.163 41.1153Z" fill="black"/>
<path d="M144.856 43.0742C146.721 40.0271 149.901 37.633 153.411 37.8507C153.85 37.8507 153.74 37.8507 154.179 37.9595C154.508 38.0683 154.837 38.1771 155.166 38.2859C154.946 38.1771 155.385 38.3948 155.166 38.2859C155.166 38.2859 155.275 38.2859 155.275 38.3948C155.385 38.5036 155.495 38.5036 155.714 38.6124C155.824 38.6124 155.824 38.7212 155.934 38.7212C156.043 38.8301 156.153 38.9389 156.263 39.0477C156.482 39.2654 156.263 39.0477 156.372 39.1565C156.482 39.2654 156.482 39.3742 156.592 39.483C156.701 39.7007 156.592 39.2654 156.701 39.5918C156.701 39.7006 156.811 39.8095 156.811 40.0271C156.811 39.7007 156.811 40.1359 156.811 40.2448C156.811 40.3536 156.811 40.3536 156.811 40.4624C156.811 40.5712 156.701 40.7889 156.701 40.8977C156.592 41.2242 156.592 41.1154 156.592 41.2242C155.604 43.4006 153.192 44.8153 151.217 45.9036C150.121 46.4477 150.559 47.9712 151.546 48.2977C155.604 49.8212 157.908 55.5888 154.288 58.7447C152.972 59.8329 154.837 61.6829 156.153 60.5947C161.417 56.1329 158.017 47.8624 152.204 45.7947C152.314 46.5565 152.424 47.4271 152.534 48.1889C155.714 46.4477 161.527 42.3124 158.895 37.9595C156.811 34.586 151.875 34.8036 148.804 36.2183C146.172 37.3065 144.088 39.3742 142.772 41.8771C141.675 43.183 143.979 44.4889 144.856 43.0742Z" fill="black"/>
<path d="M159.99 63.3151C163.39 63.6416 166.899 62.771 169.532 60.7033C171.945 58.7445 173.48 55.9151 173.919 52.8681C174.248 50.8004 174.138 48.8416 173.7 46.8828C173.371 45.2504 170.848 45.9034 171.177 47.5357C171.835 50.8004 171.506 54.5004 169.312 57.3298C167.119 60.1592 163.499 61.1386 159.99 60.8122C158.345 60.5945 158.345 63.2063 159.99 63.3151Z" fill="black"/>
<path d="M143.866 59.3976C144.743 63.4241 149.021 65.6005 152.75 66.4711C157.027 67.4505 161.853 67.3417 165.802 65.2741C167.776 64.2946 169.311 62.6623 170.079 60.5947C170.627 58.9623 168.105 58.3094 167.556 59.9417C166.24 63.9682 160.208 64.5123 156.698 64.4035C153.079 64.1858 147.376 62.8799 146.498 58.7447C146.06 57.0035 143.537 57.7653 143.866 59.3976Z" fill="black"/>
<path d="M151.655 33.4977C153.081 32.9536 154.178 32.8448 155.494 33.3889C155.603 33.4977 155.603 33.4977 155.494 33.3889C155.603 33.3889 155.603 33.4977 155.713 33.4977C155.823 33.6065 156.042 33.6065 156.152 33.7153C156.262 33.8242 156.371 33.8242 156.481 33.933C156.591 33.933 156.591 34.0418 156.7 34.0418C156.591 33.933 156.591 33.933 156.7 34.0418C157.249 34.4771 157.687 34.9124 158.126 35.4565C158.894 36.3271 159.662 37.5241 160.429 38.6124C161.197 39.7006 161.965 40.8977 162.952 41.8771C163.391 42.3124 164.049 42.3124 164.597 42.0947C166.9 41.0065 168.984 39.0477 169.423 36.5447C169.862 34.2595 169.094 31.9742 167.778 30.0153C165.255 26.3154 160.21 23.0507 155.494 24.4654C152.423 25.3359 150.668 28.1654 149.9 30.9948C149.461 32.6271 151.984 33.28 152.423 31.6477C152.532 31.3212 152.642 30.9948 152.752 30.6683C152.752 30.5595 152.861 30.3418 152.861 30.233C152.752 30.4506 152.971 30.0153 152.861 30.233C152.861 30.1242 152.971 30.0153 152.971 30.0153C153.081 29.7977 153.191 29.4712 153.41 29.2536C153.52 29.1448 153.52 29.0359 153.629 28.9271C153.629 28.8183 153.958 28.4918 153.739 28.7095C153.849 28.4918 154.068 28.383 154.178 28.1654C154.287 28.0565 154.397 27.9477 154.507 27.9477C154.616 27.8389 154.945 27.6212 154.616 27.8389C154.836 27.7301 154.945 27.6212 155.165 27.5124C155.274 27.5124 155.384 27.4036 155.384 27.4036C155.494 27.4036 155.932 27.1859 155.494 27.2948C155.932 27.1859 156.371 27.0771 156.81 26.9683C156.81 26.9683 156.591 26.9683 156.92 26.9683C157.029 26.9683 157.139 26.9683 157.249 26.9683C157.468 26.9683 157.797 26.9683 158.016 26.9683C158.126 26.9683 158.236 26.9683 158.345 26.9683C158.674 26.9683 158.236 26.9683 158.455 26.9683C158.674 26.9683 159.003 27.0771 159.223 27.0771C159.662 27.1859 160.1 27.2948 160.649 27.5124C160.32 27.4036 160.649 27.5124 160.758 27.6212C160.868 27.6212 160.978 27.7301 161.087 27.8389C161.307 27.9477 161.526 28.0565 161.745 28.1654C162.184 28.383 162.623 28.7095 163.062 29.0359C162.842 28.8183 163.062 29.0359 163.171 29.1448C163.281 29.2536 163.391 29.2536 163.391 29.3624C163.61 29.5801 163.829 29.6889 164.049 29.9065C164.378 30.233 164.816 30.6683 165.145 31.1036C165.255 31.3212 165.036 30.8859 165.255 31.2124C165.365 31.3212 165.365 31.43 165.474 31.5389C165.584 31.7565 165.804 31.9742 165.913 32.1918C166.023 32.4095 166.133 32.6271 166.242 32.8448C166.352 32.9536 166.352 33.0624 166.352 33.1712C166.462 33.4977 166.352 33.0624 166.462 33.28C166.571 33.7153 166.791 34.1506 166.9 34.5859C166.9 34.6947 166.9 34.8036 166.9 34.9124C166.791 34.4771 166.9 34.9124 166.9 35.0212C166.9 35.2389 166.9 35.4565 166.9 35.783C166.9 35.8918 166.9 36.0006 166.9 36.1094C166.9 36.3271 167.01 35.8918 166.9 36.2183C166.9 36.4359 166.791 36.7624 166.681 36.98C166.681 37.0889 166.571 37.4153 166.571 37.1977C166.681 36.98 166.462 37.4153 166.462 37.4153C166.352 37.633 166.133 37.8506 166.023 38.0683C165.913 38.2859 166.023 38.1771 166.023 38.0683C166.023 38.1771 165.913 38.1771 165.913 38.2859C165.804 38.3947 165.694 38.5036 165.584 38.6124C165.365 38.83 165.145 39.0477 164.926 39.2653C165.145 39.0477 164.816 39.3741 164.707 39.3741C164.597 39.483 164.378 39.5918 164.268 39.7006C163.939 39.9183 163.61 40.1359 163.281 40.2447C163.829 40.3536 164.378 40.3536 164.926 40.4624C163.939 39.483 163.281 38.5036 162.513 37.3065C161.636 36.0006 160.758 34.8036 159.771 33.6065C158.784 32.5183 157.468 31.6477 156.042 31.1036C154.397 30.5595 152.642 30.7771 150.997 31.3212C150.339 31.5389 149.9 32.1918 150.12 32.9536C150.229 33.28 150.997 33.7153 151.655 33.4977Z" fill="black"/>
<path d="M142.442 29.4712C142.332 28.8182 142.222 28.1653 142.222 27.5124C142.222 26.8594 142.113 26.2065 142.222 25.5535C142.222 24.9006 142.332 24.3565 142.332 23.7036C142.332 23.5947 142.332 23.5947 142.332 23.4859C142.332 23.3771 142.332 23.2683 142.442 23.0506C142.442 22.7241 142.551 22.5065 142.661 22.2888C142.771 21.8536 142.88 21.3094 143.1 20.8741C143.1 20.7653 143.21 20.5477 143.1 20.7653C143.1 20.6565 143.21 20.5477 143.21 20.4389C143.319 20.2212 143.429 20.0036 143.539 19.7859C143.648 19.5683 143.758 19.4594 143.868 19.2418C143.868 19.133 143.977 19.133 144.087 19.0242C144.306 18.8065 143.977 19.2418 144.087 18.9153C144.306 18.5889 144.635 18.3712 144.855 18.1536C144.855 18.1536 145.184 17.9359 144.964 18.0447C144.745 18.1536 145.074 18.0447 145.074 17.9359C145.184 17.8271 145.403 17.7183 145.513 17.7183C145.622 17.7183 145.622 17.6095 145.732 17.6095C145.403 17.7183 145.951 17.5006 145.732 17.6095C145.842 17.6095 146.061 17.5006 146.171 17.5006C146.281 17.5006 146.281 17.5006 146.39 17.5006C146.61 17.3918 146.171 17.5006 146.281 17.5006C146.39 17.5006 146.61 17.5006 146.719 17.5006C146.829 17.5006 146.829 17.5006 146.939 17.5006C147.158 17.5006 146.829 17.5006 146.829 17.5006C146.939 17.5006 147.268 17.6095 147.377 17.6095C147.487 17.6095 147.487 17.6095 147.597 17.7183C147.487 17.6095 147.926 17.8271 147.597 17.7183C147.706 17.8271 147.926 17.8271 148.035 17.9359C148.145 18.0447 148.255 18.1536 148.474 18.2624C148.145 18.0447 148.364 18.1536 148.474 18.2624C148.584 18.3712 148.693 18.3712 148.693 18.48C148.803 18.5889 148.913 18.6977 149.022 18.8065C149.132 18.9153 149.132 18.9153 149.242 19.0242C149.022 18.6977 149.242 19.0242 149.242 19.133C149.461 19.4594 149.681 19.8947 149.9 20.33C150.01 20.4389 150.01 20.5477 150.119 20.7653C150.01 20.5477 150.119 20.8741 150.229 20.983C150.339 21.3094 150.448 21.5271 150.558 21.8536C150.777 22.5065 150.887 23.1594 150.997 23.7036C150.997 23.9212 151.106 24.03 151.106 24.2477C151.106 24.4653 151.106 24.3565 151.106 24.3565C151.106 24.4653 151.106 24.5741 151.106 24.683C151.106 25.1183 151.216 25.5535 151.216 25.88C151.216 26.7506 151.216 27.6212 151.216 28.4918C151.216 30.2329 153.848 30.2329 153.848 28.4918C153.958 25.6624 153.739 22.6153 152.642 19.8947C151.874 18.1536 150.777 16.3036 148.913 15.5418C147.268 14.78 145.403 14.9977 143.977 15.9771C142.222 17.0653 141.126 18.9153 140.577 20.8741C139.59 23.9212 139.7 27.2947 140.139 30.4506C140.248 31.1035 141.126 31.5388 141.784 31.3212C142.222 30.8859 142.551 30.1241 142.442 29.4712Z" fill="black"/>
<path d="M165.146 25.88C165.365 25.2271 165.475 24.5742 165.804 23.9212C165.913 23.7036 166.023 23.3771 166.133 23.1595C166.242 22.9418 166.133 23.2683 166.242 23.0506C166.352 22.9418 166.352 22.7242 166.462 22.6154C166.681 22.1801 166.901 21.8536 167.12 21.5271C167.12 21.5271 167.339 21.3095 167.23 21.4183C167.12 21.5271 167.23 21.3095 167.339 21.3095C167.449 21.2007 167.559 21.0918 167.668 20.983C167.778 20.8742 167.449 21.0918 167.559 21.0918C167.668 21.0918 167.668 20.983 167.778 20.983C167.778 20.983 167.888 20.983 167.888 20.8742C167.888 20.8742 167.559 20.983 167.778 20.8742C167.559 20.8742 168.107 20.7654 167.778 20.8742H167.888C167.997 20.8742 167.559 20.7654 167.778 20.8742L168.107 20.983C167.997 21.0918 167.778 20.7654 167.997 20.983C167.997 20.983 168.107 21.0918 168.217 21.0918L168.326 21.2006C168.436 21.2006 168.107 20.983 168.217 21.0918C168.326 21.2007 168.436 21.3095 168.546 21.4183C168.655 21.5271 168.765 21.6359 168.875 21.7448C168.546 21.4183 168.875 21.8536 168.984 21.9624C169.204 22.2889 169.423 22.6154 169.533 22.9418C169.642 23.1595 169.752 23.2683 169.752 23.4859C169.752 23.5948 169.862 23.7036 169.862 23.7036C169.972 24.0301 169.862 23.5948 169.862 23.8124C169.972 24.2477 170.191 24.5742 170.301 25.0095C170.63 25.88 170.849 26.7506 170.959 27.73C171.068 28.1653 171.178 28.7095 171.178 29.1447C171.178 29.3624 171.178 28.9271 171.178 29.2536C171.178 29.3624 171.178 29.4712 171.178 29.58C171.178 29.7977 171.178 30.1242 171.288 30.3418C171.397 31.3212 171.397 32.4094 171.288 33.3888C171.288 33.4977 171.288 33.6065 171.288 33.7153C171.288 33.8241 171.178 34.1506 171.288 33.8241C171.288 34.0418 171.178 34.2594 171.178 34.4771C171.068 34.9124 170.959 35.3477 170.849 35.783C170.63 36.4359 171.068 37.1977 171.726 37.4153C172.494 37.633 173.152 37.1977 173.372 36.5447C174.03 34.8036 174.139 32.7359 174.03 30.8859C173.92 28.8183 173.481 26.6418 172.823 24.5742C172.275 22.833 171.507 21.0918 170.301 19.7859C169.204 18.5889 167.559 18.0448 166.133 18.9154C165.255 19.4595 164.597 20.3301 164.159 21.2006C163.391 22.5065 162.952 24.0301 162.513 25.5536C162.184 26.7506 164.707 27.5124 165.146 25.88Z" fill="black"/>
<path d="M133.231 29.4713C139.044 30.9948 144.966 32.3007 150.889 33.4977C152.534 33.8242 153.302 31.3213 151.547 30.9948C145.624 29.7977 139.702 28.4919 133.889 26.9683C132.353 26.5331 131.585 29.036 133.231 29.4713Z" fill="black"/>
<path d="M169.089 37.8505C170.954 37.9593 174.134 37.7416 174.683 39.9181C175.122 41.7681 173.915 44.5975 171.941 45.0328C169.638 45.6857 167.115 45.3593 164.812 45.1416C162.18 44.924 159.438 44.5975 156.805 44.271C156.147 44.1622 155.379 44.4887 155.16 45.1416C154.941 45.7946 155.379 46.6651 156.038 46.774C159.438 47.2093 162.838 47.6446 166.238 47.8622C168.98 48.0798 172.818 48.4063 175.012 46.2298C176.986 44.271 178.083 40.7887 176.767 38.1769C175.341 35.3475 171.722 35.2387 168.98 35.1299C167.444 35.1299 167.444 37.7416 169.089 37.8505Z" fill="black"/>
<path d="M131.362 40.68C135.311 41.333 139.369 41.8771 143.427 42.3124C144.085 42.4212 144.743 41.6595 144.743 41.0065C144.743 40.2448 144.085 39.8095 143.427 39.7006C139.588 39.2653 135.859 38.8301 132.13 38.1771C131.472 38.0683 130.704 38.3948 130.485 39.0477C130.265 39.7006 130.704 40.5712 131.362 40.68Z" fill="black"/>
<path d="M132.786 27.1859C130.921 28.0565 130.263 30.5594 129.934 32.4094C129.605 34.5859 129.605 36.8711 130.153 39.0476C130.592 40.68 133.115 40.027 132.676 38.3947C132.237 36.7623 132.128 35.0211 132.347 33.28C132.457 32.4094 132.676 31.5388 133.005 30.777C133.224 30.2329 133.444 29.7976 133.992 29.4712C134.65 29.1447 134.76 28.2741 134.431 27.73C134.211 27.0771 133.444 26.8594 132.786 27.1859Z" fill="black"/>
<path d="M140.03 30.0153C138.933 31.2123 138.494 32.7358 138.165 34.3682C137.836 36.1094 137.617 37.8505 137.617 39.5917C137.617 40.2446 138.275 40.8976 138.933 40.8976C139.701 40.8976 140.249 40.3535 140.249 39.5917C140.249 38.0682 140.359 36.6535 140.688 35.13C140.797 34.477 141.017 33.8241 141.236 33.1711C141.346 32.7358 141.675 32.1917 142.004 31.8653C142.443 31.3211 142.552 30.5594 142.004 30.0153C141.455 29.4711 140.468 29.4711 140.03 30.0153Z" fill="black"/>
<path d="M40.2209 32.3006C40.2209 32.3006 39.6725 31.8653 39.0144 31.9741C38.9047 31.9741 38.795 31.9741 38.6854 32.0829C38.137 32.3005 37.5886 33.0623 37.2595 34.9123C36.6015 39.1564 38.6854 44.0535 39.1241 44.3799C39.4531 44.7064 39.7821 47.3182 38.5757 48.1887C37.3692 49.0593 34.8466 52.324 35.9434 54.5005C36.9305 56.6769 38.466 57.2211 39.7821 57.9828C41.0983 58.7446 41.9757 60.9211 40.9886 61.9005C40.0015 62.8799 37.9176 62.8799 37.9176 62.8799L32.8724 58.5269L30.4595 51.9976L32.8724 46.9917L34.5176 44.924L32.8724 37.1976L34.7369 31.2123L37.1499 30.2329C37.1499 30.2329 38.5757 31.43 38.5757 31.6476" fill="#C1C1C1"/>
<path d="M41.1007 67.015C49.9846 61.465 49.4362 49.821 46.6943 41.1151C45.3781 36.871 43.6233 31.8651 39.3458 29.6887C35.9458 27.9475 33.2038 30.124 32.107 33.3887C30.9006 37.4151 31.5586 42.421 33.7522 46.0122C33.8619 45.468 34.0812 44.8151 34.1909 44.271C25.8554 48.7327 28.5973 61.1386 37.1522 63.5327C38.7974 63.968 39.4555 61.465 37.8103 61.0298C31.5586 59.1798 29.3651 49.9298 35.7264 46.5563C36.3845 46.2298 36.6038 45.3592 36.1651 44.8151C34.4103 42.2033 33.9716 38.721 34.4103 35.5651C34.7393 33.6063 35.7264 30.7769 38.1393 32.0828C41.6491 33.824 43.0749 38.1769 44.1717 41.6592C45.3781 45.5769 46.1459 49.7121 45.8168 53.8474C45.4878 58.2004 43.6233 62.4445 39.7845 64.8386C38.3587 65.7091 39.6748 67.8856 41.1007 67.015Z" fill="black"/>
<path d="M28.5961 64.4033C28.5961 64.4033 28.1574 67.7768 32.4349 68.8651C32.4349 68.8651 30.8994 73.3268 36.9317 73.3268L37.151 74.3062L26.6219 75.9386L21.9057 73.0004L20.1509 70.0621V67.4504L28.5961 64.4033Z" fill="#C1C1C1"/>
<path d="M8.96543 57.1123C8.088 60.377 10.3913 63.5329 12.3655 65.927C14.3397 68.4299 17.0816 70.1711 20.372 69.627C26.843 68.6476 31.5592 62.9888 31.8882 56.677C31.9979 54.9358 29.3656 55.0447 29.2559 56.677C29.0366 61.4652 25.6366 65.7093 20.8107 66.9064C18.1784 67.5593 16.0945 66.3623 14.4494 64.2946C13.0235 62.6623 10.9396 60.0505 11.5977 57.7653C11.9267 56.1329 9.40414 55.3711 8.96543 57.1123Z" fill="black"/>
<path d="M18.3964 71.1506C20.919 73.0006 24.2094 73.3271 27.1707 72.783C28.8159 72.5653 30.461 72.0212 32.1062 71.4771C33.6417 70.933 35.2869 70.3888 36.8224 69.6271C38.3579 68.8653 37.0417 66.58 35.5062 67.3418C34.2998 67.9947 32.9836 68.43 31.5578 68.8653C30.132 69.4094 28.5965 69.8447 27.061 70.1712C24.5384 70.7153 21.7964 70.4977 19.7125 68.8653C19.1642 68.43 18.2867 68.7565 17.9577 69.3006C17.519 70.0624 17.848 70.7153 18.3964 71.1506Z" fill="black"/>
<path d="M20.3724 73.4358C22.4563 75.8299 24.7596 77.5711 28.0499 77.2446C31.3403 76.9182 34.6306 76.4829 37.8113 75.3946C40.8823 74.4152 43.7339 72.6741 45.7081 70.1711C46.8049 68.8652 47.5727 67.4505 47.9017 65.7094C48.1211 63.9682 48.1211 62.227 48.0114 60.4859C47.9017 58.8535 45.2694 58.7447 45.3791 60.4859C45.4888 61.9006 45.4888 63.3153 45.3791 64.73C45.2694 66.2535 44.6114 67.4505 43.6243 68.6476C41.7597 70.8241 39.3468 72.1299 36.7145 73.0005C34.1919 73.7623 31.5596 74.1976 28.9273 74.5241C27.6112 74.6329 26.2951 74.8505 25.0886 74.1976C23.9918 73.5446 23.1144 72.5652 22.237 71.5858C21.0305 70.2799 19.166 72.1299 20.3724 73.4358Z" fill="black"/>
<path d="M109.208 61.6828C109.098 61.9005 109.098 62.1181 108.988 62.3358C108.988 62.4446 108.879 62.5534 108.879 62.6622C108.988 62.3358 108.879 62.7711 108.769 62.7711C108.55 63.2064 108.33 63.6417 108.111 63.9681C108.001 64.1858 107.892 64.2946 107.782 64.5122C107.672 64.6211 107.453 64.8387 107.672 64.6211C107.562 64.7299 107.562 64.8387 107.453 64.9475C107.124 65.274 106.795 65.6005 106.466 65.9269C106.356 66.0358 106.137 66.2534 106.027 66.3622C105.917 66.4711 105.808 66.4711 105.808 66.5799C105.808 66.5799 105.698 66.5799 105.698 66.6887C105.479 66.9063 105.917 66.5799 105.698 66.6887C105.369 66.9063 105.04 67.2328 104.601 67.4505C104.272 67.6681 103.943 67.8858 103.504 67.9946C103.395 67.9946 103.285 68.1034 103.175 68.1034C102.956 68.2122 103.504 67.9946 103.175 68.1034C102.956 68.2122 102.846 68.2122 102.627 68.321C102.298 68.4299 101.969 68.5387 101.53 68.6475C101.421 68.6475 101.201 68.7563 101.091 68.7563C100.762 68.8652 101.311 68.7563 101.091 68.7563C100.982 68.7563 100.872 68.7563 100.872 68.7563C100.543 68.7563 100.214 68.7563 99.885 68.7563C99.7753 68.7563 99.7753 68.7563 99.6656 68.7563C100.104 68.7563 99.885 68.7563 99.7753 68.7563C99.6656 68.7563 99.4463 68.6475 99.3366 68.6475C99.2269 68.6475 99.2269 68.6475 99.1172 68.5387C98.8979 68.4299 99.4463 68.6475 99.2269 68.5387C99.1172 68.4299 99.0076 68.4299 98.8979 68.321C98.6785 68.2122 98.8979 68.2122 99.0076 68.4299L98.8979 68.321L98.7882 68.2122C98.5689 67.9946 98.8979 68.4299 98.8979 68.321C98.8979 68.2122 98.7882 68.1034 98.7882 67.9946C98.6785 67.7769 98.8979 68.321 98.7882 68.1034C98.7882 67.9946 98.7882 67.9946 98.6785 67.8858C98.6785 67.7769 98.6785 67.7769 98.6785 67.6681C98.6785 67.6681 98.6785 68.1034 98.6785 67.7769C98.6785 67.6681 98.6785 67.4505 98.6785 67.3416C98.6785 67.124 98.7882 67.2328 98.6785 67.4505C98.6785 67.3416 98.6785 67.2328 98.6785 67.124C98.6785 66.9063 98.7882 66.6887 98.7882 66.5799C98.7882 66.4711 98.8979 66.3622 98.8979 66.2534V66.1446C98.7882 66.3622 99.0076 65.9269 98.8979 66.1446C99.0076 65.9269 99.1172 65.7093 99.2269 65.4916C99.556 64.9475 99.885 64.4034 100.214 63.8593C100.324 63.7505 100.433 63.6417 100.543 63.424C100.543 63.3152 100.653 63.3152 100.653 63.2064C100.762 63.0975 100.543 63.3152 100.762 63.0975C100.982 62.7711 101.311 62.4446 101.53 62.1181C101.969 61.574 102.079 60.7034 101.53 60.1593C100.982 59.6152 100.104 59.6152 99.556 60.1593C98.0205 61.9005 96.2656 64.0769 95.8269 66.4711C95.4979 68.1034 95.9366 69.8446 97.5817 70.7152C99.0076 71.4769 100.762 71.3681 102.298 71.0416C104.162 70.6063 105.917 69.6269 107.453 68.321C109.317 66.7975 110.743 64.6211 111.511 62.3358C111.73 61.6828 111.292 60.8122 110.524 60.7034C110.195 60.4858 109.427 60.9211 109.208 61.6828Z" fill="black"/>
<path d="M91.3307 60.5947C91.221 60.8123 91.221 61.03 91.1114 61.2476C91.1114 61.3565 91.0017 61.4653 91.0017 61.5741C91.1114 61.2476 91.0017 61.6829 90.892 61.6829C90.6726 62.1182 90.4533 62.5535 90.2339 62.88C90.1242 63.0976 90.0146 63.2065 89.9049 63.4241C89.7952 63.5329 89.5759 63.7506 89.7952 63.5329C89.6855 63.6417 89.6855 63.7506 89.5759 63.8594C89.2468 64.1859 88.9178 64.5123 88.5887 64.8388C88.4791 64.9476 88.2597 65.1653 88.15 65.2741C88.0404 65.3829 87.9307 65.3829 87.9307 65.4917C87.9307 65.4917 87.821 65.4917 87.821 65.6006C87.6016 65.8182 88.0404 65.4917 87.821 65.6006C87.492 65.8182 87.1629 66.1447 86.7242 66.3623C86.3952 66.58 86.0661 66.7976 85.6274 66.9064C85.5178 66.9064 85.4081 67.0153 85.2984 67.0153C85.079 67.1241 85.6274 66.9064 85.2984 67.0153C85.079 67.1241 84.9694 67.1241 84.75 67.2329C84.421 67.3417 84.0919 67.4506 83.6532 67.5594C83.5435 67.5594 83.3242 67.6682 83.2145 67.6682C82.8855 67.777 83.4339 67.6682 83.2145 67.6682C83.1048 67.6682 82.9952 67.6682 82.9952 67.6682C82.6661 67.6682 82.3371 67.6682 82.008 67.6682C81.8984 67.6682 81.8984 67.6682 81.7887 67.6682C82.2274 67.6682 82.008 67.6682 81.8984 67.6682C81.7887 67.6682 81.5693 67.5594 81.4597 67.5594C81.35 67.5594 81.35 67.5594 81.2403 67.4506C81.0209 67.3417 81.5693 67.5594 81.35 67.4506C81.2403 67.3417 81.1306 67.3417 81.0209 67.2329C80.8016 67.1241 81.0209 67.1241 81.1306 67.3417L81.0209 67.2329L80.9113 67.1241C80.6919 66.9064 81.0209 67.3417 81.0209 67.2329C81.0209 67.1241 80.9113 67.0153 80.9113 66.9064C80.8016 66.6888 81.0209 67.2329 80.9113 67.0153C80.9113 66.9064 80.9113 66.9064 80.8016 66.7976C80.8016 66.6888 80.8016 66.6888 80.8016 66.58C80.8016 66.58 80.8016 67.0153 80.8016 66.6888C80.8016 66.58 80.8016 66.3623 80.8016 66.2535C80.8016 66.0359 80.9113 66.1447 80.8016 66.3623C80.8016 66.2535 80.8016 66.1447 80.8016 66.0359C80.8016 65.8182 80.9113 65.6006 80.9113 65.4917C80.9113 65.3829 81.0209 65.2741 81.0209 65.1653V65.0564C80.9113 65.2741 81.1306 64.8388 81.0209 65.0564C81.1306 64.8388 81.2403 64.6212 81.35 64.4035C81.679 63.8594 82.008 63.3153 82.3371 62.7712C82.4468 62.6623 82.5564 62.5535 82.6661 62.3359C82.6661 62.227 82.7758 62.227 82.7758 62.1182C82.8855 62.0094 82.6661 62.227 82.8855 62.0094C83.1048 61.6829 83.4339 61.3565 83.6532 61.03C84.0919 60.4859 84.2016 59.6153 83.6532 59.0712C83.1048 58.5271 82.2274 58.5271 81.679 59.0712C80.1435 60.8123 78.3887 62.9888 77.9499 65.3829C77.6209 67.0153 78.0596 68.7564 79.7048 69.627C81.1306 70.3888 82.8855 70.28 84.421 69.9535C86.2855 69.5182 88.0404 68.5388 89.5759 67.2329C91.4404 65.7094 92.8662 63.5329 93.634 61.2476C93.8533 60.5947 93.4146 59.7241 92.6468 59.6153C92.3178 59.3976 91.5501 59.8329 91.3307 60.5947Z" fill="black"/>
<path d="M76.9666 89.5417C89.1409 93.1328 107.238 90.7387 112.283 77.4623C112.941 75.8299 110.309 75.0682 109.651 76.7005C105.044 88.4534 88.1538 89.977 77.6246 86.9299C75.9795 86.3858 75.2117 88.9975 76.9666 89.5417Z" fill="black"/>
<path d="M108.438 77.1357C108.657 77.1357 108.767 77.0269 108.987 77.0269C108.987 77.0269 109.316 77.0269 109.096 77.0269C108.877 77.0269 109.206 77.0269 109.206 77.0269C109.535 77.0269 109.864 77.0269 110.193 77.0269C109.864 76.9181 110.412 77.0269 110.193 77.0269C110.303 77.0269 110.412 77.0269 110.412 77.0269C110.632 77.0269 110.741 77.1357 110.961 77.1357C111.07 77.1357 111.29 77.2445 111.399 77.2445C111.18 77.1357 111.728 77.3533 111.399 77.2445C111.509 77.2445 111.509 77.3533 111.619 77.3533C111.728 77.4622 111.948 77.4622 112.058 77.571C112.167 77.571 112.387 77.7886 112.496 77.8975C112.387 77.7886 112.277 77.7886 112.387 77.7886L112.496 77.8975C112.606 77.8975 112.606 78.0063 112.716 78.0063C112.825 78.1151 112.935 78.2239 113.045 78.3328C113.154 78.4416 113.154 78.4416 113.264 78.5504C113.045 78.3328 113.483 78.768 113.264 78.5504C113.374 78.6592 113.483 78.768 113.483 78.8769L113.703 79.3122C113.703 79.421 113.812 79.5298 113.812 79.5298C114.032 80.1827 114.799 80.7269 115.458 80.5092C116.116 80.2916 116.664 79.5298 116.445 78.8769C115.458 75.3945 111.399 73.2181 107.89 74.3063C107.232 74.5239 106.683 75.2857 106.903 75.9386C106.903 76.9181 107.67 77.3533 108.438 77.1357Z" fill="black"/>
</g>
<defs>
<filter id="filter0_f_614_7928" x="18.4893" y="164.389" width="152.082" height="29.6743" filterUnits="userSpaceOnUse" color-interpolation-filters="sRGB">
<feFlood flood-opacity="0" result="BackgroundImageFix"/>
<feBlend mode="normal" in="SourceGraphic" in2="BackgroundImageFix" result="shape"/>
<feGaussianBlur stdDeviation="1.5" result="effect1_foregroundBlur_614_7928"/>
</filter>
<clipPath id="clip0_614_7928">
<rect width="177" height="195" fill="white" transform="translate(0 -0.000244141)"/>
</clipPath>
</defs>
</svg>
