<svg width="203" height="195" viewBox="0 0 203 195" fill="none" xmlns="http://www.w3.org/2000/svg">
<g clip-path="url(#clip0_614_7573)">
<g filter="url(#filter0_f_614_7573)">
<path d="M20.3577 177.397C20.3577 184.002 53.0592 189.356 93.3986 189.356C133.738 189.356 166.439 184.002 166.439 177.397C166.439 170.792 133.738 165.438 93.3986 165.438C53.0592 165.438 20.3577 170.792 20.3577 177.397Z" fill="#D9D9D9"/>
</g>
<path d="M174.382 98.892L134.989 30.6177C132.72 26.658 127.707 25.3381 123.887 27.6179L37.6982 78.0138C35.7882 79.0937 35.7882 81.9734 37.8176 82.9333C50.9488 90.1328 90.223 111.491 108.01 121.69C129.617 134.049 136.54 131.529 155.402 120.85L170.92 112.091C175.457 109.451 177.128 103.572 174.382 98.892Z" fill="#FF8D52"/>
<path d="M155.402 120.85L170.92 112.091C175.576 109.451 177.128 103.572 174.502 98.8921L171.517 93.7325C160.057 100.812 144.419 108.611 132.124 108.011C110.278 106.811 81.1506 87.493 73.8687 78.2538C70.4069 73.8141 70.6456 65.5348 71.9587 58.0955L37.6982 78.0138C35.7882 79.0937 35.7882 81.9735 37.8176 82.9334C50.9488 90.1328 90.2231 111.491 108.01 121.69C129.497 134.049 136.421 131.529 155.402 120.85Z" fill="#F66E00"/>
<path d="M86.8822 109.931C85.6885 113.651 83.6591 117.371 81.7491 120.73C79.7198 124.21 76.8548 126.97 74.5866 130.33C74.5866 130.33 74.5866 130.33 74.5866 130.45C74.4673 130.21 74.2285 129.85 73.8704 129.61C70.7667 126.97 64.4398 124.21 62.7685 129.73C61.2167 134.649 60.2617 139.929 59.0679 144.848C58.4711 147.128 57.6354 149.528 58.4711 151.928C58.8292 153.008 59.5454 153.728 60.0229 154.808C60.3811 155.647 60.7392 156.607 61.0973 157.447C62.1717 159.367 64.0817 160.807 66.3498 160.927C66.7079 160.927 67.066 160.927 67.3048 160.927C68.2598 161.527 69.5729 161.767 70.6473 161.167C71.841 160.327 72.796 159.247 73.1541 158.047C75.661 156.127 76.0191 150.848 76.1385 148.208C76.2579 145.928 75.661 143.528 76.0191 141.249C76.3773 139.089 77.8098 136.929 78.8841 135.129C81.0329 131.289 84.3754 128.17 86.7629 124.33C89.031 120.49 91.4185 116.171 92.7316 111.851C93.806 107.891 88.076 106.212 86.8822 109.931Z" fill="white"/>
<path d="M130.333 126.01C130.333 122.17 124.244 122.05 124.364 126.01C124.364 129.249 124.961 132.849 124.364 135.969C123.767 139.329 121.499 142.808 119.828 145.688C119.231 146.888 118.515 148.928 117.44 149.768C117.082 150.008 116.246 150.008 115.769 150.128C114.814 150.368 113.859 150.488 112.785 150.728C109.442 151.328 105.861 151.568 103.593 154.447C99.0564 159.967 101.325 168.006 102.996 174.126C103.712 177.005 104.309 180.485 107.413 181.805C110.755 183.245 113.859 180.725 115.65 177.965C117.56 174.846 118.156 171.126 118.634 167.646C119.35 163.567 119.708 159.367 119.947 155.287C120.902 154.807 121.738 154.207 122.454 153.127C124.125 150.848 125.319 148.208 126.632 145.808C128.184 142.808 129.974 139.689 130.333 136.209C130.691 132.849 130.452 129.369 130.333 126.01Z" fill="white"/>
<path d="M48.6821 92.0527C45.8171 88.093 41.4003 84.3733 36.2671 84.3733C34.1184 84.3733 31.9697 85.2132 30.2984 86.5331C28.6272 87.853 27.1947 89.5329 25.404 90.6128C23.1359 92.0527 20.1516 91.8127 17.6447 92.5326C15.0184 93.3725 12.631 94.8124 10.3628 96.3723C8.21409 97.9322 5.94597 99.612 4.75222 102.012C3.4391 104.772 3.55847 107.771 3.9166 110.651C4.03597 111.851 4.63285 112.931 5.58784 113.411C6.54284 115.451 7.02034 117.611 8.33346 119.41C10.0047 121.57 11.9147 122.41 14.5409 122.77C14.7797 122.77 15.1378 122.77 15.3766 122.89C15.3766 123.01 15.4959 123.01 15.4959 123.13C15.6153 124.09 16.3316 125.29 16.6897 126.13C17.8834 128.29 19.7934 129.97 22.1809 130.329C24.6878 130.809 27.6722 130.569 30.0597 129.97C31.134 129.73 32.089 129.13 33.044 128.77C34.3571 128.29 35.909 128.41 37.3415 128.53C39.729 128.77 41.9971 129.49 43.9071 127.57C45.5784 125.89 46.5334 123.37 47.2496 121.09C48.8015 115.931 48.6821 110.651 50.4727 105.612C52.3827 101.052 51.6665 96.2523 48.6821 92.0527Z" fill="white"/>
<path d="M201.004 23.6582C200.527 20.7784 199.214 17.8987 197.065 15.7388C195.871 14.5389 194.558 13.699 193.006 13.0991C192.29 12.8591 191.574 12.7391 190.858 12.6191C190.619 12.6191 190.261 12.6191 189.903 12.4991H189.783C189.544 11.5392 189.306 10.5793 188.948 9.61935C188.351 8.29946 187.515 6.85958 186.56 5.89966C184.292 3.49986 180.591 4.69976 177.846 5.29971C177.368 5.4197 176.533 5.77967 175.936 5.65968C176.055 5.53969 175.339 4.93974 175.22 4.81975C174.384 3.97982 173.19 3.25988 171.996 2.77992C169.49 1.82 166.505 2.05998 164.118 3.37987C161.73 4.69976 160.059 6.97957 159.104 9.49936C158.626 10.6993 158.388 12.1391 158.388 13.459C158.388 15.0189 158.865 16.5788 158.746 18.1386C158.507 21.0184 156.12 22.6983 154.21 24.4981C151.822 26.6579 150.867 29.5377 150.39 32.6574C150.27 33.3774 150.39 33.9773 150.628 34.5773C150.628 34.6973 150.628 34.8173 150.628 34.9372C150.748 38.177 151.822 40.9367 153.016 43.8165C153.851 45.6164 154.568 47.4162 154.926 49.2161C154.806 50.296 154.926 51.3759 155.165 52.4558C155.284 53.1757 155.642 53.6557 156.12 54.0157C156.716 55.3355 157.671 56.2955 158.985 56.8954C161.85 58.3353 165.311 58.9352 168.535 59.0552C171.638 59.1752 175.1 58.8153 178.085 57.7354C179.517 57.2554 180.591 56.4155 181.188 54.9756C181.666 53.7757 181.905 52.5758 182.621 51.3759C185.725 46.5763 192.171 46.0963 195.633 41.7767C199.214 36.9771 201.959 29.7777 201.004 23.6582Z" fill="white"/>
<path d="M163.881 61.2153C164.12 64.575 164.359 67.8147 162.449 70.8145C161.494 72.2543 160.419 73.5742 159.345 74.8941C158.748 75.6141 158.151 76.454 157.435 77.1739C157.077 77.6539 156.6 78.3738 156.003 78.4938C154.212 78.9738 154.928 81.8535 156.838 81.3736C158.748 80.8936 159.823 78.9738 161.016 77.6539C162.329 76.094 163.643 74.4142 164.836 72.7343C167.104 69.2546 167.104 65.2949 166.866 61.3353C166.627 59.2954 163.643 59.2954 163.881 61.2153Z" fill="black"/>
<path d="M46.6507 89.4129C51.187 86.5332 56.3201 84.6133 61.5726 84.0134C62.4082 83.8934 63.0051 83.4134 63.0051 82.5735C63.0051 81.8535 62.2888 81.0136 61.5726 81.1336C55.7232 81.7335 50.1126 83.6534 45.0989 86.8931C43.547 87.853 45.0989 90.4928 46.6507 89.4129Z" fill="black"/>
<path d="M98.9402 28.3378C101.566 26.658 104.909 24.7381 107.893 24.7381C108.371 24.7381 108.371 24.7381 108.848 24.9781C109.206 25.0981 108.61 24.8581 108.968 24.9781C109.087 24.9781 109.087 25.0981 109.206 25.0981C109.326 25.0981 109.445 25.2181 109.445 25.3381C109.684 25.5781 109.326 25.2181 109.565 25.3381C110.161 25.938 110.52 26.418 110.878 27.3779C110.758 27.1379 110.997 27.7379 110.997 27.7379C111.116 27.9779 111.116 28.2179 111.236 28.4578C111.355 29.0578 111.594 29.5377 111.713 30.1377C111.952 31.3376 112.191 32.4175 112.429 33.6174C112.907 36.0172 113.504 38.537 114.578 40.8168C115.653 43.0966 117.443 44.8965 119.711 45.8564C122.696 47.0563 126.277 46.3363 129.023 44.6565C133.439 41.8967 135.469 36.0172 133.678 31.0976C132.843 28.6978 130.933 26.778 128.187 26.778C124.606 26.778 121.86 30.0177 119.95 32.6575C118.756 34.2174 121.383 35.6572 122.576 34.2174C123.531 32.8975 124.606 31.6976 125.919 30.7376C126.277 30.4977 126.874 30.1377 127.113 30.1377C127.351 30.0177 127.59 30.0177 127.829 29.8977C128.187 29.7777 127.829 29.8977 128.306 29.8977C128.784 29.8977 129.5 30.1377 129.739 30.4977C130.336 30.9776 130.694 31.6976 130.933 32.4175C131.529 34.3373 131.529 36.1372 130.813 38.177C130.097 40.2169 128.426 42.0167 126.277 42.9766C125.203 43.4566 123.651 43.9365 122.457 43.8166C121.383 43.6966 120.308 43.2166 119.473 42.6167C118.04 41.5367 117.085 39.6169 116.488 37.8171C115.175 33.7374 115.294 28.9378 113.146 25.2181C109.684 19.0986 101.925 23.2983 97.5077 25.938C95.8364 26.778 97.2689 29.2978 98.9402 28.3378Z" fill="black"/>
<path d="M99.8924 27.498C99.1761 25.6982 97.0274 25.0982 95.2368 24.7383C93.6849 24.4983 92.2524 24.2583 90.7006 24.2583C87.1193 24.2583 83.5381 25.5782 80.6731 27.738C77.8081 29.8978 75.4206 32.8976 73.8687 36.1373C72.5556 38.6571 71.4812 41.6569 68.855 42.9767C72.675 42.9767 76.495 42.9767 80.3149 42.9767C82.7024 42.9767 84.9706 42.9767 87.3581 42.6168C88.5518 42.3768 89.7456 42.1368 90.7006 41.4169C91.5362 40.8169 92.133 39.857 92.7299 39.0171C95.1174 35.5374 97.2662 31.8177 99.1762 28.098" fill="black"/>
<path d="M120.901 58.9354C120.901 60.6152 120.662 62.1751 120.185 63.735C120.066 64.4549 119.827 65.1748 119.588 65.7748C119.349 66.2548 118.991 66.6147 118.514 66.8547C117.917 67.0947 117.439 67.6946 117.678 68.4146C117.797 69.0145 118.633 69.4945 119.23 69.2545C120.185 68.8945 121.021 68.4146 121.617 67.5746C122.214 66.7347 122.453 65.7748 122.692 64.9349C123.169 63.015 123.647 60.9752 123.647 58.9354C123.647 58.2154 123.05 57.6155 122.334 57.6155C121.498 57.7355 120.782 58.3354 120.901 58.9354Z" fill="black"/>
<path d="M134.991 60.6152C134.871 62.415 134.991 64.0949 134.991 65.8947C134.991 67.4546 134.752 69.0145 134.155 70.4544C133.797 71.1743 133.916 72.1342 134.633 72.4942C135.229 72.8542 136.304 72.7342 136.662 72.0142C138.453 68.4145 137.856 64.4549 137.975 60.6152C137.975 59.7752 137.259 59.1753 136.543 59.1753C135.707 59.1753 134.991 59.7752 134.991 60.6152Z" fill="black"/>
<path d="M137.377 82.2132C131.647 86.6528 123.171 85.093 117.322 81.8532C114.457 80.2934 111.83 78.1335 109.801 75.4938C109.085 74.5338 108.369 73.8139 107.294 73.214C105.623 72.494 103.832 72.734 102.161 72.974C102.4 73.9339 102.639 74.8938 102.997 75.8537C107.175 74.7738 110.517 72.614 111.114 68.0544C111.353 66.1345 108.369 66.1345 108.13 68.0544C107.772 71.1741 104.907 72.254 102.28 72.974C100.37 73.4539 101.206 76.2137 103.116 75.8537C104.549 75.6138 105.981 75.4938 107.055 76.5737C108.01 77.5336 108.727 78.6135 109.682 79.5734C112.308 82.0932 115.173 84.133 118.635 85.5729C124.962 88.2127 133.318 89.1726 139.167 84.733C140.361 83.6531 138.809 81.0133 137.377 82.2132Z" fill="black"/>
<path d="M200.048 24.1382C199.928 23.5383 199.809 22.9383 199.69 22.3384C198.973 24.0182 198.018 25.8181 196.825 27.6179C187.991 40.4569 168.175 47.6563 159.222 41.1768C154.088 37.4571 153.73 30.1377 153.372 24.7382C150.985 26.898 150.03 29.7778 149.552 32.8975C149.433 33.6174 149.552 34.2174 149.791 34.8173C149.791 34.9373 149.791 35.0573 149.791 35.1773C149.91 38.417 150.985 41.1768 152.178 44.0566C153.014 45.8564 153.73 47.6563 154.088 49.4561C153.969 50.536 154.088 51.6159 154.327 52.6959C154.447 53.4158 154.805 53.8958 155.282 54.2557C155.879 55.5756 156.834 56.5355 158.147 57.1355C161.012 58.5754 164.474 59.1753 167.697 59.2953C170.801 59.4153 174.263 59.0553 177.247 57.9754C178.68 57.4955 179.754 56.6555 180.351 55.2156C180.828 54.0157 181.067 52.8158 181.783 51.6159C184.887 46.8163 191.333 46.3364 194.795 42.0167C198.257 37.4571 200.883 30.2577 200.048 24.1382Z" fill="#C1C1C1"/>
<path d="M161.126 32.7775C165.424 33.6175 170.318 31.9376 173.899 29.4178C177.003 27.258 180.346 23.2983 177.719 19.5786C174.377 14.6591 167.214 15.259 162.201 16.6989C156.829 18.2588 151.696 21.8585 149.069 26.898C145.727 33.1375 147.04 40.3369 150.979 45.9764C152.054 47.5363 154.68 46.0964 153.606 44.4166C150.621 40.2169 149.069 35.1773 150.86 30.2578C152.412 25.9381 155.993 22.6984 159.932 20.7785C162.201 19.6986 164.588 19.0987 167.095 18.8587C169.482 18.6187 172.228 18.6187 174.257 20.1786C176.884 22.2184 175.212 24.7382 173.064 26.5381C170.199 28.8179 165.662 30.7377 161.962 30.0178C160.052 29.5378 159.336 32.4176 161.126 32.7775Z" fill="black"/>
<path d="M167.213 33.4975C168.168 33.4975 168.407 33.4975 169.243 33.7375C169.362 33.7375 169.601 33.8575 169.72 33.8575C169.481 33.7375 169.72 33.8575 169.839 33.8575C170.078 33.9775 170.317 34.0975 170.556 34.3375C170.317 34.0975 170.675 34.4575 170.675 34.4575C170.794 34.5775 170.914 34.6974 171.033 34.8174C171.272 35.0574 170.914 34.5775 171.033 34.9374C171.153 35.0574 171.153 35.1774 171.272 35.2974C171.391 35.4174 171.391 35.5374 171.511 35.6574C171.511 35.7774 171.63 36.0173 171.511 35.7774C171.63 36.0173 171.749 36.3773 171.749 36.6173C171.869 36.9773 171.869 37.2172 171.988 37.5772C171.988 37.5772 172.108 38.0572 171.988 37.6972C171.988 37.8172 171.988 38.0572 171.988 38.1772C171.988 38.7771 171.988 39.497 171.988 40.217C171.869 41.7769 171.749 42.4968 171.511 43.9367C171.391 44.7766 171.749 45.6165 172.585 45.7365C173.301 45.9765 174.256 45.4965 174.376 44.6566C175.331 40.337 175.928 33.9775 171.511 31.3377C170.198 30.4978 168.526 30.2578 167.094 30.2578C165.303 30.4978 165.303 33.4975 167.213 33.4975Z" fill="black"/>
<path d="M159.818 16.9389C159.58 15.979 159.341 15.1391 159.102 14.1791C159.102 14.0591 159.102 13.9392 159.102 13.9392C159.102 14.1791 159.102 13.9392 159.102 13.8192C159.102 13.5792 159.102 13.4592 159.102 13.2192C159.102 12.8592 159.102 12.3793 159.102 12.0193C159.102 11.6593 159.102 11.2994 159.221 10.9394C159.221 10.8194 159.221 10.6994 159.221 10.6994C159.221 10.4594 159.341 10.3395 159.341 10.0995C159.46 9.37953 159.699 8.77958 159.938 8.05964C159.818 8.41961 159.938 7.93965 160.057 7.93965C160.176 7.81966 160.176 7.69967 160.296 7.57968C160.415 7.3397 160.654 6.97973 160.773 6.73975C160.893 6.61976 160.893 6.49977 161.012 6.37978C161.251 6.01981 160.893 6.49977 161.131 6.25979C161.37 6.01981 161.49 5.77983 161.728 5.53985C161.967 5.29987 162.086 5.17988 162.325 4.9399C162.445 4.81991 162.564 4.69992 162.683 4.57993C162.803 4.57993 162.922 4.45994 162.564 4.57993C162.683 4.57993 162.683 4.45994 162.803 4.45994C163.28 4.09997 163.758 3.85999 164.235 3.62001C164.355 3.50002 164.474 3.50002 164.593 3.50002C164.951 3.38003 164.355 3.62001 164.713 3.50002C164.951 3.38003 165.31 3.26004 165.548 3.26004C165.787 3.14005 166.026 3.14005 166.384 3.02006C166.503 3.02006 166.623 2.90007 166.861 2.90007C166.981 2.90007 167.458 2.78008 166.981 2.90007C167.458 2.90007 168.055 2.78008 168.533 2.78008C168.771 2.78008 169.01 2.78008 169.249 2.78008C169.488 2.78008 168.891 2.66009 169.13 2.78008H169.249C169.368 2.78008 169.488 2.78008 169.607 2.90007C169.846 2.90007 170.085 3.02006 170.323 3.14005C170.443 3.14005 170.562 3.26004 170.681 3.26004C170.801 3.26004 170.92 3.38003 170.562 3.26004C170.681 3.26004 170.681 3.38003 170.801 3.38003C171.04 3.50002 171.278 3.62001 171.398 3.74C171.517 3.74 171.517 3.85999 171.636 3.85999C171.995 4.09997 171.517 3.74 171.756 3.97998C171.875 4.09997 172.114 4.33995 172.233 4.45994C172.353 4.57993 172.353 4.57993 172.472 4.69992C172.711 4.9399 172.353 4.45994 172.472 4.81991C172.591 5.05989 172.711 5.17988 172.83 5.41986C172.95 5.53985 172.95 5.65984 173.069 5.77983C172.95 5.41986 173.069 5.77983 173.069 5.89982C173.188 6.1398 173.188 6.49977 173.308 6.73975C173.308 6.85974 173.427 7.3397 173.427 7.09972C173.427 6.85974 173.427 7.45969 173.427 7.45969C173.427 7.81966 173.427 8.17963 173.427 8.5396C173.427 8.77958 173.427 8.89957 173.427 9.13955C173.427 9.25954 173.427 9.49952 173.427 9.13955C173.427 9.25954 173.427 9.37953 173.427 9.49952C173.308 10.3395 173.069 11.2994 172.711 12.1393C172.353 13.0992 171.995 13.9392 171.398 15.0191C170.443 16.6989 173.069 18.2588 174.024 16.5789C175.695 13.3392 177.128 9.61951 176.411 5.89982C175.815 3.26004 173.905 1.3402 171.517 0.38028C166.384 -1.53956 160.296 1.46019 157.789 6.01981C155.76 9.61951 155.998 13.9392 157.192 17.8988C157.55 19.5787 160.415 18.8587 159.818 16.9389Z" fill="black"/>
<path d="M177.72 6.61979C178.079 6.4998 178.317 6.25982 178.675 6.13983C178.437 6.25982 178.914 6.01984 178.914 6.01984C179.034 5.89985 179.272 5.89985 179.392 5.89985C179.75 5.77986 180.108 5.65987 180.466 5.65987C180.585 5.65987 180.824 5.53988 180.944 5.53988C180.585 5.53988 181.063 5.53988 181.182 5.53988C181.54 5.53988 181.899 5.53988 182.137 5.53988C182.257 5.53988 182.495 5.53988 182.615 5.53988C182.734 5.53988 182.734 5.53988 182.854 5.53988C182.615 5.53988 182.615 5.53988 182.854 5.53988C183.212 5.53988 183.45 5.65987 183.808 5.77986C183.928 5.77986 184.047 5.89985 184.286 5.89985C184.405 5.89985 184.405 5.89985 184.525 6.01984C184.286 5.89985 184.286 5.89985 184.525 6.01984C184.763 6.13983 185.002 6.25982 185.36 6.4998C185.48 6.4998 185.838 6.85977 185.48 6.61979C185.599 6.73978 185.718 6.85977 185.838 6.85977C185.957 6.97976 186.077 7.09975 186.196 7.21974C186.196 7.33973 186.554 7.6997 186.315 7.33973C186.435 7.57971 186.673 7.81969 186.793 8.17966C186.793 8.29965 186.912 8.29965 186.912 8.41964C186.793 8.17966 186.793 8.29965 186.912 8.41964C186.912 8.53963 187.032 8.77961 187.032 8.8996C187.032 9.01959 187.151 9.25957 187.151 9.37956C187.151 9.49955 187.151 9.49955 187.151 9.61954C187.151 9.37956 187.151 9.37956 187.151 9.61954C187.151 9.97951 187.151 10.3395 187.151 10.6995C187.151 11.1794 187.151 11.1794 187.032 11.6594C186.912 12.4993 187.27 13.2192 188.106 13.4592C188.822 13.6992 189.777 13.2192 189.897 12.3793C190.374 9.61954 190.016 6.61979 187.867 4.69995C185.957 3.02009 183.331 2.42014 180.944 2.66012C179.272 2.9001 177.72 3.38006 176.288 4.1C174.497 4.93993 176.049 7.57971 177.72 6.61979Z" fill="black"/>
<path d="M191.331 21.4984C189.779 23.6583 185.123 28.6978 183.691 23.8982C182.616 20.1786 185.362 15.139 189.063 14.1791C191.331 13.5791 193.838 13.9391 195.628 15.019C197.18 15.9789 198.254 17.7788 198.732 19.8186C200.045 24.9782 198.493 30.9777 195.986 35.7773C192.883 41.6568 187.988 46.6964 181.781 49.0961C172.231 52.6959 162.084 49.4561 153.728 44.4165C152.056 43.4566 150.624 45.9764 152.176 47.0563C160.771 52.3359 171.395 55.6956 181.423 52.5759C188.943 50.1761 195.031 44.4165 198.613 37.4571C201.597 31.8176 203.507 24.4982 201.478 18.2587C200.642 15.7389 198.971 13.4591 196.583 12.2592C193.838 10.9393 189.659 10.4594 186.914 12.0192C182.616 14.419 179.513 19.6986 180.945 24.7382C181.423 26.538 182.616 28.2179 184.526 28.8178C186.794 29.5378 188.943 28.3379 190.614 27.018C191.928 25.9381 193.002 24.4982 194.076 23.1783C195.031 21.4984 192.405 19.9386 191.331 21.4984Z" fill="black"/>
<path d="M151.697 47.6563C150.384 53.5358 155.636 57.2555 160.65 58.6954C166.261 60.3753 173.065 60.4952 178.437 57.9755C180.944 56.8955 183.092 54.8557 183.57 51.976C183.809 50.0561 180.944 49.2162 180.705 51.136C180.108 55.3357 174.497 56.4156 170.916 56.6556C166.261 57.0155 160.531 56.4156 156.711 53.4158C155.039 52.0959 154.204 50.4161 154.562 48.2563C154.92 46.5764 152.055 45.8565 151.697 47.6563Z" fill="black"/>
<path d="M68.976 126.97C66.3498 126.13 63.7235 126.49 62.7685 129.849C61.2167 134.769 60.2617 140.048 59.0679 144.968C58.4711 147.248 57.6354 149.648 58.4711 152.047C58.8292 153.127 59.5454 153.847 60.0229 154.927C60.3811 155.767 60.7392 156.727 61.0973 157.567C61.9329 159.127 63.3654 160.327 65.0367 160.807C61.6942 150.488 69.3342 137.409 68.976 126.97Z" fill="#C1C1C1"/>
<path d="M108.489 151.568C105.266 151.688 102.282 152.648 101.804 155.887C101.088 160.567 101.088 165.366 100.73 170.046C100.61 172.206 100.014 174.486 101.565 176.286C102.282 177.126 103.237 177.605 103.953 178.325C104.669 178.925 105.147 179.765 105.863 180.365C107.176 181.445 109.086 182.165 111.115 182.045C105.027 174.006 111.115 160.567 108.489 151.568Z" fill="#C1C1C1"/>
<path d="M47.01 121.57C42.4738 122.77 36.3857 124.21 33.64 123.73C29.1038 123.01 28.9844 121.81 28.9844 121.81C28.9844 121.81 23.4932 125.65 19.7926 123.73C15.9726 121.69 18.7182 114.851 18.7182 114.851C18.7182 114.851 13.8238 115.331 12.272 112.571C10.7201 109.811 11.6751 107.651 11.6751 107.651C11.6751 107.651 8.21322 110.411 6.18385 106.451C5.34823 104.891 5.46761 102.132 6.06448 99.252C4.87073 100.212 3.91573 101.292 3.19949 102.732C1.88636 105.491 2.00574 108.491 2.36386 111.371C2.48324 112.571 3.08011 113.651 4.15448 114.131C5.10948 116.171 5.58698 118.33 7.01948 120.13C8.69072 122.29 10.7201 123.13 13.3463 123.49C13.5851 123.49 13.9432 123.49 14.182 123.61C14.182 123.73 14.3013 123.73 14.3013 123.85C14.4207 124.81 15.137 126.01 15.6145 126.85C16.8082 129.009 18.7182 130.689 21.2251 131.049C23.7319 131.529 26.8357 131.289 29.2232 130.689C30.2975 130.449 31.2525 129.849 32.3269 129.489C33.64 129.009 35.3113 129.129 36.6244 129.249C39.0119 129.489 41.3994 130.209 43.3094 128.29C44.9806 126.61 46.055 124.09 46.7712 121.81C46.8906 121.81 46.8906 121.69 47.01 121.57Z" fill="#C1C1C1"/>
<path d="M27.3099 124.09C28.1455 123.73 29.1005 123.49 29.9361 123.49C30.1749 123.49 30.2942 123.49 30.533 123.49C30.8911 123.49 30.533 123.49 30.7717 123.49C30.8911 123.49 31.1299 123.61 31.2492 123.61C31.2492 123.61 31.488 123.73 31.3686 123.61C31.1299 123.49 31.488 123.73 31.488 123.73C31.488 123.73 31.8461 123.97 31.7267 123.85C31.6074 123.73 31.8461 123.97 31.9655 124.09L32.0849 124.21C32.0849 124.21 31.9655 123.97 32.0849 124.09C32.2042 124.21 32.2042 124.33 32.3236 124.45C32.5624 124.81 32.3236 124.33 32.3236 124.57C32.3236 124.69 32.443 124.81 32.443 125.05C32.443 125.17 32.5624 125.53 32.443 125.29C32.443 125.17 32.443 125.53 32.443 125.65C32.443 125.77 32.443 125.89 32.443 126.13C32.443 126.25 32.443 126.25 32.443 126.37C32.443 126.37 32.443 126.13 32.443 126.25C32.443 126.61 32.3236 126.97 32.2042 127.33C32.2042 127.45 32.0849 127.81 32.0849 127.57C31.9655 127.69 31.9655 127.81 31.8461 128.05C31.7267 128.409 31.488 128.649 31.2492 128.889C31.3686 128.649 31.0105 129.129 31.0105 129.129C30.8911 129.249 30.7717 129.369 30.6524 129.489C30.2942 129.849 30.2942 129.849 29.9361 129.969C29.2199 130.449 28.7424 130.569 27.9067 130.689C27.7874 130.689 27.1905 130.689 26.9517 130.689C26.3549 130.689 25.758 130.809 25.1611 130.929C24.2061 131.169 23.3705 131.169 22.4155 131.169C20.983 131.049 19.5505 130.569 18.3568 129.609C16.0886 127.81 15.1336 124.93 15.4918 122.05C15.6111 120.73 16.3274 118.93 17.2824 117.85C18.5955 116.29 20.3861 115.331 22.4155 114.731C24.3255 114.251 23.4899 111.371 21.5799 111.851C17.2824 113.051 13.7012 116.171 12.7462 120.61C11.9105 124.45 12.9849 128.769 15.8499 131.409C17.2824 132.729 19.1924 133.689 21.1024 134.049C22.2961 134.289 23.4899 134.289 24.6836 134.169C25.2805 134.049 25.9967 133.809 26.713 133.809C27.1905 133.809 27.668 133.809 28.0261 133.809C31.9655 133.449 35.1886 130.209 35.4273 126.25C35.5467 124.33 34.8305 122.41 33.2786 121.33C31.2492 120.01 28.623 120.37 26.4742 121.21C24.803 121.81 25.5192 124.69 27.3099 124.09Z" fill="black"/>
<path d="M11.7962 121.81C11.0799 121.81 10.3637 121.69 9.64741 121.33C9.88616 121.45 9.52803 121.21 9.40866 121.21C9.28928 121.09 9.16991 121.09 9.05053 120.97C8.93116 120.97 8.69241 120.73 8.81178 120.73C8.93116 120.85 8.57303 120.49 8.57303 120.49C8.45366 120.37 8.33429 120.25 8.21491 120.13C8.21491 120.01 8.09554 120.01 8.09554 119.89C7.97616 119.65 7.73741 119.41 7.61804 119.05C7.49866 118.81 7.61804 119.17 7.49866 118.93C7.49866 118.81 7.37929 118.69 7.37929 118.45C7.37929 118.33 7.25991 118.09 7.25991 117.97C7.25991 117.85 7.14054 117.371 7.25991 117.731C7.25991 117.371 7.25991 117.131 7.25991 116.771C7.25991 116.651 7.25991 116.411 7.25991 116.291C7.25991 116.411 7.25991 116.051 7.25991 116.051C7.25991 115.691 7.49866 114.731 7.73741 114.251C7.73741 114.131 7.85679 114.131 7.85679 114.011C7.97616 113.891 7.97616 113.771 8.09554 113.651C8.21491 113.291 8.45366 112.931 8.69241 112.691C8.81178 112.571 8.93116 112.451 8.93116 112.211C9.05053 111.971 8.93116 112.211 9.05053 111.971C9.28928 111.731 9.52803 111.371 9.76678 111.131C10.9605 110.051 12.1543 109.331 13.8255 109.091C14.6611 108.971 15.0193 108.011 14.8999 107.291C14.6611 106.451 13.8255 106.091 13.1093 106.211C9.40866 106.811 6.42429 109.571 5.11117 112.931C3.79805 116.051 3.79805 119.89 6.18554 122.41C7.61804 123.97 9.76678 124.69 11.7962 124.81C12.6318 124.81 13.2286 124.09 13.2286 123.37C13.348 122.41 12.6318 121.81 11.7962 121.81Z" fill="black"/>
<path d="M4.87071 113.171C1.05072 109.091 4.15447 103.332 7.37758 99.972C12.0332 95.0524 18.7182 91.5727 25.5225 91.2127C29.2232 90.9727 32.8044 91.6927 36.0275 93.4925C39.6087 95.4123 42.235 98.5321 44.5031 101.772C46.055 103.932 46.5325 106.811 46.7712 109.451C47.1294 112.811 47.01 116.171 46.5325 119.41C46.055 122.29 45.2194 125.77 43.19 128.05C42.4737 128.89 41.5187 129.37 40.5637 129.37C39.2506 129.37 37.9375 128.65 36.8631 127.81C35.3113 126.61 33.2819 128.77 34.7144 129.969C37.2213 131.889 40.325 133.329 43.4287 131.649C46.055 130.209 47.4875 127.09 48.4425 124.33C49.6362 120.61 50.1137 116.651 49.9943 112.811C49.9943 109.331 49.5168 105.731 48.2037 102.492C47.6069 100.932 46.6519 99.732 45.6969 98.4121C44.2644 96.3723 42.5931 94.5724 40.5637 93.0125C37.1019 90.2528 32.9238 88.6929 28.6263 88.2129C20.6282 87.493 12.3913 90.9727 6.54196 96.3723C1.52822 101.052 -2.88864 109.211 2.72197 115.211C4.03509 116.651 6.18384 114.611 4.87071 113.171Z" fill="black"/>
<path d="M29.8211 123.37C35.0736 123.85 37.2223 117.85 38.058 113.651C38.1773 112.931 37.8192 111.971 36.9836 111.851C36.2673 111.731 35.3123 112.091 35.193 112.931C35.0736 113.891 34.8348 114.851 34.4767 115.691C34.3573 115.931 34.3573 116.171 34.238 116.53C34.238 116.65 34.1186 116.77 34.1186 116.77C34.1186 116.89 33.9992 117.25 34.1186 116.89C33.9992 117.37 33.6411 117.85 33.4023 118.21C33.283 118.45 33.1636 118.69 33.0442 118.81C33.0442 118.81 33.0442 118.93 32.9248 118.93C32.8055 119.05 32.9248 118.93 33.0442 118.81L32.8055 119.05C32.6861 119.17 32.4473 119.41 32.328 119.53L32.2086 119.65C32.0892 119.77 32.0892 119.77 32.328 119.65C32.2086 119.65 32.0892 119.77 32.0892 119.89C31.9698 120.01 31.4923 120.13 31.4923 120.25C31.7311 120.13 31.7311 120.13 31.6117 120.25C31.6117 120.25 31.6117 120.25 31.4923 120.25C31.373 120.25 31.2536 120.37 31.1342 120.37C31.1342 120.37 30.7761 120.37 30.7761 120.49C30.5373 120.49 30.1792 120.49 29.9405 120.49C29.1048 120.37 28.3886 121.21 28.508 121.93C28.2692 122.77 28.9855 123.37 29.8211 123.37Z" fill="black"/>
<path d="M28.8657 88.9328C30.1789 87.1329 32.0889 86.053 34.1182 86.053C36.267 86.053 38.5351 87.0129 40.4451 88.2128C44.7426 90.9726 48.5626 95.5322 49.6369 100.572C50.1144 102.972 49.8757 105.491 48.3238 107.411C47.1301 108.851 49.1594 111.011 50.4726 109.571C54.6507 104.651 52.7407 97.8121 49.3982 93.0125C46.0557 88.0929 40.5645 83.2933 34.357 83.1733C31.0145 83.0533 28.1495 84.7331 26.2395 87.4929C25.1651 88.9328 27.7914 90.4927 28.8657 88.9328Z" fill="black"/>
<path d="M84.4962 107.891C82.4668 115.811 78.05 123.01 71.9618 128.409C72.6781 128.409 73.3943 128.409 74.1106 128.409C72.32 126.13 69.8131 123.49 66.7094 123.49C64.0831 123.49 62.1731 125.41 60.9794 127.45C59.3081 130.209 58.5919 133.569 57.995 136.689C57.3981 140.408 57.1594 144.128 57.3981 147.848C57.5175 151.088 57.8756 154.567 59.0694 157.567C59.5469 158.767 60.0244 160.087 60.9794 161.167C62.5312 162.967 65.635 163.807 67.7837 163.687C73.0362 163.447 76.7368 158.767 77.9306 153.967C78.2887 152.767 78.4081 151.448 78.4081 150.248C78.4081 148.808 78.1693 147.368 78.05 145.928C77.9306 143.528 78.4081 141.248 79.2437 138.969C81.1537 134.049 84.8543 130.089 87.958 125.89C91.1812 121.45 93.9268 116.77 94.2849 111.131C94.4043 109.211 91.4199 109.211 91.3005 111.131C90.5843 120.01 83.3024 126.13 78.8856 133.209C76.6175 136.809 75.0656 140.888 75.0656 145.208C75.0656 147.608 75.6625 150.008 75.185 152.407C74.7075 154.687 73.7525 156.967 72.0812 158.647C69.455 161.287 64.2025 161.527 62.4119 158.047C61.2181 155.767 60.86 153.007 60.5019 150.608C59.905 144.368 60.1437 137.649 62.2925 131.649C62.77 130.449 63.2475 129.249 64.0831 128.17C64.5606 127.45 65.3962 126.85 65.9931 126.61C66.3512 126.49 66.7094 126.49 66.9481 126.49C67.545 126.61 67.9031 126.73 68.3806 126.97C69.8131 127.81 71.0068 129.129 71.9618 130.449C72.4393 131.169 73.5137 130.929 74.1106 130.449C80.5568 124.69 85.2124 117.01 87.4805 108.611C87.8387 106.811 84.9737 106.091 84.4962 107.891Z" fill="black"/>
<path d="M121.978 127.45C121.859 132.609 121.5 138.369 119.113 143.168C117.919 145.568 116.129 147.368 113.86 148.088C109.682 149.528 104.669 148.928 101.923 153.128C99.8936 156.367 100.132 160.567 99.8936 164.167C99.6548 168.966 99.6548 174.126 101.565 178.565C102.639 181.085 104.549 183.365 107.295 183.965C110.04 184.565 112.667 183.365 114.696 181.565C121.5 175.686 122.694 165.127 121.023 156.847C120.904 157.327 120.784 157.807 120.665 158.287C131.05 149.528 133.796 135.729 132.483 122.65C132.244 120.73 129.26 120.73 129.499 122.65C130.812 135.009 128.424 147.848 118.516 156.127C118.039 156.487 118.039 157.087 118.158 157.567C119.471 164.527 118.755 172.926 113.741 178.325C112.905 179.285 111.95 180.005 110.876 180.605C110.04 180.965 109.205 181.205 108.25 181.085C107.653 180.965 106.698 180.605 106.101 180.005C105.146 179.165 104.549 178.085 104.072 176.886C102.4 172.566 102.52 167.646 102.878 163.087C103.117 160.207 102.997 156.367 104.669 154.327C105.862 152.888 107.175 152.528 109.205 152.168C111.234 151.808 113.383 151.568 115.412 150.728C123.888 147.128 124.604 135.369 124.843 127.57C124.962 125.53 121.978 125.53 121.978 127.45Z" fill="black"/>
</g>
<defs>
<filter id="filter0_f_614_7573" x="17.3577" y="162.438" width="152.082" height="29.9182" filterUnits="userSpaceOnUse" color-interpolation-filters="sRGB">
<feFlood flood-opacity="0" result="BackgroundImageFix"/>
<feBlend mode="normal" in="SourceGraphic" in2="BackgroundImageFix" result="shape"/>
<feGaussianBlur stdDeviation="1.5" result="effect1_foregroundBlur_614_7573"/>
</filter>
<clipPath id="clip0_614_7573">
<rect width="202" height="195" fill="white" transform="translate(0.5 -0.000244141)"/>
</clipPath>
</defs>
</svg>
