<svg width="187" height="195" viewBox="0 0 187 195" fill="none" xmlns="http://www.w3.org/2000/svg">
<g filter="url(#filter0_f_614_6873)">
<path d="M22.2453 167.621C23.6971 174.098 56.7758 172.123 96.1286 163.21C135.481 154.297 166.206 141.821 164.754 135.345C163.302 128.868 130.224 130.843 90.871 139.756C51.5183 148.669 20.7935 161.145 22.2453 167.621Z" fill="#D9D9D9"/>
</g>
<path d="M160.979 132.608C159.302 131.338 157.416 130.597 155.321 130.386C154.168 130.28 153.015 130.28 151.863 130.491C151.234 130.597 150.71 130.703 150.082 130.703C150.186 130.068 150.501 129.327 150.605 128.904C150.92 127.845 151.234 126.893 151.653 125.94C152.492 123.824 153.539 121.813 154.482 119.802C156.473 115.357 157.835 110.806 158.464 105.937C158.569 105.408 158.359 105.09 158.15 104.773C158.569 103.291 158.883 101.809 159.093 100.328C160.036 93.3422 158.988 86.251 157.73 79.3715C157.626 78.5248 157.102 78.1015 156.473 77.8898C155.321 75.5613 152.492 74.1854 149.977 74.9263C149.558 75.0322 149.243 75.4555 149.243 75.9847C147.148 76.1964 145.052 76.9372 143.166 78.2073C141.49 79.2657 140.128 80.8533 138.451 81.8058C136.879 82.7584 135.203 83.4992 134.784 85.2985C133.107 87.3094 131.85 89.6378 131.012 92.0721C130.907 92.2838 130.907 92.4955 130.907 92.7071C129.754 94.1889 128.602 95.6706 127.659 97.2582C127.03 98.2107 127.449 99.5866 128.392 100.116C129.44 100.645 130.593 100.328 131.221 99.375C131.85 98.3166 132.583 97.364 133.317 96.3057C133.946 95.5648 134.574 94.7181 135.203 93.9772C135.517 93.6597 135.727 93.2363 135.832 92.813C137.822 91.0137 139.813 89.2145 141.909 87.4152C142.852 86.5685 143.795 85.7218 144.843 85.4043C145.995 85.0868 147.253 85.0868 148.51 85.0868C148.719 85.0868 149.034 84.981 149.243 84.981C149.767 85.1926 150.396 85.4043 150.92 85.616C151.339 86.4627 151.758 87.3094 152.072 88.2619C152.701 90.2729 153.015 92.2838 152.911 94.2947C152.911 94.8239 153.015 95.2473 153.33 95.5648C153.015 97.9991 152.596 100.328 152.072 102.656C151.234 106.889 150.082 111.017 148.3 114.933C146.519 118.849 144.528 122.659 142.433 126.364C141.385 128.269 140.442 130.174 139.394 132.079C138.451 133.667 137.403 134.09 135.936 135.042C134.469 135.995 133.317 137.371 133.422 139.276C133.526 141.287 135.203 142.557 137.089 142.769C138.137 142.875 139.185 144.039 140.232 144.145C141.175 144.25 142.118 144.568 142.957 144.885C144.843 145.626 146.519 144.78 148.615 144.885C152.492 144.991 156.892 144.039 160.455 142.557C162.236 141.816 163.808 140.334 163.912 138.218C163.912 135.889 162.55 133.878 160.979 132.608Z" fill="white"/>
<path d="M132.165 99.9041C134.889 96.6231 137.614 93.2363 140.967 90.6962C142.643 89.4261 144.529 88.2619 146.625 87.521C147.463 87.2035 148.615 86.7802 149.349 87.3094C150.187 87.9444 150.501 89.532 150.711 90.4845C151.654 95.0355 150.606 100.116 149.454 104.455C148.301 109.112 146.52 113.769 144.529 118.108C142.329 123.083 139.814 127.845 137.299 132.608C136.461 134.09 138.766 135.466 139.604 133.984C144.634 124.459 149.873 114.721 152.283 104.032C153.435 99.1632 154.588 93.3421 152.911 88.4736C152.178 86.251 150.921 84.3459 148.406 84.4517C146.205 84.4517 143.9 85.7218 142.119 86.7802C137.404 89.532 133.842 93.8713 130.384 98.1049C129.231 99.3749 131.012 101.28 132.165 99.9041Z" fill="#090000"/>
<path d="M137.717 132.079C134.469 133.773 131.011 138.641 133.84 142.134C136.669 145.732 142.327 146.579 146.519 146.579C149.138 146.579 151.862 146.156 154.482 145.838C156.892 145.521 159.302 145.203 161.397 144.039C165.169 142.028 166.846 137.583 164.226 133.878C160.873 129.116 154.901 129.857 149.872 130.809C148.195 131.127 148.929 133.667 150.605 133.349C154.482 132.608 160.769 131.55 162.655 136.313C164.645 141.287 157.416 142.663 154.272 143.192C149.557 143.933 144.528 144.568 139.918 142.98C138.241 142.345 135.098 141.181 135.412 138.853C135.726 136.842 137.298 135.254 138.975 134.408C140.546 133.561 139.184 131.338 137.717 132.079Z" fill="#090000"/>
<path d="M140.548 79.2657C145.053 75.8789 151.34 72.7037 147.253 75.138C143.167 77.5723 145.577 86.1452 145.577 86.1452L139.081 89.6379C139.081 89.7437 136.042 82.7584 140.548 79.2657Z" fill="#AFADAD"/>
<path d="M136.254 85.1927C139.606 81.7 143.378 77.8898 148.094 76.3023C150.189 75.5614 153.123 75.0322 155.009 76.7256C156.581 78.2073 157 80.8533 157.419 82.9701C159.41 93.2364 158.991 104.032 156.162 114.087C154.59 119.802 152.39 125.2 149.456 130.28C148.617 131.762 150.923 133.137 151.761 131.656C157.524 121.601 160.772 110.171 161.191 98.5283C161.401 92.7072 160.877 86.8861 159.724 81.1708C159.2 78.8424 158.467 76.4081 156.685 74.8205C154.695 73.0213 151.97 72.9154 149.351 73.3388C143.274 74.3972 138.559 79.0541 134.367 83.3934C133.215 84.4518 135.101 86.3569 136.254 85.1927Z" fill="#090000"/>
<path d="M140.234 99.4809C145.997 98.2108 153.122 98.105 148.302 98.6342C143.482 99.1634 141.072 108.689 141.072 108.689L133.528 109.112C133.633 109.112 134.576 100.751 140.234 99.4809Z" fill="#AFADAD"/>
<path d="M177.667 155.375C176.41 151.142 171.695 150.507 168.027 150.401C164.989 150.295 161.95 150.401 159.016 151.036C159.226 145.427 161.007 140.029 162.055 134.631C163.312 128.175 164.779 121.804 164.779 115.137C164.779 114.502 165.198 113.252 164.779 112.934C164.989 111.982 164.674 111.539 164.779 110.48C165.198 107.411 164.779 101.927 161.321 100.234C160.902 100.022 160.483 100.022 160.064 100.022C159.331 99.1753 158.597 98.2228 157.549 97.7994C156.292 97.3761 155.035 97.5877 153.777 97.6936C152.31 97.7994 150.843 97.9053 149.377 98.0111C144.033 98.4344 138.584 99.0695 133.241 99.9162C133.031 99.8103 132.821 99.7045 132.612 99.5987C131.669 99.2811 130.202 99.9162 129.992 101.08C129.573 103.938 128.316 106.478 126.325 108.595C124.858 110.182 126.325 112.617 128.316 112.088C134.498 110.606 140.68 108.701 147.071 109.124C150.739 109.336 156.19 112.348 157.484 114.882C156.96 117.317 157.759 118.967 157.759 121.507C157.759 121.719 157.759 121.825 157.759 121.931C156.816 128.598 155.873 135.372 154.825 142.04C154.196 145.956 152.73 149.978 151.472 153.682C150.424 156.857 149.272 159.609 147.91 162.572C147.281 163.948 146.757 165.536 147.071 167.124C147.491 169.24 149.694 171.107 151.685 170.896C155.562 170.684 159.836 170.838 163.713 170.309C167.59 169.674 169.841 167.568 172.88 165.24C175.813 163.546 178.82 159.186 177.667 155.375Z" fill="white"/>
<path d="M140.292 98.4001C147.107 96.7242 155.869 96.1687 149.995 96.9557C144.121 97.7427 142.755 108.787 142.755 108.787L133.6 109.604C133.549 109.726 133.426 100.198 140.292 98.4001Z" fill="#AFADAD"/>
<path d="M145.474 163.619C144.427 165.418 145.055 167.641 146.208 169.228C147.57 171.133 149.456 172.086 151.656 172.403C154.276 172.721 157.105 172.509 159.724 172.298C162.449 172.086 165.068 171.557 167.583 170.498C171.984 168.593 175.86 165.206 177.851 160.867C179.842 156.634 179.423 150.707 174.289 149.119C171.565 148.272 168.316 148.484 165.592 148.801C162.763 149.119 159.934 149.86 157.524 151.447C158.153 151.977 158.781 152.4 159.41 152.929C162.973 141.604 165.173 129.751 165.697 117.897C165.802 114.933 165.906 112.076 165.906 109.112C165.906 106.572 166.116 103.503 164.754 101.28C163.497 99.2692 161.191 98.2108 159.096 97.5757C156.581 96.729 153.857 96.4115 151.133 96.3057C144.741 96.094 138.349 97.6816 132.272 99.2692C130.596 99.6925 131.329 102.233 133.006 101.809C138.035 100.539 143.169 99.2692 148.408 98.9516C151.028 98.8458 153.647 98.9516 156.162 99.4808C158.153 99.9042 160.982 100.539 162.344 102.233C163.077 103.185 163.182 104.455 163.287 105.619C163.392 106.995 163.392 108.371 163.392 109.853C163.392 112.499 163.392 115.251 163.182 117.897C162.868 123.4 162.344 128.798 161.401 134.196C160.353 140.334 158.886 146.261 157 152.188C156.686 153.247 157.943 154.305 158.886 153.67C162.344 151.447 166.535 151.13 170.517 151.342C172.403 151.447 174.603 151.447 175.756 153.247C176.803 154.94 176.594 156.951 175.965 158.75C174.708 162.243 171.774 165.206 168.631 167.006C164.963 169.122 160.772 169.652 156.686 169.757C154.485 169.863 151.866 170.181 149.875 169.122C148.723 168.487 146.941 166.371 147.78 164.889C148.618 163.407 146.313 162.137 145.474 163.619Z" fill="#090000"/>
<path d="M127.973 113.663C132.269 110.911 137.403 110.594 142.433 110.7C146.624 110.805 153.015 110.382 155.321 114.827C156.473 116.944 156.473 119.484 156.473 121.813C156.473 124.564 156.264 127.422 155.845 130.174C155.111 135.677 153.749 141.075 152.072 146.261C150.082 152.4 147.672 158.327 145.262 164.254C144.633 165.841 146.833 167.111 147.567 165.63C152.387 154.199 156.892 142.557 158.569 130.174C158.988 127.105 159.197 124.141 159.197 121.072C159.197 118.426 158.883 115.78 157.731 113.451C155.111 108.583 149.348 108.265 144.528 108.054C138.451 107.736 132.06 107.842 126.821 111.335C125.249 112.393 126.506 114.616 127.973 113.663Z" fill="#090000"/>
<path d="M123.992 38.3064C122.84 36.2955 120.744 35.1313 118.648 34.1787C117.601 33.7554 116.658 33.8612 116.029 34.6021C115.61 34.0729 115.086 33.6495 114.562 33.332C113.933 31.5328 112.99 29.8394 111 29.5218C110.58 29.0985 110.161 28.5693 109.742 28.2518C106.284 25.0766 101.36 24.1241 96.8543 23.9124C91.9297 23.5949 87.1098 24.3358 82.1852 24.6533C77.4701 24.865 72.6503 24.7591 68.1447 26.3467C65.9444 27.1934 63.4297 28.3576 61.9628 30.2627C61.2293 31.2153 60.7054 32.4853 61.0197 33.7554C61.1245 34.0729 61.2293 34.2846 61.3341 34.4962C60.2863 34.3904 59.2385 34.1787 58.1907 34.1787C56.4094 34.0729 54.6282 35.5546 55.1521 37.5656C55.5712 39.1531 57.2477 40.529 58.2955 41.6933C59.5528 43.0691 60.915 44.3392 62.3819 45.6093C62.9058 46.0326 63.4297 46.2443 63.9536 46.1385C64.2679 46.6677 64.7918 47.091 65.63 47.091C76.108 47.5144 86.6907 48.0435 97.1686 48.5727C102.408 48.8903 107.542 49.2078 112.781 49.5253C115.505 49.737 118.125 49.9486 120.849 50.1603C123.468 50.372 124.83 48.6786 124.83 46.1385C124.935 43.4925 125.25 40.6349 123.992 38.3064Z" fill="white"/>
<path d="M131.326 49.6311L54.3128 43.0691C49.9121 42.6458 46.0353 46.3501 45.6161 51.2187L36.6051 158.962C36.3956 161.396 38.7007 162.984 40.5867 161.926C53.8937 154.517 93.2908 132.608 111.522 122.977C133.631 111.229 135.622 103.503 137.927 80.1125L139.813 60.9558C140.337 55.1347 136.46 50.0544 131.326 49.6311Z" fill="#FF8D52"/>
<path d="M76.6307 67.2001C79.4597 71.5395 84.4891 74.2913 89.6233 74.1855C91.6141 74.1855 93.6049 73.6563 95.0718 72.3862C96.434 71.1162 96.8531 69.1052 96.2244 67.4118C95.0718 64.2367 91.9285 62.0141 89.2042 60.3206C87.7373 59.3681 86.4799 61.6965 87.8421 62.6491C89.2042 63.4958 90.3568 64.3425 91.5093 65.4009C91.9285 65.8242 92.3476 66.2476 92.7667 66.7768C92.7667 66.8826 92.8715 66.8826 92.8715 66.9885C92.9763 67.0943 92.9763 67.2001 93.081 67.306C93.1858 67.5177 93.3954 67.7293 93.5002 67.941C93.5002 68.0468 93.6049 68.1527 93.6049 68.2585C93.6049 68.2585 93.6049 68.3644 93.7097 68.3644C93.7097 68.3644 93.6049 68.1527 93.6049 68.2585C93.7097 68.4702 93.7097 68.6819 93.8145 68.8936C93.8145 68.9994 93.8145 69.1052 93.8145 69.1052C93.8145 68.7877 93.9193 69.3169 93.8145 69.1052C93.8145 69.3169 93.8145 69.4227 93.8145 69.6344C93.8145 69.9519 93.9193 69.3169 93.8145 69.5286C93.8145 69.6344 93.8145 69.6344 93.8145 69.7403C93.8145 69.8461 93.8145 69.8461 93.7097 69.9519C93.6049 70.2695 93.8145 69.7403 93.7097 69.9519C93.6049 70.0578 93.6049 70.2695 93.5002 70.3753C93.3954 70.587 93.6049 70.2695 93.5002 70.3753C93.3954 70.4811 93.3954 70.4811 93.2906 70.587C93.1858 70.6928 93.081 70.7986 92.9763 70.9045C92.8715 71.0103 93.2906 70.6928 92.9763 70.9045C92.8715 70.9045 92.8715 71.0103 92.7667 71.0103C92.6619 71.1162 92.4524 71.222 92.3476 71.222C92.2428 71.222 92.2428 71.3278 92.138 71.3278C92.0332 71.4337 92.2428 71.222 92.2428 71.222C92.138 71.222 92.138 71.222 92.0332 71.3278C91.6141 71.4337 91.2998 71.5395 90.8807 71.6454C90.7759 71.6454 90.6711 71.6454 90.5663 71.7512C90.252 71.7512 90.4616 71.7512 90.5663 71.7512C90.3568 71.7512 90.1472 71.7512 89.8329 71.857C89.4138 71.857 88.8899 71.857 88.4707 71.857C88.2612 71.857 88.0516 71.857 87.8421 71.7512C87.7373 71.7512 87.7373 71.7512 87.6325 71.7512C87.6325 71.7512 87.9468 71.7512 87.7373 71.7512C87.6325 71.7512 87.4229 71.7512 87.3182 71.6454C86.2704 71.4337 85.2226 71.1162 84.2796 70.7986C84.4891 70.9045 84.1748 70.7986 84.07 70.6928C83.9652 70.587 83.7557 70.587 83.6509 70.4811C83.3366 70.3753 83.127 70.1636 82.8127 70.0578C82.4983 69.8461 82.2888 69.7403 81.9744 69.5286C81.8696 69.4227 81.7649 69.3169 81.5553 69.2111C81.5553 69.2111 81.3457 68.9994 81.4505 69.1052C81.5553 69.2111 81.3457 68.9994 81.3457 68.9994C80.8218 68.576 80.4027 68.1527 79.8788 67.6235C79.6693 67.4118 79.4597 67.0943 79.1454 66.7768C79.1454 66.671 79.0406 66.671 79.0406 66.5651C78.9358 66.3534 78.831 66.2476 78.7263 66.0359C78.3071 65.4009 77.5737 65.1892 76.945 65.6126C76.4211 65.7184 76.2116 66.5651 76.6307 67.2001Z" fill="black"/>
<path d="M96.9591 58.0981C99.7882 62.4375 104.818 65.1893 109.952 65.0834C111.943 65.0834 113.933 64.5542 115.4 63.2842C116.762 62.0141 117.182 60.0032 116.553 58.3098C115.4 55.1346 112.257 52.912 109.533 51.2186C108.066 50.2661 106.808 52.5945 108.171 53.547C109.533 54.3937 110.685 55.2405 111.838 56.2988C112.257 56.7222 112.676 57.1455 113.095 57.6747C113.095 57.7806 113.2 57.7806 113.2 57.8864C113.305 57.9922 113.305 58.0981 113.41 58.2039C113.514 58.4156 113.724 58.6273 113.829 58.839C113.829 58.9448 113.933 59.0506 113.933 59.1565C113.933 59.1565 113.933 59.2623 114.038 59.2623C114.038 59.2623 113.933 59.0506 113.933 59.1565C114.038 59.3681 114.038 59.5798 114.143 59.7915C114.143 59.8973 114.143 60.0032 114.143 60.0032C114.143 59.6857 114.248 60.2149 114.143 60.0032C114.143 60.2149 114.143 60.3207 114.143 60.5324C114.143 60.8499 114.248 60.2149 114.143 60.4265C114.143 60.5324 114.143 60.5324 114.143 60.6382C114.143 60.744 114.143 60.744 114.038 60.8499C113.933 61.1674 114.143 60.6382 114.038 60.8499C113.933 60.9557 113.933 61.1674 113.829 61.2732C113.724 61.4849 113.933 61.1674 113.829 61.2732C113.724 61.3791 113.724 61.3791 113.619 61.4849C113.514 61.5908 113.41 61.6966 113.305 61.8024C113.2 61.9083 113.619 61.5908 113.305 61.8024C113.2 61.8024 113.2 61.9083 113.095 61.9083C112.99 62.0141 112.781 62.1199 112.676 62.1199C112.571 62.1199 112.571 62.2258 112.466 62.2258C112.362 62.3316 112.571 62.1199 112.571 62.1199C112.467 62.1199 112.466 62.1199 112.362 62.2258C111.943 62.3316 111.628 62.4375 111.209 62.5433C111.104 62.5433 111 62.5433 110.895 62.6491C110.58 62.6491 110.79 62.6491 110.895 62.6491C110.685 62.6491 110.476 62.6491 110.161 62.755C109.742 62.755 109.218 62.755 108.799 62.755C108.59 62.755 108.38 62.755 108.171 62.6491C108.066 62.6491 108.066 62.6491 107.961 62.6491C107.961 62.6491 108.275 62.6491 108.066 62.6491C107.961 62.6491 107.751 62.6491 107.647 62.5433C106.599 62.3316 105.551 62.0141 104.608 61.6966C104.818 61.8024 104.503 61.6966 104.398 61.5908C104.294 61.4849 104.084 61.4849 103.979 61.3791C103.665 61.2732 103.455 61.0616 103.141 60.9557C102.827 60.744 102.617 60.6382 102.303 60.4265C102.198 60.3207 102.093 60.2149 101.884 60.109C101.884 60.109 101.674 59.8973 101.779 60.0032C101.884 60.109 101.674 59.8973 101.674 59.8973C101.15 59.474 100.731 59.0506 100.207 58.5214C99.9977 58.3098 99.7882 57.9922 99.4739 57.6747C99.4739 57.5689 99.3691 57.5689 99.3691 57.4631C99.2643 57.2514 99.1595 57.1455 99.0547 56.9339C98.6356 56.2988 97.9022 56.0872 97.2735 56.5105C96.8544 56.6164 96.54 57.4631 96.9591 58.0981Z" fill="black"/>
<path d="M105.132 71.6455C105.236 73.8681 105.027 76.1965 104.398 78.3133C104.293 78.8425 104.084 79.3717 103.874 79.9009C103.665 80.4301 103.455 80.9593 103.455 81.4885C103.455 82.2293 103.979 82.8643 104.712 83.076C105.341 83.2877 106.075 82.8644 106.703 82.6527C108.799 81.9118 110.894 80.9593 112.885 79.795C113.933 79.2658 115.609 78.525 115.295 77.0432C115.19 76.5141 114.771 76.0907 114.562 75.6673C114.247 75.244 113.933 74.8206 113.619 74.3973C112.152 72.4922 110.58 70.6929 108.484 69.6346C107.856 69.317 107.018 69.4229 106.703 70.0579C106.389 70.6929 106.494 71.5397 107.122 71.8572C108.38 72.4922 109.428 73.3389 110.371 74.3973C110.79 74.9265 111.209 75.3498 111.628 75.879C111.837 76.1965 112.047 76.4082 112.257 76.7257C112.361 76.9374 112.466 77.0432 112.571 77.2549C112.571 77.3608 112.676 77.3608 112.676 77.4666C112.78 77.6783 112.78 77.6783 112.676 77.4666C112.78 77.1491 112.885 76.8316 113.095 76.5141C112.99 76.6199 112.571 76.8316 112.257 77.0432C111.942 77.2549 111.628 77.4666 111.209 77.6783C110.475 78.1016 109.847 78.4191 109.113 78.7367C108.484 79.0542 107.751 79.3717 107.122 79.5834C106.808 79.6892 106.494 79.795 106.075 80.0067C105.865 80.1126 105.655 80.1126 105.551 80.2184C105.446 80.2184 105.341 80.3242 105.236 80.3242C105.027 80.4301 105.027 80.4301 105.236 80.4301C105.446 80.5359 105.655 80.6417 105.865 80.7476C105.865 80.7476 105.865 80.6417 105.76 80.6417C105.865 80.8534 105.97 81.0651 106.075 81.2768C106.179 81.4885 106.075 81.5943 106.179 81.2768C106.284 81.0651 106.389 80.8534 106.389 80.6417C106.494 80.2184 106.598 79.9009 106.808 79.4775C107.018 78.6308 107.227 77.7841 107.437 76.9374C107.751 75.1382 107.856 73.3389 107.751 71.5397C107.751 70.7988 107.122 70.2696 106.494 70.2696C105.76 70.3754 105.027 71.0105 105.132 71.6455Z" fill="black"/>
<path d="M90.3575 29.9451C85.5377 33.4378 79.4605 35.237 73.488 35.237C70.5542 35.237 67.5156 34.8137 64.7913 33.5436C64.1627 33.2261 63.534 32.9086 63.0101 32.5911C62.8005 32.4852 62.4862 32.1677 62.1718 32.0619C62.0671 31.956 61.9623 31.956 61.8575 31.8502C61.9623 32.1677 61.9623 32.2736 61.8575 32.0619C61.9623 32.2736 61.8575 32.0619 61.8575 31.8502C61.8575 31.4268 61.8575 32.0619 61.8575 31.5327C61.9623 31.0035 62.1718 30.686 62.8005 30.1568C63.534 29.5218 64.1627 29.0984 65.1057 28.5692C67.2013 27.5108 69.716 26.77 72.2307 26.2408C78.8318 24.759 85.852 24.4415 92.5579 24.9707C98.6351 25.3941 105.341 26.4524 110.685 29.8393C112.885 31.2152 114.771 33.2261 115.505 35.5545C116.343 38.4122 115.505 41.4815 114.142 44.1274C113.409 45.6092 115.609 46.9851 116.448 45.5033C117.914 42.5399 118.962 39.2589 118.334 35.9779C117.914 33.2261 116.343 30.8977 114.247 29.0984C109.008 24.6532 101.674 23.1715 94.9678 22.4306C87.5285 21.5839 79.7748 21.9014 72.4402 23.3831C69.6112 23.9123 66.7821 24.759 64.1627 26.0291C62.3814 26.9816 60.3906 28.2517 59.6571 30.2626C59.238 31.4268 59.3428 32.8027 60.2858 33.5436C62.591 35.5545 65.7343 36.6129 68.773 37.1421C75.1645 38.3063 82.0799 37.0363 87.8428 34.2845C89.2049 33.6495 90.4623 32.8027 91.7196 31.956C92.977 31.2152 91.7196 28.8867 90.3575 29.9451Z" fill="black"/>
<path d="M116.342 35.4488C117.705 35.1313 119.171 35.2371 120.429 35.7663C121.477 36.1896 122.315 37.0363 122.943 38.0947C124.201 40.3173 124.306 43.175 123.572 45.6093C123.153 47.091 122.315 48.4669 121.162 49.6311C119.905 50.7953 121.791 52.7004 123.048 51.5362C125.563 49.1019 126.925 45.3976 126.716 41.9049C126.506 38.6239 125.039 35.2371 122.105 33.6495C120.114 32.5911 117.914 32.5911 115.818 33.0145C114.037 33.2262 114.666 35.7663 116.342 35.4488Z" fill="black"/>
<path d="M60.9142 117.473C45.9308 103.609 53.3701 64.1309 58.6091 43.3866L54.2083 43.0691C49.8076 42.6458 45.9308 46.3501 45.5117 51.2187L36.5006 158.962C36.2911 161.396 38.5962 162.984 40.4822 161.926C53.3701 154.834 90.6716 134.09 109.637 123.93C93.0815 126.999 72.2304 127.951 60.9142 117.473Z" fill="#F66E00"/>
<path d="M38.5948 122.448C39.4331 125.517 41.7382 127.952 44.5673 129.328C47.7106 130.809 51.4827 131.656 54.9404 131.762C58.3981 131.868 61.332 130.386 64.0562 128.375C67.1996 126.047 70.2382 123.612 73.3816 121.178C74.7437 120.12 73.3816 117.897 72.0195 118.85C69.4 120.86 66.7805 122.977 64.0562 124.988C61.7511 126.787 59.2364 128.692 56.3025 129.01C53.3687 129.328 50.0158 128.481 47.1867 127.528C44.3577 126.576 41.843 124.671 41.0048 121.707C40.6904 120.12 38.1757 120.755 38.5948 122.448Z" fill="#090000"/>
<path d="M43.4154 107.419C42.7867 107.207 42.158 107.313 41.5293 107.419C41.5293 107.419 41.5293 107.419 41.6341 107.419C43.3106 106.361 44.8823 105.196 45.8253 103.291C47.7113 99.5869 46.9779 95.565 47.1874 91.4373C47.2922 90.2731 46.3492 89.1089 45.1966 88.8972C44.987 87.9447 44.6727 87.098 44.2536 86.1454C42.158 82.1236 37.9668 80.1126 35.1378 76.7258C34.1948 75.5616 32.5183 73.2331 33.147 71.7514C33.6709 70.3755 35.3473 69.423 36.3951 68.5763C38.3859 66.8828 40.1672 64.9778 41.7389 62.861C43.101 61.3793 44.2536 59.6858 44.7775 57.5691C45.0918 56.5107 44.6727 55.664 44.044 55.029C44.044 54.9231 44.044 54.9231 44.1488 54.8173C45.1966 51.6421 46.6635 45.2918 42.3676 43.7043C38.7003 42.4342 34.9282 44.8685 31.8896 46.4561C28.5367 48.1495 24.8694 47.5144 21.5165 48.8903C17.7444 50.3721 15.8584 53.6531 14.3915 57.3574C12.6102 61.4851 11.772 65.5069 11.772 69.9522C11.772 79.0543 13.8676 88.0505 16.0679 96.8351C16.6966 99.1635 17.2205 101.492 18.2683 103.609C19.2113 105.514 20.783 107.101 22.4595 108.477C24.4503 109.959 26.7554 110.912 29.0606 111.547C28.4319 111.758 27.8032 111.97 27.2793 112.499C26.6507 113.134 26.2315 113.981 25.7076 114.722C24.9742 115.78 24.5551 116.944 24.9742 118.214C25.7076 120.649 28.851 121.072 30.9466 121.178C32.8326 121.284 34.6139 121.072 36.4999 120.966C38.4907 120.86 40.4815 121.072 42.158 119.908C44.987 117.897 48.6543 113.24 46.2444 109.642C45.6157 108.689 44.6727 107.736 43.4154 107.419Z" fill="white"/>
<path d="M45.0926 88.8973C44.883 87.9448 44.5687 87.0981 44.1496 86.1455C42.054 82.1237 37.8628 80.1127 35.0338 76.7259C34.0908 75.5617 32.4143 73.2332 33.043 71.7515C33.5669 70.3756 35.2433 69.4231 36.2911 68.5764C38.2819 66.8829 40.0632 64.9778 41.6349 62.8611C42.3683 62.0144 42.997 61.1677 43.5209 60.2151C40.7966 62.0144 38.3867 64.872 35.9768 63.8136C34.7194 63.2844 33.3573 59.1567 33.3573 59.1567C33.3573 59.1567 24.6606 66.9888 18.8977 66.9888C16.4878 66.9888 14.1827 65.7187 12.1919 64.237C11.8775 66.1421 11.668 68.0472 11.668 70.0581C11.668 79.1602 13.7636 88.1564 15.9639 96.941C16.6974 99.1636 17.2213 101.492 18.2691 103.609C19.2121 105.514 20.7838 107.101 22.4602 108.477C24.4511 109.959 26.7562 110.912 29.0614 111.547C28.4327 111.758 27.804 111.97 27.2801 112.499C26.6514 113.134 26.2323 113.981 25.7084 114.722C24.975 115.78 24.5558 116.944 24.975 118.215C25.7084 120.649 28.8518 121.072 30.9474 121.178C32.8334 121.284 34.6147 121.072 36.5007 120.966C38.4915 120.86 40.4823 121.072 42.1588 119.908C44.9878 117.897 48.6551 113.24 46.2452 109.642C45.5117 108.689 44.5687 107.737 43.4161 107.419C42.7875 107.207 42.1588 107.313 41.5301 107.419C41.5301 107.419 41.5301 107.419 41.6349 107.419C43.3113 106.361 44.883 105.196 45.8261 103.291C47.7121 99.587 46.9786 95.5651 47.1882 91.4374C47.1882 90.2732 46.2452 89.2148 45.0926 88.8973Z" fill="#C1C1C1"/>
<path d="M26.2319 76.8318C28.118 73.9741 29.8992 71.1165 31.4709 68.0472C33.0426 65.0837 34.5095 62.0144 35.5573 58.8392C37.129 53.6532 35.8717 47.0912 30.004 45.7153C27.4893 45.0803 24.6603 45.5036 22.2503 46.4562C19.6308 47.4087 16.9066 48.7846 15.0205 50.7955C12.925 53.0181 12.0867 56.0874 11.3533 59.0509C10.7246 62.0144 10.2007 65.0837 9.99114 68.153C8.94334 80.6419 11.0389 94.0834 17.2209 104.985C20.05 110.065 24.4507 113.981 30.5279 113.452C35.6621 113.028 40.4819 110.382 43.7301 106.466C47.3974 101.915 48.8643 96.0943 47.6069 90.3791C46.3496 84.7696 42.4728 79.6894 37.2338 77.2551C35.7669 76.5142 34.4047 78.8427 35.8717 79.5835C44.0444 83.4996 47.9213 94.0834 43.5205 102.233C41.425 106.149 37.7577 109.112 33.5665 110.382C31.1566 111.123 28.4323 111.335 26.0224 110.382C23.822 109.536 22.0408 107.631 20.6786 105.62C17.7448 101.28 15.8588 96.0943 14.4967 91.0141C13.0297 85.7222 12.4011 80.2186 12.2963 74.6091C12.2963 68.9997 12.925 63.3903 14.2871 57.9925C15.0205 55.2407 16.1731 52.9123 18.4783 51.3247C20.4691 49.9488 22.6694 48.9963 24.9746 48.4671C27.3845 47.9379 30.1088 47.9379 31.9948 49.843C34.0904 51.9597 33.8808 55.3466 33.1474 57.9925C32.2044 61.1677 30.7375 64.1312 29.1658 66.9888C27.5941 69.9523 25.9176 72.8099 24.0316 75.5617C23.0886 76.9376 25.2889 78.3135 26.2319 76.8318Z" fill="black"/>
<path d="M25.812 112.393C23.4021 114.51 22.3543 118.003 24.9738 120.437C26.2312 121.601 27.8029 122.025 29.4793 122.342C31.2606 122.66 33.0418 122.977 34.8231 122.977C38.176 123.083 41.6337 122.342 44.358 120.331C46.8727 118.426 48.9683 115.463 49.0731 112.182C49.2826 108.689 46.3488 105.408 42.7863 106.255C41.1098 106.678 41.8433 109.218 43.5198 108.795C44.6723 108.477 45.8249 109.43 46.244 110.488C46.7679 111.864 46.3488 113.452 45.7201 114.722C44.358 117.368 42.0529 119.167 39.2238 119.908C36.1852 120.755 32.937 120.331 29.8984 119.696C28.5363 119.379 26.8598 119.061 26.1264 117.791C25.3929 116.415 26.5455 115.039 27.5933 114.193C28.8507 113.134 27.0694 111.229 25.812 112.393Z" fill="#090000"/>
<path d="M31.1572 47.6203C33.148 45.0801 37.1296 43.5984 40.3778 43.9159C44.8833 44.2334 44.2546 50.3721 43.9403 53.4414C43.6259 57.3574 42.7877 61.0617 40.5873 64.2369C38.5965 67.0945 35.7675 69.423 32.8336 71.328C31.4715 72.2806 32.7289 74.5032 34.1958 73.6565C37.863 71.2222 41.3208 68.3646 43.6259 64.5544C46.0358 60.5325 46.6645 55.7698 46.8741 51.1129C47.0836 46.8794 45.9311 41.7992 40.9016 41.27C36.92 40.8466 31.8906 42.54 29.3759 45.7152C28.2233 47.0911 30.1094 48.9962 31.1572 47.6203Z" fill="#090000"/>
<path d="M61.3312 33.0146C60.3882 32.6971 59.3404 32.4854 58.2926 32.3796C57.3496 32.2738 56.197 32.2738 55.3588 32.6971C53.6823 33.5438 53.4727 35.9781 53.6823 37.5657C54.1014 41.1642 56.7209 44.1277 60.2834 44.7627C61.0169 44.8685 61.6455 44.551 61.8551 43.8101C62.0646 43.1751 61.6455 42.3284 60.9121 42.2226C58.5021 41.7992 56.7209 40.1058 56.3018 37.6715C56.197 37.1423 56.197 36.5073 56.3018 35.8723C56.3018 35.7664 56.4066 35.3431 56.5113 35.1314V35.0256C56.5113 35.1314 56.7209 34.9197 56.5113 35.0256C56.7209 34.9197 57.14 34.9197 57.3496 34.9197C57.7687 34.9197 58.083 34.9197 58.5021 35.0256C59.2356 35.1314 59.9691 35.3431 60.7025 35.5547C61.3312 35.7664 62.1694 35.3431 62.2742 34.6022C62.4838 33.9672 62.0646 33.2263 61.3312 33.0146Z" fill="black"/>
<g clip-path="url(#clip0_614_6873)">
<path d="M129.204 69.5914C198.784 75.5818 172.404 19.4798 148.557 43.6716C145.908 46.3212 143.949 49.662 142.797 53.2331C140.493 60.3755 129.665 69.361 130.01 69.1306C130.356 68.9002 129.204 69.5914 129.204 69.5914Z" fill="white"/>
<path d="M169.409 41.7134C168.718 46.8973 166.644 56.1133 161.46 62.1036C158.926 65.0988 156.046 67.0572 153.396 68.5548C174.938 63.8316 176.206 48.9709 169.409 41.7134Z" fill="#D8D8D8"/>
<path d="M129.205 70.8588C140.841 71.8955 153.858 71.8955 164.456 66.366C170.101 63.3708 174.824 58.302 175.17 51.6205C175.4 46.4365 172.866 41.3678 168.488 38.4878C163.65 35.2622 157.429 35.8382 152.591 38.7182C147.407 41.8286 143.605 46.8973 141.647 52.6573C139.689 58.5324 134.62 63.3708 130.127 67.4028C129.897 67.6332 129.666 67.8636 129.436 68.094C129.205 68.3244 128.86 68.4396 128.629 68.5548C127.247 69.3612 128.514 71.6651 129.897 70.7436C131.394 69.822 132.661 68.5548 133.929 67.2876C136.233 65.0988 138.421 62.6796 140.265 60.1452C141.301 58.7628 142.223 57.3805 142.914 55.8829C143.72 54.2701 144.181 52.5421 144.872 50.9293C146.255 47.8189 148.328 45.1693 150.978 42.8654C153.282 40.907 155.816 39.4094 158.812 38.9486C159.733 38.7182 161.116 38.7182 162.383 38.8334C163.074 38.9486 164.802 39.5246 165.378 39.755C165.839 39.9854 166.415 40.2158 166.876 40.5614C167.452 40.907 167.797 41.1374 168.143 41.483C168.604 41.8286 168.949 42.2894 169.41 42.635C169.871 43.0958 170.101 43.3261 170.332 43.7869C171.023 44.7085 171.599 45.8605 171.829 46.6669C172.059 47.2429 172.175 47.8189 172.29 48.3949C172.405 49.0861 172.52 49.3165 172.52 49.8925C172.751 52.3117 172.29 54.6157 171.138 56.6893C169.756 59.3388 167.682 61.4124 165.148 63.0252C156.392 68.67 144.872 69.1308 134.85 68.7852C132.892 68.67 130.933 68.5548 128.975 68.4396C127.593 68.094 127.593 70.7436 129.205 70.8588Z" fill="black"/>
</g>
<defs>
<filter id="filter0_f_614_6873" x="19.1958" y="128.533" width="148.608" height="45.9004" filterUnits="userSpaceOnUse" color-interpolation-filters="sRGB">
<feFlood flood-opacity="0" result="BackgroundImageFix"/>
<feBlend mode="normal" in="SourceGraphic" in2="BackgroundImageFix" result="shape"/>
<feGaussianBlur stdDeviation="1.5" result="effect1_foregroundBlur_614_6873"/>
</filter>
<clipPath id="clip0_614_6873">
<rect width="47.3469" height="35.1358" fill="white" transform="translate(127.937 36.2988)"/>
</clipPath>
</defs>
</svg>
