<svg width="225" height="195" viewBox="0 0 225 195" fill="none" xmlns="http://www.w3.org/2000/svg">
<g clip-path="url(#clip0_614_7369)">
<g filter="url(#filter0_f_614_7369)">
<path d="M19.4324 160.493C19.4324 167.03 64.0812 172.33 119.158 172.33C174.235 172.33 218.884 167.03 218.884 160.493C218.884 153.955 174.235 148.656 119.158 148.656C64.0812 148.656 19.4324 153.955 19.4324 160.493Z" fill="#D9D9D9"/>
</g>
<path d="M201.695 132.307C201.461 131.14 200.757 130.089 199.818 129.389C199.701 129.155 199.466 128.922 199.349 128.805C198.176 127.521 196.651 126.821 195.008 126.471C191.137 125.537 187.031 125.304 183.042 125.537C177.293 126.004 166.383 128.105 167.204 135.692C162.394 138.61 157.701 141.644 152.304 143.278C147.26 144.796 142.098 145.379 136.936 145.963C136.818 145.846 136.584 145.846 136.349 145.73C135.059 145.379 133.416 144.912 131.774 144.796C131.305 144.679 130.835 144.562 130.366 144.329C129.897 143.045 129.427 141.878 128.841 140.827C128.254 139.777 127.55 138.726 126.612 137.793C125.673 136.976 124.617 136.275 123.796 135.225C123.444 134.758 122.975 134.524 122.506 134.524C121.684 132.657 120.981 130.789 120.511 128.805C119.69 125.887 115.232 127.171 115.936 130.089C116.522 132.424 117.344 134.641 118.4 136.859C118.282 137.209 118.4 137.559 118.517 138.026C120.394 143.162 123.444 147.714 128.02 150.748C128.254 150.865 128.489 150.982 128.724 151.099C129.545 151.565 130.483 151.799 131.422 151.916C131.774 152.149 132.243 152.383 132.83 152.499C140.221 153.433 147.612 152.849 154.768 150.982C155.941 150.632 156.411 149.698 156.411 148.764C156.763 148.881 157.114 148.881 157.466 148.764C160.047 148.297 162.628 147.83 165.092 146.78C166.265 146.313 167.321 145.73 168.377 145.263C169.198 144.912 170.606 144.329 171.427 144.329C172.014 144.329 172.835 144.912 173.304 145.146C174.008 145.379 174.595 145.613 175.299 145.73C176.589 145.963 177.88 146.196 179.17 146.196C181.869 146.313 184.567 145.963 187.148 145.613C189.729 145.263 192.544 145.263 195.008 144.212C197.237 143.278 198.645 141.294 199.701 139.193C200.991 136.976 202.282 134.758 201.695 132.307Z" fill="white"/>
<path d="M158.052 79.5498L91.7671 43.1334C88.013 41.0324 83.2029 42.4331 81.0912 46.1681L34.7507 129.856C33.6948 131.723 35.1026 133.941 37.2143 133.941C51.6444 133.357 94.5828 131.49 114.292 131.023C138.225 130.439 142.683 124.954 153.007 106.979L161.454 92.1555C164.035 87.7202 162.51 82.0009 158.052 79.5498Z" fill="#FF8D52"/>
<path d="M96.578 96.7074C94.4663 95.6569 91.8853 96.0071 89.8909 97.1743C87.8965 98.3415 86.254 100.092 84.9635 102.076C84.3769 102.894 83.9076 103.711 83.673 104.644C83.0864 106.395 83.3211 108.379 84.1423 110.13C84.9635 111.764 86.254 113.165 87.7791 114.332C90.4775 116.316 93.645 117.25 96.9299 117.834C100.215 118.417 103.5 118.3 106.785 118.184C108.427 118.184 110.07 118.067 111.595 117.717C114.528 117.133 117.226 115.733 119.924 114.215C122.036 113.048 124.03 111.764 125.673 110.013C128.488 107.095 129.662 102.894 129.31 98.9251C129.192 97.7579 128.958 96.474 128.488 95.4235C127.433 92.9724 125.204 91.1049 122.505 90.4045C119.924 89.8209 116.991 90.4045 114.88 92.0386C113.589 93.0891 112.533 94.6064 111.243 95.6569C109.131 97.4077 106.315 98.2247 103.5 98.3415C102.561 98.3415 101.505 98.3415 100.567 98.108C98.807 97.5244 95.8741 96.3572 96.578 96.7074Z" fill="white"/>
<path d="M97.2831 95.4234C93.2943 93.6726 88.9536 95.19 86.0206 98.2247C82.9703 101.376 80.7413 105.578 82.3838 109.897C85.9033 118.884 97.5178 119.584 105.73 119.351C108.194 119.234 110.657 119.234 113.004 118.534C115.233 117.95 117.344 116.783 119.456 115.733C123.328 113.515 127.199 111.064 129.076 106.862C130.836 103.01 131.305 98.3414 129.546 94.3729C128.02 90.8713 124.384 88.537 120.512 88.4202C118.283 88.3035 115.937 89.1206 114.177 90.4045C112.182 91.8051 111.009 94.0228 108.78 95.19C106.786 96.3572 104.088 96.824 101.859 96.7073C100.803 96.5906 99.7468 96.2404 98.6909 95.8903C98.339 95.7736 97.987 95.6568 97.5178 95.5401C97.6351 95.5401 96.6965 95.19 97.2831 95.4234C96.8139 96.2404 96.4619 97.1742 95.9926 98.1079H96.11C97.8697 98.6915 98.6909 95.8903 96.9312 95.3067H96.8139C95.2887 94.9565 94.1156 97.2909 95.6407 97.9912C98.1044 99.0417 100.685 99.9755 103.384 99.8587C106.903 99.6253 110.305 98.5748 112.886 96.1237C114.177 94.9565 115.115 93.4392 116.641 92.6221C118.166 91.8051 119.925 91.4549 121.568 91.6884C125.322 92.3887 127.551 95.7736 127.786 99.3919C128.02 103.01 126.73 106.745 124.149 109.313C122.741 110.714 121.099 111.647 119.456 112.581C117.696 113.632 115.937 114.565 114.177 115.266C110.305 116.783 105.965 116.666 101.741 116.666C97.7524 116.55 93.6463 116.083 90.1267 114.098C86.3726 111.998 83.205 107.912 85.6687 103.71C87.5457 100.442 91.5346 96.2404 95.758 98.1079C97.5178 98.6915 99.0429 96.1237 97.2831 95.4234Z" fill="#090000"/>
<path d="M97.2834 99.2751C98.5739 101.96 99.6298 104.761 100.334 107.679C100.92 110.714 100.686 113.748 101.155 116.783C101.272 117.6 102.211 117.95 102.915 117.833C103.736 117.6 104.088 116.783 103.971 116.083C103.736 114.449 103.736 112.815 103.619 111.18C103.501 109.663 103.267 108.146 103.032 106.628C102.328 103.594 101.155 100.676 99.7471 97.7578C98.9259 96.1237 96.4622 97.5243 97.2834 99.2751Z" fill="#090000"/>
<path d="M111.598 94.1395C111.715 95.7736 112.184 97.4077 112.536 98.925C113.005 100.559 113.357 102.193 113.827 103.827C114.648 107.095 115.469 110.48 116.29 113.865C116.76 115.733 119.575 114.916 119.106 113.048C118.402 109.78 117.581 106.629 116.76 103.477C116.408 101.96 115.938 100.326 115.586 98.8083C115.235 97.291 114.648 95.7736 114.531 94.2563C114.413 92.272 111.48 92.272 111.598 94.1395Z" fill="#090000"/>
<path d="M89.8931 80.0164C89.6585 79.783 90.0104 80.1331 90.0104 80.2498C90.1277 80.3666 90.1277 80.4833 90.2451 80.6C90.3624 80.7167 90.3624 80.8334 90.4797 80.9502C90.4797 81.0669 90.7143 81.417 90.597 81.0669C90.8316 81.5338 90.949 82.1174 91.0663 82.701C91.0663 82.8177 91.1836 83.0511 91.1836 83.1678C91.1836 83.1678 91.3009 83.6347 91.1836 83.4013C91.1836 83.7514 91.3009 84.1016 91.3009 84.4517C91.3009 85.1521 91.4182 85.7357 91.4182 86.436C91.4182 87.253 92.1221 87.9533 92.8261 87.8366C93.6473 87.8366 94.3512 87.253 94.2339 86.436C94.2339 84.9186 94.1166 83.4013 93.7646 81.8839C93.4126 80.4833 92.826 79.1994 91.8875 78.0322C91.4182 77.4486 90.3624 77.4486 89.7758 78.0322C89.3065 78.6158 89.4238 79.3161 89.8931 80.0164Z" fill="#090000"/>
<path d="M107.254 75.4644C107.019 75.231 107.371 75.5811 107.371 75.6978C107.489 75.8146 107.489 75.9313 107.606 76.048C107.723 76.1647 107.723 76.2814 107.841 76.3982C107.841 76.5149 108.075 76.865 107.958 76.5149C108.192 76.9818 108.31 77.5654 108.427 78.149C108.427 78.2657 108.544 78.4991 108.544 78.6158C108.544 78.6158 108.662 79.0827 108.544 78.8493C108.544 79.1994 108.662 79.5496 108.662 79.8997C108.662 80.6001 108.779 81.1837 108.779 81.884C108.779 82.701 109.483 83.4013 110.187 83.2846C111.008 83.2846 111.712 82.701 111.595 81.884C111.595 80.3666 111.477 78.8493 111.125 77.3319C110.773 75.9313 110.187 74.6474 109.248 73.4802C108.779 72.8966 107.723 72.8966 107.137 73.4802C106.667 74.0638 106.785 74.8808 107.254 75.4644Z" fill="#090000"/>
<path d="M166.265 137.443C166.031 137.559 165.796 137.676 165.562 137.793C167.673 140.01 169.55 142.812 170.254 146.197C170.372 146.197 170.489 146.197 170.606 146.197C171.193 146.197 172.014 146.78 172.483 147.014C173.187 147.247 173.774 147.48 174.478 147.597C175.768 147.831 177.059 148.064 178.349 148.064C179.992 148.181 181.634 147.947 183.277 147.831C184.919 146.08 185.975 144.913 185.975 144.913L179.17 127.755C173.539 128.455 165.679 131.023 166.265 137.443Z" fill="#AFADAD"/>
<path d="M113.708 131.023C115.702 140.36 119.691 150.632 129.429 154.25C137.524 157.285 146.792 154.717 154.535 152.032C160.049 150.165 165.328 147.83 170.725 145.729C170.255 145.613 169.786 145.496 169.317 145.379C172.484 148.064 177.177 148.531 181.283 148.531C186.093 148.531 191.138 147.597 195.479 145.613C199.35 143.862 202.987 140.827 204.043 136.509C204.512 134.524 204.747 131.723 203.574 129.972C202.4 128.222 200.758 126.821 198.998 125.887C194.775 123.67 189.73 123.086 184.92 123.436C180.227 123.786 175.183 125.07 171.311 127.871C169.669 129.039 168.144 130.556 167.205 132.423C166.853 133.241 166.736 134.058 166.032 134.641C166.736 134.058 165.563 134.641 165.563 134.758C165.211 134.991 164.859 135.108 164.624 135.341C163.92 135.692 163.334 136.042 162.63 136.392C157.702 138.96 152.658 141.528 147.261 143.162C142.568 144.562 137.172 145.263 132.714 142.928C126.965 139.894 124.501 133.124 122.976 127.171C122.507 125.304 119.691 126.121 120.161 127.988C121.568 133.474 123.797 139.193 128.021 143.162C131.306 146.08 135.412 147.48 139.753 147.48C144.563 147.48 149.255 145.846 153.713 144.095C156.294 143.045 158.758 141.878 161.222 140.594C162.395 140.01 163.685 139.31 164.859 138.726C166.032 138.026 167.792 137.442 168.73 136.392C169.786 135.108 170.138 133.357 171.311 132.073C172.719 130.556 174.361 129.505 176.239 128.688C180.462 126.821 185.272 126.121 189.847 126.471C193.719 126.704 198.412 127.871 200.875 131.14C201.931 132.54 201.696 134.758 201.227 136.392C200.641 138.143 199.467 139.66 198.06 140.827C194.305 143.979 189.143 145.263 184.451 145.613C180.462 145.963 174.713 145.963 171.546 143.395C171.194 143.045 170.607 142.812 170.138 143.045C161.574 146.547 152.775 150.515 143.624 152.266C136.233 153.666 128.607 152.733 123.563 146.663C119.809 142.111 118.049 136.158 116.758 130.439C116.172 128.455 113.356 129.155 113.708 131.023Z" fill="#090000"/>
<path d="M221.523 156.234C221.406 155.651 221.054 155.184 220.702 154.95C220.585 154.717 220.468 154.484 220.233 154.367C214.954 149.465 207.68 148.414 200.758 148.531C199.116 148.531 197.356 148.881 195.596 148.764C195.479 148.531 195.362 148.297 195.244 148.064C194.775 147.13 194.306 146.08 193.836 145.146C192.311 141.878 191.021 138.61 189.613 135.225C188.205 131.723 186.915 128.338 185.39 124.837C183.982 121.685 182.691 118.534 180.814 115.616C179.054 112.931 176.825 110.48 173.892 109.08C170.959 107.679 167.792 107.095 164.507 106.979C160.87 106.979 157.116 107.446 153.596 108.379C150.077 109.196 146.792 110.714 144.211 113.282C142.099 115.499 145.384 118.767 147.496 116.55C147.848 116.2 148.2 115.849 148.669 115.499C149.021 115.616 149.49 115.616 149.842 115.499C157.585 113.632 166.384 114.799 170.725 122.152C172.837 125.654 174.244 129.739 175.535 133.591C176.825 137.676 177.764 141.878 178.468 146.196C177.764 146.547 177.295 147.364 177.177 148.181C176.825 150.632 176.239 153.316 177.177 155.651C177.295 155.884 177.412 156.118 177.529 156.351C177.647 156.584 177.647 156.584 177.529 156.351C177.647 156.584 177.764 156.935 177.764 157.168C177.881 157.635 177.998 158.102 178.116 158.569C178.35 159.853 178.702 161.02 179.289 162.07C179.758 162.771 180.58 163.237 181.518 163.237C183.747 166.272 186.68 169.073 190.317 170.007C191.49 170.241 192.781 170.357 193.954 170.591C195.127 170.824 196.3 171.174 197.473 171.408C200.054 171.875 202.635 171.758 205.216 171.641C209.557 171.291 214.25 170.824 218.004 168.607C219.998 167.439 222.11 165.572 222.697 163.237C223.635 160.67 222.11 158.685 221.523 156.234Z" fill="white"/>
<path d="M185.269 148.531C181.398 126.471 173.655 120.751 168.728 119.351C169.549 120.168 170.253 121.102 170.957 122.152C173.068 125.654 174.476 129.739 175.767 133.591C177.057 137.676 177.996 141.878 178.7 146.196C177.996 146.546 177.526 147.363 177.409 148.18C177.057 150.632 176.471 153.316 177.409 155.651C177.526 155.884 177.644 156.117 177.761 156.351C177.878 156.584 177.878 156.584 177.761 156.351C177.878 156.584 177.996 156.934 177.996 157.168C178.113 157.635 178.23 158.102 178.348 158.569C178.582 159.852 178.934 161.02 179.521 162.07C179.99 162.77 180.811 163.237 181.75 163.237C183.979 166.272 186.912 169.073 190.549 170.007C191.722 170.24 193.012 170.357 194.186 170.591C195.359 170.824 196.532 171.174 197.705 171.408C200.286 171.875 202.867 171.758 205.448 171.641C209.789 171.291 214.482 170.824 218.236 168.606C220.23 167.439 222.342 165.572 222.928 163.237C223.046 162.654 223.163 162.07 223.163 161.603C210.61 166.972 189.375 171.991 185.269 148.531Z" fill="#AFADAD"/>
<path d="M150.43 111.998C157.587 108.496 166.385 105.928 173.659 110.48C179.877 114.332 183.279 121.685 185.86 128.222C187.385 132.073 188.793 136.042 190.084 140.01C190.788 141.994 191.374 144.095 192.078 146.08C192.43 147.013 192.547 148.297 193.369 148.881C193.838 149.231 194.659 149.465 195.246 149.581C196.888 149.698 198.531 149.581 200.056 149.581C201.933 149.698 203.693 149.931 205.452 150.165C209.089 150.748 212.726 151.682 215.894 153.433C218.592 154.95 221.056 157.168 221.525 160.319C221.642 161.02 221.642 161.837 221.525 162.537C221.408 163.004 221.408 163.471 221.29 163.938C221.29 164.171 221.173 164.405 221.056 164.521C220.938 164.755 221.173 164.405 220.821 164.755C219.765 165.805 218.592 166.739 217.301 167.556C211.553 170.941 204.279 171.758 197.827 170.941C191.726 170.124 185.039 167.789 181.168 162.77C179.408 160.436 178.352 157.518 178.352 154.6C178.352 152.849 178.587 151.099 179.173 149.465C179.525 148.647 179.76 148.181 179.642 147.247C179.525 146.08 179.408 145.029 179.173 143.862C178.117 136.042 176.475 127.405 171.665 120.868C169.553 118.067 166.855 115.849 163.57 114.565C159.816 113.165 155.592 113.165 151.721 113.865C149.14 114.332 146.676 115.149 144.33 115.966C142.57 116.666 143.391 119.468 145.151 118.767C150.9 116.666 157.939 114.799 163.804 117.717C168.497 120.051 171.313 124.837 173.073 129.622C174.128 132.54 174.832 135.575 175.419 138.61C175.771 140.244 176.006 141.878 176.24 143.395C176.358 144.212 176.475 144.912 176.592 145.729C176.592 146.08 176.592 146.663 176.709 147.013C176.709 147.013 176.827 147.714 176.827 147.247C176.827 146.897 176.827 147.364 176.709 147.597C174.715 152.032 175.067 157.752 177.296 162.07C181.989 170.941 193.486 174.092 202.754 174.092C207.799 174.092 212.961 173.042 217.536 170.707C219.53 169.657 221.642 168.256 223.167 166.506C224.81 164.638 224.81 160.786 224.106 158.569C222.815 153.55 217.771 150.632 213.078 148.998C207.916 147.247 202.285 146.43 196.771 146.547C196.302 146.547 195.598 146.43 195.128 146.547C195.363 146.43 195.832 146.897 195.246 146.547C195.011 146.43 194.776 146.313 194.542 146.313C194.776 146.547 195.011 146.897 195.246 147.13C192.078 137.909 189.497 128.338 184.804 119.584C180.816 112.231 174.832 105.695 166.034 104.994C159.933 104.528 153.95 106.629 148.553 109.313C147.263 110.247 148.67 112.815 150.43 111.998Z" fill="#090000"/>
<path d="M161.455 92.0387C163.801 87.9535 162.628 82.8178 158.874 80.1333C153.125 91.2216 140.924 110.83 124.265 116.783C100.684 125.304 61.6171 128.689 53.4048 119.935C49.2987 115.383 49.416 107.562 50.5892 101.026L34.634 129.739C33.5781 131.607 34.9859 133.824 37.0976 133.824C51.5277 133.241 94.4661 131.373 114.175 130.906C138.108 130.323 142.566 124.837 152.89 106.862L161.455 92.0387Z" fill="#F66E00"/>
<path d="M195.008 34.1458C193.718 33.3287 192.193 32.9786 190.668 32.5117C189.025 32.0448 187.383 31.9281 185.74 32.395C185.271 29.3603 186.444 26.0921 186.796 23.0574C187.383 18.6221 185.975 14.6536 184.215 10.6852C183.394 8.93438 182.338 6.95015 180.344 6.36656C178.115 5.66624 176.472 7.41703 175.416 9.0511C174.36 10.6852 173.539 12.436 172.953 14.4202C172.483 15.9375 172.483 17.5716 172.249 19.089C172.131 19.089 172.131 19.2057 172.014 19.2057C171.545 18.1552 170.958 17.1047 170.254 16.0543C169.198 14.5369 167.908 13.253 166.5 12.0858C165.21 10.9186 163.802 9.51798 161.925 9.75142C159.93 9.98485 158.757 11.7356 158.288 13.4864C157.467 16.988 158.405 20.8398 159.226 24.3413C159.93 27.8429 160.752 31.3445 162.511 34.4959C160.986 35.3129 159.813 36.4801 158.992 37.9975C158.053 39.865 157.701 42.5495 157.819 44.6505C157.936 46.9849 159.344 48.9691 160.752 50.7199C162.159 52.4707 163.684 54.8051 165.914 55.6221C166.5 55.8556 167.087 55.8556 167.556 55.6221C168.025 58.1899 168.143 60.7578 167.204 63.2089C165.796 66.477 163.567 69.6284 161.338 72.313C158.522 75.6978 154.768 78.2657 151.131 80.7168C150.193 81.1836 149.254 81.7672 148.433 82.4676C147.612 82.2341 146.673 82.3508 145.969 83.2846C145.5 83.9849 144.914 84.6852 144.444 85.5023C142.919 87.7199 145.735 90.4045 147.847 88.6537C149.372 87.3698 151.014 86.3193 152.774 85.1521C154.182 84.4518 155.707 83.9849 157.232 83.4013C159.344 82.5843 161.455 81.5338 163.45 80.3666C167.439 78.0322 170.958 75.231 174.126 71.7294C178.467 66.9439 182.455 60.641 183.394 54.1048C183.629 54.2215 183.98 54.2215 184.332 54.1048C187.5 53.6379 190.902 52.9376 193.249 50.7199C195.36 48.619 197.003 45.701 197.824 42.8997C198.88 39.7483 198.293 36.0133 195.008 34.1458Z" fill="white"/>
<path d="M147.022 83.6347C158.402 79.6663 173.066 67.8776 168.726 54.1047C168.139 52.354 165.323 53.0543 165.91 54.9218C167.787 60.9912 164.854 66.9439 160.748 71.3792C156.759 75.6978 151.714 78.966 146.201 80.8335C144.558 81.4171 145.262 84.3351 147.022 83.6347Z" fill="#090000"/>
<path d="M164.975 48.1521C167.556 49.0859 170.372 49.436 172.953 48.2688C174.83 47.3351 176.238 45.4676 176.707 43.4833C177.176 41.149 176.473 38.8146 175.182 36.8303C174.361 35.6631 173.305 34.7294 172.132 33.7956C170.959 32.9786 169.668 32.6284 168.26 32.395C164.037 31.6947 159.696 32.8619 157.467 36.7136C155.473 40.0985 155.59 44.5338 156.763 48.2688C158.288 53.0543 161.808 57.0228 166.501 58.7736C168.26 59.4739 169.082 56.5559 167.322 55.9723C161.221 53.7546 157.467 46.0512 159.227 39.9818C160.048 37.2972 162.042 35.4297 164.858 35.1963C166.853 34.9628 169.082 35.313 170.724 36.4802C172.249 37.6474 173.422 39.2814 173.774 41.2657C174.009 42.783 173.54 44.4171 172.249 45.3509C170.372 46.7515 167.674 46.1679 165.679 45.4676C163.92 44.6505 163.216 47.4518 164.975 48.1521Z" fill="#090000"/>
<path d="M163.686 32.6283C162.395 30.1772 161.339 27.7261 160.518 25.0416C160.166 23.9911 159.814 22.9406 159.579 21.7734C159.462 21.3066 159.345 20.8397 159.227 20.3728C159.227 20.1394 159.11 19.9059 159.11 19.6725C159.11 19.5558 159.11 19.4391 159.11 19.3223C158.993 18.9722 159.11 19.4391 159.11 19.2056C158.993 18.3886 158.993 17.5715 158.993 16.6378C158.993 16.2876 158.993 15.8208 158.993 15.4706C158.993 15.3539 158.993 15.1204 158.993 15.0037C158.993 14.887 158.993 14.7703 158.993 14.7703C159.11 14.1867 159.227 13.6031 159.462 13.0195C159.462 12.9028 159.579 12.7861 159.579 12.6693C159.345 13.1362 159.579 12.6693 159.579 12.5526C159.697 12.3192 159.814 12.0857 159.931 11.8523L160.049 11.7356C160.166 11.5021 159.814 11.969 159.931 11.8523C160.049 11.7356 160.049 11.7356 160.166 11.6189C160.166 11.5021 160.518 11.152 160.635 11.152C160.635 11.152 160.283 11.3854 160.518 11.2687L160.635 11.152C160.753 11.152 160.753 11.0353 160.87 11.0353L161.105 10.9185C161.105 11.0353 160.635 11.0353 160.987 11.0353H161.105C161.222 11.0353 161.339 10.9185 161.456 10.9185C161.574 10.9185 161.926 10.8018 161.574 10.9185C161.222 10.9185 161.574 10.9185 161.691 10.9185C161.808 10.9185 161.926 10.9185 162.043 10.9185C162.16 10.9185 162.278 10.9185 162.278 10.9185C162.512 10.9185 161.926 10.8018 162.16 10.9185H162.278C162.512 10.9185 162.747 11.0353 162.982 11.152C163.099 11.152 163.216 11.2687 163.334 11.2687C163.568 11.3854 162.982 11.152 163.216 11.2687C163.216 11.2687 163.334 11.2687 163.451 11.3854C163.686 11.5021 163.92 11.6189 164.155 11.7356C164.272 11.8523 164.389 11.8523 164.507 11.969C164.624 12.0857 164.976 12.3192 164.624 11.969C164.859 12.2025 165.093 12.3192 165.328 12.5526C165.797 13.0195 166.267 13.4864 166.736 14.07C166.501 13.8365 166.97 14.3034 166.736 14.07C166.736 14.1867 166.853 14.1867 166.97 14.3034C167.088 14.4201 167.205 14.6536 167.322 14.7703C167.557 15.1204 167.792 15.4706 168.026 15.9375C168.496 16.8712 168.965 17.6883 169.434 18.622C169.434 18.7387 169.551 18.7387 169.551 18.8555C169.434 18.5053 169.669 19.0889 169.669 19.0889C169.786 19.3223 169.903 19.6725 170.021 19.9059C170.255 20.4895 170.373 21.0731 170.607 21.6567C171.428 24.2245 172.015 27.1425 172.367 29.7104C172.484 30.5274 172.954 31.111 173.775 31.111C174.479 31.111 175.3 30.4107 175.183 29.7104C174.596 24.6914 173.423 19.7892 171.077 15.2372C169.669 12.5526 167.674 9.86807 164.859 8.58416C162.63 7.53368 160.049 7.6504 158.172 9.51791C156.177 11.6189 155.708 14.887 155.943 17.6883C156.294 23.4075 158.524 29.01 161.105 34.1457C161.456 34.846 162.512 35.0794 163.099 34.6126C163.803 34.1457 164.037 33.3287 163.686 32.6283Z" fill="#090000"/>
<path d="M174.362 21.3067C174.479 18.7388 174.714 16.4045 175.183 13.9534C175.418 13.0196 175.652 12.0858 175.887 11.1521C176.004 10.8019 176.121 10.4518 176.239 10.1016C176.121 10.3351 176.356 9.75146 176.239 10.1016C176.239 9.9849 176.239 9.9849 176.356 9.86818C176.473 9.63474 176.591 9.51802 176.591 9.28458C176.708 9.05114 176.943 8.70099 177.06 8.46755C177.177 8.35083 177.177 8.23411 177.295 8.11739C177.295 8.00067 177.529 7.76723 177.295 8.11739C177.295 8.00067 177.412 8.00067 177.412 7.88395C177.647 7.65051 177.764 7.53379 177.999 7.30035C178.116 7.18363 178.116 7.18363 178.233 7.06692C177.881 7.41707 178.233 7.06692 178.35 7.06692C178.468 7.06692 178.585 6.9502 178.585 6.9502C178.82 6.83348 178.82 6.9502 178.585 6.9502C178.82 6.9502 179.054 6.83348 179.172 6.71676C178.82 6.71676 179.524 6.60004 179.172 6.71676C179.289 6.71676 179.406 6.71676 179.406 6.71676C179.524 6.71676 179.641 6.71676 179.758 6.71676C179.993 6.71676 179.641 6.83348 179.524 6.71676H179.758C179.993 6.71676 180.11 6.83348 180.345 6.83348C179.993 6.71676 180.697 6.9502 180.345 6.83348C180.462 6.83348 180.579 6.9502 180.697 6.9502C180.931 7.06692 181.049 7.18363 181.283 7.30035C181.049 7.06692 181.635 7.53379 181.283 7.30035C181.401 7.41707 181.518 7.53379 181.635 7.53379C181.87 7.76723 181.987 7.88395 182.222 8.11739C182.339 8.23411 182.339 8.35083 182.457 8.35083C182.574 8.46755 182.809 8.93442 182.574 8.46755C182.926 8.93442 183.278 9.51802 183.63 9.9849C183.747 10.2183 183.864 10.5685 184.099 10.8019C184.216 10.9187 184.216 11.1521 184.334 11.2688C184.334 11.3855 184.451 11.3855 184.451 11.5022C184.334 11.1521 184.568 11.7357 184.451 11.5022C184.686 12.2026 184.92 12.9029 185.155 13.6032C185.39 14.4202 185.507 15.1205 185.741 15.9376C185.741 16.171 185.859 16.2877 185.859 16.5212C185.859 16.6379 185.859 16.7546 185.859 16.8713C185.741 16.5212 185.859 16.8713 185.859 16.9881C185.859 17.4549 185.976 17.8051 185.976 18.272C186.093 19.2057 186.093 20.1395 185.976 21.19C185.976 21.6568 185.859 22.2404 185.859 22.7073C185.859 22.824 185.859 22.9407 185.859 23.0575C185.859 23.1742 185.741 23.6411 185.859 23.2909C185.859 23.5243 185.741 23.7578 185.741 23.9912C185.507 25.0417 185.272 26.0922 185.038 27.0259C184.92 27.4928 184.686 28.0764 184.568 28.5433C184.334 29.2436 184.216 29.3603 183.982 29.9439C183.63 30.6442 183.747 31.4613 184.451 31.9281C185.038 32.2783 186.093 32.1616 186.445 31.4613C189.613 24.5748 190.082 16.0543 186.563 9.16786C185.39 6.9502 183.63 4.61581 181.166 3.79877C178.585 2.98174 176.239 4.38237 174.831 6.48332C173.775 8.11739 173.071 10.1016 172.602 11.9691C171.898 14.8871 171.663 17.9218 171.429 20.9565C171.429 21.7735 172.133 22.3571 172.837 22.3571C173.658 22.7073 174.244 22.1237 174.362 21.3067Z" fill="#090000"/>
<path d="M184.331 54.3382C187.499 53.8713 190.901 53.171 193.247 50.9533C195.359 48.8524 197.001 45.9344 197.823 43.1331C198.761 39.865 198.175 36.13 195.007 34.2625C193.717 33.5622 192.309 33.0953 190.901 32.7451C191.957 35.0795 193.247 38.2309 193.365 39.865C193.482 42.8997 192.309 46.518 189.493 48.5022C186.56 50.4865 181.985 50.253 179.169 52.2372C176.353 54.2215 176.002 68.4612 166.381 76.048C158.638 82.3508 147.963 85.3855 144.326 86.3193C143.622 88.3035 146.085 90.4045 147.963 88.8871C149.488 87.6032 151.13 86.5527 152.89 85.3855C154.298 84.6852 155.823 84.2183 157.348 83.6347C159.46 82.8177 161.571 81.7672 163.566 80.6C167.555 78.2657 171.074 75.4644 174.242 71.9628C178.583 67.1773 182.571 60.8745 183.51 54.3382C183.745 54.3382 184.096 54.3382 184.331 54.3382Z" fill="#AFADAD"/>
<path d="M145.498 90.7548C154.884 87.3699 164.152 83.4014 171.895 76.8652C178.816 71.0292 184.096 63.0923 185.621 54.1049C185.973 52.2374 183.04 51.4203 182.805 53.2879C179.755 72.1964 161.219 82.0008 144.794 87.8368C142.917 88.5371 143.621 91.3383 145.498 90.7548Z" fill="#090000"/>
<path d="M189.139 41.6158C187.497 42.8998 185.502 43.7168 183.742 43.0165C182.452 42.5496 181.396 41.2657 180.927 39.8651C180.457 38.3477 180.575 36.7136 181.631 35.313C182.921 33.6789 185.268 33.0953 187.379 32.8619C189.256 32.6285 191.485 32.6285 193.128 33.3288C194.536 34.0291 195.474 34.8461 196.178 36.3635C196.765 37.5307 196.882 39.048 196.765 40.6821C196.647 42.1994 195.943 43.9502 195.24 45.4676C193.01 49.436 188.904 52.0039 184.329 52.4707C182.452 52.5875 182.452 55.5054 184.329 55.3887C189.608 54.9219 194.301 52.2373 197.234 47.802C199.58 44.1837 200.636 39.3982 198.876 35.313C196.882 30.8777 191.955 29.477 187.379 30.0606C184.564 30.4108 181.396 31.1111 179.519 33.4455C177.994 35.313 177.407 37.7641 177.876 40.0985C178.346 42.6663 180.106 44.884 182.569 45.8177C185.619 46.9849 188.787 45.701 191.133 43.8335C192.659 42.5496 190.547 40.5654 189.139 41.6158Z" fill="#090000"/>
<path d="M59.5066 134.175C59.7412 133.474 59.6239 132.774 59.272 132.307C58.92 131.84 58.4508 131.373 57.8642 131.257C55.4005 130.79 52.9368 131.023 50.5905 131.723C50.2385 131.84 49.8865 132.074 49.6519 132.307C49.0653 132.54 48.596 133.124 48.3614 133.824C47.3055 136.392 46.719 139.077 45.7804 141.761C44.9592 144.329 43.4341 146.897 41.7916 148.998C40.5011 150.749 38.7413 152.499 36.5123 153.083C35.1045 153.55 31.585 154.017 30.7637 152.149C30.2945 151.099 30.7637 149.698 30.9984 148.648C31.233 147.247 31.585 145.846 31.8196 144.563C32.4062 141.878 32.9928 139.193 34.0486 136.626C35.1045 133.941 35.5738 131.49 35.2218 128.572C34.9872 126.238 34.6352 123.786 32.7581 122.152C32.2889 121.686 31.7023 121.569 31.1157 121.452H30.9984C29.5906 120.285 27.8308 118.884 27.1269 117.133C26.3057 115.149 27.4788 113.165 28.5347 111.414C30.4118 108.263 34.0486 102.66 29.3559 99.9757C27.5961 98.9253 25.2498 99.042 23.2554 98.6918C23.0208 98.6918 22.6688 98.5751 22.4342 98.4584C22.5515 98.4584 22.1995 98.1082 22.1995 97.8748C21.8476 96.941 21.4956 96.124 20.909 95.307C19.2666 93.4395 16.6856 94.2565 14.4565 94.4899C13.0487 94.7234 11.7582 94.8401 10.3504 95.0735C9.99846 94.7234 9.64651 94.3732 9.17724 94.2565C7.88674 93.9063 6.71356 94.7234 6.24429 95.8906C6.24429 96.0073 6.12697 96.2407 6.12697 96.3574C5.6577 96.4742 5.18843 96.8243 4.83648 97.2912C3.78062 98.8085 2.84207 100.443 2.3728 102.193C1.90353 104.178 2.02085 106.279 2.02085 108.263C2.02085 112.115 2.02085 115.966 2.84207 119.701C3.6633 123.436 5.6577 126.004 8.47333 128.339C9.88115 129.506 11.289 130.673 13.0487 131.373C14.4565 131.957 15.8644 132.074 17.2722 132.307C18.2107 134.758 18.2107 137.209 18.328 139.777C18.5627 142.345 18.7973 144.796 19.2666 147.364C20.0878 152.266 21.6129 157.285 24.3112 161.604C24.8978 162.537 25.6017 163.588 26.423 164.288C27.4788 165.222 28.8866 165.455 30.2945 165.572C32.8755 165.805 35.5738 165.922 38.1548 165.222C43.3167 163.938 46.6016 160.086 49.5346 155.884C50.0039 155.301 50.3558 154.717 50.7078 154.017C51.4117 153.783 52.1156 153.316 52.2329 152.383C52.3502 151.682 52.4675 150.982 52.7022 150.282C54.11 147.481 55.1659 144.563 56.2217 141.528C56.5737 140.711 56.9256 140.01 57.1603 139.077C57.1603 138.843 57.2776 138.61 57.2776 138.493C57.8642 137.559 58.4508 136.626 59.0373 135.692C59.7412 135.458 59.7412 134.758 59.5066 134.175Z" fill="white"/>
<path d="M48.0103 131.957C46.8371 136.509 45.1947 140.944 42.731 144.912C40.502 148.414 37.2171 152.266 32.6417 151.916C33.1109 152.266 33.5802 152.616 34.0495 152.966C32.759 147.597 34.988 141.761 36.1612 136.625C37.3344 131.606 38.5076 125.654 35.1053 121.218C32.8763 118.3 29.2395 116.783 25.7199 115.966C25.9546 116.783 26.1892 117.6 26.4238 118.417C29.2395 114.916 32.0551 110.947 32.9936 106.512C33.5802 103.944 33.4629 101.026 31.4685 99.1584C27.3624 94.9565 21.2618 98.8083 18.4462 102.543C15.6306 106.278 14.692 111.064 14.5747 115.616C14.4574 117.483 17.3903 117.483 17.5077 115.616C17.7423 110.247 19.3847 103.127 24.8987 100.792C26.4238 100.092 27.949 100.092 29.1221 100.909C29.4741 101.143 29.9434 101.726 30.0607 102.31C30.2953 103.244 30.4126 104.177 30.178 105.111C29.5914 109.313 26.7758 113.048 24.1948 116.316C23.4909 117.133 23.7255 118.534 24.8987 118.767C27.7143 119.468 30.7646 120.401 32.6417 122.852C34.0495 124.603 34.4014 126.821 34.2841 129.039C34.1668 134.408 32.0551 139.66 31.1165 144.912C30.6473 147.83 30.4126 150.748 31.1165 153.666C31.2339 154.367 31.9378 154.717 32.5244 154.717C37.8037 155.067 41.9098 151.215 44.6081 147.13C47.541 142.811 49.5354 137.676 50.8259 132.657C51.2952 130.906 48.4796 130.206 48.0103 131.957Z" fill="#090000"/>
<path d="M8.82173 108.613C8.82173 108.496 8.82173 108.379 8.70441 108.263C8.70441 108.029 8.70441 107.912 8.70441 107.679C8.70441 107.446 8.70441 107.212 8.70441 107.095C8.70441 106.979 8.70441 106.979 8.70441 106.862C8.70441 106.512 8.70441 107.095 8.70441 106.745C8.82173 105.812 9.17368 104.878 9.40832 104.061C9.99491 102.543 11.2854 100.442 12.3413 99.1585C12.9279 98.3415 13.6318 97.6412 14.453 96.9409C15.1569 96.2405 15.6262 95.8904 16.4474 95.4235C16.7993 95.1901 17.1513 95.0733 17.5033 94.8399C17.1513 94.9566 17.7379 94.7232 17.5033 94.8399C17.6206 94.8399 17.6206 94.8399 17.7379 94.7232C17.9725 94.6065 18.2072 94.6065 18.3245 94.4897C18.4418 94.4897 18.4418 94.4897 18.5591 94.4897C18.2072 94.4897 18.9111 94.373 18.5591 94.4897C18.6764 94.4897 18.9111 94.4897 19.0284 94.4897C19.1457 94.4897 19.4977 94.6065 19.1457 94.4897C19.3803 94.4897 19.4977 94.6065 19.7323 94.6065C19.9669 94.7232 19.7323 94.6065 19.615 94.6065C19.7323 94.6065 19.8496 94.7232 19.9669 94.7232C20.0842 94.7232 20.0842 94.8399 20.2016 94.8399C20.3189 94.9566 20.5535 95.3068 20.5535 95.1901C20.4362 95.0733 20.7882 95.5402 20.7882 95.6569C21.1401 96.1238 21.1401 96.2405 21.2574 96.8241C21.4921 97.4077 21.6094 98.108 21.6094 98.6916C21.7267 99.5087 22.196 100.092 23.0172 100.092C23.7211 100.092 24.5423 99.392 24.425 98.6916C24.1904 96.3573 23.4865 93.6727 21.4921 92.2721C19.8496 91.1049 17.7379 91.3383 15.9781 92.1554C13.9837 92.9724 12.3413 94.4897 10.8161 96.0071C9.17368 97.7579 7.76587 99.8588 6.82733 101.96C5.77146 104.294 5.06756 106.745 5.53683 109.313C6.35805 111.181 9.17368 110.364 8.82173 108.613Z" fill="#090000"/>
<path d="M57.8639 139.543C57.8639 139.31 57.9812 139.076 57.9812 138.96C58.5678 138.026 59.1544 137.092 59.741 136.158C60.2102 135.458 60.2102 134.875 59.9756 134.291V134.174C60.0929 133.591 60.0929 132.89 59.741 132.423C59.389 131.957 58.9197 131.49 58.3332 131.373C57.7466 131.256 57.16 131.14 56.5734 131.14C53.8751 140.594 41.4394 166.272 30.4115 159.619C18.797 152.499 25.8361 134.408 22.9032 129.039C19.9702 123.669 7.88647 121.335 2.8418 116.316C2.95911 117.483 3.07643 118.767 3.42839 119.934C4.24961 123.669 6.24402 126.237 9.05965 128.572C10.4675 129.739 11.8753 130.906 13.635 131.606C15.0429 132.19 16.4507 132.307 17.8585 132.54C18.797 134.991 18.797 137.442 18.9143 140.01C19.149 142.578 19.3836 145.029 19.8529 147.597C20.6741 152.499 22.1993 157.518 24.8976 161.837C25.4842 162.77 26.1881 163.821 27.0093 164.521C28.0651 165.455 29.473 165.688 30.8808 165.805C33.4618 166.039 36.1601 166.155 38.7411 165.455C43.9031 164.171 47.188 160.319 50.1209 156.117C50.5902 155.534 50.9421 154.95 51.2941 154.25C51.998 154.016 52.7019 153.55 52.8192 152.616C52.9365 151.916 53.0539 151.215 53.2885 150.515C54.6963 147.714 55.7522 144.796 56.808 141.761C57.2773 141.177 57.6293 140.36 57.8639 139.543Z" fill="#AFADAD"/>
<path d="M12.9284 94.84C11.8726 92.5056 9.64351 91.105 7.17983 92.5056C4.59884 94.023 3.19103 97.1744 2.25248 99.7422C-0.680464 107.562 -0.915099 117.25 3.30834 124.72C6.24129 129.856 11.1686 133.357 16.7999 135.108C16.4479 134.641 16.096 134.174 15.744 133.708C16.096 141.528 17.0345 149.581 20.0848 156.818C21.8446 161.137 24.6602 165.455 29.1183 167.323C38.3864 171.408 47.1852 162.654 51.8779 155.651C56.336 148.881 59.1517 141.178 61.0287 133.357C61.498 131.49 58.6824 130.79 58.2131 132.54C56.5707 139.077 54.3416 145.613 50.9394 151.449C48.4757 155.767 45.3082 159.969 41.202 162.771C38.3864 164.755 34.8669 165.922 31.582 164.988C27.8278 163.938 25.2468 160.436 23.487 157.051C19.9675 149.932 19.0289 141.411 18.7943 133.591C18.7943 132.89 18.325 132.424 17.7384 132.19C13.3977 130.79 9.52619 128.338 6.9452 124.603C4.83348 121.452 3.6603 117.6 3.42566 113.865C3.19103 110.13 3.54298 106.395 4.59884 102.894C5.30275 100.443 6.47593 97.5245 8.00106 95.7737C8.35301 95.1901 8.35301 95.1901 8.82229 94.9567C9.17424 94.7233 8.9396 94.84 9.40888 94.84C9.05692 94.84 9.52619 94.9567 9.40888 94.84C9.76083 95.0734 9.40888 94.7233 9.64351 95.0734C9.99547 95.4236 9.76083 95.0734 9.99546 95.5403C10.1128 95.7737 10.3474 96.1239 10.4647 96.4741C11.1686 97.9914 13.6323 96.5908 12.9284 94.84Z" fill="#090000"/>
</g>
<defs>
<filter id="filter0_f_614_7369" x="16.4324" y="145.656" width="205.452" height="29.6743" filterUnits="userSpaceOnUse" color-interpolation-filters="sRGB">
<feFlood flood-opacity="0" result="BackgroundImageFix"/>
<feBlend mode="normal" in="SourceGraphic" in2="BackgroundImageFix" result="shape"/>
<feGaussianBlur stdDeviation="1.5" result="effect1_foregroundBlur_614_7369"/>
</filter>
<clipPath id="clip0_614_7369">
<rect width="224" height="195" fill="white" transform="translate(0.5 -0.000244141)"/>
</clipPath>
</defs>
</svg>
