<svg width="201" height="195" viewBox="0 0 201 195" fill="none" xmlns="http://www.w3.org/2000/svg">
<g clip-path="url(#clip0_614_7083)">
<g filter="url(#filter0_f_614_7083)">
<path d="M19.6943 161.74C19.6943 168.052 58.0942 173.169 105.463 173.169C152.832 173.169 191.231 168.052 191.231 161.74C191.231 155.428 152.832 150.311 105.463 150.311C58.0942 150.311 19.6943 155.428 19.6943 161.74Z" fill="#D9D9D9"/>
</g>
<path d="M101.23 150.451C100.609 147.447 97.6086 146.145 94.815 145.143C93.1595 144.543 91.4006 143.741 89.6417 143.341C88.9174 143.141 88.1931 143.241 87.4689 143.241C89.3313 138.734 90.9867 134.228 91.5041 129.421C91.8145 127.218 92.5387 123.513 89.8486 122.211C87.262 121.009 83.7441 122.512 81.7782 124.014C81.054 124.614 80.9505 125.315 81.2609 126.016C81.1574 126.217 81.1574 126.317 81.1574 126.517C81.054 127.919 81.4678 129.221 81.7782 130.523C82.0886 131.925 81.8817 133.026 81.5713 134.428C80.8471 137.132 80.4332 140.036 78.5708 142.239C76.9153 144.242 74.7425 146.145 72.5698 147.647C71.6386 148.348 70.397 148.749 69.4658 149.55C68.3276 150.551 67.9138 152.253 68.845 153.555C69.6727 154.657 71.0178 154.757 72.3628 154.857C74.1218 154.957 75.8807 155.158 77.6396 155.358C80.847 155.658 84.158 156.059 87.3654 156.159C91.8145 156.56 102.575 157.16 101.23 150.451Z" fill="white"/>
<path d="M101.23 150.451C101.023 149.149 100.299 148.148 99.4712 147.346C99.3678 147.647 99.3678 147.947 99.3678 148.348C98.9539 155.157 86.6414 151.052 76.8122 150.952C73.0874 150.952 71.7423 149.75 71.6389 148.248C70.9146 148.648 70.1903 149.049 69.5695 149.65C68.4314 150.751 68.0175 152.554 68.9487 153.856C69.7765 155.057 71.1215 155.157 72.4666 155.258C74.2255 155.358 75.9844 155.558 77.7434 155.758C80.9508 156.059 84.2617 156.459 87.4692 156.66C91.8148 156.96 102.575 157.561 101.23 150.451Z" fill="#C1C1C1"/>
<path d="M80.3286 125.415C81.6737 131.224 80.846 136.832 76.5004 141.338C73.7068 144.142 69.5682 146.245 67.7058 149.75C66.4642 152.053 66.6711 154.557 69.3612 155.858C71.2236 156.76 73.3964 156.66 75.4657 156.76C78.1559 156.86 80.7425 157.16 83.3292 157.461C86.0193 157.761 88.7094 158.062 91.503 158.162C93.9862 158.262 96.6763 158.262 99.1595 157.761C100.711 157.361 102.263 155.558 102.884 154.156C103.609 152.854 103.815 151.452 103.609 150.05C102.988 146.946 100.091 144.542 97.2971 143.241C94.0896 141.739 90.2614 141.038 86.7435 142.039C87.1574 142.74 87.5713 143.441 87.9851 144.142C93.8827 138.033 94.2966 128.82 92.5376 121.009C92.2272 119.407 89.6406 120.108 90.0545 121.71C91.6065 128.52 91.3995 136.932 86.2262 142.339C85.3985 143.241 86.2262 144.843 87.4678 144.442C90.0545 143.641 92.9515 144.142 95.4347 145.143C97.6075 146.045 100.194 147.647 100.918 150.05C101.229 151.052 101.125 152.153 100.505 153.054C100.194 153.655 99.6768 154.156 99.1595 154.657C98.2283 155.558 96.9867 155.458 95.7451 155.558C90.9857 155.858 86.1227 155.258 81.3633 154.757C78.9836 154.557 76.6039 154.256 74.2241 154.256C72.7756 154.256 70.189 154.256 69.4647 152.754C69.5682 153.054 69.4647 152.854 69.4647 152.554C69.4647 152.454 69.4647 152.153 69.4647 152.253C69.4647 151.953 69.6716 151.552 69.6716 151.352C69.8786 150.851 70.3959 150.15 70.7063 149.75C73.293 146.846 76.8108 144.943 79.294 141.939C83.5361 137.032 84.1569 130.923 82.7084 124.815C82.5014 123.112 79.9148 123.813 80.3286 125.415Z" fill="black"/>
<path d="M141.582 144.542C139.099 143.441 136.202 142.74 133.408 142.239C131.236 141.738 128.959 141.438 126.787 141.238C126.89 138.434 126.89 135.73 126.787 132.926C126.89 130.523 126.787 128.119 125.959 125.716C125.855 125.516 125.855 125.415 125.752 125.215C125.752 124.714 125.649 124.314 125.649 123.813C125.338 121.51 124.407 119.307 122.441 117.905C120.372 116.403 117.785 116.703 115.405 117.004C114.267 117.204 113.646 118.506 113.957 119.507C114.164 120.108 114.578 120.509 114.992 120.709C114.888 121.009 114.992 121.31 114.992 121.61C116.337 128.92 114.785 136.731 110.749 143.04C109.094 144.242 107.852 145.944 107.232 147.847C107.025 148.548 107.232 149.149 107.645 149.65C107.645 149.75 107.542 149.75 107.542 149.85C106.921 152.253 109.094 153.956 111.163 154.957C115.612 156.96 121.199 156.559 125.959 156.359C128.649 156.259 131.236 156.159 133.926 155.858C136.306 155.658 138.685 155.358 140.858 154.256C144.79 152.554 146.238 146.645 141.582 144.542Z" fill="white"/>
<path d="M143.55 148.648C143.239 146.946 142.515 145.544 141.584 144.442C141.48 144.843 141.48 145.244 141.48 145.844C140.963 154.957 126.995 149.449 115.717 149.349C111.372 149.349 109.923 147.647 109.82 145.644C108.992 146.245 108.061 146.746 107.44 147.447C106.095 148.949 105.681 151.352 106.716 153.155C107.647 154.757 109.199 154.957 110.751 155.057C112.717 155.258 114.786 155.458 116.752 155.658C120.477 156.159 124.201 156.66 127.926 156.86C132.789 157.361 144.998 158.162 143.55 148.648Z" fill="#C1C1C1"/>
<path d="M113.13 119.607C114.889 123.513 115.613 127.719 114.578 131.925C113.854 135.129 112.199 138.134 110.233 140.837C107.957 144.142 102.473 149.65 106.405 153.655C108.37 155.758 111.785 156.76 114.578 157.361C117.682 158.062 120.89 158.262 124.097 158.462C127.926 158.562 131.857 158.462 135.582 157.861C138.479 157.361 141.79 156.66 143.963 154.657C146.446 152.454 146.136 149.249 144.377 146.646C143.756 145.644 142.928 144.543 141.893 143.942C140.341 143.04 138.583 142.54 136.927 142.239C133.099 141.438 129.167 141.638 125.235 140.837C125.546 141.338 125.856 141.839 126.167 142.339C129.788 133.928 129.167 123.913 123.166 116.703C122.131 115.401 120.269 117.204 121.304 118.506C126.787 125.015 126.891 134.128 123.683 141.638C123.476 142.239 123.994 143.04 124.615 143.141C127.719 143.741 130.926 143.842 134.133 144.242C136.824 144.543 140.135 145.043 141.79 147.347C142.514 148.348 143.238 149.55 143.238 150.651C143.238 151.452 142.928 152.053 142.307 152.654C140.548 154.356 137.341 155.057 134.858 155.458C131.443 156.059 127.822 156.159 124.408 156.059C121.407 155.959 118.407 155.758 115.51 155.158C113.026 154.657 110.129 153.756 108.267 152.153C107.957 151.853 107.853 151.753 107.646 151.352C107.543 151.252 107.543 150.952 107.543 150.551C107.543 149.95 107.853 149.049 108.267 148.348C109.509 146.045 111.267 144.042 112.716 141.939C114.785 138.935 116.441 135.63 117.165 132.025C118.096 127.418 117.165 122.812 115.199 118.506C114.682 116.904 112.406 118.105 113.13 119.607Z" fill="black"/>
<path d="M198.488 102.783C197.35 96.9752 193.315 92.3687 188.97 88.4632C188.763 88.2629 188.452 88.0626 188.245 87.9625C188.038 87.5619 187.831 87.2615 187.418 86.8609C181.934 82.4547 172.622 82.8553 166.31 85.6592C166 85.5591 165.586 85.5591 165.172 85.6592C154.412 87.5619 147.79 100.28 148.825 109.994C149.342 115.501 152.239 120.508 155.447 125.015C158.551 129.321 162.275 131.123 167.656 131.624C178.519 132.726 192.487 131.224 196.523 119.607C198.282 114.6 199.627 108.091 198.488 102.783ZM187.211 113.499C186.279 117.805 182.451 119.307 178.519 120.508C177.485 120.809 176.864 121.41 176.554 122.211C171.38 122.611 165.793 121.209 162.793 117.905C157.723 112.297 159.171 97.6762 167.345 95.1726C167.862 94.9724 168.38 94.7721 168.69 94.3715C176.14 92.4688 182.658 94.6719 186.797 101.582C186.797 101.582 186.797 101.682 186.9 101.682C186.797 101.982 186.797 102.283 186.9 102.683C187.418 106.088 187.935 110.094 187.211 113.499Z" fill="#C1C1C1"/>
<path d="M136.513 85.9599C136.409 84.8584 136.306 83.7568 136.099 82.7554C135.168 78.7498 132.788 75.3449 131.132 71.6397C130.822 70.9387 129.891 70.5382 129.063 70.6383C125.959 66.8329 121.717 63.9288 116.854 63.6284C116.647 63.6284 116.544 63.6284 116.337 63.6284C115.716 63.6284 115.095 63.6284 114.474 63.7286C113.336 63.8287 112.716 65.2307 113.026 66.2321C113.336 67.2335 114.164 67.6341 114.992 67.6341C116.44 70.3379 117.475 73.3421 118.613 76.2462C119.855 79.651 120.889 83.0558 121.717 86.5608C123.373 93.8711 123.373 100.981 122.959 108.492C122.855 110.695 125.752 110.995 126.787 109.493C129.27 106.188 131.753 102.884 134.133 99.5791C136.409 96.3746 136.927 92.0685 137.858 88.3633C138.168 87.1616 137.444 86.2604 136.513 85.9599Z" fill="#898989"/>
<path d="M141.583 85.3589C141.583 85.2587 141.583 85.2587 141.583 85.1586C141.583 83.0556 141.376 81.0528 140.962 79.05C140.859 78.5493 140.549 78.1487 140.135 77.9484C139.824 76.947 139.41 75.8455 138.79 74.9442C138.169 73.9428 137.238 73.0415 136.41 72.1402C136.1 71.7397 135.582 71.6395 135.065 71.5394C134.444 71.0387 133.823 70.6381 133.099 70.1374C132.996 70.0373 132.789 70.0373 132.685 70.0373C131.961 69.2361 131.237 68.5351 130.512 67.734C130.098 67.3335 129.374 67.3335 129.064 67.734C128.65 68.1346 128.65 68.7354 129.064 69.136C129.788 69.9371 130.512 70.7383 131.237 71.5394C131.754 72.1402 132.271 72.6409 132.892 73.1416C132.685 73.8426 132.892 74.5436 133.409 75.0443C134.134 75.8455 134.754 76.4463 135.272 77.2474C135.375 77.4477 135.582 77.7482 135.686 77.9484C135.686 77.9484 135.789 78.1487 135.789 78.2489C135.996 78.6494 136.1 79.1501 136.203 79.6508C136.72 81.6537 137.031 83.7566 137.445 85.8596C137.445 85.9597 137.548 86.16 137.548 86.2602V86.3603C137.548 87.0613 137.548 87.6621 137.548 88.3631C137.548 88.964 137.548 89.4647 137.445 90.0655C137.445 90.1657 137.445 90.1657 137.445 90.2658C137.341 90.7665 137.341 91.3674 137.652 91.7679C137.652 91.7679 137.652 91.8681 137.755 91.8681C137.755 91.9682 137.652 92.0684 137.652 92.2686C137.548 92.6692 137.445 92.9696 137.341 93.3702C137.134 93.971 137.031 94.4717 136.824 95.0726V95.1727C136.617 95.5733 136.513 95.9739 136.617 96.3744C136.617 96.4746 136.72 96.6749 136.824 96.775C135.996 98.0768 135.272 99.4788 134.651 100.881C134.651 100.881 134.651 100.981 134.548 100.981C134.341 101.482 135.272 101.882 135.479 101.381C135.582 101.181 135.686 101.081 135.686 100.881C135.789 100.681 135.996 100.48 136.203 100.28C136.41 100.18 136.513 99.9795 136.617 99.7792C136.824 99.8794 137.134 99.7792 137.341 99.579C137.962 98.7778 138.479 97.9767 138.893 97.0754C139.1 96.9753 139.307 96.775 139.41 96.5747C139.721 95.8737 140.031 95.2729 140.238 94.4717C140.445 93.8709 140.549 93.3702 140.755 92.7693C140.755 92.7693 140.755 92.6692 140.859 92.6692C140.962 92.4689 141.066 92.2686 141.066 92.0684C141.273 91.8681 141.48 91.5676 141.583 91.2672C141.79 90.3659 141.79 89.4647 141.79 88.5634C141.79 87.7623 141.79 87.0613 141.79 86.2602C141.79 85.8596 141.687 85.5592 141.583 85.3589Z" fill="#C1C1C1"/>
<path d="M117.889 63.2278C129.064 66.4323 136.927 75.7455 137.651 86.4606C138.582 100.681 126.373 109.193 125.753 109.593" stroke="black" stroke-width="2.38681" stroke-miterlimit="10" stroke-linecap="round"/>
<path d="M128.442 66.9326C136.409 70.4376 142.72 77.2472 142.41 86.36C141.892 98.4771 132.167 104.786 131.649 105.086" stroke="black" stroke-width="1.89629" stroke-miterlimit="10" stroke-linecap="round"/>
<path d="M141.17 90.2656L94.5064 43.2993C91.8163 40.5955 87.4707 40.4954 84.6771 43.099L23.1148 100.38C21.7697 101.682 22.3905 103.885 24.1494 104.386C36.5654 107.59 73.5028 117.003 90.4712 121.71C110.958 127.318 116.234 124.013 129.788 111.696L140.963 101.582C144.17 98.5773 144.377 93.4701 141.17 90.2656Z" fill="#FF8D52"/>
<path d="M38.4261 118.305C51.5689 118.305 62.2233 106.604 62.2233 92.1686C62.2233 77.7336 51.5689 66.0317 38.4261 66.0317C25.2833 66.0317 14.6289 77.7336 14.6289 92.1686C14.6289 106.604 25.2833 118.305 38.4261 118.305Z" fill="#898989" stroke="black" stroke-width="2.39159" stroke-miterlimit="10"/>
<path d="M17.2158 149.449C16.2846 147.947 14.5257 147.647 12.9737 148.348C10.0767 149.65 7.17961 150.651 4.07562 151.552C0.247377 152.654 1.90283 158.462 5.73108 157.361C9.24893 156.359 12.6633 155.057 16.0777 153.555C17.6297 152.854 17.9401 150.751 17.2158 149.449Z" fill="white"/>
<path d="M50.842 136.932C50.5316 135.93 49.3935 135.129 48.2554 135.53C45.5653 136.431 42.8751 137.532 40.2885 138.934C39.3573 139.435 38.9434 140.737 39.5642 141.638C40.185 142.54 41.4266 142.94 42.3578 142.339C43.4959 141.738 44.7375 141.138 45.9791 140.637C46.0826 140.537 46.2895 140.537 46.393 140.437C46.393 140.437 46.393 140.437 46.4965 140.437C46.8069 140.336 47.1173 140.236 47.4277 140.036C48.0484 139.836 48.6692 139.535 49.3935 139.335C50.4282 139.035 51.2559 138.033 50.842 136.932Z" fill="white"/>
<path d="M61.9152 141.839C61.7083 141.338 61.3979 140.937 60.984 140.637C60.6736 140.537 60.4667 140.337 60.1563 140.136C60.0528 140.036 59.9493 139.936 59.8459 139.936C59.6389 139.736 59.3285 139.535 59.0181 139.435C58.7077 138.734 58.3974 138.133 57.9835 137.533C57.7766 137.232 57.6731 136.932 57.4662 136.631C57.4662 136.531 57.3627 136.431 57.3627 136.331C57.2592 136.131 57.2592 136.03 57.1558 135.83C56.8454 135.029 56.6384 134.228 56.2246 133.527C56.1211 133.327 55.9142 133.126 55.8107 132.926C55.8107 132.926 55.8107 132.826 55.9142 132.826C56.0176 132.526 56.1211 132.125 56.1211 131.825C56.2246 131.224 56.328 130.623 56.0176 130.022C55.6038 129.021 54.6726 128.62 53.6379 128.52C52.8102 128.42 51.879 128.32 51.0513 128.32C50.0166 128.32 48.9819 129.221 48.9819 130.322C48.9819 131.424 49.9131 132.325 51.0513 132.325C51.1547 132.325 51.1547 132.325 51.2582 132.325C51.2582 132.626 51.2582 132.826 51.2582 133.126C51.3617 133.727 51.6721 134.228 52.0859 134.729C51.5686 135.229 51.3617 135.93 51.5686 136.631C52.2928 138.234 53.5344 139.535 54.6726 140.837C54.6726 140.937 54.5691 141.038 54.5691 141.138C54.4656 141.638 54.4656 142.239 54.776 142.64C55.0864 143.14 55.5003 143.741 55.8107 144.242C56.1211 144.743 56.4315 145.243 57.0523 145.544C57.88 145.944 58.8112 145.844 59.6389 145.344C59.8459 145.143 60.1563 145.043 60.3632 144.843C60.4667 144.743 60.5701 144.643 60.5701 144.542C60.6736 144.442 60.7771 144.342 60.7771 144.242C60.7771 144.242 60.7771 144.242 60.7771 144.142C61.0875 143.942 61.3979 143.741 61.6048 143.441C61.9152 142.94 62.0187 142.339 61.9152 141.839Z" fill="white"/>
<path d="M82.5043 118.606C82.4008 118.506 82.2973 118.506 82.1939 118.406C81.0557 116.503 78.9864 115.502 76.9171 114.901C74.5374 114.3 71.9507 113.799 69.4675 114.1C67.0878 114.4 64.7081 115.101 62.7422 116.403C60.5695 117.705 59.3279 119.407 58.1897 121.51C58.0863 121.71 58.0863 121.81 57.9828 122.011C57.8793 122.111 57.7759 122.311 57.7759 122.511C56.9481 124.715 56.5343 127.318 56.7412 129.822C56.8447 131.825 57.362 133.827 58.1897 135.63C58.2932 135.83 58.3967 136.031 58.3967 136.031C58.3967 136.031 58.8105 136.932 59.3279 137.733C59.6383 138.234 62.3284 141.538 67.3982 143.04C69.1571 143.541 74.6408 144.843 80.3315 142.039C84.0563 140.236 86.9533 135.93 87.2637 132.025C87.6776 127.118 86.436 121.81 82.5043 118.606Z" fill="white"/>
<path d="M184.314 54.0147C185.763 53.3137 187.108 52.5126 187.211 50.8102C187.315 49.3081 186.384 48.0063 185.142 47.105C184.004 46.3039 182.452 46.2037 181.314 45.4026C180.279 44.7016 179.348 43.9005 178.21 43.7002C178.313 43.3998 178.417 43.0993 178.417 42.7989C178.624 40.7961 178.934 38.6931 179.141 36.6903C179.245 35.5887 178.106 34.6875 177.072 34.6875C176.658 34.6875 176.037 34.1868 175.52 34.0866C174.899 33.9865 174.278 33.8863 173.554 33.8863C172.416 33.7862 171.174 33.7862 170.036 33.8863C167.967 33.9865 166.208 32.9851 164.449 33.9865C164.035 34.0866 162.793 34.4872 162.483 34.7876C160.31 35.6889 158.965 38.0923 157.103 39.4942C154.723 41.2968 152.55 44.1007 151.412 46.8046C150.791 48.2065 150.895 49.6085 150.377 51.0105C150.171 51.7115 149.757 52.3123 149.653 53.1135C149.446 53.9146 149.55 54.7157 149.446 55.5169C149.343 56.8187 148.205 57.9202 147.48 58.9217C147.377 59.0218 146.653 60.0232 146.239 60.5239C146.032 60.5239 145.825 60.5239 145.722 60.4238C145.308 60.4238 144.894 60.3236 144.376 60.3236C143.238 60.2235 142.307 61.3251 142.307 62.3265C142.307 63.0275 142.618 63.5282 143.135 63.9287C142.928 64.4294 142.928 64.9301 143.238 65.4308C144.48 67.8342 145.722 70.1375 147.998 71.7397C149.136 72.5409 150.584 72.9414 151.826 73.7426C153.171 74.5437 154.62 75.1446 156.068 74.4436C156.689 74.1431 157.206 73.7426 157.517 73.0416C157.517 73.0416 157.62 72.8413 157.62 72.7412C157.931 72.9414 158.655 73.0416 158.862 73.1417C159.689 73.5423 160.517 73.9429 161.345 74.2433C164.345 75.445 167.242 74.8441 169.933 73.2419C171.071 72.5409 172.209 71.8399 173.14 70.9386C174.175 69.9372 174.796 68.8356 175.52 67.634C175.727 67.2334 175.623 67.2334 175.934 67.2334C176.451 67.1332 177.382 67.6339 177.899 67.7341C179.451 68.0345 181.107 67.5338 182.555 66.8328C185.452 65.4308 185.453 62.1262 183.901 59.7228C183.28 58.7214 182.038 57.72 182.452 56.5183C182.866 55.617 183.487 54.4153 184.314 54.0147Z" fill="white"/>
<path d="M46.6003 141.739C45.876 139.435 44.531 137.332 42.772 135.63C43.0824 133.627 43.0824 131.724 42.1512 129.822C41.1166 127.719 38.9438 126.617 36.6675 126.116C32.115 125.115 25.9071 125.115 24.2516 130.423C24.0447 131.224 24.2516 131.925 24.7689 132.325C24.4585 132.826 23.9412 133.227 23.6308 133.627C22.6996 134.628 21.8719 135.63 21.1476 136.731C19.6991 138.935 18.7679 141.538 18.2506 144.142C17.6298 146.946 17.3194 149.95 17.2159 152.854C17.1124 155.558 18.2506 158.362 21.1476 159.163C22.3892 159.464 23.7343 159.464 24.9759 159.363C26.5279 159.363 28.1833 159.163 29.6318 158.763C30.77 158.362 31.9081 157.761 32.9428 157.16C34.0809 156.559 35.0121 156.359 36.3571 156.259C38.9438 156.059 40.4958 154.957 41.8408 152.854C42.2547 152.153 42.6686 151.252 43.2894 150.851C44.1171 150.351 45.1518 150.351 45.876 149.55C47.9453 147.847 47.2211 143.942 46.6003 141.739Z" fill="white"/>
<path d="M34.0826 115.101C44.7111 115.101 53.3273 105.148 53.3273 92.8695C53.3273 80.5915 44.7111 70.6382 34.0826 70.6382C23.454 70.6382 14.8379 80.5915 14.8379 92.8695C14.8379 105.148 23.454 115.101 34.0826 115.101Z" fill="#C1C1C1" stroke="black" stroke-width="2.39159" stroke-miterlimit="10"/>
<path d="M36.9771 66.0316C45.9786 46.0033 63.154 32.284 81.8813 31.1824C97.2978 30.2812 108.886 38.1923 110.645 39.4942C124.923 49.5083 129.062 64.5295 129.993 68.435" stroke="black" stroke-width="2.1577" stroke-miterlimit="10" stroke-linecap="round"/>
<path d="M31.8071 118.005C31.8071 117.705 31.8071 118.205 31.8071 118.205C31.8071 118.305 31.8071 118.406 31.7037 118.506C31.6002 118.806 31.6002 119.006 31.4967 119.307C31.3933 119.807 31.1863 120.408 31.0829 120.909C30.7725 122.011 30.5655 123.212 30.669 124.314C30.7725 124.915 31.1863 125.616 31.9106 125.516C32.5314 125.516 33.2557 124.915 33.1522 124.314C33.1522 124.013 33.1522 123.813 33.1522 123.513C33.1522 123.312 33.1522 123.212 33.1522 123.012C33.1522 122.712 33.1522 123.212 33.1522 122.912C33.2557 122.311 33.3591 121.81 33.5661 121.31C33.8765 120.208 34.1869 119.006 34.3938 117.905C34.4973 117.204 33.773 116.603 33.1522 116.703C32.3245 116.803 31.9106 117.304 31.8071 118.005Z" fill="black"/>
<path d="M138.273 72.14C138.894 71.8396 139.411 71.5392 140.032 71.2387C140.032 71.2387 140.446 71.0385 140.239 71.1386C140.446 71.0385 140.549 71.0385 140.756 70.9383C141.067 70.8382 141.377 70.738 141.584 70.6379C142.826 70.2373 144.067 69.9369 145.309 69.7366C145.93 69.6365 146.447 68.8353 146.24 68.2345C146.033 67.5335 145.412 67.2331 144.688 67.3332C141.998 67.7338 139.411 68.6351 137.032 69.9369C136.411 70.2373 136.204 71.1386 136.618 71.6393C136.825 72.3403 137.652 72.5406 138.273 72.14Z" fill="black"/>
<path d="M163.725 85.7593C163.725 82.2543 163.622 78.8495 163.622 75.3446C163.622 73.6422 163.518 71.8397 163.518 70.1373C163.518 68.7353 163.518 67.3333 164.346 66.1316C165.277 64.8298 163.001 63.5279 162.07 64.8298C161.139 66.1316 160.932 67.6337 160.932 69.1358C160.932 70.9384 160.932 72.7409 161.035 74.5435C161.139 78.2487 161.139 82.0541 161.242 85.7593C161.139 87.3616 163.725 87.3616 163.725 85.7593Z" fill="black"/>
<path d="M173.968 132.325C188.082 132.325 199.524 121.52 199.524 108.191C199.524 94.8623 188.082 84.0571 173.968 84.0571C159.854 84.0571 148.412 94.8623 148.412 108.191C148.412 121.52 159.854 132.325 173.968 132.325Z" stroke="black" stroke-width="2.39159" stroke-miterlimit="10" stroke-linecap="round"/>
<path d="M103.61 51.2107C106.196 50.8101 108.266 48.9074 110.128 47.3051C112.094 45.6027 113.853 43.5999 115.301 41.4969C118.302 37.291 120.371 32.3841 121.199 27.377C121.509 25.7748 118.923 25.0738 118.716 26.676C117.888 31.2825 116.129 35.6888 113.542 39.5943C112.197 41.4969 110.749 43.2995 108.99 44.9018C107.335 46.504 105.265 48.4067 102.885 48.8073C101.333 49.1077 101.954 51.5111 103.61 51.2107Z" fill="black"/>
<path d="M122.544 10.5535C119.544 16.2615 108.059 23.0711 119.13 28.0782C128.959 29.6805 125.648 13.9583 122.544 10.5535Z" fill="black"/>
<path d="M47.0141 143.541L45.1517 142.139L40.0819 143.942C40.0819 143.942 37.9091 149.349 36.4606 150.15C35.0121 150.952 31.3908 150.251 31.3908 150.251C31.3908 150.251 30.3561 152.253 27.5625 152.654C24.7689 153.055 23.2169 150.952 23.2169 150.952C23.2169 150.952 22.8031 153.555 20.2164 153.555C18.7679 153.555 17.8367 152.053 17.3194 150.851C17.3194 151.552 17.2159 152.354 17.2159 153.055C17.1124 155.758 18.2506 158.562 21.1476 159.363C22.3892 159.664 23.7343 159.664 24.9759 159.564C26.5279 159.564 28.1833 159.363 29.6318 158.963C30.77 158.562 31.9081 157.961 32.9427 157.361C34.0809 156.76 35.0121 156.56 36.3571 156.459C38.9438 156.259 40.4958 155.158 41.8408 153.055C42.2547 152.354 42.6686 151.452 43.2894 151.052C44.1171 150.551 45.1517 150.551 45.876 149.75C47.5315 148.248 47.428 145.644 47.0141 143.541Z" fill="#C1C1C1"/>
<path d="M181.417 57.119C175.623 58.6212 168.691 55.1162 168.691 55.1162L166.415 55.5168C166.415 55.5168 166.828 58.1205 166.932 59.6226C167.035 61.1247 164.759 63.3278 164.759 63.3278H160.103C160.103 63.3278 158.241 67.1332 152.757 67.8342C149.963 68.1346 148.205 69.6367 147.066 71.0387C147.377 71.3391 147.687 71.6395 148.101 71.9399C149.239 72.7411 150.688 73.1416 151.929 73.9428C153.274 74.7439 154.723 75.3448 156.171 74.6438C156.792 74.3433 157.31 73.9428 157.62 73.2418C157.62 73.2418 157.723 73.0415 157.723 72.9414C158.034 73.1416 158.758 73.2418 158.965 73.3419C159.793 73.7425 160.62 74.1431 161.448 74.4435C164.449 75.6452 167.346 75.0443 170.036 73.4421C171.174 72.7411 172.312 72.0401 173.243 71.1388C174.278 70.1374 174.899 69.0359 175.623 67.8342C175.83 67.4336 175.727 67.4336 176.037 67.4336C176.554 67.3334 177.485 67.8342 178.003 67.9343C179.555 68.2347 181.21 67.734 182.659 67.033C185.556 65.631 185.556 62.3264 184.004 59.923C183.383 59.0217 182.245 58.0203 182.555 56.8186C182.141 56.9188 181.728 57.0189 181.417 57.119Z" fill="#C1C1C1"/>
<path d="M159.171 50.0091C160.205 48.0063 161.551 45.9033 163.516 44.8017C164.034 44.5013 164.137 44.5013 164.551 44.301C164.758 44.2009 164.965 44.2009 165.172 44.1007C165.275 44.1007 165.379 44.1007 165.482 44.0006C165.793 43.9005 165.275 44.0006 165.586 44.0006C165.793 44.0006 166 44.0006 166.103 44.0006C166.206 44.0006 166.724 44.0006 166.62 44.0006C166.517 44.0006 166.931 44.1007 167.034 44.1007C167.241 44.1007 167.448 44.2009 167.552 44.301C167.552 44.301 167.965 44.4012 167.655 44.301C167.758 44.301 167.862 44.4012 167.862 44.4012C167.965 44.5013 168.172 44.6014 168.276 44.6014C168.379 44.7016 168.586 44.8017 168.69 44.9019C168.483 44.7016 168.897 45.002 168.69 44.9019C168.793 45.002 168.897 45.002 168.897 45.1022C169 45.2023 169.207 45.4026 169.31 45.5027C169.414 45.6029 169.414 45.6029 169.517 45.703C169.724 46.0034 169.931 46.3038 170.035 46.6043C170.138 46.9047 169.931 46.404 170.035 46.7044C170.035 46.8046 170.138 46.9047 170.138 46.9047C170.242 47.105 170.242 47.2051 170.242 47.4054C170.242 47.5055 170.242 47.6057 170.345 47.7058C170.345 47.5055 170.449 48.0063 170.345 47.7058C170.345 47.9061 170.345 48.1064 170.345 48.3067C170.345 48.9075 170.138 49.7087 169.931 50.2094C168.897 52.4125 166.724 53.8144 164.344 54.8159C163.413 55.2164 163.62 56.5183 164.344 57.019C164.758 57.3194 165.068 57.6198 165.379 58.0204C165.586 58.3208 165.689 58.6212 165.689 59.0218C165.689 59.3222 165.586 59.7228 165.482 59.9231C165.275 60.4238 165.068 60.6241 164.758 60.9245C163.516 62.2263 161.344 62.9273 159.688 62.2263C159.067 61.9259 158.343 62.026 157.929 62.6269C157.619 63.1276 157.722 64.0289 158.343 64.3293C161.24 65.531 164.655 64.7298 166.724 62.4266C167.655 61.4252 168.276 60.1233 168.172 58.7214C168.069 57.019 166.931 55.7171 165.586 54.8159C165.586 55.5169 165.586 56.2178 165.586 57.019C168.069 55.9174 170.552 54.3152 171.897 51.9118C172.828 50.2094 173.139 48.1064 172.518 46.3039C171.276 42.5986 167.034 40.5958 163.206 42.0979C160.205 43.2996 158.136 46.0034 156.791 48.7072C156.481 49.3081 156.584 50.1092 157.205 50.4096C157.929 50.7101 158.86 50.6099 159.171 50.0091Z" fill="black"/>
<path d="M172.518 45.6029C175.105 45.6029 177.795 44.9019 179.347 42.799C180.588 41.1967 181.002 38.9936 180.381 36.9908C178.933 31.7834 172.932 30.8822 168.172 31.483C156.998 32.885 148.514 43.7003 147.169 54.0148C146.445 59.823 148.307 65.7313 153.17 69.4366C154.411 70.438 156.274 68.6354 155.032 67.634C147.169 61.6255 148.928 50.9104 153.894 43.6001C156.481 39.7947 160.206 36.4901 164.551 34.7877C166.724 33.9865 168.897 33.586 171.276 33.6861C173.346 33.7863 175.312 33.9865 176.76 35.4887C177.898 36.7905 178.416 38.6932 177.691 40.2954C176.864 42.2983 174.484 42.8991 172.415 42.8991C170.863 43.0994 170.863 45.6029 172.518 45.6029Z" fill="black"/>
<path d="M178.417 44.902C179.865 45.3026 181.417 45.8033 182.762 46.5043C183.279 46.8047 183.9 47.1051 184.418 47.4056C184.521 47.5057 184.625 47.6058 184.831 47.706L184.935 47.8061C185.142 48.0064 185.349 48.1065 185.556 48.3068C185.659 48.407 185.866 48.6073 185.97 48.7074C185.97 48.7074 186.177 49.0078 186.073 48.8075C185.97 48.7074 186.177 48.9077 186.177 49.0078C186.28 49.108 186.383 49.3082 186.487 49.4084C186.487 49.4084 186.59 49.7088 186.59 49.5085C186.487 49.3082 186.59 49.6087 186.694 49.7088C186.694 49.8089 186.797 50.0092 186.797 50.1094C186.797 50.2095 186.797 50.3097 186.797 50.4098C186.797 50.5099 186.797 50.5099 186.797 50.6101C186.797 50.5099 186.797 50.8104 186.797 50.6101C186.797 50.8104 186.694 50.9105 186.694 51.1108C186.694 51.2109 186.59 51.2109 186.59 51.3111C186.487 51.4112 186.383 51.6115 186.383 51.7116C186.383 51.8118 186.28 51.8118 186.28 51.9119C186.073 52.2123 186.383 51.8118 186.28 51.9119C186.177 52.0121 186.073 52.2123 185.866 52.3125C185.763 52.4126 185.556 52.6129 185.452 52.713C185.349 52.8132 185.349 52.8132 185.245 52.9133C185.038 53.0135 185.452 52.8132 185.142 53.0135C184.728 53.3139 184.418 53.5142 184.004 53.7145C183.797 53.8146 183.59 53.9147 183.383 54.0149C183.279 54.0149 183.176 54.115 183.073 54.115C183.279 54.0149 182.969 54.115 182.866 54.2152C182.348 54.4154 181.934 54.5156 181.417 54.7159C180.9 54.816 180.382 55.0163 179.865 55.0163C179.762 55.0163 179.658 55.0163 179.451 55.1164C179.348 55.1164 179.037 55.2166 179.244 55.1164C178.934 55.1164 178.624 55.2166 178.313 55.2166C175.52 55.4169 172.933 55.0163 170.346 54.115C169.725 53.9147 168.898 54.4154 168.794 55.0163C168.587 55.7173 169.001 56.3181 169.725 56.5184C174.485 58.321 180.279 58.321 184.935 56.1178C186.694 55.2166 188.349 53.9147 189.074 52.2123C189.798 50.4098 189.177 48.5071 187.935 47.1051C185.866 44.6016 182.245 43.3999 179.141 42.4986C177.485 41.9979 176.761 44.4013 178.417 44.902Z" fill="black"/>
<path d="M148.305 58.7215C146.132 58.3209 143.235 58.0205 141.787 60.1234C140.649 61.7257 141.063 63.9288 141.787 65.7314C142.718 68.0346 144.167 70.0374 145.926 71.84C147.581 73.4422 149.547 74.4436 151.72 75.3449C154.72 76.5466 158.962 75.7455 158.859 71.9401C158.135 72.2405 157.41 72.541 156.686 72.8414C159.687 75.9458 165.481 77.548 169.723 75.8456C173.861 74.2434 176.655 69.8371 177.172 65.6312C176.448 65.9316 175.724 66.2321 175 66.5325C176.655 68.1347 178.828 69.737 181.207 69.5367C183.07 69.4366 184.622 68.1347 185.45 66.5325C187.519 62.4267 185.657 57.6199 182.139 55.0162C180.794 54.0148 179.552 56.2179 180.794 57.2193C183.277 59.0219 184.518 62.4267 183.277 65.2306C181.828 68.4352 178.621 66.5325 176.758 64.7299C175.931 63.9288 174.689 64.6298 174.586 65.6312C174.275 68.8357 171.896 72.3407 168.792 73.5424C167.24 74.1432 165.17 74.0431 163.515 73.6425C161.652 73.242 159.893 72.4408 158.548 71.0388C157.824 70.2377 156.272 70.8386 156.376 71.9401C156.479 74.7441 152.134 72.7412 150.892 72.1404C148.926 71.3393 147.271 69.5367 146.029 67.8343C144.994 66.3322 143.649 64.2292 143.753 62.3266C143.753 61.7257 143.96 61.4253 144.477 61.1249C145.408 60.7243 146.65 60.9246 147.684 61.1249C149.236 61.4253 149.961 59.0219 148.305 58.7215Z" fill="black"/>
<path d="M81.5747 67.2334C82.092 71.1389 82.5059 75.0444 82.8163 78.9499C82.9198 79.6509 83.3336 80.1516 84.0579 80.1516C84.6787 80.1516 85.403 79.5508 85.2995 78.9499C84.9891 75.0444 84.5752 71.1389 84.0579 67.2334C83.9544 66.5324 83.5406 66.0317 82.8163 66.0317C82.299 65.9316 81.5747 66.5324 81.5747 67.2334Z" fill="black"/>
<path d="M105.576 66.5325C106.403 69.9373 107.024 73.5423 107.231 77.0473C107.231 77.7483 107.748 78.249 108.473 78.249C109.094 78.249 109.818 77.6481 109.714 77.0473C109.507 73.2419 108.887 69.5367 107.955 65.8315C107.645 64.3293 105.162 65.0303 105.576 66.5325Z" fill="black"/>
<path d="M85.2969 84.0571H109.818" stroke="black" stroke-width="2.39159" stroke-miterlimit="10" stroke-linecap="round"/>
<path d="M87.159 132.225C87.2625 131.224 87.2625 130.222 87.159 129.121C84.4689 133.126 79.0886 138.734 69.7767 138.934C64.7068 139.035 61.3959 138.634 59.2231 138.133C59.8439 138.934 62.5341 141.939 67.19 143.241C68.949 143.741 74.4327 145.043 80.1233 142.239C83.8481 140.437 86.7451 136.13 87.159 132.225Z" fill="#C1C1C1"/>
<path d="M2.21244 155.358C2.21244 155.358 1.38472 156.459 3.97137 155.959C6.66149 155.458 15.3526 151.152 15.3526 151.152L15.5596 153.355L4.38523 157.861L1.28125 156.059L2.21244 155.358Z" fill="#C1C1C1"/>
<path d="M39.9791 140.236C39.9791 140.236 39.2549 141.338 41.4277 140.837C43.6005 140.337 50.8431 136.031 50.8431 136.031L51.05 138.234L41.8415 142.74L39.2549 140.937L39.9791 140.236Z" fill="#C1C1C1"/>
<path d="M15.4558 145.744C12.9726 146.746 10.5929 147.847 8.10967 148.849C6.86807 149.349 5.62648 149.85 4.48835 150.451C3.45369 150.851 2.41903 151.352 1.69477 152.253C0.246242 153.956 0.142775 157.26 2.10863 158.662C4.17795 160.165 6.86807 159.464 9.04086 158.562C11.6275 157.361 14.1107 156.159 16.8008 155.258C17.4216 155.057 17.9389 154.457 17.732 153.756C17.5251 153.155 16.8008 152.654 16.18 152.854C13.4899 153.756 11.0067 154.857 8.52353 156.159C7.48887 156.66 6.24728 157.26 5.00568 157.16C4.59182 157.16 3.97102 157.06 3.66062 156.76C3.24676 156.459 3.35023 155.859 3.35023 155.458C3.35023 154.957 3.45369 154.457 3.76409 154.056C4.07449 153.655 4.59182 153.455 5.00568 153.255C6.24728 152.654 7.59234 152.153 8.83393 151.653C11.524 150.451 14.2142 149.349 16.9043 148.148C17.5251 147.847 17.732 146.946 17.3182 146.445C16.8008 145.544 16.0766 145.544 15.4558 145.744Z" fill="black"/>
<path d="M40.7052 139.836C43.7057 138.234 46.8097 136.932 49.9137 135.53C50.5345 135.229 50.7414 134.328 50.3275 133.827C49.9137 133.226 49.1894 133.126 48.5686 133.427C45.4646 134.829 42.3607 136.131 39.3601 137.733C38.7393 138.033 38.5324 138.834 38.9463 139.435C39.3601 139.936 40.0844 140.136 40.7052 139.836Z" fill="black"/>
<path d="M41.9445 144.843C45.3589 143.541 48.4629 141.738 51.8773 140.537C52.4981 140.336 53.0154 139.735 52.8085 139.035C52.6015 138.434 51.8773 137.933 51.2565 138.133C47.8421 139.335 44.6346 141.137 41.3237 142.439C40.7029 142.74 40.1856 143.24 40.3925 143.941C40.496 144.542 41.3237 145.043 41.9445 144.843Z" fill="black"/>
<path d="M22.3865 144.843C21.1449 148.047 21.7657 151.953 23.1107 155.057C24.3523 157.761 26.8355 160.665 30.1464 160.465C32.3192 160.265 34.1816 158.863 35.5267 157.26C35.9405 156.76 36.044 155.959 35.5267 155.458C35.1128 155.057 34.1816 154.957 33.6643 155.458C33.3539 155.858 33.0435 156.159 32.7331 156.459C32.4227 156.76 32.1123 157.06 31.9053 157.16C31.5949 157.361 31.2845 157.561 30.9741 157.661C30.7672 157.761 31.2845 157.561 30.9741 157.661C30.8707 157.661 30.8707 157.661 30.7672 157.761C30.5603 157.861 30.4568 157.861 30.2499 157.861C30.1464 157.861 30.043 157.861 30.043 157.861C29.9395 157.861 29.7326 157.861 29.6291 157.861C29.5256 157.861 29.5256 157.861 29.4222 157.861C29.7326 157.861 29.5256 157.861 29.5256 157.861C29.3187 157.861 29.2152 157.761 29.0083 157.761C28.9048 157.761 28.491 157.561 28.8014 157.661C28.6979 157.561 28.5944 157.561 28.491 157.461C28.3875 157.361 28.284 157.361 28.0771 157.26C27.9736 157.26 27.9736 157.16 27.8702 157.16C27.6632 156.96 28.0771 157.26 27.7667 157.16C27.5598 156.96 27.3528 156.76 27.1459 156.559C27.0424 156.459 26.939 156.359 26.8355 156.159C26.8355 156.059 26.732 156.059 26.732 155.959C26.939 156.159 26.732 155.858 26.6286 155.858C26.2147 155.258 25.8008 154.657 25.4904 153.956C25.387 153.655 25.2835 153.555 25.18 153.155C25.0766 152.754 24.9731 152.454 24.8696 152.053C24.7662 151.652 24.6627 151.352 24.5592 150.951C24.4558 150.551 24.4558 150.351 24.4558 150.05C24.3523 149.249 24.3523 148.348 24.4558 147.547C24.4558 147.447 24.4558 147.346 24.4558 147.346C24.4558 147.647 24.4558 147.246 24.4558 147.246C24.4558 147.046 24.5592 146.846 24.5592 146.645C24.6627 146.245 24.7662 145.844 24.9731 145.444C25.18 144.843 24.6627 144.042 24.0419 143.942C23.3177 143.741 22.6969 144.242 22.3865 144.843Z" fill="black"/>
<path d="M30.0435 144.342C29.5261 147.146 29.7331 149.95 30.9747 152.654C31.8024 154.557 33.3544 156.459 35.3202 157.26C37.3896 158.162 39.6658 157.761 41.3213 156.259C42.3559 155.358 42.9767 154.056 43.4941 152.854C43.8045 152.053 44.1149 151.252 44.2183 150.451C44.4253 149.65 44.2183 148.648 43.9079 147.847C43.3906 146.045 42.3559 144.442 41.5282 142.74C40.9074 141.338 40.3901 139.736 41.1143 138.334C41.4247 137.733 41.3213 137.032 40.7005 136.631C40.1831 136.331 39.2519 136.431 38.9416 137.032C38.2173 138.534 38.1138 140.036 38.5277 141.638C38.9416 143.141 39.6658 144.542 40.3901 145.844C40.9074 146.946 41.7351 148.348 41.7351 149.55C41.7351 150.251 41.4247 151.052 41.1143 151.653C40.9074 152.153 40.7005 152.654 40.3901 153.155C40.2866 153.355 40.0797 153.555 39.9762 153.755C40.0797 153.555 39.8727 153.856 39.8727 153.956C39.7693 154.056 39.6658 154.156 39.5623 154.256C39.4589 154.356 39.3554 154.356 39.3554 154.456L39.252 154.557C39.1485 154.657 39.4589 154.456 39.252 154.557C39.045 154.657 38.9416 154.757 38.7346 154.857C38.7346 154.857 38.4242 155.057 38.5277 154.957C38.7346 154.857 38.4242 154.957 38.4242 154.957C38.2173 155.057 38.0104 155.057 37.9069 155.057C37.8034 155.057 37.7 155.057 37.5965 155.057C37.493 155.057 37.3896 155.057 37.2861 155.057C37.1826 155.057 37.3896 155.057 37.3896 155.057C37.2861 155.057 37.2861 155.057 37.1826 155.057C36.9757 155.057 36.8722 154.957 36.6653 154.957C36.3549 154.857 36.7688 155.057 36.5618 154.957C36.4584 154.957 36.3549 154.857 36.2514 154.857C36.0445 154.757 35.941 154.657 35.7341 154.557C35.6306 154.456 35.4237 154.356 35.6306 154.456C35.5272 154.356 35.4237 154.356 35.3202 154.256C35.0098 153.956 34.596 153.655 34.389 153.255C34.389 153.155 34.2856 153.155 34.2856 153.055C34.1821 152.954 34.1821 152.854 34.0786 152.754C33.9752 152.554 33.7682 152.253 33.6648 152.053C33.1474 151.152 32.7336 150.05 32.5267 148.748C32.5267 148.448 32.4232 148.348 32.4232 147.947C32.4232 147.547 32.4232 147.246 32.4232 146.846C32.4232 146.145 32.5267 145.444 32.6301 144.843C32.7336 144.142 32.4232 143.541 31.6989 143.341C30.9747 143.241 30.1469 143.641 30.0435 144.342Z" fill="black"/>
<path d="M45.5654 141.839C45.7723 142.439 45.9793 143.14 46.0827 143.741C46.1862 144.042 46.2897 144.442 46.2897 144.843C46.2897 144.943 46.2897 145.243 46.3931 145.344C46.3931 145.344 46.3931 145.043 46.3931 145.243V145.344C46.3931 145.444 46.3931 145.544 46.3931 145.644C46.3931 145.944 46.3931 146.345 46.3931 146.645C46.3931 146.745 46.2897 147.046 46.3931 147.146C46.3931 147.046 46.4966 146.846 46.3931 147.146C46.3931 147.246 46.3931 147.346 46.2897 147.346C46.2897 147.446 46.0827 147.647 46.1862 147.747C46.1862 147.647 46.2897 147.446 46.1862 147.647C46.1862 147.747 46.0827 147.747 46.0827 147.847C46.0827 147.947 45.9793 147.947 45.9793 148.047C45.8758 148.147 46.0827 147.947 46.0827 147.947L45.9793 148.047L45.8758 148.147C45.8758 148.147 45.7723 148.147 45.7723 148.248C45.6689 148.348 45.9793 148.147 45.8758 148.147C45.7723 148.147 45.7723 148.248 45.6689 148.248H45.5654C45.3585 148.348 45.6689 148.248 45.6689 148.248C45.6689 148.348 45.1515 148.348 45.1515 148.448H45.0481C44.8411 148.448 45.255 148.448 45.1515 148.448C45.0481 148.448 44.9446 148.448 44.8411 148.448C44.5307 148.448 44.2203 148.448 44.0134 148.448C43.2892 148.348 42.6684 149.049 42.7718 149.65C42.7718 150.351 43.3926 150.851 44.0134 150.851C45.8758 151.052 47.8417 150.451 48.6694 148.648C49.3937 147.046 49.1867 145.243 48.7729 143.541C48.5659 142.74 48.359 141.939 48.1521 141.037C47.9451 140.437 47.2209 139.936 46.6001 140.136C45.7723 140.437 45.3585 141.138 45.5654 141.839Z" fill="black"/>
<path d="M24.3535 133.126C24.7673 129.221 29.0095 127.218 32.6308 126.918C35.8382 126.617 40.5977 127.418 41.6323 130.923C42.1497 132.525 41.7358 134.628 41.7358 136.231C42.5635 136.131 43.3912 136.03 44.3224 135.93C43.3912 131.224 38.011 129.321 33.562 129.021C31.1822 128.82 28.5956 129.121 26.3193 130.022C24.25 130.823 23.0084 132.025 21.5599 133.527C18.7663 136.431 17.2143 140.437 16.3866 144.142C15.4554 147.947 14.9381 152.454 16.3866 156.259C17.1109 158.062 18.1455 159.664 20.0079 160.565C22.1807 161.667 24.5604 161.566 26.8367 160.966C28.4921 160.565 27.7679 158.162 26.1124 158.562C23.1119 159.363 20.2148 158.763 18.9732 155.858C17.6282 152.854 18.042 149.149 18.6628 146.045C19.3871 142.64 20.5252 139.135 22.5946 136.331C23.4223 135.229 24.4569 133.927 25.5951 133.226C27.2505 132.125 29.2164 131.724 31.1822 131.524C35.0105 131.224 40.9081 132.225 41.8393 136.631C42.1497 138.033 44.3224 137.633 44.4259 136.331C44.4259 134.428 44.7363 132.325 44.3224 130.523C43.8051 128.42 42.1497 126.717 40.1838 125.816C35.9417 123.713 30.0441 124.114 26.0089 126.717C23.6292 128.32 22.1807 130.523 21.8703 133.327C21.5599 134.729 24.1465 134.729 24.3535 133.126Z" fill="black"/>
<path d="M187.004 106.389C186.487 103.184 184.417 100.48 182.038 98.0769C179.244 95.373 175.519 94.3716 171.588 94.2715C170.036 94.2715 169.104 95.0726 168.794 96.1742C168.484 96.2743 168.173 96.4746 167.863 96.775C167.863 96.775 167.863 96.775 167.759 96.8752C167.242 96.9753 166.621 97.1756 166.104 97.5762C165.069 98.3773 164.241 99.3787 163.517 100.38C162.896 100.681 162.379 101.281 162.069 102.183C161.758 102.984 161.551 103.685 161.448 104.486C161.137 104.786 160.827 105.287 160.724 105.788C160.517 106.489 160.413 107.19 160.206 107.891C159.999 108.992 160.206 109.793 160.724 110.394C161.448 114.4 163.724 118.706 167.345 120.208C172.001 122.211 178.934 122.011 182.555 118.205C185.866 114.901 188.556 110.695 187.004 106.389Z" fill="white"/>
<path d="M51.8769 137.733C51.8769 137.733 56.2225 138.734 56.5329 136.331C56.9467 133.928 59.223 138.734 59.223 138.734L62.4304 142.239L59.6369 146.345L55.4982 145.143L55.0844 140.637L51.7734 138.734V137.733H51.8769Z" fill="#C1C1C1"/>
<path d="M55.604 126.216C52.6035 125.716 48.7753 125.716 47.3267 128.92C46.8094 130.022 46.9129 131.424 47.6371 132.525C47.9475 133.026 48.4649 133.527 49.0857 133.727C49.3961 133.827 49.8099 134.128 50.1203 134.128C49.9134 134.128 50.4307 133.527 50.1203 133.927C49.9134 134.128 49.9134 134.428 49.8099 134.728C49.4995 136.13 49.8099 137.833 50.4307 139.135C50.9481 140.436 51.9827 141.238 53.4312 141.338C53.5347 141.338 53.8451 141.338 53.9486 141.338H54.052C54.259 141.338 54.259 141.338 53.9486 141.238C53.8451 141.238 53.8451 141.137 53.7417 141.137C53.7417 141.338 53.7417 141.438 53.7417 141.638C53.7417 141.838 53.7417 141.939 53.7417 142.139C53.7417 143.04 53.8451 143.841 54.052 144.743C54.3624 146.044 55.1902 147.246 56.4318 147.847C59.7427 149.449 63.1571 145.744 63.9848 143.04C64.5021 141.538 61.9155 140.837 61.5016 142.339C61.0877 143.541 60.3635 144.743 59.1219 145.343C57.5699 146.145 56.6387 145.043 56.4318 143.541C56.2248 142.339 56.6387 140.637 55.811 139.535C55.3971 139.035 54.7763 138.834 54.1555 138.834C53.5347 138.834 53.2243 139.034 52.9139 138.434C52.6035 137.833 52.5001 137.032 52.3966 136.431C52.2931 135.63 52.5001 135.129 52.707 134.428C53.1209 132.926 51.8793 132.025 50.6377 131.624C49.4995 131.223 49.4995 129.922 50.4307 129.221C51.6723 128.219 53.5347 128.42 55.0867 128.72C56.5352 128.92 57.2595 126.517 55.604 126.216Z" fill="black"/>
<path d="M71.7425 144.543C80.4282 144.543 87.4693 137.728 87.4693 129.321C87.4693 120.914 80.4282 114.1 71.7425 114.1C63.0568 114.1 56.0156 120.914 56.0156 129.321C56.0156 137.728 63.0568 144.543 71.7425 144.543Z" stroke="black" stroke-width="2.39159" stroke-miterlimit="10"/>
<path d="M47.0146 89.5647C46.9111 82.0541 40.9101 76.0457 34.8056 72.5407C34.0813 72.1401 33.2536 72.04 32.6328 72.2403C32.4258 72.1401 32.1154 72.1401 31.805 72.1401C18.3544 72.5407 12.2499 87.662 15.3539 98.6776C16.9059 104.386 20.3203 109.893 26.3213 111.896C28.8045 112.697 31.9085 113.298 34.5986 112.497C35.7368 112.197 36.6679 111.596 37.3922 110.895C38.6338 111.295 40.0823 110.995 41.0135 109.693C43.6002 105.888 45.4626 103.685 46.1868 98.978C46.6007 96.4745 46.6007 93.9709 46.3938 91.4674C46.8076 90.8666 47.0146 90.2657 47.0146 89.5647Z" fill="white"/>
<path d="M31.0801 113.198C40.1086 113.198 47.4277 104.052 47.4277 92.7694C47.4277 81.4869 40.1086 72.3406 31.0801 72.3406C22.0515 72.3406 14.7324 81.4869 14.7324 92.7694C14.7324 104.052 22.0515 113.198 31.0801 113.198Z" stroke="black" stroke-width="2.39159" stroke-miterlimit="10"/>
<path d="M173.968 121.911C181.796 121.911 188.143 115.768 188.143 108.191C188.143 100.614 181.796 94.4719 173.968 94.4719C166.139 94.4719 159.793 100.614 159.793 108.191C159.793 115.768 166.139 121.911 173.968 121.911Z" stroke="black" stroke-width="2.39159" stroke-miterlimit="10" stroke-linecap="round"/>
<path d="M172.621 50.6098C173.552 50.5097 175.104 53.2135 175.518 53.8144C176.345 55.0161 177.07 56.3179 177.69 57.6197C179.035 60.4237 180.07 63.3278 180.898 66.332C182.657 72.8412 183.278 79.4505 183.898 86.16C184.002 87.6621 186.485 87.6621 186.382 86.16C185.657 78.6494 184.933 71.0387 182.76 63.8285C181.726 60.624 180.484 57.4194 178.725 54.4152C177.897 53.0132 176.966 51.7114 175.931 50.4096C174.897 49.1077 173.759 48.1063 172 48.3066C170.344 48.5069 171.069 50.8101 172.621 50.6098Z" fill="black"/>
</g>
<defs>
<filter id="filter0_f_614_7083" x="16.6943" y="147.311" width="177.537" height="28.8577" filterUnits="userSpaceOnUse" color-interpolation-filters="sRGB">
<feFlood flood-opacity="0" result="BackgroundImageFix"/>
<feBlend mode="normal" in="SourceGraphic" in2="BackgroundImageFix" result="shape"/>
<feGaussianBlur stdDeviation="1.5" result="effect1_foregroundBlur_614_7083"/>
</filter>
<clipPath id="clip0_614_7083">
<rect width="200" height="195" fill="white" transform="translate(0.5 -0.000244141)"/>
</clipPath>
</defs>
</svg>
