<svg width="25" height="25" viewBox="0 0 25 25" fill="none" xmlns="http://www.w3.org/2000/svg">
<g clip-path="url(#clip0_1060_11277)">
<path d="M20.5729 22.3958H15.8854C15.1661 22.3958 14.5833 21.8129 14.5833 21.0937V16.4062C14.5833 15.8306 14.1172 15.3645 13.5417 15.3645H11.4583C10.8828 15.3645 10.4167 15.8306 10.4167 16.4062V21.0937C10.4167 21.8129 9.83385 22.3958 9.11458 22.3958H4.42708C3.70781 22.3958 3.125 21.8129 3.125 21.0937V11.1525C3.125 9.95513 3.67396 8.82388 4.61406 8.08325L12.0161 2.25044C12.3 2.02752 12.7 2.02752 12.9833 2.25044L20.3865 8.08325C21.3266 8.82388 21.875 9.95461 21.875 11.1515V21.0937C21.875 21.8129 21.2922 22.3958 20.5729 22.3958Z" fill="#8C8F98"/>
</g>
<defs>
<clipPath id="clip0_1060_11277">
<rect width="25" height="25" fill="white"/>
</clipPath>
</defs>
</svg>