<svg width="26" height="25" viewBox="0 0 26 25" fill="none" xmlns="http://www.w3.org/2000/svg">
<g clip-path="url(#clip0_1060_11912)">
<path d="M17.77 6.57658C17.77 8.95463 14.5862 13.1924 13.1882 14.9389C12.8528 15.3571 12.23 15.3571 11.899 14.9389C10.5009 13.1924 7.31707 8.95463 7.31707 6.57658C7.31707 3.68895 9.65592 1.3501 12.5436 1.3501C15.4312 1.3501 17.77 3.68895 17.77 6.57658ZM18.1185 10.0783C18.2709 9.7778 18.4103 9.47727 18.5366 9.18111C18.5584 9.12884 18.5801 9.07222 18.6019 9.01996L23.6542 6.99905C24.3423 6.72466 25.0871 7.22989 25.0871 7.97031V19.7647C25.0871 20.1916 24.8258 20.5748 24.4294 20.736L18.1185 23.2578V10.0783ZM5.99303 7.37362C6.09756 7.98773 6.30662 8.60619 6.55052 9.18111C6.67683 9.47727 6.8162 9.7778 6.96864 10.0783V21.0278L1.43293 23.2447C0.744774 23.5191 0 23.0139 0 22.2734V10.479C0 10.0522 0.261324 9.66891 0.657666 9.50776L5.99739 7.37362H5.99303ZM14.277 15.81C14.8824 15.0522 15.8319 13.8196 16.7247 12.4564V23.3144L8.36237 20.9233V12.4564C9.25523 13.8196 10.2047 15.0522 10.8101 15.81C11.703 16.925 13.3841 16.925 14.277 15.81ZM12.5436 7.97031C13.0056 7.97031 13.4487 7.78676 13.7754 7.46004C14.1022 7.13332 14.2857 6.6902 14.2857 6.22815C14.2857 5.7661 14.1022 5.32297 13.7754 4.99625C13.4487 4.66953 13.0056 4.48599 12.5436 4.48599C12.0815 4.48599 11.6384 4.66953 11.3117 4.99625C10.9849 5.32297 10.8014 5.7661 10.8014 6.22815C10.8014 6.6902 10.9849 7.13332 11.3117 7.46004C11.6384 7.78676 12.0815 7.97031 12.5436 7.97031Z" fill="#8C8F98"/>
</g>
<defs>
<clipPath id="clip0_1060_11912">
<rect width="25.0871" height="25" fill="white"/>
</clipPath>
</defs>
</svg>
