<svg width="25" height="25" viewBox="0 0 25 25" fill="none" xmlns="http://www.w3.org/2000/svg">
<path d="M4.42706 4.16675C3.13488 4.16675 2.08331 5.21831 2.08331 6.5105V18.4897C2.08331 18.7069 2.12219 18.9127 2.17792 19.1122C2.19927 19.0331 2.22098 18.9538 2.25014 18.8762L2.88491 17.1876L3.44541 15.6943L4.86245 11.9223C5.31766 10.7098 6.49327 9.89591 7.78807 9.89591H21.875V9.11466C21.875 7.82248 20.8234 6.77091 19.5312 6.77091H12.5224L10.1939 4.83C9.68033 4.40187 9.02901 4.16675 8.36078 4.16675H4.42706ZM7.78807 11.4584C7.13702 11.4584 6.5539 11.8622 6.32526 12.4716L3.71397 19.4255C3.45772 20.1063 3.96089 20.8334 4.6885 20.8334H19.8161C20.4671 20.8334 21.0502 20.4296 21.2789 19.8202L23.8881 12.8724C24.1491 12.1906 23.6458 11.4584 22.9156 11.4584H7.78807Z" fill="#8C8F98"/>
</svg>
