<svg width="25" height="25" viewBox="0 0 25 25" fill="none" xmlns="http://www.w3.org/2000/svg">
<path d="M6.51041 2.08325C5.21822 2.08325 4.16666 3.13481 4.16666 4.427V20.5728C4.16666 21.865 5.21822 22.9166 6.51041 22.9166H18.4896C19.7818 22.9166 20.8333 21.865 20.8333 20.5728V10.4166H14.8437C13.5516 10.4166 12.5 9.36502 12.5 8.07284V2.08325H6.51041ZM14.0625 2.54102V8.07284C14.0625 8.50356 14.413 8.85409 14.8437 8.85409H20.3756L14.0625 2.54102ZM9.11457 13.0208H15.8854C16.3167 13.0208 16.6667 13.3708 16.6667 13.802C16.6667 14.2333 16.3167 14.5833 15.8854 14.5833H9.11457C8.68332 14.5833 8.33332 14.2333 8.33332 13.802C8.33332 13.3708 8.68332 13.0208 9.11457 13.0208ZM9.10949 16.6666H13.795C14.2262 16.6666 14.5762 17.0161 14.5762 17.4478C14.5767 17.8431 14.283 18.1704 13.9018 18.222L13.796 18.2291H9.1105C8.67925 18.2291 8.32925 17.8791 8.32925 17.4478C8.32925 17.0525 8.62244 16.7253 9.00369 16.6737L9.10949 16.6666Z" fill="#8C8F98"/>
</svg>
